<svg width="66" height="101" viewBox="0 0 66 101" fill="none" xmlns="http://www.w3.org/2000/svg">
<path d="M41.2351 100.129C33.3114 100.129 31.0721 97.7173 32.2779 94.6167C32.4502 94.2722 32.6224 93.9277 32.9669 93.4109C33.6559 92.0329 34.1727 90.6549 34.6895 89.2768C39.6848 75.3243 20.7369 78.5972 14.0191 77.2191C10.574 76.5301 7.30121 72.0515 4.88966 67.4007C2.47812 62.9221 0.927841 58.2713 0.583335 56.2043C0.238829 54.8262 1.61685 52.5869 3.51164 50.3477C6.61219 46.3858 11.263 42.0795 12.4688 40.5292C12.6411 40.357 12.8133 40.0125 12.8133 40.0125C12.8133 37.9454 9.885 30.5385 6.9567 28.9883C4.20065 27.6102 -0.622436 14.0022 0.066576 6.93987C0.238829 5.90635 0.411082 4.87284 0.755588 4.18382C3.85614 -1.32828 12.8133 -0.122504 14.3636 1.77228C15.7416 3.66706 14.8803 15.897 21.5982 23.6484C21.5982 23.6484 25.56 32.4333 27.4548 33.2946C29.3496 34.1559 37.101 32.7778 41.0628 35.5339C42.9576 36.9119 46.0582 35.8784 49.1587 35.7061C51.0535 35.7061 53.1205 36.7397 54.8431 37.6009C55.8766 38.1177 56.9101 38.6344 57.7714 38.8067C59.3216 38.9789 60.1829 42.5963 60.5274 47.7639V47.9361C60.5274 49.4864 60.6997 51.0367 60.6997 52.7592V52.9314C60.6997 61.5441 59.8384 71.5348 58.9771 76.0134C58.9771 76.5301 58.8049 76.8746 58.9771 77.3914C59.1494 79.4584 60.3552 82.0422 62.0777 84.626C62.7667 85.6595 63.628 86.8653 64.4892 87.8988C69.4846 94.2722 50.02 100.129 41.2351 100.129Z" fill="url(#paint0_linear_438_27354)"/>
<path opacity="0.5" d="M3.85609 3.66755C1.44454 5.56233 4.5451 16.4143 7.99016 17.7923C11.4352 19.1703 15.0525 17.2755 15.5693 14.0027C16.0861 10.7299 14.708 3.15079 13.6745 2.28952C12.4687 1.60051 6.78439 1.60051 3.85609 3.66755Z" fill="#FF9274"/>
<path d="M4.20038 12.4517C4.20038 12.4517 5.2339 15.7245 7.64544 17.447C10.057 19.1696 14.5356 18.8251 15.5691 17.447C17.4639 14.8632 15.5691 10.2124 15.5691 10.2124C15.5691 10.2124 16.2581 14.1742 14.5356 15.8968C12.813 17.6193 7.47319 18.9973 4.20038 12.4517Z" fill="#FFD636"/>
<path opacity="0.3" d="M13.6743 52.5868C13.6743 52.5868 11.2628 51.8978 11.435 51.3811C11.6073 50.8643 10.057 44.3187 3.33911 50.003C6.95643 45.5245 12.4685 40.5291 12.6408 39.4956C13.6743 45.3522 13.6743 52.5868 13.6743 52.5868Z" fill="#D60066"/>
<path opacity="0.2" d="M22.1147 24.5099C18.1529 18.4811 11.435 22.0984 12.2963 28.644C13.1576 35.1896 17.8084 36.9122 23.3205 35.7064C28.6603 34.6729 23.665 26.9215 22.1147 24.5099Z" fill="#EA4C74"/>
<path opacity="0.8" d="M34.6898 89.277C39.6851 75.3245 20.7373 78.5973 14.0194 77.2193C10.5744 76.5303 7.30156 72.0517 4.89001 67.4009C8.33508 72.913 11.6079 77.9083 30.5557 77.3916C48.47 77.0471 34.8621 91.3441 32.795 93.5834C33.484 92.0331 34.173 90.655 34.6898 89.277Z" fill="#D42F55"/>
<path d="M41.2354 100.13C33.3117 100.13 31.0724 97.718 32.2782 94.6175C32.4505 94.273 32.6227 93.9285 32.9672 93.4117C43.6469 77.0477 59.1497 81.0095 64.3173 87.5551C69.4849 94.273 50.0203 100.13 41.2354 100.13Z" fill="#D84C04"/>
<path opacity="0.2" d="M59.6664 52.5871V52.7593C59.6664 61.372 58.8051 71.3627 57.9438 75.8412C57.9438 76.358 57.7716 76.7025 57.9438 77.2193C55.36 78.5973 59.3218 75.3245 44.1636 76.5303C29.0053 77.736 20.2204 43.2854 20.2204 43.2854C21.9429 39.3236 23.8377 35.8785 29.8666 36.912C31.4168 37.2566 35.8954 38.2901 42.2688 38.2901C48.6422 38.2901 51.226 38.4623 54.4988 40.1849C57.7716 41.9074 59.6664 45.697 59.6664 47.4195C59.6664 47.9362 59.6664 50.0033 59.6664 52.5871Z" fill="#EF7A98"/>
<path d="M27.627 33.1216C27.627 33.1216 32.1055 35.1886 36.0674 36.0499C40.2014 37.0834 43.991 36.2221 42.9575 36.0499C41.924 35.8776 38.8234 33.9828 36.0674 33.8106C33.1391 33.6383 27.627 33.1216 27.627 33.1216Z" fill="url(#paint1_linear_438_27354)"/>
<path d="M45.1971 36.0508C44.1636 36.0508 51.5705 36.3953 53.293 36.9121C54.8433 37.4288 52.0873 35.5341 50.1925 35.3618C48.2977 35.0173 45.1971 36.0508 45.1971 36.0508Z" fill="url(#paint2_linear_438_27354)"/>
<path d="M56.9098 38.4624C55.8763 38.4624 58.2878 39.4959 58.9768 40.7017C59.8381 41.9075 59.1491 39.3237 58.4601 38.9792C57.771 38.6347 56.9098 38.4624 56.9098 38.4624Z" fill="url(#paint3_linear_438_27354)"/>
<path d="M0.410909 5.73431C0.0664032 7.80134 2.82245 3.15051 6.61202 1.42798C10.4016 -0.1223 13.8467 1.25573 13.8467 1.25573C13.8467 1.25573 12.4686 -0.294553 7.30103 0.0499534C2.30569 0.566713 0.583163 4.52853 0.410909 5.73431Z" fill="url(#paint4_linear_438_27354)"/>
<path d="M7.99007 16.5859C5.57853 15.8969 12.8132 10.9015 14.7079 13.6576C16.6027 16.4136 12.4687 17.9639 7.99007 16.5859Z" fill="white"/>
<path d="M3.33899 5.38998C3.33899 5.38998 6.43954 3.15069 9.36784 2.63393C12.2961 2.11717 14.3632 3.8397 14.3632 3.8397C14.3632 3.8397 14.1909 2.28942 13.6742 1.94492C12.1239 0.911398 4.88926 2.46168 3.85574 3.15069C2.99448 4.01195 3.33899 5.38998 3.33899 5.38998Z" fill="#FFE7DB"/>
<path opacity="0.5" d="M3.33942 4.35693C3.33942 4.35693 2.6504 11.2471 7.12898 14.8644C11.4353 18.3094 15.2249 15.7256 15.5694 14.0031C15.9139 12.1083 15.2249 7.11298 15.2249 7.11298C15.2249 7.11298 16.4307 12.9696 15.5694 15.0366C14.7081 17.1037 10.4018 18.6539 7.47349 16.9314C4.54519 15.2089 2.3059 8.83551 3.33942 4.35693Z" fill="#D42774"/>
<path opacity="0.5" d="M12.2964 21.5817C11.2629 23.4765 15.9137 21.5817 17.9808 21.5817C20.0478 21.5817 18.6698 18.6534 15.5692 18.8257C12.4687 18.9979 12.2964 21.5817 12.2964 21.5817Z" fill="#FFB311"/>
<path opacity="0.8" d="M13.6746 52.588C13.1578 52.4158 11.0908 52.2435 11.4353 51.3823C11.7798 50.521 12.9856 50.3487 13.1578 49.143C13.3301 47.9372 13.5023 42.2528 10.574 42.0806C10.7463 41.9083 12.6411 39.669 12.6411 39.4968C12.8133 37.9465 9.885 30.5396 6.9567 28.9894C4.20065 27.6113 -0.622436 14.0033 0.066576 6.94096C0.583335 6.25195 1.96136 21.927 5.92318 26.9223C9.885 31.9177 12.4688 33.9847 13.5023 38.291C14.7081 42.7696 14.1913 52.7603 13.6746 52.588Z" fill="#D42F55"/>
<path opacity="0.3" d="M14.0188 77.0469C10.5737 75.1521 17.8083 70.6735 27.6268 71.707C37.4452 72.7405 40.2012 79.9752 37.6175 81.1809C35.0337 82.3867 35.0337 79.8029 27.6268 78.2526C20.2199 76.5301 14.0188 77.0469 14.0188 77.0469Z" fill="#D60066"/>
<path opacity="0.8" d="M59.6665 60.1656C60.1833 50.175 58.4608 40.012 54.8434 37.4282C55.877 37.945 56.9105 38.4617 57.7717 38.634C59.322 38.8062 60.1833 42.4236 60.5278 47.5912V47.7634C60.5278 49.3137 60.7001 50.864 60.7001 52.5865V52.7587C60.7001 61.3714 59.8388 71.3621 58.9775 75.8407C58.9775 76.3574 58.8053 76.7019 58.9775 77.2187C59.1498 79.2857 60.3555 81.8695 62.0781 84.4533C61.9058 84.1088 57.944 79.8025 58.1163 78.08C58.1163 76.3574 59.1498 70.1563 59.6665 60.1656Z" fill="#D42F55"/>
<path opacity="0.5" d="M40.3742 84.7983C38.8239 85.1428 41.4077 78.7695 47.092 76.8747C52.6041 74.8076 59.6665 81.181 59.8388 82.559C60.011 83.9371 53.9822 81.181 49.6758 81.87C45.1973 82.559 40.3742 84.7983 40.3742 84.7983Z" fill="#FFB311"/>
<path d="M44.5076 83.2474C42.0961 83.7641 44.5076 80.3191 47.7804 79.6301C51.0532 79.1133 53.1203 81.5248 52.259 81.6971C51.2255 82.0416 47.6082 82.5584 44.5076 83.2474Z" fill="white"/>
<path d="M30.5553 34.3283C28.4883 34.6728 33.8281 36.9121 36.0674 36.9121C38.3067 37.0844 36.7564 33.2948 30.5553 34.3283Z" fill="white"/>
<path d="M45.1972 36.0507C43.6469 36.223 45.8862 37.4288 47.9533 36.912C49.6758 36.3952 47.6088 35.7062 45.1972 36.0507Z" fill="white"/>
<path opacity="0.5" d="M1.27241 55.3424C1.96142 57.4094 9.54056 51.5528 8.85155 48.7968C8.16254 46.0407 -0.105613 50.6915 1.27241 55.3424Z" fill="#FFB311"/>
<path opacity="0.2" d="M32.6226 39.4952C31.5891 39.6675 36.5844 54.8257 38.4792 56.8928C40.374 58.9598 38.996 38.9784 32.6226 39.4952Z" fill="#EF7A98"/>
<path opacity="0.2" d="M45.0242 41.0464C43.3017 41.0464 45.0242 53.4486 46.23 53.6209C47.4358 53.9654 47.2635 41.0464 45.0242 41.0464Z" fill="#EF7A98"/>
<path opacity="0.2" d="M54.8431 42.5965C53.6374 42.941 52.7761 51.0369 54.8431 52.0704C56.9102 52.9317 56.5657 42.0798 54.8431 42.5965Z" fill="#EF7A98"/>
<path opacity="0.2" d="M1.78891 58.4437C1.44441 55.6876 6.78425 53.6206 9.36805 53.6206C11.9518 53.6206 17.4639 69.4679 16.4304 71.5349C15.2247 73.4297 12.1241 75.669 10.2293 74.98C8.50678 74.291 3.33919 63.9558 1.78891 58.4437Z" fill="#EA4C74"/>
<path opacity="0.3" d="M33.4838 92.7224C31.7612 98.7513 50.3646 98.579 54.8432 94.1004C59.494 89.6219 55.8767 85.1433 60.5275 85.8323C65.1783 86.5213 55.1877 79.9757 46.9195 82.7317C38.6514 85.66 33.4838 92.7224 33.4838 92.7224Z" fill="#D60066"/>
<defs>
<linearGradient id="paint0_linear_438_27354" x1="32.6083" y1="100.137" x2="32.6083" y2="0.131355" gradientUnits="userSpaceOnUse">
<stop stop-color="#FFA200"/>
<stop offset="1" stop-color="#FFB82F"/>
</linearGradient>
<linearGradient id="paint1_linear_438_27354" x1="27.5686" y1="34.9094" x2="43.1802" y2="34.9094" gradientUnits="userSpaceOnUse">
<stop stop-color="#FFDE00"/>
<stop offset="1" stop-color="#FFE834"/>
</linearGradient>
<linearGradient id="paint2_linear_438_27354" x1="45.0387" y1="36.1841" x2="53.7088" y2="36.1841" gradientUnits="userSpaceOnUse">
<stop stop-color="#FFDE00"/>
<stop offset="1" stop-color="#FFE834"/>
</linearGradient>
<linearGradient id="paint3_linear_438_27354" x1="56.5952" y1="39.7357" x2="59.3737" y2="39.7357" gradientUnits="userSpaceOnUse">
<stop stop-color="#FFDE00"/>
<stop offset="1" stop-color="#FFE834"/>
</linearGradient>
<linearGradient id="paint4_linear_438_27354" x1="0.309797" y1="3.15206" x2="13.929" y2="3.15206" gradientUnits="userSpaceOnUse">
<stop stop-color="#FFDE00"/>
<stop offset="1" stop-color="#FFE834"/>
</linearGradient>
</defs>
</svg>
