<svg width="98" height="98" viewBox="0 0 98 98" fill="none" xmlns="http://www.w3.org/2000/svg">
<circle cx="49" cy="49" r="49" fill="white" fill-opacity="0.25"/>
<path d="M66.8965 36.4043C68.3678 34.9392 68.3678 32.5639 66.8965 31.0988C65.4251 29.6337 63.0395 29.6337 61.5682 31.0988L48.8384 43.7741L36.4318 31.4206C34.9605 29.9556 32.5749 29.9556 31.1035 31.4206C29.6322 32.8857 29.6322 35.2611 31.1035 36.7261L43.5101 49.0796L31.2635 61.2739C29.7921 62.7389 29.7921 65.1143 31.2635 66.5794C32.7348 68.0444 35.1204 68.0444 36.5918 66.5794L48.8384 54.3851L61.4082 66.9012C62.8796 68.3663 65.2652 68.3663 66.7365 66.9012C68.2079 65.4361 68.2079 63.0608 66.7365 61.5957L54.1667 49.0796L66.8965 36.4043Z" fill="white"/>
</svg>
