<svg width="128" height="108" viewBox="0 0 128 108" fill="none" xmlns="http://www.w3.org/2000/svg">
<g filter="url(#filter0_d_744_35765)">
<path d="M123.221 23.7249C123.002 27.1141 122.563 30.5034 122.124 34.3769C121.904 36.7978 121.684 39.4608 121.245 42.1238C120.806 45.513 120.367 49.1444 119.928 52.5336C119.708 54.9546 119.269 57.6175 118.83 60.0385C118.391 63.6698 117.952 67.0591 117.513 70.2063C117.074 72.8692 116.635 75.2902 116.415 77.7111C115.756 81.5845 115.317 84.9738 114.659 87.6368C114.439 88.6051 114.219 89.5735 114.219 90.2998C113.341 93.9311 112.682 96.352 112.243 96.8362C109.169 99.4992 20.9062 103.373 15.4171 94.4153C14.5389 92.9628 11.0259 88.6051 10.1477 84.2475V84.0054C9.92813 83.2791 9.92813 82.5529 9.70857 81.8266C9.04989 78.9215 8.39121 76.0164 7.95209 73.3534C7.51297 70.4483 7.07385 67.7853 6.63473 65.1224C6.19561 61.491 5.53692 58.1017 5.31736 54.7125C5.0978 52.0495 4.87824 49.3865 4.65868 46.7235C4.21956 42.6079 4 39.2187 4 36.0715C4 33.4085 4 30.7455 4 28.3246C4 24.6932 4.21956 21.304 4.43912 18.3989C5.0978 11.1362 6.19561 6.77853 7.07385 6.29435C9.04989 5.32599 12.1237 4.59972 16.2954 3.87345C19.1497 3.63136 22.4431 3.14718 25.9561 2.663C28.3712 2.42091 30.7864 2.17881 33.2015 1.93672C36.2754 1.69463 39.5688 1.45254 42.8622 1.21045C45.2774 0.968362 47.6925 0.968362 50.1077 0.726272C53.4011 0.484181 56.6945 0.484181 59.9879 0.242091C62.4031 0.242091 64.8183 0 67.453 0C70.966 0 74.2594 0 77.3332 0C79.7484 0 82.3831 0 84.7983 0C88.3112 0 91.6046 0 94.6785 0C97.3132 0 99.7284 0 102.144 0.242091C105.876 0.484181 109.169 0.484181 112.024 0.726272C118.611 1.21045 122.782 1.93672 123.441 3.14718C124.319 4.84181 124.1 12.8308 123.221 23.7249Z" fill="url(#paint0_linear_744_35765)"/>
<path d="M25.9557 2.66211C24.8579 5.08301 23.7601 7.50392 22.2232 10.6511C18.2711 11.1353 16.5146 11.3774 12.5625 11.8615C14.0994 8.71437 15.1972 6.29347 16.0755 4.11465C19.1493 3.63047 22.4427 3.14629 25.9557 2.66211Z" fill="url(#paint1_linear_744_35765)"/>
<path d="M43.0813 1.20996C41.9835 3.63087 40.8857 5.80968 39.3488 8.95686C35.6163 9.19895 33.6402 9.44104 29.9077 9.68313C31.2251 6.53595 32.3229 4.11505 33.4207 1.93623C36.4945 1.69414 39.5684 1.45205 43.0813 1.20996Z" fill="#FF0064"/>
<path d="M60.2078 0.484375C59.11 2.90528 58.0122 5.32619 56.6948 8.47336C52.9623 8.47336 50.9863 8.71545 47.0342 8.71545C48.3515 5.56828 49.4493 3.14737 50.3276 0.968556C53.621 0.726466 56.9144 0.484375 60.2078 0.484375Z" fill="url(#paint2_linear_744_35765)"/>
<path d="M77.3328 0C76.235 2.663 75.1372 5.0839 73.8198 8.47317C70.0873 8.47317 68.1113 8.23108 64.1592 8.23108C65.4765 5.0839 66.3548 2.663 67.4526 0.242091C70.9656 0 74.259 0 77.3328 0Z" fill="#FF0064"/>
<path d="M94.6783 0C93.5805 2.90509 92.4827 5.32599 90.9458 9.19944C87.2133 8.95735 85.2372 8.71526 81.2852 8.71526C82.6025 5.0839 83.7003 2.663 84.5786 0C88.3111 0 91.6045 0 94.6783 0Z" fill="url(#paint3_linear_744_35765)"/>
<path d="M112.023 0.967483C110.925 4.35675 109.828 6.77766 108.291 10.8932C104.558 10.409 102.582 10.1669 98.8496 9.92483C100.167 6.05138 101.265 3.38839 102.143 0.241211C105.876 0.483301 109.169 0.725392 112.023 0.967483Z" fill="#FF0064"/>
<path d="M122.124 34.1338L111.804 27.5974L112.682 17.1875L123.221 23.7239L122.124 34.1338Z" fill="url(#paint4_linear_744_35765)"/>
<path d="M121.464 41.8793C121.025 45.2686 120.586 48.8999 120.147 52.2892L110.267 45.7528L111.145 35.585L121.464 41.8793Z" fill="#FF0064"/>
<path d="M119.05 59.7954C118.611 63.4268 118.172 66.816 117.732 69.9632L108.73 64.153L109.609 53.9852L119.05 59.7954Z" fill="url(#paint5_linear_744_35765)"/>
<path d="M116.635 77.4686C115.976 81.342 115.537 84.7313 114.878 87.3943L107.194 82.3104L108.072 72.1426L116.635 77.4686Z" fill="#FF0064"/>
<path d="M13.2215 31.9556L4 28.3243C4 24.6929 4.21956 21.3036 4.43912 18.3986L12.1237 21.0616L13.2215 31.9556Z" fill="url(#paint6_linear_744_35765)"/>
<path d="M14.978 50.1129L4.65868 45.9974C4.21956 42.6081 4 39.2188 4 36.0717L13.8802 39.4609L14.978 50.1129Z" fill="#FF0064"/>
<path d="M16.5143 68.5112L6.41453 64.6378C5.97541 61.0064 5.31673 57.6172 5.09717 54.2279L15.4165 57.8593L16.5143 68.5112Z" fill="url(#paint7_linear_744_35765)"/>
<path d="M18.2705 86.9099L10.1468 83.7627C9.92722 83.0364 9.92722 82.3102 9.70766 81.5839C9.04897 78.6788 8.39029 75.7737 7.95117 73.1107L17.3923 76.5L18.2705 86.9099Z" fill="#FF0064"/>
<path opacity="0.5" d="M123.441 3.1475C122.782 -3.63103 115.536 27.5986 113.121 51.8077C111.365 69.4803 111.145 93.9314 111.804 95.1419C112.463 96.3524 126.075 32.1984 123.441 3.1475Z" fill="#C60055"/>
<path opacity="0.4" d="M114.22 90.2993C113.341 93.9307 112.683 96.3516 112.244 96.8358C109.17 99.4988 20.9064 103.372 15.4174 94.4149C14.5391 92.9623 10.3675 86.1838 9.48926 81.8262C13.8805 92.4782 29.9084 100.709 67.4532 99.2567C105.218 97.5621 111.585 96.1095 114.22 90.2993Z" fill="#C60055"/>
<path opacity="0.4" d="M7.07393 6.53683C6.41525 10.1682 33.2016 48.9027 51.2056 58.8284C69.2096 68.512 113.122 9.44191 123.441 3.38965C123.441 3.38965 123.88 3.87383 123.88 6.53683C123.88 9.19982 82.8223 42.8504 75.3573 52.2919C67.6726 61.2493 106.315 94.6578 112.463 96.8366C112.463 96.8366 110.926 97.805 110.267 97.5629C109.389 97.3208 79.0898 72.6275 71.1856 55.4391C71.1856 55.4391 62.8423 63.6702 57.7924 63.9123C52.7425 64.1544 47.2535 56.8917 45.9361 56.1654C45.9361 56.1654 21.5649 80.8586 18.7106 95.6261C18.7106 95.6261 18.7106 96.8366 17.3933 94.1736C16.0759 91.7527 44.1797 56.1654 44.1797 55.6812C43.7405 54.9549 15.6368 25.4199 7.07393 6.53683Z" fill="#C60055"/>
<path opacity="0.4" d="M48.3516 56.8901C48.3516 56.8901 54.9384 66.5737 58.0122 66.5737C63.7208 66.5737 70.5272 65.1212 88.5311 47.2065C120.807 15.7347 122.124 4.35645 122.124 4.35645C122.124 4.35645 111.365 15.9768 94.0201 33.4073C76.6749 50.5957 63.2817 58.1005 59.7687 59.311C56.0362 60.7635 48.3516 56.8901 48.3516 56.8901Z" fill="#C60055"/>
<path opacity="0.3" d="M123.441 3.14756C123.002 2.90547 107.193 -0.483796 72.2832 2.42129C40.886 4.8422 13.0018 1.21084 8.61063 7.74728C4.43898 14.2837 5.9759 21.5464 5.53678 36.7981C5.09766 51.0815 9.26931 78.9219 9.70843 81.5849C0.267329 38.977 5.09766 7.50519 7.07371 6.53683C22.2234 -0.725886 120.147 -1.93634 123.441 3.14756Z" fill="#C60055"/>
<path opacity="0.3" d="M11.685 7.98918C9.48937 9.19963 22.2239 25.4197 33.8606 40.6714C45.4973 55.9231 65.9164 54.4706 79.0901 44.7869C92.2637 35.1033 117.513 7.26291 116.415 4.35782C115.098 1.21065 85.0182 4.59991 60.647 6.05246C36.0562 7.26291 15.1979 6.05246 11.685 7.98918Z" fill="#FFB64A"/>
<path opacity="0.2" d="M18.2716 95.3846C16.9543 92.2374 32.7626 71.6597 60.2077 72.386C87.6528 72.8701 107.194 97.5634 107.194 97.5634C107.194 97.5634 50.1079 103.374 18.2716 95.3846Z" fill="#EBA4BC"/>
<path opacity="0.4" d="M91.8237 80.1309C91.8237 80.1309 97.9714 87.3936 103.021 91.7512C108.071 96.1088 110.047 97.3193 110.047 97.3193C110.047 97.3193 112.243 98.2877 112.902 95.3826C113.78 92.4775 104.558 92.7196 91.8237 80.1309Z" fill="#C60055"/>
<path d="M72.7224 58.586C70.9659 57.6176 77.9918 71.9009 88.3112 81.1004C98.6305 90.2998 107.193 95.3837 107.193 95.3837C107.193 95.3837 93.361 80.132 72.7224 58.586Z" fill="white"/>
<path d="M19.1494 92.4775C19.1494 92.4775 35.3969 67.3001 45.7162 55.9219C45.7162 55.9219 25.2971 70.4473 19.1494 92.4775Z" fill="white"/>
<path opacity="0.2" d="M113.561 49.8697C111.804 75.0471 119.709 51.0802 122.124 36.5547C124.539 22.0293 122.343 5.56713 122.343 4.11459C121.904 2.66204 114.878 28.8078 113.561 49.8697Z" fill="#EBA4BC"/>
<path opacity="0.2" d="M57.5731 59.7967C54.9384 59.3126 89.8485 37.5244 89.8485 37.5244C89.8485 37.5244 69.649 57.1337 57.5731 59.7967Z" fill="#EB5694"/>
<path opacity="0.4" d="M7.07373 6.53613C7.07373 6.53613 9.92802 17.1881 19.8082 31.4715C29.908 45.7548 48.3511 57.1331 48.3511 57.1331C48.3511 57.1331 18.2713 30.5031 7.07373 6.53613Z" fill="#C60055"/>
<path opacity="0.2" d="M82.6022 62.9438C83.0413 68.0277 102.802 90.3 108.291 91.7525C113.78 93.2051 109.608 52.0497 109.389 40.6714C108.949 29.5353 81.9435 56.8915 82.6022 62.9438Z" fill="#EBA4BC"/>
<path opacity="0.2" d="M88.3115 81.0994C81.9442 77.7102 91.3853 89.0884 95.9961 93.6881C100.607 98.0458 106.315 97.0774 107.194 96.8353C108.072 96.5932 95.3374 88.8463 88.3115 81.0994Z" fill="#DC6A94"/>
</g>
<defs>
<filter id="filter0_d_744_35765" x="0" y="0" width="128" height="108" filterUnits="userSpaceOnUse" color-interpolation-filters="sRGB">
<feFlood flood-opacity="0" result="BackgroundImageFix"/>
<feColorMatrix in="SourceAlpha" type="matrix" values="0 0 0 0 0 0 0 0 0 0 0 0 0 0 0 0 0 0 127 0" result="hardAlpha"/>
<feOffset dy="4"/>
<feGaussianBlur stdDeviation="2"/>
<feComposite in2="hardAlpha" operator="out"/>
<feColorMatrix type="matrix" values="0 0 0 0 0 0 0 0 0 0 0 0 0 0 0 0 0 0 0.25 0"/>
<feBlend mode="normal" in2="BackgroundImageFix" result="effect1_dropShadow_744_35765"/>
<feBlend mode="normal" in="SourceGraphic" in2="effect1_dropShadow_744_35765" result="shape"/>
</filter>
<linearGradient id="paint0_linear_744_35765" x1="64.0147" y1="99.9325" x2="64.0147" y2="0" gradientUnits="userSpaceOnUse">
<stop stop-color="#DBC6E0"/>
<stop offset="1" stop-color="#FFE4EC"/>
</linearGradient>
<linearGradient id="paint1_linear_744_35765" x1="19.3107" y1="11.7955" x2="19.3107" y2="2.67542" gradientUnits="userSpaceOnUse">
<stop stop-color="#512EFF"/>
<stop offset="1" stop-color="#6B2ED8"/>
</linearGradient>
<linearGradient id="paint2_linear_744_35765" x1="47.0471" y1="4.51542" x2="60.1455" y2="4.51542" gradientUnits="userSpaceOnUse">
<stop stop-color="#512EFF"/>
<stop offset="1" stop-color="#6B2ED8"/>
</linearGradient>
<linearGradient id="paint3_linear_744_35765" x1="81.5012" y1="4.62732" x2="94.7488" y2="4.62732" gradientUnits="userSpaceOnUse">
<stop stop-color="#512EFF"/>
<stop offset="1" stop-color="#6B2ED8"/>
</linearGradient>
<linearGradient id="paint4_linear_744_35765" x1="117.482" y1="34.2367" x2="117.482" y2="17.2974" gradientUnits="userSpaceOnUse">
<stop stop-color="#512EFF"/>
<stop offset="1" stop-color="#6B2ED8"/>
</linearGradient>
<linearGradient id="paint5_linear_744_35765" x1="108.634" y1="62.0304" x2="119.143" y2="62.0304" gradientUnits="userSpaceOnUse">
<stop stop-color="#512EFF"/>
<stop offset="1" stop-color="#6B2ED8"/>
</linearGradient>
<linearGradient id="paint6_linear_744_35765" x1="8.62614" y1="31.875" x2="8.62614" y2="18.4942" gradientUnits="userSpaceOnUse">
<stop stop-color="#512EFF"/>
<stop offset="1" stop-color="#6B2ED8"/>
</linearGradient>
<linearGradient id="paint7_linear_744_35765" x1="5.20168" y1="61.373" x2="16.5916" y2="61.373" gradientUnits="userSpaceOnUse">
<stop stop-color="#512EFF"/>
<stop offset="1" stop-color="#6B2ED8"/>
</linearGradient>
</defs>
</svg>
