<svg width="102" height="86" viewBox="0 0 102 86" fill="none" xmlns="http://www.w3.org/2000/svg">
<g filter="url(#filter0_d_429_14149)">
<path d="M96.9927 18.5054C96.8214 21.149 96.4789 23.7927 96.1364 26.8139C95.9651 28.7023 95.7939 30.7794 95.4513 32.8565C95.1088 35.5002 94.7663 38.3326 94.4238 40.9762C94.2525 42.8646 93.91 44.9417 93.5675 46.83C93.225 49.6624 92.8825 52.3061 92.54 54.7609C92.1974 56.838 91.8549 58.7263 91.6837 60.6146C91.1699 63.6359 90.8274 66.2795 90.3136 68.3567C90.1424 69.112 89.9711 69.8673 89.9711 70.4338C89.2861 73.2663 88.7723 75.1546 88.4298 75.5322C86.0322 77.6094 17.1868 80.6307 12.9054 73.6439C12.2203 72.511 9.48023 69.112 8.7952 65.7131V65.5242C8.62394 64.9577 8.62394 64.3912 8.45269 63.8247C7.93892 61.5588 7.42514 59.2928 7.08263 57.2157C6.74011 54.9497 6.3976 52.8726 6.05509 50.7954C5.71257 47.963 5.1988 45.3193 5.02754 42.6757C4.85629 40.5986 4.68503 38.5214 4.51377 36.4443C4.17126 33.2342 4 30.5906 4 28.1358C4 26.0586 4 23.9815 4 22.0932C4 19.2607 4.17126 16.6171 4.34251 14.3511C4.85629 8.68621 5.71257 5.28726 6.3976 4.9096C7.93892 4.15427 10.3365 3.58778 13.5904 3.02129C15.8167 2.83246 18.3856 2.4548 21.1257 2.07714C23.0095 1.88831 24.8934 1.69948 26.7772 1.51064C29.1748 1.32181 31.7437 1.13298 34.3125 0.944153C36.1964 0.755322 38.0802 0.755322 39.964 0.566492C42.5329 0.377661 45.1017 0.377661 47.6706 0.188831C49.5544 0.188831 51.4382 0 53.4933 0C56.2334 0 58.8023 0 61.1999 0C63.0837 0 65.1388 0 67.0226 0C69.7628 0 72.3316 0 74.7292 0C76.7843 0 78.6681 0 80.552 0.188831C83.4633 0.377661 86.0322 0.377661 88.2585 0.566492C93.3963 0.944153 96.6501 1.51064 97.1639 2.4548C97.8489 3.77661 97.6777 10.008 96.9927 18.5054Z" fill="url(#paint0_linear_429_14149)"/>
<path d="M21.1253 2.07666C20.269 3.96497 19.4127 5.85327 18.2139 8.30807C15.1313 8.68573 13.7612 8.87456 10.6786 9.25222C11.8774 6.79743 12.7337 4.90912 13.4187 3.20964C15.8163 2.83198 18.3852 2.45432 21.1253 2.07666Z" fill="url(#paint1_linear_429_14149)"/>
<path d="M34.4833 0.943848C33.627 2.83215 32.7707 4.53163 31.5719 6.98643C28.6606 7.17526 27.1193 7.36409 24.2079 7.55292C25.2354 5.09812 26.0917 3.20981 26.948 1.51034C29.3456 1.32151 31.7432 1.13268 34.4833 0.943848Z" fill="#FF0064"/>
<path d="M47.842 0.37793C46.9857 2.26624 46.1294 4.15454 45.1018 6.60934C42.1905 6.60934 40.6492 6.79817 37.5665 6.79817C38.5941 4.34337 39.4504 2.45507 40.1354 0.755591C42.7042 0.56676 45.2731 0.37793 47.842 0.37793Z" fill="url(#paint2_linear_429_14149)"/>
<path d="M61.1994 0C60.3432 2.07714 59.4869 3.96544 58.4593 6.60907C55.548 6.60907 54.0066 6.42024 50.924 6.42024C51.9516 3.96544 52.6366 2.07714 53.4929 0.188831C56.233 0 58.8018 0 61.1994 0Z" fill="#FF0064"/>
<path d="M74.729 0C73.8727 2.26597 73.0164 4.15427 71.8176 7.17556C68.9062 6.98673 67.3649 6.7979 64.2823 6.7979C65.3098 3.96544 66.1661 2.07714 66.8511 0C69.7625 0 72.3314 0 74.729 0Z" fill="url(#paint3_linear_429_14149)"/>
<path d="M88.258 0.75448C87.4017 3.39811 86.5454 5.28642 85.3466 8.49654C82.4352 8.11887 80.8939 7.93004 77.9825 7.74121C79.0101 4.71992 79.8664 2.64279 80.5514 0.187988C83.4628 0.376819 86.0316 0.56565 88.258 0.75448Z" fill="#FF0064"/>
<path d="M96.1362 26.6244L88.0871 21.526L88.7721 13.4062L96.9925 18.5047L96.1362 26.6244Z" fill="url(#paint4_linear_429_14149)"/>
<path d="M95.6222 32.6659C95.2797 35.3096 94.9372 38.142 94.5947 40.7857L86.8881 35.6872L87.5731 27.7563L95.6222 32.6659Z" fill="#FF0064"/>
<path d="M93.7387 46.6403C93.3962 49.4728 93.0536 52.1164 92.7111 54.5712L85.6896 50.0393L86.3746 42.1084L93.7387 46.6403Z" fill="url(#paint5_linear_429_14149)"/>
<path d="M91.8551 60.4253C91.3413 63.4466 90.9988 66.0902 90.485 68.1673L84.491 64.2019L85.1761 56.271L91.8551 60.4253Z" fill="#FF0064"/>
<path d="M11.1928 24.9251L4 22.0926C4 19.2602 4.17126 16.6166 4.34251 14.3506L10.3365 16.4277L11.1928 24.9251Z" fill="url(#paint6_linear_429_14149)"/>
<path d="M12.5627 39.0879L4.51359 35.8778C4.17107 33.2342 3.99982 30.5905 3.99982 28.1357L11.7064 30.7794L12.5627 39.0879Z" fill="#FF0064"/>
<path d="M13.7613 53.4384L5.8835 50.4171C5.54099 47.5846 5.02721 44.941 4.85596 42.2974L12.905 45.1298L13.7613 53.4384Z" fill="url(#paint7_linear_429_14149)"/>
<path d="M15.1312 67.7892L8.79466 65.3344C8.62341 64.7679 8.62341 64.2014 8.45215 63.635C7.93838 61.369 7.42461 59.103 7.08209 57.0259L14.4462 59.6695L15.1312 67.7892Z" fill="#FF0064"/>
<path opacity="0.5" d="M97.1637 2.45503C96.6499 -2.83223 90.9985 21.5269 89.1146 40.41C87.7446 54.1946 87.5733 73.2665 88.0871 74.2107C88.6008 75.1548 99.2188 25.1147 97.1637 2.45503Z" fill="#C60055"/>
<path opacity="0.4" d="M89.9713 70.4333C89.2863 73.2657 88.7725 75.1541 88.43 75.5317C86.0324 77.6089 17.187 80.6301 12.9056 73.6434C12.2205 72.5104 8.96664 67.2232 8.28162 63.8242C11.7068 72.1328 24.2085 78.553 53.4935 77.42C82.9497 76.0982 87.9162 74.9652 89.9713 70.4333Z" fill="#C60055"/>
<path opacity="0.4" d="M6.39766 5.09884C5.88389 7.9313 26.7773 38.1442 40.8204 45.8863C54.8634 53.4395 89.1149 7.36481 97.164 2.64404C97.164 2.64404 97.5065 3.0217 97.5065 5.09884C97.5065 7.17598 65.4814 33.4234 59.6587 40.7878C53.6646 47.7746 83.8059 73.8332 88.6011 75.5327C88.6011 75.5327 87.4023 76.288 86.8885 76.0992C86.2035 75.9103 62.57 56.6496 56.4048 43.2426C56.4048 43.2426 49.897 49.6629 45.9581 49.8517C42.0192 50.0405 37.7377 44.3756 36.7102 43.8091C36.7102 43.8091 17.7006 63.0698 15.4743 74.5885C15.4743 74.5885 15.4743 75.5327 14.4468 73.4555C13.4192 71.5672 35.3401 43.8091 35.3401 43.4315C34.9976 42.865 13.0767 19.8276 6.39766 5.09884Z" fill="#C60055"/>
<path opacity="0.4" d="M38.5942 44.3742C38.5942 44.3742 43.732 51.9274 46.1296 51.9274C50.5822 51.9274 55.8912 50.7944 69.9343 36.821C95.1091 12.273 96.1367 3.39795 96.1367 3.39795C96.1367 3.39795 87.7451 12.4618 74.2157 26.0576C60.6864 39.4646 50.2397 45.3183 47.4996 46.2625C44.5882 47.3955 38.5942 44.3742 38.5942 44.3742Z" fill="#C60055"/>
<path opacity="0.3" d="M97.1638 2.45526C96.8213 2.26642 84.4908 -0.377204 57.2609 1.88876C32.7711 3.77707 11.0214 0.94461 7.59627 6.04304C4.34239 11.1415 5.54119 16.8064 5.19867 28.7027C4.85616 39.8437 8.11005 61.5592 8.45256 63.6364C1.0885 30.4022 4.85616 5.85421 6.39747 5.09888C18.2142 -0.566035 94.5949 -1.51019 97.1638 2.45526Z" fill="#C60055"/>
<path opacity="0.3" d="M9.99429 6.23185C8.28171 7.17601 18.2146 19.8277 27.2913 31.724C36.3679 43.6203 52.2948 42.4873 62.5702 34.9341C72.8457 27.3809 92.5403 5.66536 91.684 3.39939C90.6564 0.944595 67.1942 3.58822 48.1846 4.72121C29.0038 5.66536 12.7344 4.72121 9.99429 6.23185Z" fill="#FFB64A"/>
<path opacity="0.2" d="M15.1319 74.3998C14.1043 71.945 26.4348 55.8944 47.842 56.4609C69.2491 56.8386 84.491 76.0993 84.491 76.0993C84.491 76.0993 39.9641 80.6312 15.1319 74.3998Z" fill="#EBA4BC"/>
<path opacity="0.4" d="M72.5025 62.502C72.5025 62.502 77.2977 68.1669 81.2366 71.5658C85.1755 74.9648 86.7168 75.9089 86.7168 75.9089C86.7168 75.9089 88.4294 76.6643 88.9432 74.3983C89.6282 72.1323 82.4354 72.3211 72.5025 62.502Z" fill="#C60055"/>
<path d="M57.6034 45.6971C56.2334 44.9418 61.7136 56.0828 69.7627 63.2584C77.8118 70.4339 84.4908 74.3994 84.4908 74.3994C84.4908 74.3994 73.7016 62.5031 57.6034 45.6971Z" fill="white"/>
<path d="M15.8165 72.1326C15.8165 72.1326 28.4896 52.4942 36.5386 43.6191C36.5386 43.6191 20.6117 54.949 15.8165 72.1326Z" fill="white"/>
<path opacity="0.2" d="M89.4575 38.8983C88.0874 58.5366 94.2527 39.8424 96.1365 28.5126C98.0204 17.1827 96.3078 4.34225 96.3078 3.20926C95.9653 2.07628 90.485 22.47 89.4575 38.8983Z" fill="#EBA4BC"/>
<path opacity="0.2" d="M45.787 46.6415C43.7319 46.2638 70.9618 29.269 70.9618 29.269C70.9618 29.269 55.2062 44.5643 45.787 46.6415Z" fill="#EB5694"/>
<path opacity="0.4" d="M6.39752 5.09814C6.39752 5.09814 8.62386 13.4067 16.3304 24.5477C24.2083 35.6887 38.5939 44.5637 38.5939 44.5637C38.5939 44.5637 15.1316 23.7924 6.39752 5.09814Z" fill="#C60055"/>
<path opacity="0.2" d="M65.3097 49.096C65.6522 53.0614 81.0654 70.4338 85.3468 71.5668C89.6282 72.6998 86.3744 40.5986 86.2031 31.7236C85.8606 23.0373 64.796 44.3752 65.3097 49.096Z" fill="#EBA4BC"/>
<path opacity="0.2" d="M69.7629 63.2577C64.7965 60.6141 72.1605 69.4892 75.7569 73.0769C79.3533 76.4759 83.806 75.7206 84.4911 75.5317C85.1761 75.3429 75.2432 69.3003 69.7629 63.2577Z" fill="#DC6A94"/>
</g>
<defs>
<filter id="filter0_d_429_14149" x="-0.000183105" y="0" width="101.6" height="86" filterUnits="userSpaceOnUse" color-interpolation-filters="sRGB">
<feFlood flood-opacity="0" result="BackgroundImageFix"/>
<feColorMatrix in="SourceAlpha" type="matrix" values="0 0 0 0 0 0 0 0 0 0 0 0 0 0 0 0 0 0 127 0" result="hardAlpha"/>
<feOffset dy="4"/>
<feGaussianBlur stdDeviation="2"/>
<feComposite in2="hardAlpha" operator="out"/>
<feColorMatrix type="matrix" values="0 0 0 0 0 0 0 0 0 0 0 0 0 0 0 0 0 0 0.25 0"/>
<feBlend mode="normal" in2="BackgroundImageFix" result="effect1_dropShadow_429_14149"/>
<feBlend mode="normal" in="SourceGraphic" in2="effect1_dropShadow_429_14149" result="shape"/>
</filter>
<linearGradient id="paint0_linear_429_14149" x1="50.8114" y1="77.9474" x2="50.8114" y2="0" gradientUnits="userSpaceOnUse">
<stop stop-color="#DBC6E0"/>
<stop offset="1" stop-color="#FFE4EC"/>
</linearGradient>
<linearGradient id="paint1_linear_429_14149" x1="15.9422" y1="9.20067" x2="15.9422" y2="2.08705" gradientUnits="userSpaceOnUse">
<stop stop-color="#512EFF"/>
<stop offset="1" stop-color="#6B2ED8"/>
</linearGradient>
<linearGradient id="paint2_linear_429_14149" x1="37.5766" y1="3.52215" x2="47.7933" y2="3.52215" gradientUnits="userSpaceOnUse">
<stop stop-color="#512EFF"/>
<stop offset="1" stop-color="#6B2ED8"/>
</linearGradient>
<linearGradient id="paint3_linear_429_14149" x1="64.4508" y1="3.60931" x2="74.7839" y2="3.60931" gradientUnits="userSpaceOnUse">
<stop stop-color="#512EFF"/>
<stop offset="1" stop-color="#6B2ED8"/>
</linearGradient>
<linearGradient id="paint4_linear_429_14149" x1="92.5155" y1="26.7046" x2="92.5155" y2="13.492" gradientUnits="userSpaceOnUse">
<stop stop-color="#512EFF"/>
<stop offset="1" stop-color="#6B2ED8"/>
</linearGradient>
<linearGradient id="paint5_linear_429_14149" x1="85.6144" y1="48.3836" x2="93.8111" y2="48.3836" gradientUnits="userSpaceOnUse">
<stop stop-color="#512EFF"/>
<stop offset="1" stop-color="#6B2ED8"/>
</linearGradient>
<linearGradient id="paint6_linear_429_14149" x1="7.60839" y1="24.8622" x2="7.60839" y2="14.4252" gradientUnits="userSpaceOnUse">
<stop stop-color="#512EFF"/>
<stop offset="1" stop-color="#6B2ED8"/>
</linearGradient>
<linearGradient id="paint7_linear_429_14149" x1="4.93748" y1="47.8705" x2="13.8216" y2="47.8705" gradientUnits="userSpaceOnUse">
<stop stop-color="#512EFF"/>
<stop offset="1" stop-color="#6B2ED8"/>
</linearGradient>
</defs>
</svg>
