<svg width="1080" height="2148" viewBox="0 0 1080 2148" fill="none" xmlns="http://www.w3.org/2000/svg">
<g clip-path="url(#clip0_261_2)">
<rect width="1080" height="2148" fill="#0D0D12"/>
<rect opacity="0.4" x="-585.988" y="-732.612" width="2886.79" height="1443.39" fill="url(#paint0_radial_261_2)"/>
<mask id="mask0_261_2" style="mask-type:alpha" maskUnits="userSpaceOnUse" x="-499" y="-1056" width="2226" height="2186">
<rect x="404.046" y="-1055.37" width="1705.38" height="1429.63" transform="rotate(39.1308 404.046 -1055.37)" fill="url(#paint1_radial_261_2)"/>
</mask>
<g mask="url(#mask0_261_2)">
</g>
<g clip-path="url(#clip1_261_2)">
<g opacity="0.7">
<path opacity="0.11" d="M73.2056 58.9377C74.4674 59.0736 75.6005 58.1609 75.7365 56.8991C75.8724 55.6372 74.9597 54.5041 73.6978 54.3682C72.436 54.2323 71.3029 55.145 71.167 56.4068C71.031 57.6686 71.9437 58.8017 73.2056 58.9377Z" fill="white"/>
<path d="M79.2685 72.2932C80.2146 72.3952 81.0642 71.7109 81.1661 70.7648C81.2681 69.8187 80.5837 68.9691 79.6376 68.8672C78.6915 68.7652 77.8419 69.4496 77.74 70.3957C77.6381 71.3418 78.3224 72.1913 79.2685 72.2932Z" fill="white"/>
<path d="M119.541 52.3783C120.487 52.4802 121.337 51.7959 121.439 50.8498C121.541 49.9037 120.856 49.0541 119.91 48.9521C118.964 48.8502 118.114 49.5346 118.012 50.4807C117.911 51.4268 118.595 52.2764 119.541 52.3783Z" fill="white"/>
<path d="M22.7221 39.6322C23.6682 39.7342 24.5178 39.0497 24.6198 38.1036C24.7217 37.1575 24.0373 36.308 23.0912 36.206C22.1451 36.1041 21.2956 36.7884 21.1936 37.7345C21.0917 38.6806 21.776 39.5303 22.7221 39.6322Z" fill="white"/>
<path d="M64.9687 103.094C65.5991 103.162 66.1652 102.706 66.2331 102.076C66.301 101.445 65.845 100.879 65.2146 100.811C64.5842 100.744 64.0182 101.2 63.9503 101.83C63.8824 102.46 64.3383 103.026 64.9687 103.094Z" fill="white"/>
<path d="M313.928 129.925C314.558 129.993 315.124 129.537 315.192 128.907C315.26 128.276 314.804 127.71 314.174 127.642C313.543 127.575 312.977 128.031 312.909 128.661C312.841 129.291 313.297 129.857 313.928 129.925Z" fill="white"/>
<path d="M445.038 81.6636C445.668 81.7315 446.234 81.2755 446.302 80.6451C446.37 80.0148 445.914 79.4487 445.284 79.3808C444.654 79.3129 444.088 79.7688 444.02 80.3992C443.952 81.0296 444.408 81.5957 445.038 81.6636Z" fill="white"/>
<path d="M480.6 169.828C481.23 169.896 481.796 169.44 481.864 168.809C481.932 168.179 481.476 167.613 480.846 167.545C480.215 167.477 479.649 167.933 479.581 168.563C479.513 169.194 479.969 169.76 480.6 169.828Z" fill="white"/>
<path opacity="0.11" d="M58.2707 143.964C58.9011 144.032 59.4672 143.576 59.5351 142.946C59.603 142.315 59.147 141.749 58.5166 141.682C57.8862 141.614 57.3202 142.07 57.2523 142.7C57.1844 143.33 57.6403 143.896 58.2707 143.964Z" fill="white"/>
<path opacity="0.11" d="M278.745 156.16C279.376 156.228 279.942 155.772 280.01 155.141C280.078 154.511 279.622 153.945 278.991 153.877C278.361 153.809 277.795 154.265 277.727 154.895C277.659 155.526 278.115 156.092 278.745 156.16Z" fill="white"/>
<path opacity="0.3" d="M30.2922 6.95071C30.9226 7.01862 31.4887 6.56258 31.5566 5.9322C31.6245 5.30182 31.1685 4.7358 30.5381 4.66789C29.9078 4.59998 29.3417 5.0559 29.2738 5.68627C29.2059 6.31665 29.6618 6.8828 30.2922 6.95071Z" fill="white"/>
<path opacity="0.3" d="M487.161 87.3609C487.791 87.4288 488.358 86.9728 488.425 86.3424C488.493 85.712 488.037 85.146 487.407 85.078C486.777 85.0101 486.211 85.4661 486.143 86.0965C486.075 86.7269 486.531 87.293 487.161 87.3609Z" fill="white"/>
<path opacity="0.11" d="M308.351 20.729C308.981 20.7969 309.547 20.3409 309.615 19.7105C309.683 19.0801 309.227 18.5141 308.596 18.4462C307.966 18.3783 307.4 18.8342 307.332 19.4646C307.264 20.095 307.72 20.6611 308.351 20.729Z" fill="white"/>
<path opacity="0.11" d="M451.037 133.136C451.668 133.204 452.234 132.748 452.302 132.118C452.37 131.487 451.914 130.921 451.283 130.853C450.653 130.786 450.087 131.242 450.019 131.872C449.951 132.502 450.407 133.068 451.037 133.136Z" fill="white"/>
<path opacity="0.3" d="M161.012 112.291C162.274 112.427 163.407 111.515 163.543 110.253C163.679 108.991 162.766 107.858 161.504 107.722C160.242 107.586 159.109 108.499 158.973 109.76C158.837 111.022 159.75 112.155 161.012 112.291Z" fill="white"/>
<path opacity="0.11" d="M232.085 85.2941C233.346 85.43 234.479 84.5173 234.615 83.2555C234.751 81.9937 233.839 80.8606 232.577 80.7247C231.315 80.5887 230.182 81.5014 230.046 82.7632C229.91 84.0251 230.823 85.1582 232.085 85.2941Z" fill="white"/>
<path d="M235.821 45.2699C236.768 45.3718 237.617 44.6875 237.719 43.7414C237.821 42.7953 237.137 41.9457 236.191 41.8437C235.244 41.7418 234.395 42.4262 234.293 43.3723C234.191 44.3184 234.875 45.168 235.821 45.2699Z" fill="white"/>
<path d="M144.115 156.683C145.061 156.785 145.911 156.101 146.013 155.154C146.115 154.208 145.43 153.359 144.484 153.257C143.538 153.155 142.688 153.839 142.586 154.785C142.485 155.731 143.169 156.581 144.115 156.683Z" fill="white"/>
<path d="M520.773 220.366C521.719 220.467 522.568 219.783 522.67 218.837C522.772 217.891 522.088 217.041 521.142 216.939C520.196 216.838 519.346 217.522 519.244 218.468C519.142 219.414 519.827 220.264 520.773 220.366Z" fill="white"/>
<path d="M178.56 62.2064C179.506 62.3084 180.356 61.6241 180.458 60.678C180.56 59.7319 179.875 58.8822 178.929 58.7802C177.983 58.6783 177.134 59.3628 177.032 60.3089C176.93 61.255 177.614 62.1045 178.56 62.2064Z" fill="white"/>
<path d="M253.233 205.408C254.18 205.51 255.029 204.826 255.131 203.88C255.233 202.934 254.549 202.084 253.603 201.982C252.656 201.88 251.807 202.565 251.705 203.511C251.603 204.457 252.287 205.307 253.233 205.408Z" fill="white"/>
<path d="M564.205 160.35C565.151 160.452 566.001 159.768 566.103 158.821C566.205 157.875 565.521 157.026 564.574 156.924C563.628 156.822 562.779 157.506 562.677 158.452C562.575 159.398 563.259 160.248 564.205 160.35Z" fill="white"/>
<path d="M598.377 100.498C599.323 100.6 600.173 99.916 600.275 98.9699C600.377 98.0238 599.692 97.1742 598.746 97.0722C597.8 96.9703 596.951 97.6547 596.849 98.6008C596.747 99.5469 597.431 100.397 598.377 100.498Z" fill="white"/>
<path opacity="0.3" d="M329.917 56.5656C331.178 56.7016 332.311 55.7888 332.447 54.527C332.583 53.2652 331.671 52.1321 330.409 51.9961C329.147 51.8602 328.014 52.7729 327.878 54.0347C327.742 55.2966 328.655 56.4297 329.917 56.5656Z" fill="white"/>
<path d="M386.015 88.018C386.961 88.1199 387.811 87.4355 387.913 86.4894C388.014 85.5433 387.33 84.6937 386.384 84.5918C385.438 84.4899 384.588 85.1742 384.486 86.1203C384.384 87.0664 385.069 87.916 386.015 88.018Z" fill="white"/>
<path opacity="0.3" d="M446.208 49.4513C447.469 49.5873 448.602 48.6746 448.738 47.4127C448.874 46.1509 447.962 45.0178 446.7 44.8819C445.438 44.7459 444.305 45.6586 444.169 46.9205C444.033 48.1823 444.946 49.3154 446.208 49.4513Z" fill="white"/>
<path opacity="0.3" d="M550.515 142.705C551.777 142.841 552.91 141.928 553.046 140.667C553.182 139.405 552.269 138.272 551.007 138.136C549.746 138 548.612 138.913 548.477 140.174C548.341 141.436 549.253 142.569 550.515 142.705Z" fill="white"/>
<path opacity="0.3" d="M416.664 130.594C417.925 130.73 419.059 129.817 419.194 128.555C419.33 127.294 418.418 126.16 417.156 126.024C415.894 125.889 414.761 126.801 414.625 128.063C414.489 129.325 415.402 130.458 416.664 130.594Z" fill="white"/>
<path opacity="0.11" d="M507.393 103.409C508.655 103.545 509.788 102.633 509.924 101.371C510.06 100.109 509.147 98.9758 507.885 98.8399C506.623 98.704 505.49 99.6167 505.354 100.879C505.218 102.14 506.131 103.273 507.393 103.409Z" fill="white"/>
<path d="M1078.64 40.5259C1079.27 40.5938 1079.83 40.1378 1079.9 39.5075C1079.97 38.8771 1079.51 38.311 1078.88 38.2431C1078.25 38.1752 1077.69 38.6312 1077.62 39.2615C1077.55 39.8919 1078.01 40.458 1078.64 40.5259Z" fill="white"/>
<path opacity="0.11" d="M669.346 1.06106C669.976 1.12897 670.542 0.672988 670.61 0.0426092C670.678 -0.587769 670.222 -1.15385 669.592 -1.22176C668.961 -1.28967 668.395 -0.833693 668.327 -0.203315C668.259 0.427064 668.715 0.993151 669.346 1.06106Z" fill="white"/>
<path opacity="0.11" d="M1071.93 81.396C1072.56 81.4639 1073.13 81.0079 1073.19 80.3775C1073.26 79.7472 1072.81 79.1811 1072.18 79.1132C1071.55 79.0453 1070.98 79.5012 1070.91 80.1316C1070.84 80.762 1071.3 81.3281 1071.93 81.396Z" fill="white"/>
<path d="M937.374 11.4517C938.004 11.5196 938.57 11.0636 938.638 10.4332C938.706 9.80286 938.25 9.23678 937.62 9.16887C936.99 9.10096 936.423 9.55693 936.356 10.1873C936.288 10.8177 936.744 11.3838 937.374 11.4517Z" fill="white"/>
<path opacity="0.3" d="M857.443 2.83736C858.074 2.90527 858.64 2.44935 858.708 1.81897C858.776 1.18859 858.32 0.62251 857.689 0.554599C857.059 0.486688 856.493 0.942674 856.425 1.57305C856.357 2.20343 856.813 2.76945 857.443 2.83736Z" fill="white"/>
<path opacity="0.3" d="M954.458 35.2427C955.088 35.3106 955.654 34.8546 955.722 34.2242C955.79 33.5938 955.334 33.0278 954.704 32.9599C954.073 32.892 953.507 33.3479 953.44 33.9783C953.372 34.6087 953.828 35.1748 954.458 35.2427Z" fill="white"/>
<path opacity="0.3" d="M815.05 31.7691C815.68 31.837 816.246 31.381 816.314 30.7506C816.382 30.1202 815.926 29.5542 815.296 29.4863C814.665 29.4183 814.099 29.8743 814.031 30.5047C813.963 31.1351 814.419 31.7012 815.05 31.7691Z" fill="white"/>
<path d="M795.413 58.5365C796.359 58.6384 797.209 57.954 797.311 57.0079C797.413 56.0618 796.728 55.2123 795.782 55.1103C794.836 55.0084 793.987 55.6927 793.885 56.6388C793.783 57.5849 794.467 58.4345 795.413 58.5365Z" fill="white"/>
<path d="M646.375 15.9183C647.322 16.0202 648.171 15.3359 648.273 14.3898C648.375 13.4437 647.691 12.5941 646.745 12.4922C645.798 12.3902 644.949 13.0746 644.847 14.0207C644.745 14.9668 645.429 15.8164 646.375 15.9183Z" fill="white"/>
<path d="M984.423 62.7299C985.369 62.8318 986.218 62.1474 986.32 61.2013C986.422 60.2552 985.738 59.4056 984.792 59.3037C983.846 59.2018 982.996 59.8861 982.894 60.8322C982.792 61.7783 983.476 62.6279 984.423 62.7299Z" fill="white"/>
<path opacity="0.3" d="M772.772 16.8205C774.034 16.9565 775.167 16.0438 775.303 14.7819C775.439 13.5201 774.526 12.387 773.264 12.251C772.002 12.1151 770.869 13.0278 770.733 14.2897C770.597 15.5515 771.51 16.6846 772.772 16.8205Z" fill="white"/>
</g>
</g>
<rect width="1080" height="2148" fill="url(#paint2_linear_261_2)"/>
<rect width="1080" height="2148" transform="matrix(1 0 0 -1 0 2148)" fill="url(#paint3_radial_261_2)"/>
</g>
<defs>
<radialGradient id="paint0_radial_261_2" cx="0" cy="0" r="1" gradientUnits="userSpaceOnUse" gradientTransform="translate(857.406 -10.9152) rotate(26.5651) scale(1613.76 1291.01)">
<stop stop-color="#7877C6"/>
<stop offset="0.7" stop-opacity="0"/>
</radialGradient>
<radialGradient id="paint1_radial_261_2" cx="0" cy="0" r="1" gradientUnits="userSpaceOnUse" gradientTransform="translate(1256.74 -340.559) rotate(39.9732) scale(1112.67 1095.59)">
<stop/>
<stop offset="1" stop-opacity="0"/>
</radialGradient>
<linearGradient id="paint2_linear_261_2" x1="605.047" y1="2148" x2="605.047" y2="761.442" gradientUnits="userSpaceOnUse">
<stop stop-color="#0D0D12"/>
<stop offset="0.591955" stop-color="#0D0D12"/>
<stop offset="0.842079" stop-color="#0D0D12" stop-opacity="0"/>
</linearGradient>
<radialGradient id="paint3_radial_261_2" cx="0" cy="0" r="1" gradientUnits="userSpaceOnUse" gradientTransform="translate(540 927) rotate(-90) scale(718.5)">
<stop stop-color="#E86F0C"/>
<stop offset="1" stop-opacity="0"/>
</radialGradient>
<clipPath id="clip0_261_2">
<rect width="1080" height="2148" fill="white"/>
</clipPath>
<clipPath id="clip1_261_2">
<rect width="1705.38" height="1429.63" fill="white" transform="translate(404.046 -1055.37) rotate(39.1308)"/>
</clipPath>
</defs>
</svg>
