<svg width="70" height="70" viewBox="0 0 70 70" fill="none" xmlns="http://www.w3.org/2000/svg">
<path d="M21.6136 29.2927C21.1429 29.3241 20.986 29.0105 20.7664 28.791C18.5071 26.5329 16.2792 24.2435 13.9885 22.0482C13.3609 21.421 13.5492 21.1074 14.0826 20.5742C20.7978 13.8942 27.4815 7.21422 34.1339 0.502851C34.8556 -0.218465 35.2008 -0.12438 35.8598 0.534212C42.4808 7.21422 49.1331 13.8629 55.8169 20.4801C56.5072 21.1701 56.5072 21.5151 55.8169 22.1737C53.6203 24.2749 51.4866 26.4075 49.3842 28.6028C48.6311 29.3868 48.2231 29.2614 47.5328 28.5714C43.7045 24.714 39.8135 20.9192 36.048 16.999C35.138 16.0895 34.6987 16.215 33.8829 17.0304C30.1174 20.8878 26.2891 24.6826 22.4922 28.4773C22.1784 28.791 21.8647 29.0418 21.6136 29.2927Z" fill="#F3BA2F"/>
<path d="M35.1067 70C34.6673 70 34.4791 69.6864 34.2908 69.4982C27.5129 62.7241 20.7664 55.95 13.9885 49.2387C13.455 48.7055 13.455 48.3919 13.9885 47.8901C16.2792 45.6635 18.5385 43.4368 20.735 41.116C21.4567 40.3634 21.8333 40.7397 22.3353 41.2728C26.1636 45.1303 30.0546 48.9251 33.8201 52.8139C34.7615 53.7861 35.2322 53.6606 36.1108 52.7825C39.8135 48.9564 43.6732 45.2558 47.3759 41.4296C48.2859 40.4888 48.7566 40.6143 49.5724 41.4924C51.6121 43.6563 53.7459 45.7262 55.8796 47.8274C56.4445 48.3605 56.5386 48.7055 55.911 49.3014C49.1645 56.0128 42.4494 62.7241 35.7029 69.4669C35.546 69.6237 35.2949 69.8432 35.1067 70Z" fill="#F3BA2F"/>
<path d="M7.83818 26.8779C8.08921 27.0974 8.34024 27.2542 8.5599 27.4738C10.8192 29.7318 13.0471 31.9898 15.3064 34.2165C15.8085 34.6869 15.9654 35.0319 15.4005 35.5964C13.0785 37.8544 10.7878 40.1438 8.52852 42.4646C7.99507 43.0291 7.6499 42.935 7.17921 42.4332C4.95129 40.1752 2.72337 37.9172 0.432697 35.6905C-0.194886 35.0946 -0.100748 34.7496 0.464076 34.1851C2.75475 31.9585 4.98267 29.7004 7.21059 27.4424C7.39887 27.2542 7.61852 27.0974 7.83818 26.8779Z" fill="#F3BA2F"/>
<path d="M62.0927 42.9977C61.8103 42.7468 61.5906 42.5587 61.371 42.3391C59.1431 40.1438 56.9779 37.8858 54.7186 35.7218C54.0596 35.0946 54.1224 34.7183 54.75 34.1224C57.0093 31.9271 59.2058 29.7318 61.4024 27.4738C61.9986 26.8779 62.3437 26.9406 62.8772 27.5051C65.0737 29.7318 67.2703 31.9585 69.4982 34.1538C70.0316 34.6556 70.2513 35.0005 69.5923 35.6591C67.2703 37.9172 65.011 40.2065 62.7203 42.4959C62.5006 42.6527 62.3124 42.8096 62.0927 42.9977Z" fill="#F3BA2F"/>
<path d="M34.8556 27.0974C35.2949 27.0661 35.4518 27.3797 35.6715 27.5679C37.8994 29.7632 40.0959 32.0212 42.3239 34.1851C42.9514 34.8124 42.7945 35.1573 42.2611 35.6905C40.0646 37.8544 37.868 40.0184 35.7342 42.2137C35.1694 42.8096 34.7929 42.8096 34.228 42.2137C32.0943 40.0184 29.8977 37.8544 27.7012 35.6591C27.2619 35.2201 26.8853 34.9064 27.5443 34.2792C29.8663 32.0212 32.1256 29.7004 34.4163 27.4424C34.5418 27.317 34.7301 27.1915 34.8556 27.0974Z" fill="#F3BA2F"/>
</svg>
