<svg width="42" height="48" viewBox="0 0 42 48" fill="none" xmlns="http://www.w3.org/2000/svg">
<path fill-rule="evenodd" clip-rule="evenodd" d="M6.72381 42.5551H30.0504C33.564 42.5551 36.4122 39.7068 36.4122 36.1933V6.50488C36.4122 2.99134 33.564 0.143066 30.0504 0.143066H6.72381C3.21028 0.143066 0.362 2.99134 0.362 6.50488V36.1933C0.362 39.7068 3.21028 42.5551 6.72381 42.5551ZM6.72381 40.4345C4.38145 40.4345 2.4826 38.5357 2.4826 36.1933V6.50488C2.4826 4.16252 4.38145 2.26367 6.72381 2.26367H30.0504C32.3928 2.26367 34.2916 4.16252 34.2916 6.50488V36.1933C34.2916 38.5357 32.3928 40.4345 30.0504 40.4345H6.72381Z" fill="black"/>
<path d="M35.2762 47.8566H11.9496C8.77092 47.8566 6.13674 45.5254 5.66351 42.4794C5.9844 42.5293 6.31322 42.5551 6.64808 42.5551H7.842C8.31282 44.3844 9.97336 45.736 11.9496 45.736H35.2762C37.6186 45.736 39.5174 43.8372 39.5174 41.4948V11.8064C39.5174 9.83015 38.1658 8.16961 36.3365 7.69879V6.50488C36.3365 6.17001 36.3106 5.84119 36.2608 5.5203C39.3068 5.99354 41.638 8.62772 41.638 11.8064V41.4948C41.638 45.0084 38.7898 47.8566 35.2762 47.8566Z" fill="black"/>
</svg>
