<svg width="1000" height="112" viewBox="0 0 1000 112" fill="none" xmlns="http://www.w3.org/2000/svg">
<rect width="1000" height="112" rx="56" fill="white"/>
<path d="M364.113 68.9488C364.113 71.6723 365.748 73.091 368.533 73.091H376.374V58.4469H364.113V68.9488ZM379.109 73.091H386.966C389.735 73.091 391.386 71.6723 391.386 68.9488V58.4469H379.109V73.091ZM361.728 54.2722C361.728 56.0171 362.728 56.702 364.53 56.702H376.374V47.8795H373.771C371.152 47.8795 369.618 46.2651 369.618 44.4713C369.618 42.6774 370.952 41.6338 372.787 41.6338C374.772 41.6338 376.374 43.1014 376.374 45.5149V47.8795H379.109V45.5149C379.109 43.1014 380.711 41.6338 382.696 41.6338C384.531 41.6338 385.865 42.6774 385.865 44.4713C385.865 46.2651 384.347 47.8795 381.712 47.8795H379.109V56.702H390.97C392.771 56.702 393.772 56.0171 393.772 54.2722V50.3094C393.772 48.5645 392.771 47.8795 390.97 47.8795H387.099C388.067 46.9826 388.651 45.7596 388.651 44.3245C388.651 41.1608 386.099 38.9104 382.863 38.9104C380.527 38.9104 378.592 40.1661 377.741 42.3513C376.891 40.1661 374.972 38.9104 372.62 38.9104C369.401 38.9104 366.832 41.1608 366.832 44.3245C366.832 45.7596 367.416 46.9826 368.4 47.8795H364.53C362.812 47.8795 361.728 48.5645 361.728 50.3094V54.2722Z" fill="black"/>
<path d="M430.815 43.1414V68H426.311V43.1414H430.815ZM439.677 57.0758V68H435.283V49.356H439.483V52.524H439.702C440.13 51.4802 440.814 50.6508 441.753 50.0358C442.7 49.4208 443.869 49.1133 445.261 49.1133C446.547 49.1133 447.668 49.3884 448.623 49.9387C449.586 50.4889 450.33 51.286 450.856 52.3298C451.39 53.3737 451.653 54.6401 451.645 56.129V68H447.251V56.8088C447.251 55.5626 446.928 54.5875 446.28 53.8835C445.641 53.1795 444.755 52.8275 443.622 52.8275C442.853 52.8275 442.17 52.9974 441.571 53.3373C440.98 53.6691 440.515 54.1505 440.175 54.7817C439.843 55.4129 439.677 56.1776 439.677 57.0758ZM471.884 49.356L465.245 68H460.39L453.75 49.356H458.435L462.72 63.2055H462.914L467.211 49.356H471.884ZM474.711 68V49.356H479.105V68H474.711ZM476.92 46.7099C476.224 46.7099 475.626 46.4793 475.124 46.0181C474.622 45.5487 474.371 44.9864 474.371 44.3309C474.371 43.6674 474.622 43.105 475.124 42.6437C475.626 42.1744 476.224 41.9397 476.92 41.9397C477.624 41.9397 478.223 42.1744 478.717 42.6437C479.218 43.105 479.469 43.6674 479.469 44.3309C479.469 44.9864 479.218 45.5487 478.717 46.0181C478.223 46.4793 477.624 46.7099 476.92 46.7099ZM492.72 49.356V52.7547H482.002V49.356H492.72ZM484.648 44.8892H489.042V62.3922C489.042 62.983 489.131 63.4361 489.309 63.7517C489.495 64.0592 489.738 64.2696 490.037 64.3829C490.337 64.4962 490.668 64.5528 491.033 64.5528C491.308 64.5528 491.559 64.5326 491.785 64.4921C492.02 64.4517 492.198 64.4152 492.319 64.3829L493.06 67.8179C492.825 67.8989 492.489 67.9879 492.052 68.085C491.623 68.1821 491.097 68.2387 490.474 68.2549C489.374 68.2873 488.382 68.1214 487.5 67.7572C486.618 67.385 485.918 66.8105 485.4 66.0336C484.891 65.2568 484.64 64.2858 484.648 63.1205V44.8892ZM504.234 68.3641C502.365 68.3641 500.751 67.9757 499.391 67.1989C498.04 66.414 497 65.3054 496.272 63.8731C495.544 62.4327 495.179 60.7374 495.179 58.7873C495.179 56.8695 495.544 55.1863 496.272 53.7379C497.008 52.2813 498.036 51.1484 499.355 50.3392C500.674 49.5219 502.224 49.1133 504.004 49.1133C505.153 49.1133 506.237 49.2994 507.257 49.6716C508.284 50.0358 509.191 50.6022 509.976 51.3709C510.769 52.1397 511.392 53.1188 511.845 54.3083C512.298 55.4898 512.525 56.8978 512.525 58.5324V59.8797H497.243V56.918H508.313C508.305 56.0764 508.123 55.3279 507.767 54.6725C507.411 54.0089 506.913 53.487 506.274 53.1067C505.642 52.7264 504.906 52.5362 504.064 52.5362C503.166 52.5362 502.377 52.7547 501.698 53.1916C501.018 53.6205 500.488 54.187 500.107 54.891C499.735 55.5869 499.545 56.3516 499.537 57.185V59.7704C499.537 60.8548 499.735 61.7853 500.132 62.5622C500.528 63.3309 501.083 63.9216 501.795 64.3343C502.507 64.7389 503.34 64.9412 504.295 64.9412C504.934 64.9412 505.513 64.8522 506.031 64.6742C506.549 64.4881 506.998 64.217 507.378 63.8609C507.758 63.5049 508.046 63.0639 508.24 62.5379L512.343 62.9991C512.084 64.0835 511.59 65.0302 510.862 65.8394C510.142 66.6405 509.219 67.2636 508.094 67.7087C506.97 68.1457 505.683 68.3641 504.234 68.3641ZM524.487 68V43.1414H540.412V46.9163H528.99V53.665H539.32V57.4399H528.99V68H524.487ZM543.84 68V49.356H548.101V52.4634H548.295C548.635 51.3871 549.217 50.5577 550.043 49.9751C550.876 49.3844 551.827 49.089 552.895 49.089C553.138 49.089 553.409 49.1011 553.708 49.1254C554.016 49.1416 554.271 49.1699 554.473 49.2104V53.2523C554.287 53.1876 553.992 53.1309 553.587 53.0824C553.19 53.0258 552.806 52.9974 552.434 52.9974C551.633 52.9974 550.913 53.1714 550.273 53.5194C549.642 53.8592 549.144 54.3326 548.78 54.9395C548.416 55.5464 548.234 56.2464 548.234 57.0394V68H543.84ZM557.179 68V49.356H561.573V68H557.179ZM559.388 46.7099C558.692 46.7099 558.093 46.4793 557.591 46.0181C557.09 45.5487 556.839 44.9864 556.839 44.3309C556.839 43.6674 557.09 43.105 557.591 42.6437C558.093 42.1744 558.692 41.9397 559.388 41.9397C560.092 41.9397 560.69 42.1744 561.184 42.6437C561.686 43.105 561.937 43.6674 561.937 44.3309C561.937 44.9864 561.686 45.5487 561.184 46.0181C560.69 46.4793 560.092 46.7099 559.388 46.7099ZM574.131 68.3641C572.262 68.3641 570.647 67.9757 569.288 67.1989C567.937 66.414 566.897 65.3054 566.169 63.8731C565.44 62.4327 565.076 60.7374 565.076 58.7873C565.076 56.8695 565.44 55.1863 566.169 53.7379C566.905 52.2813 567.933 51.1484 569.252 50.3392C570.571 49.5219 572.12 49.1133 573.9 49.1133C575.05 49.1133 576.134 49.2994 577.153 49.6716C578.181 50.0358 579.087 50.6022 579.872 51.3709C580.665 52.1397 581.288 53.1188 581.742 54.3083C582.195 55.4898 582.421 56.8978 582.421 58.5324V59.8797H567.14V56.918H578.209C578.201 56.0764 578.019 55.3279 577.663 54.6725C577.307 54.0089 576.81 53.487 576.17 53.1067C575.539 52.7264 574.803 52.5362 573.961 52.5362C573.063 52.5362 572.274 52.7547 571.594 53.1916C570.915 53.6205 570.384 54.187 570.004 54.891C569.632 55.5869 569.442 56.3516 569.434 57.185V59.7704C569.434 60.8548 569.632 61.7853 570.028 62.5622C570.425 63.3309 570.979 63.9216 571.691 64.3343C572.403 64.7389 573.237 64.9412 574.192 64.9412C574.831 64.9412 575.41 64.8522 575.928 64.6742C576.445 64.4881 576.895 64.217 577.275 63.8609C577.655 63.5049 577.942 63.0639 578.137 62.5379L582.239 62.9991C581.98 64.0835 581.487 65.0302 580.758 65.8394C580.038 66.6405 579.116 67.2636 577.991 67.7087C576.866 68.1457 575.58 68.3641 574.131 68.3641ZM590.319 57.0758V68H585.925V49.356H590.125V52.524H590.343C590.772 51.4802 591.456 50.6508 592.395 50.0358C593.341 49.4208 594.511 49.1133 595.902 49.1133C597.189 49.1133 598.31 49.3884 599.265 49.9387C600.228 50.4889 600.972 51.286 601.498 52.3298C602.032 53.3737 602.295 54.6401 602.287 56.129V68H597.893V56.8088C597.893 55.5626 597.569 54.5875 596.922 53.8835C596.283 53.1795 595.397 52.8275 594.264 52.8275C593.495 52.8275 592.811 52.9974 592.212 53.3373C591.622 53.6691 591.156 54.1505 590.817 54.7817C590.485 55.4129 590.319 56.1776 590.319 57.0758ZM613.459 68.3277C611.994 68.3277 610.683 67.9514 609.526 67.1989C608.369 66.4463 607.455 65.3539 606.783 63.9216C606.111 62.4893 605.775 60.7496 605.775 58.7023C605.775 56.6307 606.115 54.8829 606.795 53.4587C607.483 52.0264 608.409 50.9461 609.575 50.2178C610.74 49.4815 612.039 49.1133 613.471 49.1133C614.563 49.1133 615.462 49.2994 616.166 49.6716C616.87 50.0358 617.428 50.4768 617.841 50.9947C618.253 51.5045 618.573 51.9859 618.8 52.4391H618.982V43.1414H623.388V68H619.067V65.0626H618.8C618.573 65.5158 618.245 65.9972 617.816 66.507C617.387 67.0087 616.821 67.4376 616.117 67.7937C615.413 68.1497 614.527 68.3277 613.459 68.3277ZM614.685 64.7227C615.615 64.7227 616.408 64.4719 617.064 63.9702C617.719 63.4604 618.217 62.7523 618.557 61.846C618.897 60.9397 619.067 59.8837 619.067 58.678C619.067 57.4723 618.897 56.4244 618.557 55.5343C618.225 54.6442 617.731 53.9523 617.076 53.4587C616.429 52.9651 615.632 52.7183 614.685 52.7183C613.706 52.7183 612.888 52.9732 612.233 53.483C611.577 53.9927 611.084 54.6968 610.752 55.595C610.42 56.4932 610.254 57.5209 610.254 58.678C610.254 59.8433 610.42 60.8831 610.752 61.7975C611.092 62.7038 611.59 63.4199 612.245 63.9459C612.909 64.4638 613.722 64.7227 614.685 64.7227ZM642.592 54.2841L638.586 54.721C638.473 54.3164 638.275 53.9361 637.992 53.5801C637.716 53.224 637.344 52.9367 636.875 52.7183C636.405 52.4998 635.831 52.3905 635.151 52.3905C634.237 52.3905 633.468 52.5888 632.845 52.9853C632.23 53.3818 631.927 53.8956 631.935 54.5268C631.927 55.069 632.125 55.51 632.529 55.8499C632.942 56.1897 633.622 56.4689 634.569 56.6874L637.749 57.3671C639.513 57.7474 640.824 58.3503 641.681 59.1757C642.547 60.0011 642.984 61.0813 642.992 62.4165C642.984 63.5899 642.64 64.6256 641.961 65.5238C641.289 66.414 640.354 67.1099 639.157 67.6116C637.959 68.1133 636.584 68.3641 635.03 68.3641C632.748 68.3641 630.911 67.8867 629.519 66.9319C628.127 65.9689 627.298 64.6297 627.031 62.9142L631.316 62.5015C631.51 63.3431 631.923 63.9783 632.554 64.4072C633.185 64.836 634.006 65.0505 635.018 65.0505C636.062 65.0505 636.899 64.836 637.53 64.4072C638.17 63.9783 638.489 63.4482 638.489 62.8171C638.489 62.283 638.283 61.842 637.87 61.494C637.466 61.1461 636.834 60.879 635.977 60.6929L632.796 60.0253C631.008 59.6531 629.685 59.026 628.827 58.1439C627.97 57.2538 627.545 56.129 627.553 54.7696C627.545 53.6205 627.856 52.6252 628.487 51.7836C629.127 50.934 630.013 50.2785 631.146 49.8173C632.287 49.3479 633.602 49.1133 635.091 49.1133C637.275 49.1133 638.995 49.5786 640.249 50.5091C641.512 51.4397 642.292 52.698 642.592 54.2841Z" fill="black"/>
</svg>
