<svg width="50" height="60" viewBox="0 0 50 60" fill="none" xmlns="http://www.w3.org/2000/svg">
<path d="M24.8828 60C19.7884 60 14.7174 60 9.62294 60C7.72133 60 7.01703 59.3203 6.99355 57.3984C6.99355 56.5781 6.97008 55.7578 6.99355 54.9375C7.04051 53.4141 7.72133 52.6172 9.20036 52.6641C10.3507 52.6875 10.562 52.2422 10.5151 51.2344C10.4446 49.6406 10.4681 48.0234 10.5151 46.4297C10.5855 43.4531 12.3462 41.7422 15.3043 41.7188C16.666 41.7188 18.0511 41.6953 19.4127 41.7422C20.0935 41.7656 20.4222 41.6016 20.3753 40.8516C20.3283 39.9141 20.3283 38.9766 20.3753 38.0391C20.3987 37.4531 20.2109 37.2422 19.5771 37.1953C17.5815 37.0547 16.9711 36.3984 17.0181 34.3828C17.0416 33.1406 16.6425 31.7812 17.6755 30.7031C17.9102 30.4688 17.7459 30.2812 17.5815 30.0937C17.1824 29.6016 16.7364 29.2266 16.126 28.9453C13.7548 27.8438 11.3837 26.7422 9.0595 25.5703C3.35466 22.6875 0.302694 18.0469 0.0444506 11.625C-0.0259795 9.79688 -0.00250283 7.94531 0.0444506 6.11719C0.0679273 4.21875 1.05395 3.28125 2.97904 3.28125C4.38764 3.28125 5.79624 3.25781 7.20484 3.28125C7.81524 3.30469 8.09696 3.21094 8.12043 2.48438C8.16739 0.609375 8.87169 0 10.7498 0C20.2109 0 29.672 0 39.1566 0C41.1287 0 41.786 0.5625 41.8564 2.50781C41.8799 3.16406 42.1147 3.28125 42.7016 3.28125C44.1572 3.25781 45.5892 3.25781 47.0448 3.28125C48.8995 3.30469 49.9559 4.21875 49.9324 6.04688C49.909 9 50.2611 12 49.5568 14.9062C48.3595 19.7344 45.5188 23.2734 41.0582 25.5C38.6871 26.6719 36.269 27.7734 33.8744 28.8984C33.3814 29.1328 32.9353 29.4375 32.5597 29.8359C32.184 30.2344 32.231 30.4922 32.4892 31.0078C33.3109 32.6484 33.1701 34.4297 32.6066 36.0938C32.3014 37.0078 31.3389 37.1953 30.4468 37.1719C29.7659 37.1484 29.5312 37.4062 29.5781 38.0625C29.6486 39.2344 29.1086 40.7109 29.7894 41.4609C30.4233 42.1875 31.9258 41.625 33.0527 41.6953C33.757 41.7422 34.4613 41.6953 35.1656 41.6953C37.3724 41.7656 39.1566 43.3359 39.3444 45.5156C39.4853 46.8984 39.4149 48.3281 39.4149 49.7344C39.4149 50.3438 39.2036 50.8594 38.4758 50.8125C37.8654 50.7656 37.6541 50.3203 37.6541 49.7344C37.6776 48.6797 37.6541 47.625 37.6541 46.5703C37.6541 44.4609 36.6916 43.4766 34.5787 43.4766C29.4842 43.4531 24.4133 43.4766 19.3188 43.4766C17.9806 43.4766 16.666 43.4531 15.3278 43.4766C13.2618 43.5234 12.2993 44.4844 12.2993 46.5234C12.2993 48.0469 12.2993 49.5703 12.2993 51.0938C12.2993 52.6172 12.2993 52.6172 13.7783 52.6172C22.3943 52.6172 30.9867 52.6172 39.6027 52.6172C39.9548 52.6172 40.307 52.6172 40.6591 52.6172C42.1616 52.6875 42.8894 53.3672 42.9364 54.8672C42.9833 55.8047 42.9598 56.7422 42.9364 57.6797C42.8894 59.2969 42.1382 60 40.4948 60C35.3064 60 30.0946 60 24.8828 60ZM24.9767 1.75781C21.15 1.75781 17.3233 1.73438 13.4731 1.78125C12.3228 1.80469 10.8437 1.26562 10.0925 2.0625C9.41165 2.78906 9.90466 4.21875 9.90466 5.34375C9.85771 13.4766 12.4167 20.7188 17.3703 27.1406C19.7179 30.1875 19.7414 30.1875 23.5446 30.1875C23.8968 30.1875 24.2489 30.1875 24.6011 30.1875C26.3618 30.1406 28.3339 30.75 29.8129 29.9766C31.6441 29.0156 32.724 27 33.9213 25.2656C38.5228 18.5625 40.3774 11.0859 40.0487 3.02344C40.0018 2.0625 39.7905 1.75781 38.8045 1.75781C34.203 1.78125 29.6016 1.75781 24.9767 1.75781ZM24.8593 58.2422C29.4373 58.2422 34.0152 58.2422 38.5932 58.2422C41.1991 58.2422 41.1287 58.2422 41.2226 55.6875C41.2695 54.5625 40.8704 54.3516 39.8374 54.3516C30.3529 54.375 20.8918 54.375 11.4306 54.375C8.7543 54.375 8.80126 54.375 8.7543 57.0938C8.73083 58.0547 9.08298 58.2656 9.97509 58.2656C14.9287 58.2188 19.9057 58.2422 24.8593 58.2422ZM14.4591 26.1562C11.1959 21.1172 9.20036 15.9609 8.44911 10.3359C8.19086 8.36719 8.12043 8.39062 6.05448 8.50781C5.44409 8.53125 5.27975 8.74219 5.25628 9.35156C5.02151 13.3828 6.03101 16.9219 9.31775 19.5703C9.78728 19.9453 10.1394 20.3906 9.69337 20.9531C9.20036 21.5625 8.68387 21.3047 8.16739 20.8828C6.38316 19.4766 5.13889 17.6719 4.29373 15.5391C3.28423 12.9844 3.58943 10.3125 3.56595 7.66406C3.56595 7.05469 3.94158 6.75 4.55198 6.77344C5.44409 6.77344 6.35968 6.75 7.2518 6.77344C7.90914 6.79688 8.12043 6.60938 8.12043 5.92969C8.12043 5.25 7.9561 4.94531 7.20484 4.96875C5.84319 5.01562 4.45807 4.99219 3.09642 4.96875C2.08692 4.94531 1.7113 5.41406 1.73477 6.39844C1.78173 8.10938 1.7113 9.79688 1.75825 11.4844C1.82868 14.3672 2.69732 16.9922 4.31721 19.3828C6.71183 22.8984 10.4916 24.3516 14.4591 26.1562ZM35.6586 26.1094C37.3959 25.2891 38.9923 24.5859 40.5417 23.7891C44.0633 21.9375 46.4344 19.125 47.6082 15.3281C48.5708 12.2344 48.1482 9.07031 48.1952 5.92969C48.1952 5.32031 47.7256 5.0625 47.1622 5.03906C45.5892 5.01562 44.0398 5.03906 42.4668 5.01562C41.6921 5.01562 41.9034 5.60156 41.8564 6.02344C41.8095 6.51562 41.9034 6.84375 42.5138 6.82031C43.4059 6.77344 44.3215 6.84375 45.2136 6.79688C46.0823 6.77344 46.4344 7.17187 46.4109 7.99219C46.3874 9.11719 46.4344 10.2656 46.4109 11.3906C46.2701 16.5 43.8754 20.25 39.274 22.4297C37.6072 23.2031 36.4333 24.2109 35.6586 26.1094ZM25.0941 31.875C23.8498 31.875 22.6056 31.875 21.3613 31.875C18.7554 31.875 18.7789 31.875 18.8258 34.4766C18.8258 35.2031 19.0371 35.4141 19.7649 35.3906C22.7229 35.3438 25.681 35.3672 28.6625 35.3672C31.245 35.3672 31.2215 35.3672 31.1276 32.7188C31.1041 32.0625 30.9163 31.8281 30.259 31.8516C28.5452 31.8984 26.8079 31.875 25.0941 31.875ZM38.4758 20.8359C38.9453 20.6016 39.1801 20.5312 39.3679 20.4141C43.0303 18.1875 44.7206 14.8828 44.6971 10.6641C44.6736 8.32031 44.5797 8.22656 42.3025 8.53125C41.8799 8.57812 41.6921 8.71875 41.6452 9.16406C41.2695 13.125 40.2131 16.9219 38.4758 20.8359ZM24.9767 37.2188C24.3194 37.2188 23.662 37.2422 22.9812 37.2188C22.4177 37.1953 22.1125 37.3125 22.136 37.9688C22.183 38.9766 22.183 39.9844 22.136 40.9922C22.1125 41.5547 22.3004 41.7422 22.8638 41.7188C24.2724 41.6953 25.681 41.6953 27.0661 41.7188C27.653 41.7422 27.8174 41.5078 27.7704 40.9688C27.747 40.6641 27.7704 40.3359 27.7704 40.0312C27.7939 37.2188 27.7939 37.2188 24.9767 37.2188Z" fill="#F3BA2F"/>
<path d="M28.686 22.0312C27.9817 22.0078 27.3713 21.3281 26.6905 20.8359C24.9767 19.6172 25.0002 19.6172 23.2864 20.8359C22.9108 21.1172 22.5351 21.3984 22.1595 21.6562C21.4787 22.125 20.7744 22.1719 20.0701 21.7031C19.3658 21.2344 19.131 20.5547 19.3423 19.7578C19.5771 18.8672 19.8588 17.9531 20.1875 17.0859C20.3987 16.5 20.3048 16.1484 19.7884 15.7969C19.0841 15.3281 18.3798 14.8125 17.6989 14.2969C17.0181 13.7812 16.666 13.1484 16.9242 12.2812C17.2059 11.3672 17.8398 10.8281 18.7554 10.9922C21.4082 11.4609 22.8873 10.5 23.2394 7.78125C23.3568 6.91406 24.0611 6.35156 25.0002 6.35156C25.9392 6.35156 26.667 6.89062 26.7609 7.78125C27.0896 10.5234 28.5686 11.4844 31.2215 11.0156C32.1371 10.8516 32.771 11.3906 33.0527 12.3047C33.3344 13.1719 33.0057 13.9453 32.278 14.3203C29.9303 15.4922 29.2495 17.0156 30.5172 19.4766C31.1745 20.7188 30.1885 22.0078 28.686 22.0312ZM20.9857 20.3203C22.0186 19.5703 22.7699 19.0547 23.4742 18.5156C24.4602 17.7188 25.4228 17.6719 26.4323 18.4922C27.16 19.0781 27.9348 19.5938 28.8034 20.2266C28.733 19.1016 28.2869 18.2109 27.9817 17.3203C27.5591 16.125 27.8643 15.3047 28.8738 14.6016C29.6486 14.0625 30.4702 13.5938 31.2685 12.7031C30.3998 12.7031 29.7425 12.7031 29.0851 12.7031C26.5027 12.7031 26.4792 12.6797 25.6575 10.1719C25.4697 9.58594 25.3993 8.92969 24.8593 8.36719C24.5072 9.44531 24.1785 10.3828 23.8498 11.3438C23.5446 12.2812 22.9108 12.7266 21.9247 12.7031C20.8918 12.6797 19.8588 12.7031 18.8258 12.7031C19.5771 13.5469 20.3753 14.1328 21.1735 14.7187C22.0421 15.3516 22.3238 16.125 21.9482 17.1562C21.6665 18.0703 21.3848 19.0547 20.9857 20.3203Z" fill="#F3BA2F"/>
</svg>
