<svg width="49" height="45" viewBox="0 0 49 45" fill="none" xmlns="http://www.w3.org/2000/svg">
<path d="M48.6 22.5044C48.6005 28.4187 46.2714 34.0953 42.1169 38.3055C37.9623 42.5157 32.3165 44.9207 26.4015 45H26.1C20.3559 45.0121 14.8274 42.8138 10.6605 38.8609C10.1398 38.3693 9.83585 37.691 9.81538 36.9753C9.79492 36.2596 10.0597 35.5651 10.5514 35.0445C11.0431 34.524 11.7215 34.2201 12.4373 34.1996C13.1532 34.1791 13.8478 34.4438 14.3685 34.9354C16.8125 37.2424 19.8824 38.778 23.1944 39.3505C26.5065 39.923 29.9138 39.5068 32.9906 38.1542C36.0675 36.8015 38.6774 34.5722 40.4942 31.7449C42.3109 28.9176 43.2541 25.6177 43.2057 22.2575C43.1572 18.8974 42.1195 15.626 40.222 12.8522C38.3245 10.0784 35.6515 7.92519 32.5369 6.66165C29.4224 5.39812 26.0045 5.08029 22.7103 5.74789C19.4162 6.41549 16.3918 8.03891 14.0152 10.4153C13.986 10.4445 13.959 10.4715 13.9275 10.4985L9.65025 14.406H13.5C14.2161 14.406 14.9028 14.6904 15.4092 15.1966C15.9155 15.7029 16.2 16.3895 16.2 17.1054C16.2 17.8214 15.9155 18.508 15.4092 19.0143C14.9028 19.5205 14.2161 19.8049 13.5 19.8049H2.7C1.98392 19.8049 1.29716 19.5205 0.790812 19.0143C0.284464 18.508 0 17.8214 0 17.1054V6.30758C0 5.59164 0.284464 4.90501 0.790812 4.39877C1.29716 3.89252 1.98392 3.60811 2.7 3.60811C3.41608 3.60811 4.10284 3.89252 4.60919 4.39877C5.11554 4.90501 5.4 5.59164 5.4 6.30758V10.9687L10.233 6.54603C13.385 3.41156 17.3951 1.28092 21.7572 0.423013C26.1193 -0.43489 30.6378 0.0184045 34.7424 1.72568C38.8471 3.43296 42.3538 6.3177 44.8201 10.0158C47.2864 13.7139 48.6017 18.0596 48.6 22.5044Z" fill="white"/>
</svg>
