<svg width="47" height="50" viewBox="0 0 47 50" fill="none" xmlns="http://www.w3.org/2000/svg">
<path fill-rule="evenodd" clip-rule="evenodd" d="M39.7978 6.69345C47.718 12.7449 49.302 25.5596 42.9659 36.5945C36.8058 47.4515 25.0136 52.6129 15.8614 48.6973C13.5734 47.6294 11.2853 46.5615 8.82129 45.1377L20.9655 23.7798L33.1097 2.42188C35.7498 3.66775 37.8618 5.09161 39.7978 6.69345Z" fill="url(#paint0_linear_192_197)"/>
<g style="mix-blend-mode:screen">
<path fill-rule="evenodd" clip-rule="evenodd" d="M39.6213 9.54083C45.0774 13.8124 47.0135 23.0675 43.6694 31.2547C40.5014 39.4419 33.2852 43.3575 27.1251 40.8658C25.5411 40.1538 24.1331 39.4419 22.373 38.552L28.7092 22.7115L35.0453 6.87109C36.8053 7.58302 38.2133 8.47294 39.6213 9.54083Z" fill="url(#paint1_radial_192_197)"/>
</g>
<g style="mix-blend-mode:soft-light">
<path fill-rule="evenodd" clip-rule="evenodd" d="M40.3258 9.00748C47.014 14.169 48.598 25.3819 43.4939 34.9929C38.7418 43.8921 29.9417 48.5196 22.5495 46.3838C17.7974 47.6297 13.0454 47.2737 8.82129 44.9599C11.2853 46.3838 13.3974 47.4517 15.8614 48.5196C25.0136 52.4352 36.8058 47.2737 42.9659 36.4168C49.126 25.5599 47.718 12.7451 39.7978 6.51572C37.6858 4.91388 35.7498 3.668 33.2857 2.24414C35.7498 3.668 37.6858 5.80379 39.2698 8.11756C39.6218 8.47353 39.9738 8.82949 40.3258 9.00748Z" fill="url(#paint2_radial_192_197)"/>
</g>
<path fill-rule="evenodd" clip-rule="evenodd" d="M34.6943 3.31161C43.6704 8.4731 45.6065 21.9998 39.0943 33.3907C32.5822 44.7815 20.086 49.765 11.1098 44.6035C2.13368 39.4421 0.0216441 25.9154 6.53376 14.3465C13.2219 2.95564 25.7181 -2.02787 34.6943 3.31161Z" fill="#FCCE3A"/>
<path fill-rule="evenodd" clip-rule="evenodd" d="M33.2858 2.24353C42.7899 7.76099 44.902 21.8216 38.2138 33.5685C31.5257 45.3153 18.3255 50.4768 8.82133 44.9593C-0.682838 39.4419 -2.79488 25.3813 3.89324 13.6344C10.5814 1.70959 23.7816 -3.27392 33.2858 2.24353Z" fill="url(#paint3_radial_192_197)"/>
<path fill-rule="evenodd" clip-rule="evenodd" d="M23.4284 40.8651C23.2524 41.399 22.9004 41.933 22.1964 42.111C21.6683 42.2889 21.1403 42.111 20.6123 41.933C17.7963 42.6449 14.9802 42.4669 12.3402 41.221C4.77204 37.6614 2.308 26.8045 6.88408 17.0154C9.34812 11.6759 13.3962 7.76033 17.7963 5.80252C17.7963 5.09059 18.3243 4.55665 19.2043 4.37866C19.9083 4.20068 20.6123 4.37866 20.9643 4.91261C22.0203 4.73463 22.9004 4.55665 23.9564 4.55665C24.1324 4.20068 24.6604 4.0227 25.1884 4.20068C25.5404 4.37867 25.8924 4.55665 26.0684 4.91261C26.9484 5.09059 27.8284 5.44656 28.7085 5.80252C36.2766 9.36217 38.7406 20.2191 34.1646 30.0081C31.7005 34.9917 27.8284 38.9073 23.4284 40.8651Z" fill="#FFFCE4"/>
<path fill-rule="evenodd" clip-rule="evenodd" d="M30.1177 6.51568C37.1578 10.6093 38.7418 21.4662 33.4617 30.7213C28.1816 39.9764 18.1494 44.07 11.1093 39.9764C4.0692 35.8828 2.48517 25.0259 7.76526 15.7708C12.8694 6.51568 22.9015 2.42208 30.1177 6.51568Z" fill="url(#paint4_radial_192_197)"/>
<g style="mix-blend-mode:soft-light" opacity="0.5">
<path fill-rule="evenodd" clip-rule="evenodd" d="M11.6373 19.5082C16.5654 10.787 26.0696 6.8714 32.7577 10.787C33.6377 11.321 34.5177 12.0329 35.3978 12.9228C34.3417 10.2531 32.5817 8.11727 30.1177 6.69341C23.0775 2.59982 13.0454 6.69341 7.76526 15.9485C2.48517 25.2036 4.0692 36.0605 11.1093 40.1541C11.6373 40.5101 12.1653 40.6881 12.6933 40.8661C7.76526 36.0605 7.06125 27.1614 11.6373 19.5082Z" fill="url(#paint5_radial_192_197)"/>
</g>
<path fill-rule="evenodd" clip-rule="evenodd" d="M10.0533 17.1946C14.8054 8.82945 23.6055 4.55787 30.4697 7.04963C30.6457 7.04963 30.8217 7.22761 31.1737 7.22761C30.9977 7.04963 30.8217 6.87164 30.6457 6.87164C30.4697 6.69366 30.2937 6.69366 30.1177 6.51568C23.0775 2.42208 13.0454 6.51568 7.76526 15.7708C2.48517 25.0259 4.0692 35.8828 11.1093 39.9764C11.2853 40.1544 11.4613 40.1544 11.6373 40.3324C11.8133 40.5103 11.9893 40.5103 12.3413 40.6883C12.1653 40.5103 11.9893 40.3324 11.8133 40.3324C6.00523 35.3489 5.12521 25.5598 10.0533 17.1946Z" fill="url(#paint6_linear_192_197)"/>
<g style="mix-blend-mode:soft-light">
<path fill-rule="evenodd" clip-rule="evenodd" d="M25.5416 6.3377C27.3016 6.15971 28.8856 6.51568 30.4697 7.04963C30.6457 7.04963 30.8217 7.22761 31.1737 7.22761C30.9977 7.04963 30.8217 6.87164 30.6457 6.87164C30.4697 6.69366 30.2937 6.69366 30.1177 6.51568C23.0775 2.42208 13.0454 6.51568 7.76526 15.7708C2.48517 25.0259 4.0692 35.8828 11.1093 39.9764C11.2853 40.1544 11.4613 40.1544 11.6373 40.3324C11.8133 40.5103 11.9893 40.5103 12.3413 40.6883C12.1653 40.5103 11.9893 40.3324 11.8133 40.3324C10.9333 39.6204 10.2293 38.7305 9.52529 37.8406C4.2452 33.391 3.36518 24.3139 7.76526 16.3047C11.8133 8.65147 19.3815 4.73585 25.5416 6.3377Z" fill="url(#paint7_radial_192_197)"/>
</g>
<g style="mix-blend-mode:screen">
<path fill-rule="evenodd" clip-rule="evenodd" d="M31.7014 10.6087C19.0292 4.91325 7.41296 21.2876 8.99699 32.1446C16.0371 29.4748 27.4773 23.6014 31.7014 10.6087Z" fill="url(#paint8_radial_192_197)"/>
</g>
<defs>
<linearGradient id="paint0_linear_192_197" x1="19.8674" y1="51.3845" x2="44.6746" y2="8.89491" gradientUnits="userSpaceOnUse">
<stop stop-color="#E86F0C"/>
<stop offset="0.6877" stop-color="#FC940D"/>
<stop offset="1" stop-color="#E86F0C"/>
</linearGradient>
<radialGradient id="paint1_radial_192_197" cx="0" cy="0" r="1" gradientUnits="userSpaceOnUse" gradientTransform="translate(28.7975 22.857) scale(22.9089 23.1666)">
<stop stop-color="#FFF369"/>
<stop offset="0.1102" stop-color="#FAEF67"/>
<stop offset="0.2341" stop-color="#EDE262"/>
<stop offset="0.3647" stop-color="#D6CC58"/>
<stop offset="0.4999" stop-color="#B7AE4B"/>
<stop offset="0.6388" stop-color="#8E873B"/>
<stop offset="0.7807" stop-color="#5C5826"/>
<stop offset="0.9223" stop-color="#23210E"/>
<stop offset="1"/>
</radialGradient>
<radialGradient id="paint2_radial_192_197" cx="0" cy="0" r="1" gradientUnits="userSpaceOnUse" gradientTransform="translate(16.7846 21.2792) scale(33.2475 33.6214)">
<stop offset="0.5149" stop-color="white"/>
<stop offset="0.679" stop-color="#E6DDC3"/>
<stop offset="1" stop-color="#B09444"/>
</radialGradient>
<radialGradient id="paint3_radial_192_197" cx="0" cy="0" r="1" gradientUnits="userSpaceOnUse" gradientTransform="translate(12.3403 1.36715) scale(42.6338 43.1132)">
<stop stop-color="#FCF80D"/>
<stop offset="1" stop-color="#FC9C0D"/>
</radialGradient>
<radialGradient id="paint4_radial_192_197" cx="0" cy="0" r="1" gradientUnits="userSpaceOnUse" gradientTransform="translate(0.0753294 -2.90582) scale(52.0943 52.6802)">
<stop stop-color="#FCF80D"/>
<stop offset="1" stop-color="#F78A0C"/>
</radialGradient>
<radialGradient id="paint5_radial_192_197" cx="0" cy="0" r="1" gradientUnits="userSpaceOnUse" gradientTransform="translate(29.1229 27.2917) scale(30.0965 30.435)">
<stop offset="0.5149" stop-color="white"/>
<stop offset="0.6851" stop-color="#FFE2C3"/>
<stop offset="1" stop-color="#FFA84B"/>
</radialGradient>
<linearGradient id="paint6_linear_192_197" x1="5.16376" y1="36.5568" x2="24.2409" y2="3.88157" gradientUnits="userSpaceOnUse">
<stop stop-color="#FC940D"/>
<stop offset="1" stop-color="#E86F0C"/>
</linearGradient>
<radialGradient id="paint7_radial_192_197" cx="0" cy="0" r="1" gradientUnits="userSpaceOnUse" gradientTransform="translate(29.6579 28.5777) scale(29.1764 29.5045)">
<stop offset="0.5149" stop-color="white"/>
<stop offset="0.679" stop-color="#E6DDC3"/>
<stop offset="1" stop-color="#B09444"/>
</radialGradient>
<radialGradient id="paint8_radial_192_197" cx="0" cy="0" r="1" gradientUnits="userSpaceOnUse" gradientTransform="translate(-0.946309 -2.31) scale(38.7965 39.2329)">
<stop stop-color="#FFF369"/>
<stop offset="0.1102" stop-color="#FAEF67"/>
<stop offset="0.2341" stop-color="#EDE262"/>
<stop offset="0.3647" stop-color="#D6CC58"/>
<stop offset="0.4999" stop-color="#B7AE4B"/>
<stop offset="0.6388" stop-color="#8E873B"/>
<stop offset="0.7807" stop-color="#5C5826"/>
<stop offset="0.9223" stop-color="#23210E"/>
<stop offset="1"/>
</radialGradient>
</defs>
</svg>
