<svg width="101" height="108" viewBox="0 0 101 108" fill="none" xmlns="http://www.w3.org/2000/svg">
<g filter="url(#filter0_d_421_1244)">
<path d="M8.46654 11.5054L4 20.0662L10.3276 89.4837C10.3276 89.4837 13.1192 102.511 23.7272 102.511L82.5367 104C82.5367 104 93.5169 101.767 96.1224 85.2033C98.7279 69.0121 8.46654 11.5054 8.46654 11.5054Z" fill="url(#paint0_linear_421_1244)"/>
<path d="M83.4675 96.5557C82.7231 96.7418 81.9787 96.7418 81.2342 96.7418H27.6358C19.4471 96.7418 12.5612 90.2281 12.189 82.0395V80.5506L8.46686 11.5054H88.4924L96.681 79.2479C97.6115 87.8088 91.6562 95.4391 83.4675 96.5557Z" fill="url(#paint1_linear_421_1244)"/>
<path opacity="0.5" d="M16.8415 23.9751C16.8415 23.9751 16.6554 77.7597 18.1442 82.4123C19.6331 87.065 23.3552 90.2288 50.1544 89.6704C76.9537 89.1121 81.7924 89.1121 84.0257 87.065C86.259 85.0178 88.4922 82.4123 89.4228 77.0153C90.3533 71.8043 16.8415 23.9751 16.8415 23.9751Z" fill="#912774"/>
<path d="M19.6325 14.6704L16.8409 23.9757L20.9353 76.6436C20.9353 76.6436 23.1685 85.3906 32.1016 86.3212L78.6281 86.6934C78.6281 86.6934 89.4222 83.1574 89.9805 74.0382C90.725 64.5468 19.6325 14.6704 19.6325 14.6704Z" fill="url(#paint2_linear_421_1244)"/>
<path d="M19.6329 14.6704H83.8394L90.3531 69.9438C91.0976 77.0159 85.8866 83.1573 78.8146 83.1573L36.7547 79.9936C30.6132 79.9936 25.2161 75.1548 24.4717 68.8272L19.6329 14.6704Z" fill="url(#paint3_linear_421_1244)"/>
<path d="M33.4059 58.4064C33.4059 58.2203 33.4059 58.0342 33.4059 57.8481C33.4059 57.4759 33.9643 56.9175 34.8948 56.3592C35.8253 55.8009 37.1281 55.2426 38.6169 54.8704C38.9891 55.0565 39.5474 55.4287 40.1058 56.1731C40.6641 56.7314 40.8502 57.2898 41.0363 57.8481C41.0363 57.8481 41.0363 58.0342 40.8502 58.0342C40.6641 58.0342 40.6641 58.2203 40.478 58.2203C40.2919 58.2203 40.2919 58.4064 40.1058 58.4064C40.8502 58.9647 41.7807 59.1508 42.7112 59.1508C44.014 59.1508 44.9445 58.7786 45.875 57.8481C46.8056 57.1036 47.1778 55.987 46.9917 54.8704C46.8056 53.7537 46.0611 52.6371 44.9445 51.8927C44.5723 51.8927 44.3862 52.0788 44.014 52.0788C43.6418 52.0788 43.2696 52.0788 42.8973 51.8927C42.1529 51.1483 41.7807 50.2177 41.5946 48.915C41.4085 47.9845 41.5946 47.24 41.7807 46.6817C41.9668 46.4956 42.339 46.3095 43.0834 46.3095C43.2696 46.3095 43.6418 46.3095 44.014 46.3095C44.3862 46.3095 44.5723 46.3095 44.7584 46.3095C45.6889 45.7512 46.2472 44.8207 46.0611 43.8901C45.875 43.1457 45.5028 42.4013 44.7584 41.843C44.014 41.2847 43.0834 41.0985 41.9668 41.0985C41.2224 41.0985 40.478 41.2847 39.9196 41.6569L40.2919 42.4013C40.2919 42.5874 39.9196 42.7735 39.5474 42.9596C38.9891 43.1457 38.6169 43.1457 38.4308 43.1457C37.8725 43.1457 37.1281 42.5874 36.3836 41.4708C35.6392 40.3541 35.267 39.4236 35.0809 38.6792C35.267 38.307 35.6392 37.9347 36.0114 37.5625C36.5697 37.1903 37.1281 37.0042 37.6864 37.0042L38.0586 37.3764C39.1752 37.0042 40.2919 36.8181 41.4085 36.8181C43.6418 36.8181 45.5028 37.3764 47.3639 38.4931C49.0388 39.6097 50.1555 41.2847 50.3416 43.3318C50.7138 45.7512 49.7833 47.7984 47.9222 49.6594C50.3416 51.3344 51.6443 53.1954 52.0165 55.2426C52.2026 57.4759 51.4582 59.3369 49.5972 61.198C47.7361 62.8729 45.5028 63.8035 42.8973 63.8035C40.2919 63.8035 38.0586 62.8729 36.1975 60.8258C35.6392 61.0119 35.267 61.198 35.267 61.198C33.9643 60.2674 33.4059 59.3369 33.4059 58.4064Z" fill="black"/>
<path d="M54.9938 52.8224C54.8077 50.9613 54.9938 49.1003 55.3661 47.0531C55.9244 45.192 56.6688 43.331 57.7854 41.8421C58.9021 40.1672 60.3909 39.0505 62.252 37.9339C64.113 37.0034 65.9741 36.4451 68.2074 36.4451C71.3712 36.4451 73.9766 37.3756 75.8377 39.4228C77.6988 41.4699 78.8154 44.0754 79.1876 47.2392C79.3737 48.7281 79.3737 50.2169 79.1876 51.7057C79.0015 53.1946 78.6293 54.6834 78.071 55.9862C77.5127 57.2889 76.7682 58.5917 75.8377 59.7083C74.9072 60.8249 73.6044 61.5694 72.1156 62.3138C70.6267 62.8721 68.9518 63.2443 67.0907 63.2443C63.7408 63.2443 61.1353 62.3138 58.9021 60.2666C56.6688 58.4056 55.3661 55.8001 54.9938 52.8224ZM60.577 52.2641C60.7631 54.1251 61.5076 55.614 62.6242 56.5445C63.7408 57.6611 65.0436 58.2195 66.7185 58.2195C68.3935 58.2195 69.8823 57.6611 71.1851 56.3584C72.4878 55.0557 73.4183 53.7529 73.9766 52.078C74.535 50.403 74.7211 48.7281 74.535 47.2392C74.3489 45.5643 73.7905 44.2615 72.6739 43.1449C71.5573 42.0282 70.2545 41.656 68.5796 41.656C66.7185 41.656 65.2297 42.2144 63.9269 43.331C62.6242 44.4476 61.6937 45.7504 61.1353 47.4253C60.577 49.1003 60.3909 50.7752 60.577 52.2641Z" fill="black"/>
<path d="M41.2221 65.6655C38.6166 65.6655 36.3833 64.7349 34.5223 62.8739C33.9639 63.06 33.7778 63.2461 33.5917 63.2461H33.4056L33.2195 63.06C32.1029 62.1294 31.3585 61.0128 31.3585 59.8962C31.3585 59.7101 31.3585 59.524 31.3585 59.3379C31.3585 58.7795 31.9168 58.2212 33.0334 57.4768C33.9639 56.9185 35.2667 56.3602 36.9416 55.8018H37.1277H37.3138C37.8722 55.988 38.4305 56.5463 38.9888 57.1046C39.5471 57.849 39.9193 58.4073 39.9193 58.9656C39.9193 59.3379 39.7332 59.524 39.5471 59.7101C40.1054 59.8962 40.6638 60.0823 41.4082 60.0823C42.5248 60.0823 43.4553 59.7101 44.3859 58.9656C45.1303 58.2212 45.5025 57.2907 45.3164 56.3602C45.1303 55.4296 44.572 54.4991 43.6414 53.7547C42.897 53.9408 42.1526 53.7547 41.5943 53.5686H41.2221C40.4776 52.8242 40.1054 51.7075 39.9193 50.4048C39.7332 49.4742 39.9193 48.5437 40.1054 47.9854V47.7993C40.4776 47.4271 40.8499 47.241 41.5943 47.241C41.7804 47.241 42.1526 47.241 42.7109 47.241C42.897 47.241 43.0831 47.241 43.2692 47.241C44.0137 46.6827 44.3859 46.1243 44.1998 45.3799C44.1998 44.6355 43.6414 44.0772 43.0831 43.705C42.3387 43.1466 41.5943 42.9605 40.6638 42.9605C40.1054 42.9605 39.7332 43.1467 39.1749 43.3328L39.361 43.8911V44.0772C39.1749 44.6355 38.6166 44.8216 38.2444 45.0077C37.6861 45.1938 37.3138 45.1938 36.9416 45.1938C36.1972 45.1938 35.2667 44.6355 34.5223 43.3328C33.7778 42.2161 33.2195 41.2856 33.0334 40.3551V40.169V39.9829C33.2195 39.4245 33.5917 39.0523 34.15 38.6801C34.7084 38.3079 35.4528 37.9357 36.0111 37.9357H36.1972L36.5694 38.1218C37.6861 37.7496 38.8027 37.5635 39.9193 37.5635C42.1526 37.5635 44.1998 38.1218 46.0608 39.2384C47.9219 40.3551 49.0385 42.2161 49.2246 44.4494C49.5968 46.6827 48.8524 48.9159 46.9914 50.777C49.2246 52.4519 50.5274 54.313 50.7135 56.3602C51.0857 58.7795 50.1552 60.8267 48.108 62.6878C46.2469 64.7349 44.0137 65.6655 41.2221 65.6655ZM34.7084 61.7572L34.8945 61.9433C36.5694 63.8044 38.8027 64.7349 41.2221 64.7349C43.6414 64.7349 45.8747 63.9905 47.5497 62.3155C49.4107 60.6406 50.1551 58.9656 49.7829 56.9185C49.5968 54.8713 48.2941 53.1964 45.8747 51.7075L45.3164 51.3353L45.6886 50.9631C47.5497 49.2881 48.2941 47.241 47.9219 45.0077C47.7358 42.9605 46.8052 41.4717 45.1303 40.5412C43.4553 39.4245 41.5943 38.8662 39.5471 38.8662C38.4305 38.8662 37.3138 39.0523 36.3833 39.4245H36.1972L35.825 39.0523C35.4528 39.0523 34.8945 39.2384 34.5223 39.6106C34.15 39.9829 33.7778 40.169 33.7778 40.5412C33.9639 41.2856 34.3362 42.03 35.0806 42.9605C35.825 44.0772 36.3833 44.4494 36.7555 44.4494C36.9416 44.4494 37.3138 44.4494 37.8722 44.2633C38.0583 44.2633 38.2444 44.0772 38.2444 44.0772L37.8722 43.1467L38.2444 42.9605C39.9193 42.03 41.9665 42.2161 43.6414 43.3328C44.572 44.0772 45.1303 44.8216 45.1303 45.7521C45.3164 46.4966 44.9442 47.6132 43.6414 48.5437H43.4553H43.2692C43.2692 48.5437 43.0831 48.5437 42.5248 48.5437C42.1526 48.5437 41.7804 48.5437 41.5943 48.5437C41.2221 48.5437 40.8499 48.5437 40.8499 48.7298C40.6638 49.2881 40.6638 49.8465 40.6638 50.5909C40.8499 51.7075 41.2221 52.638 41.7804 53.1964C42.1526 53.3825 42.897 53.3825 43.4553 53.1964H43.6414L43.8275 53.3825C45.1303 54.313 46.0608 55.4296 46.0608 56.7324C46.2469 58.0351 45.8747 59.3379 44.7581 60.2684C43.8275 61.1989 42.5248 61.5711 41.2221 61.5711C40.1054 61.5711 39.1749 61.1989 38.2444 60.6406L37.8722 60.2684L38.2444 59.8962C38.4305 59.7101 38.4305 59.7101 38.6166 59.524L38.8027 59.3379C38.8027 59.1518 38.4305 58.7795 38.0583 58.2212C37.6861 57.6629 37.3138 57.2907 36.9416 57.1046C35.4528 57.4768 34.3362 58.0351 33.4056 58.5934C32.289 59.3379 32.1029 59.7101 32.1029 59.7101C32.1029 59.8962 32.1029 60.0823 32.1029 60.0823C32.289 60.8267 32.6612 61.5711 33.5917 62.5017C33.7778 62.5017 33.9639 62.3155 34.3362 62.1294L34.7084 61.7572Z" fill="#542CAE"/>
<path d="M65.416 65.2932C62.0661 65.2932 59.0884 64.3627 56.8551 62.3155C54.6218 60.2684 53.3191 57.6629 52.9469 54.4991C52.7608 52.638 52.9469 50.5909 53.5052 48.5437C54.0635 46.4966 54.994 44.8216 56.1107 43.1467C57.2273 41.4717 58.7161 40.169 60.5772 39.0523C62.4383 37.9357 64.4854 37.5635 66.7187 37.5635C70.0686 37.5635 72.6741 38.6801 74.7212 40.7273C76.5823 42.7744 77.6989 45.566 78.2573 48.7298C78.4434 50.2187 78.4434 51.7075 78.2573 53.1964C78.0712 54.6852 77.6989 56.1741 77.1406 57.6629C76.5823 59.1518 75.6518 60.4545 74.7212 61.385C73.7907 62.5017 72.488 63.4322 70.813 64.1766C69.3242 64.921 67.4631 65.2932 65.416 65.2932ZM53.8774 54.313C54.2496 57.2907 55.5523 59.7101 57.5995 61.5711C59.6467 63.4322 62.2522 64.3627 65.6021 64.3627C67.4631 64.3627 69.1381 63.9905 70.4408 63.4322C71.9297 62.8739 73.0463 61.9433 73.9768 61.0128C74.9073 59.8962 75.6518 58.7795 76.2101 57.4768C76.7684 56.1741 77.1406 54.6852 77.3267 53.3825C77.5128 51.8936 77.5128 50.5909 77.3267 49.102C76.9545 46.1243 75.8379 43.5189 74.1629 41.6578C72.488 39.7967 69.8825 38.6801 66.9048 38.6801C64.8576 38.6801 62.8105 39.2384 61.1355 40.169C59.4606 41.0995 57.9717 42.4022 56.8551 43.8911C55.7385 45.3799 54.994 47.241 54.4357 49.102C53.8774 50.5909 53.6913 52.4519 53.8774 54.313ZM65.2299 60.2684C63.5549 60.2684 62.0661 59.7101 60.7633 58.5934C59.6467 57.4768 58.9023 55.8018 58.53 53.9408C58.3439 52.2658 58.53 50.5909 59.0884 48.9159C59.6467 47.241 60.5772 45.7521 61.8799 44.6355C63.1827 43.5189 64.8576 42.7744 66.7187 42.7744C68.5798 42.7744 70.0686 43.3328 71.1852 44.4494C72.3019 45.566 72.8602 47.0549 73.2324 48.7298C73.4185 50.4048 73.2324 52.0797 72.6741 53.7547C72.1158 55.4296 71.1852 57.1046 69.8825 58.2212C68.7659 59.524 67.0909 60.2684 65.2299 60.2684ZM66.9048 43.705C65.2298 43.705 63.741 44.2633 62.6244 45.3799C61.3216 46.4966 60.5772 47.7993 60.0189 49.2881C59.4606 50.777 59.4606 52.2658 59.4606 53.9408C59.6467 55.6157 60.3911 57.1046 61.3216 58.0351C62.4383 58.9656 63.5549 59.524 65.0437 59.524C66.5326 59.524 68.0214 58.9656 69.1381 57.849C70.4408 56.7324 71.1852 55.2435 71.7436 53.7547C72.3019 52.0797 72.488 50.5909 72.3019 49.102C72.1158 47.6132 71.5574 46.3104 70.6269 45.3799C69.8825 44.0772 68.5798 43.705 66.9048 43.705Z" fill="#542CAE"/>
<path d="M41.5946 65.2934C38.9891 65.2934 36.7558 64.3629 34.8947 62.5018C34.3364 62.6879 34.1503 62.874 33.9642 62.874H33.7781V62.6879C32.6615 61.7574 31.9171 60.6407 31.9171 59.5241C31.9171 59.338 31.9171 59.1519 31.9171 58.9658C31.9171 58.4075 32.4754 57.8492 33.592 57.1047C34.5225 56.5464 35.8253 55.9881 37.5002 55.4298H37.6863H37.8724C38.4308 55.6159 38.9891 56.1742 39.5474 56.7325C40.1057 57.4769 40.4779 58.0353 40.4779 58.5936C40.4779 58.9658 40.2918 59.1519 40.1057 59.338C40.664 59.5241 41.2223 59.7102 41.9668 59.7102C43.0834 59.7102 44.0139 59.338 44.9445 58.5936C45.6889 57.8492 46.0611 56.9186 45.875 55.9881C45.6889 55.0576 45.1306 54.127 44.2 53.3826C43.4556 53.5687 42.7112 53.3826 42.1529 53.1965L41.9668 53.0104C41.2223 52.266 40.8501 51.1493 40.664 49.8466C40.4779 48.9161 40.664 47.9855 40.8501 47.4272V47.2411C41.2223 46.8689 41.5946 46.6828 42.339 46.6828C42.5251 46.6828 42.8973 46.6828 43.4556 46.6828C43.6417 46.6828 43.8278 46.6828 44.0139 46.6828C44.7584 46.1245 45.1306 45.5662 44.9445 44.8217C44.9445 44.0773 44.3861 43.519 43.8278 43.1468C43.0834 42.5885 42.339 42.4024 41.4085 42.4024C40.8501 42.4024 40.4779 42.5885 39.9196 42.7746L40.1057 43.3329V43.519C39.9196 44.0773 39.3613 44.2634 38.9891 44.4495C38.0585 44.6356 37.5002 44.8217 37.128 44.8217C36.3836 44.8217 35.4531 44.2634 34.7086 42.9607C33.9642 41.8441 33.4059 40.9135 33.2198 39.983V39.7969V39.6108C33.4059 39.0525 33.7781 38.6803 34.3364 38.308C34.8947 37.9358 35.6392 37.5636 36.1975 37.5636H36.3836L36.7558 37.7497C37.8724 37.3775 38.9891 37.1914 40.1057 37.1914C42.339 37.1914 44.3861 37.7497 46.2472 38.8664C48.1083 39.983 49.2249 41.8441 49.411 44.0773C49.7832 46.3106 49.0388 48.5439 47.1777 50.4049C49.411 52.0799 50.7137 53.9409 50.8998 55.9881C51.2721 58.4075 50.3415 60.4546 48.2944 62.3157C46.6194 64.3629 44.3861 65.2934 41.5946 65.2934ZM35.0809 61.3852L35.267 61.5713C36.9419 63.4323 39.1752 64.3629 41.5946 64.3629C44.0139 64.3629 46.2472 63.6184 47.9222 61.9435C49.7832 60.2685 50.5276 58.5936 50.1554 56.5464C49.9693 54.4992 48.6666 52.8243 46.2472 51.3354L45.6889 50.9632L46.0611 50.591C47.9222 48.9161 48.6666 46.8689 48.2944 44.6356C48.1083 42.5885 47.1777 41.0996 45.5028 40.1691C43.8278 39.0525 41.9668 38.4941 39.9196 38.4941C38.803 38.4941 37.6863 38.6803 36.7558 39.0525H36.5697L36.1975 38.6803C35.8253 38.6803 35.267 38.8664 34.8947 39.2386C34.5225 39.6108 34.1503 39.7969 34.1503 40.1691C34.3364 40.9135 34.7086 41.6579 35.4531 42.5885C36.1975 43.7051 36.7558 44.0773 37.128 44.0773C37.3141 44.0773 37.6863 44.0773 38.2446 43.8912C38.4308 43.8912 38.6169 43.7051 38.6169 43.7051L38.2446 42.7746L38.6169 42.5885C40.2918 41.6579 42.339 41.8441 44.0139 42.9607C44.9445 43.7051 45.5028 44.4495 45.5028 45.3801C45.6889 46.1245 45.3167 47.2411 44.0139 48.1716H43.8278H43.6417C43.6417 48.1716 43.4556 48.1716 42.8973 48.1716C42.5251 48.1716 42.1529 48.1716 41.9668 48.1716C41.5946 48.1716 41.2223 48.1716 41.2223 48.3578C41.0362 48.9161 41.0362 49.4744 41.0362 50.2188C41.2223 51.3354 41.5946 52.266 42.1529 52.8243C42.5251 53.0104 43.2695 53.0104 43.8278 52.8243H44.0139L44.2 53.0104C45.5028 53.9409 46.4333 55.0576 46.4333 56.3603C46.6194 57.663 46.2472 58.9658 45.1306 59.8963C44.2 60.8268 42.8973 61.1991 41.5946 61.1991C40.4779 61.1991 39.5474 60.8268 38.6169 60.2685L38.2446 59.8963L38.6169 59.5241C38.803 59.338 38.803 59.338 38.9891 59.1519L39.1752 58.9658C39.1752 58.7797 38.803 58.4075 38.4308 57.8492C38.0585 57.2908 37.6863 56.9186 37.3141 56.7325C35.8253 57.1047 34.7086 57.663 33.7781 58.2214C32.6615 58.9658 32.4754 59.338 32.4754 59.338C32.4754 59.5241 32.4754 59.7102 32.4754 59.7102C32.6615 60.4546 33.0337 61.1991 33.9642 62.1296C34.1503 62.1296 34.3364 61.9435 34.7086 61.7574L35.0809 61.3852Z" fill="#542CAE"/>
<path d="M65.7885 64.9212C62.4386 64.9212 59.4609 63.9906 57.2276 61.9435C54.9944 59.8963 53.6916 57.2908 53.3194 54.127C53.1333 52.266 53.3194 50.2188 53.8777 48.1716C54.4361 46.1245 55.3666 44.4495 56.4832 42.7746C57.5999 41.0996 59.0887 39.7969 60.9498 38.6803C62.8108 37.5636 64.858 37.1914 67.0913 37.1914C70.4412 37.1914 73.0466 38.308 75.0938 40.3552C76.9549 42.4024 78.0715 45.194 78.6298 48.3578C78.8159 49.8466 78.8159 51.3354 78.6298 52.8243C78.4437 54.3131 78.0715 55.802 77.5132 57.2908C76.9549 58.7797 76.0243 60.0824 75.0938 61.013C74.1633 62.1296 72.8605 63.0601 71.1856 63.8045C69.6967 64.549 67.8357 64.9212 65.7885 64.9212ZM54.25 53.9409C54.6222 56.9186 55.9249 59.338 57.9721 61.1991C60.0192 63.0601 62.6247 63.9906 65.9746 63.9906C67.8357 63.9906 69.5106 63.6184 70.8134 63.0601C72.3022 62.5018 73.4189 61.5713 74.3494 60.6407C75.2799 59.5241 76.0243 58.4075 76.5827 57.1047C77.141 55.802 77.5132 54.3131 77.6993 53.0104C77.8854 51.5216 77.8854 50.2188 77.6993 48.73C77.3271 45.7523 76.2104 43.1468 74.5355 41.2857C72.8605 39.4247 70.2551 38.308 67.2774 38.308C65.2302 38.308 63.183 38.8664 61.5081 39.7969C59.8331 40.7274 58.3443 42.0302 57.2276 43.519C56.111 45.0079 55.3666 46.8689 54.8083 48.73C54.25 50.2188 54.0638 52.0799 54.25 53.9409ZM65.6024 59.8963C63.9275 59.8963 62.4386 59.338 61.1359 58.2214C60.0192 57.1047 59.2748 55.4298 58.9026 53.5687C58.7165 51.8938 58.9026 50.2188 59.4609 48.5439C60.0192 46.8689 60.9498 45.3801 62.2525 44.2634C63.5552 43.1468 65.2302 42.4024 67.0913 42.4024C68.9523 42.4024 70.4412 42.9607 71.5578 44.0773C72.6744 45.194 73.2327 46.6828 73.605 48.3578C73.7911 50.0327 73.605 51.7077 73.0466 53.3826C72.4883 55.0576 71.5578 56.7325 70.2551 57.8492C69.1384 59.1519 67.4635 59.8963 65.6024 59.8963ZM67.2774 43.3329C65.6024 43.3329 64.1136 43.8912 62.9969 45.0079C61.6942 46.1245 60.9498 47.4272 60.3914 48.9161C59.8331 50.4049 59.8331 51.8938 59.8331 53.5687C60.0192 55.2437 60.7637 56.7325 61.6942 57.663C62.8108 58.5936 63.9275 59.1519 65.4163 59.1519C66.9051 59.1519 68.394 58.5936 69.5106 57.4769C70.8134 56.3603 71.5578 54.8715 72.1161 53.3826C72.6744 51.7077 72.8605 50.2188 72.6744 48.73C72.4883 47.2411 71.93 45.9384 70.9995 45.0079C70.2551 43.7051 68.9523 43.3329 67.2774 43.3329Z" fill="#542CAE"/>
<path d="M41.9657 64.9189C39.3602 64.9189 37.127 63.9884 35.2659 62.1274C34.7076 62.3135 34.5215 62.4996 34.3354 62.4996H34.1493L33.9632 62.3135C32.8465 61.3829 32.1021 60.2663 32.1021 59.1497C32.1021 58.9636 32.1021 58.7774 32.1021 58.5913C32.1021 58.033 32.6604 57.4747 33.7771 56.7303C34.7076 56.172 36.0103 55.6137 37.6853 55.0553H37.8714H38.0575C38.6158 55.2414 39.1741 55.7998 39.7325 56.3581C40.2908 57.1025 40.663 57.6608 40.663 58.2191C40.663 58.5913 40.4769 58.7775 40.2908 58.9636C40.8491 59.1497 41.4074 59.3358 42.1518 59.3358C43.2685 59.3358 44.199 58.9636 45.1295 58.2191C45.8739 57.4747 46.2462 56.5442 46.06 55.6136C45.8739 54.6831 45.3156 53.7526 44.3851 53.0082C43.6407 53.1943 42.8962 53.0082 42.3379 52.8221L42.1518 52.636C41.4074 51.8915 41.0352 50.7749 40.8491 49.4722C40.663 48.5416 40.8491 47.6111 41.0352 47.0528V46.8667C41.4074 46.4945 41.7796 46.3084 42.524 46.3084C42.7101 46.3084 43.0824 46.3084 43.6407 46.3084C43.8268 46.3084 44.0129 46.3084 44.199 46.3084C44.9434 45.75 45.3156 45.1917 45.1295 44.4473C45.1295 43.7029 44.5712 43.1446 44.0129 42.7723C43.2685 42.214 42.524 42.0279 41.5935 42.0279C41.0352 42.0279 40.663 42.214 40.1047 42.4001L40.2908 42.9585V43.1446C40.1047 43.7029 39.5463 43.889 39.1741 44.0751C38.6158 44.2612 38.2436 44.2612 37.8714 44.2612C37.127 44.2612 36.1964 43.7029 35.452 42.4001C34.7076 41.2835 34.1493 40.353 33.9632 39.4224V39.2363V39.0502C34.1493 38.4919 34.5215 38.1197 35.0798 37.7475C35.6381 37.3753 36.3825 37.0031 36.9409 37.0031H37.127L37.4992 37.1892C38.6158 36.817 39.7324 36.6309 40.8491 36.6309C43.0824 36.6309 45.1295 37.1892 46.9906 38.3058C48.8516 39.4224 49.9683 41.2835 50.1544 43.5168C50.5266 45.75 49.7822 47.9833 47.9211 49.8444C50.1544 51.5193 51.4571 53.3804 51.6432 55.4275C52.0154 57.8469 51.0849 59.8941 49.0377 61.7551C46.9906 63.9884 44.7573 64.9189 41.9657 64.9189ZM35.452 61.0107L35.6381 61.1968C37.3131 63.0579 39.5463 63.9884 41.9657 63.9884C44.3851 63.9884 46.6184 63.244 48.2933 61.569C50.1544 59.8941 50.8988 58.2191 50.5266 56.172C50.3405 54.1248 49.0377 52.4499 46.6184 50.961L46.4323 50.4027L46.8045 50.0305C48.6655 48.3555 49.41 46.3084 49.0377 44.0751C48.8516 42.0279 47.9211 40.5391 46.2462 39.6086C44.5712 38.4919 42.7101 37.9336 40.663 37.9336C39.5463 37.9336 38.4297 38.1197 37.4992 38.4919H37.3131L36.9409 38.1197C36.5687 38.1197 36.0103 38.3058 35.6381 38.678C35.2659 39.0502 34.8937 39.2363 34.8937 39.6086C35.0798 40.353 35.452 41.0974 36.1964 42.0279C36.9409 43.1446 37.4992 43.5168 37.8714 43.5168C38.0575 43.5168 38.4297 43.5168 38.988 43.3307C39.1741 43.3307 39.3602 43.1446 39.3602 43.1446L38.988 42.214L39.3602 42.0279C41.0352 41.0974 43.0824 41.2835 44.7573 42.4001C45.6878 43.1446 46.2462 43.889 46.2462 44.8195C46.4323 45.5639 46.06 46.6806 44.7573 47.6111H44.5712H44.3851C44.3851 47.6111 44.199 47.6111 43.6407 47.6111C43.2685 47.6111 42.8962 47.6111 42.7101 47.6111C42.3379 47.6111 41.9657 47.6111 41.9657 47.7972C41.7796 48.3555 41.7796 48.9138 41.7796 49.6583C41.9657 50.7749 42.3379 51.7054 42.8962 52.2637C43.2685 52.4499 44.0129 52.4499 44.5712 52.2637H44.7573L44.9434 52.4499C46.2462 53.3804 47.1767 54.497 47.1767 55.7998C47.3628 57.1025 46.9906 58.4052 45.8739 59.3358C44.9434 60.2663 43.6407 60.6385 42.3379 60.6385C41.2213 60.6385 40.2908 60.2663 39.3602 59.708L38.988 59.3358L39.3602 58.9636C39.5463 58.7775 39.5463 58.7774 39.7325 58.5913L39.9186 58.4052C39.9186 58.2191 39.5463 57.8469 39.1741 57.2886C38.8019 56.7303 38.4297 56.3581 38.0575 56.172C36.5686 56.5442 35.452 57.1025 34.5215 57.6608C33.4049 58.4052 33.2187 58.7775 33.2187 58.7775C33.2187 58.9636 33.2187 59.1497 33.2187 59.1497C33.4049 59.8941 33.7771 60.6385 34.7076 61.569C34.8937 61.569 35.0798 61.3829 35.452 61.1968V61.0107Z" fill="#542CAE"/>
<path d="M66.1591 64.5462C62.8092 64.5462 59.8315 63.6156 57.5982 61.5685C55.365 59.5213 54.0622 56.9158 53.69 53.752C53.5039 51.891 53.69 49.8438 54.2483 47.7966C54.8067 45.7495 55.7372 44.0745 56.8538 42.3996C57.9705 40.7246 59.4593 39.4219 61.3204 38.3053C63.1814 37.1886 65.2286 36.8164 67.4619 36.8164C70.8118 36.8164 73.4172 37.933 75.4644 39.9802C77.3255 42.0274 78.4421 44.819 79.0004 47.9828C79.1865 49.4716 79.1865 50.9604 79.0004 52.4493C78.8143 53.9381 78.4421 55.427 77.8838 56.9158C77.3255 58.4047 76.3949 59.7074 75.4644 60.638C74.5339 61.7546 73.2311 62.6851 71.5562 63.4295C70.0673 64.174 68.2063 64.5462 66.1591 64.5462ZM54.6206 53.5659C54.9928 56.5436 56.2955 58.963 58.3427 60.8241C60.3898 62.6851 62.9953 63.6156 66.3452 63.6156C68.2063 63.6156 69.8812 63.2434 71.184 62.6851C72.6728 62.1268 73.7895 61.1963 74.72 60.2657C75.6505 59.1491 76.3949 58.0325 76.9533 56.7297C77.5116 55.427 77.8838 53.9381 78.0699 52.6354C78.256 51.1466 78.256 49.8438 78.0699 48.355C77.6977 45.3773 76.581 42.7718 74.9061 40.9107C73.2311 39.0497 70.6257 37.933 67.648 37.933C65.6008 37.933 63.5536 38.4914 61.8787 39.4219C60.2037 40.3524 58.7149 41.6552 57.5982 43.144C56.4816 44.6329 55.7372 46.4939 55.1789 48.355C54.6206 49.8438 54.4345 51.7049 54.6206 53.5659ZM65.973 59.5213C64.2981 59.5213 62.8092 58.963 61.5065 57.8464C60.3898 56.7297 59.6454 55.0548 59.2732 53.1937C59.0871 51.5188 59.2732 49.8438 59.8315 48.1689C60.3898 46.4939 61.3204 45.0051 62.6231 43.8884C63.9258 42.7718 65.6008 42.0274 67.4619 42.0274C69.3229 42.0274 70.8118 42.5857 71.9284 43.7023C73.045 44.819 73.6033 46.3078 73.9756 47.9828C74.1617 49.6577 73.9756 51.3327 73.4172 53.0076C72.8589 54.6826 71.9284 56.3575 70.6257 57.4741C69.509 58.7769 67.8341 59.5213 65.973 59.5213ZM67.648 42.9579C65.973 42.9579 64.4842 43.5162 63.3675 44.6328C62.0648 45.7495 61.3204 47.0522 60.762 48.5411C60.2037 50.0299 60.2037 51.5188 60.2037 53.1937C60.3898 54.8687 61.1343 56.3575 62.0648 57.288C63.1814 58.2186 64.2981 58.7769 65.7869 58.7769C67.2758 58.7769 68.7646 58.2186 69.8812 57.1019C71.184 55.9853 71.9284 54.4965 72.4867 53.0076C73.045 51.3327 73.2311 49.8438 73.045 48.355C72.8589 46.8661 72.3006 45.5634 71.3701 44.6328C70.6257 43.3301 69.3229 42.9579 67.648 42.9579Z" fill="#542CAE"/>
<path d="M42.3393 64.5459C39.7338 64.5459 37.5006 63.6154 35.6395 61.7543C35.0812 61.9404 34.8951 62.1265 34.709 62.1265H34.5229L34.3368 61.9404C33.2201 61.0099 32.4757 59.8933 32.4757 58.7766C32.4757 58.5905 32.4757 58.4044 32.4757 58.2183C32.4757 57.66 33.034 57.1017 34.1507 56.3572C35.0812 55.7989 36.3839 55.2406 38.0589 54.6823H38.245H38.4311C38.9894 54.8684 39.5477 55.4267 40.106 55.985C40.6644 56.7295 41.0366 57.2878 41.0366 57.8461C41.0366 58.2183 40.8505 58.4044 40.6644 58.5905C41.2227 58.7766 41.781 58.9627 42.5254 58.9627C43.6421 58.9627 44.5726 58.5905 45.5031 57.8461C46.2475 57.1017 46.6197 56.1711 46.4336 55.2406C46.2475 54.3101 45.6892 53.3795 44.7587 52.6351C44.0143 52.8212 43.2698 52.6351 42.7115 52.449L42.5254 52.2629C41.781 51.5185 41.4088 50.4019 41.2227 49.0991C41.0366 48.1686 41.2227 47.2381 41.4088 46.6797V46.4936C41.781 46.1214 42.1532 45.9353 42.8976 45.9353C43.0837 45.9353 43.456 45.9353 44.0143 45.9353C44.2004 45.9353 44.3865 45.9353 44.5726 45.9353C45.317 45.377 45.6892 44.8187 45.5031 44.0743C45.5031 43.3298 44.9448 42.7715 44.3865 42.3993C43.6421 41.841 42.8976 41.6549 41.9671 41.6549C41.4088 41.6549 41.0366 41.841 40.4783 42.0271L40.6644 42.5854V42.7715C40.4783 43.3298 39.9199 43.5159 39.5477 43.702C38.9894 43.8882 38.6172 43.8882 38.245 43.8882C37.5006 43.8882 36.57 43.3298 35.8256 42.0271C35.0812 40.9105 34.5229 39.9799 34.3368 39.0494V38.8633V38.6772C34.5229 38.1189 34.8951 37.7467 35.4534 37.3744C36.0117 37.0022 36.7561 36.63 37.3145 36.63H37.5006L37.8728 36.8161C38.9894 36.4439 40.106 36.2578 41.2227 36.2578C43.456 36.2578 45.5031 36.8161 47.3642 37.9328C49.2252 39.0494 50.3419 40.9105 50.528 43.1437C50.9002 45.377 50.1558 47.6103 48.2947 49.4713C50.528 51.1463 51.8307 53.0073 52.0168 55.0545C52.389 57.4739 51.4585 59.521 49.4113 61.3821C47.3642 63.6154 45.1309 64.5459 42.3393 64.5459ZM35.8256 60.6377L36.0117 60.8238C37.6867 62.6848 39.9199 63.6154 42.3393 63.6154C44.7587 63.6154 46.992 62.8709 48.6669 61.196C50.528 59.521 51.2724 57.8461 50.9002 55.7989C50.7141 53.7518 49.4113 52.0768 46.992 50.588L46.8059 50.0296L47.1781 49.6574C49.0391 47.9825 49.7835 45.9353 49.4113 43.702C49.2252 41.6549 48.2947 40.166 46.6197 39.2355C44.9448 38.1189 43.0837 37.5606 41.0366 37.5606C39.9199 37.5606 38.8033 37.7467 37.8728 38.1189H37.6867L37.3145 37.7467C36.9422 37.7467 36.3839 37.9328 36.0117 38.305C35.6395 38.6772 35.2673 38.8633 35.2673 39.2355C35.4534 39.9799 35.8256 40.7244 36.57 41.6549C37.3145 42.7715 37.8728 43.1437 38.245 43.1437C38.4311 43.1437 38.8033 43.1437 39.3616 42.9576C39.5477 42.9576 39.7338 42.7715 39.7338 42.7715L39.3616 41.841L39.7338 41.6549C41.4088 40.7244 43.456 40.9105 45.1309 42.0271C46.0614 42.7715 46.6197 43.5159 46.6197 44.4465C46.8059 45.1909 46.4336 46.3075 45.1309 47.2381H44.9448H44.7587C44.7587 47.2381 44.5726 47.2381 44.0143 47.2381C43.6421 47.2381 43.2698 47.2381 43.0837 47.2381C42.7115 47.2381 42.3393 47.2381 42.3393 47.4242C42.1532 47.9825 42.1532 48.5408 42.1532 49.2852C42.3393 50.4019 42.7115 51.3324 43.2698 51.8907C43.6421 52.0768 44.3865 52.0768 44.9448 51.8907H45.1309L45.317 52.0768C46.6198 53.0073 47.5503 54.124 47.5503 55.4267C47.7364 56.7295 47.3642 58.0322 46.2475 58.9627C45.317 59.8933 44.0143 60.2655 42.7115 60.2655C41.5949 60.2655 40.6644 59.8932 39.7338 59.3349L39.3616 58.9627L39.7338 58.5905C39.9199 58.4044 39.9199 58.4044 40.106 58.2183L40.2922 58.0322C40.2922 57.8461 39.9199 57.4739 39.5477 56.9156C39.1755 56.3572 38.8033 55.985 38.4311 55.7989C36.9422 56.1711 35.8256 56.7295 34.8951 57.2878C33.7784 58.0322 33.5923 58.4044 33.5923 58.4044C33.5923 58.5905 33.5923 58.7766 33.5923 58.7766C33.7784 59.521 34.1507 60.2655 35.0812 61.196C35.2673 61.196 35.4534 61.0099 35.8256 60.8238V60.6377Z" fill="#542CAE"/>
<path d="M66.5327 64.1741C63.1828 64.1741 60.2051 63.2436 57.9718 61.1964C55.7386 59.1492 54.4358 56.5438 54.0636 53.38C53.8775 51.5189 54.0636 49.4717 54.6219 47.4246C55.1803 45.3774 56.1108 43.7025 57.2274 42.0275C58.3441 40.3526 59.8329 39.0498 61.694 37.9332C63.555 36.8165 65.6022 36.4443 67.8355 36.4443C71.1854 36.4443 73.7908 37.561 75.838 39.6081C77.6991 41.6553 78.8157 44.4469 79.374 47.6107C79.5601 49.0995 79.5601 50.5884 79.374 52.0772C79.1879 53.5661 78.8157 55.0549 78.2574 56.5438C77.6991 58.0326 76.7685 59.3354 75.838 60.2659C74.9075 61.3825 73.6047 62.313 71.9298 63.0575C70.4409 63.8019 68.5799 64.1741 66.5327 64.1741ZM54.9942 53.1939C55.3664 56.1716 56.6691 58.5909 58.7163 60.452C60.7634 62.313 63.3689 63.2436 66.5327 63.2436C68.3938 63.2436 70.0687 62.8714 71.3715 62.313C72.8603 61.7547 73.9769 60.8242 74.9075 59.8937C75.838 58.777 76.5824 57.6604 77.1407 56.3577C77.6991 55.0549 78.0713 53.5661 78.2574 52.2633C78.4435 50.7745 78.4435 49.4717 78.2574 47.9829C77.8852 45.0052 76.7685 42.3997 75.0936 40.5387C73.4186 38.6776 70.8131 37.561 67.8355 37.561C65.7883 37.561 63.7411 38.1193 62.0662 39.0498C60.3912 39.9803 58.9024 41.2831 57.7857 42.7719C56.6691 44.2608 55.9247 46.1218 55.3664 47.9829C54.9942 49.4717 54.808 51.3328 54.9942 53.1939ZM66.3466 59.1492C64.6717 59.1492 63.1828 58.5909 61.8801 57.4743C60.7634 56.3577 60.019 54.6827 59.6468 52.8216C59.4607 51.1467 59.6468 49.4717 60.2051 47.7968C60.7634 46.1218 61.694 44.633 62.9967 43.5164C64.2994 42.3997 65.9744 41.6553 67.8355 41.6553C69.6965 41.6553 71.1854 42.2136 72.302 43.3303C73.4186 44.4469 73.9769 45.9357 74.3492 47.6107C74.5353 49.2856 74.3492 50.9606 73.7908 52.6355C73.2325 54.3105 72.302 55.9854 70.9993 57.1021C69.8826 58.4048 68.2077 59.1492 66.3466 59.1492ZM68.0216 42.5858C66.3466 42.5858 64.8578 43.1441 63.7411 44.2608C62.4384 45.3774 61.694 46.6802 61.1356 48.169C60.5773 49.6578 60.5773 51.1467 60.5773 52.8216C60.7634 54.4966 61.5079 55.9854 62.4384 56.916C63.555 57.8465 64.6717 58.4048 66.1605 58.4048C67.6494 58.4048 69.1382 57.8465 70.2548 56.7299C71.5576 55.6132 72.302 54.1244 72.8603 52.6355C73.4186 50.9606 73.6047 49.4717 73.4186 47.9829C73.2325 46.4941 72.6742 45.1913 71.7437 44.2608C70.9993 42.958 69.6965 42.5858 68.0216 42.5858Z" fill="#542CAE"/>
<path d="M42.7118 64.1758C40.1063 64.1758 37.8731 63.2452 36.012 61.3842C35.4537 61.5703 35.2676 61.5703 35.0815 61.5703H34.8954C33.7787 60.6398 33.0343 59.5231 33.0343 58.4065C33.0343 58.2204 33.0343 58.0343 33.0343 57.8482C33.0343 57.2899 33.5926 56.7315 34.7093 55.9871C35.6398 55.4288 36.9425 54.8705 38.6175 54.3122H38.8036H38.9897C39.548 54.4983 40.1063 55.0566 40.6646 55.6149C41.223 56.3593 41.5952 56.9177 41.5952 57.476C41.5952 57.8482 41.4091 58.0343 41.223 58.2204C41.7813 58.4065 42.3396 58.5926 43.084 58.5926C44.2007 58.5926 45.1312 58.2204 46.0617 57.476C46.8061 56.7315 47.1783 55.801 46.9922 54.8705C46.8061 53.94 46.2478 53.0094 45.3173 52.265C44.5729 52.4511 43.8284 52.265 43.2701 52.0789L43.084 51.8928C42.3396 51.1484 41.9674 50.0317 41.7813 48.729C41.5952 47.7985 41.7813 46.8679 41.9674 46.3096V46.1235C42.3396 45.7513 42.7118 45.5652 43.4562 45.5652C43.6423 45.5652 44.0145 45.5652 44.5729 45.5652C44.759 45.5652 44.9451 45.5652 45.1312 45.5652C45.8756 45.0069 46.2478 44.4486 46.0617 43.7041C46.0617 42.9597 45.5034 42.4014 44.9451 42.0292C44.2007 41.4709 43.4562 41.2848 42.5257 41.2848C41.9674 41.2848 41.5952 41.4709 41.0369 41.657L41.223 42.2153V42.4014C41.0369 42.9597 40.4785 43.1458 40.1063 43.3319C39.548 43.518 39.1758 43.518 38.8036 43.518C38.0592 43.518 37.1286 42.9597 36.3842 41.657C35.6398 40.5403 35.0815 39.6098 34.8954 38.6793V38.4932V38.3071C35.0815 37.7488 35.4537 37.3765 36.012 37.0043C36.5703 36.6321 37.3147 36.2599 37.8731 36.2599H38.0592L38.4314 36.446C39.548 36.0738 40.6646 35.8877 41.7813 35.8877C44.0145 35.8877 46.0617 36.446 47.9228 37.5626C49.7838 38.6793 50.9005 40.5403 51.0866 42.7736C51.4588 45.0069 50.7144 47.2401 48.8533 49.1012C51.0866 50.7762 52.3893 52.6372 52.5754 54.6844C52.9476 57.1038 52.0171 59.1509 49.9699 61.012C47.7367 63.2453 45.5034 64.1758 42.7118 64.1758ZM36.1981 60.2676L36.3842 60.4537C38.0592 62.3147 40.2924 63.2452 42.7118 63.2452C45.1312 63.2452 47.3645 62.5008 49.0394 60.8259C50.9005 59.1509 51.6449 57.476 51.2727 55.4288C51.0866 53.3816 49.7838 51.7067 47.3644 50.2178L46.8061 49.8456L47.1783 49.4734C49.0394 47.7985 49.7838 45.7513 49.4116 43.518C49.2255 41.4709 48.295 39.982 46.62 39.0515C44.9451 37.9349 43.084 37.3765 41.0369 37.3765C39.9202 37.3765 38.8036 37.5626 37.8731 37.9349H37.6869L37.5008 37.5626C37.1286 37.5626 36.5703 37.7488 36.1981 38.121C35.8259 38.4932 35.4537 38.6793 35.4537 39.0515C35.6398 39.7959 36.012 40.5403 36.7564 41.4709C37.5008 42.5875 38.0592 42.9597 38.4314 42.9597C38.6175 42.9597 38.9897 42.9597 39.548 42.7736C39.7341 42.7736 39.9202 42.5875 39.9202 42.5875L39.3619 41.2848L39.7341 41.0987C41.4091 40.1681 43.4562 40.3542 45.1312 41.4709C46.0617 42.2153 46.62 42.9597 46.62 43.8902C46.8061 44.6347 46.4339 45.7513 45.1312 46.6818H44.9451H44.759C44.759 46.6818 44.5729 46.6818 44.0145 46.6818C43.6423 46.6818 43.2701 46.6818 43.084 46.6818C42.7118 46.6818 42.3396 46.6818 42.3396 46.8679C42.1535 47.4263 42.1535 47.9846 42.1535 48.729C42.3396 49.8456 42.7118 50.7762 43.2701 51.3345C43.6423 51.5206 44.3868 51.5206 44.9451 51.3345H45.1312L45.3173 51.5206C46.62 52.4511 47.5506 53.5677 47.5506 54.8705C47.7367 56.1732 47.3645 57.476 46.2478 58.4065C45.3173 59.337 44.0145 59.7092 42.7118 59.7092C41.5952 59.7092 40.6646 59.337 39.7341 58.7787L39.3619 58.4065L39.7341 58.0343C39.9202 57.8482 39.9202 57.8482 40.1063 57.6621L40.2924 57.476C40.2924 57.2899 39.9202 56.9177 39.548 56.3593C39.1758 55.801 38.8036 55.4288 38.4314 55.2427C36.9425 55.6149 35.8259 56.1732 34.8954 56.7315C33.9648 57.476 33.7787 57.8482 33.7787 58.0343C33.7787 58.2204 33.7787 58.4065 33.7787 58.4065C33.9648 59.1509 34.337 59.8953 35.2676 60.8259C35.4537 60.8259 35.6398 60.6398 36.012 60.4537L36.1981 60.2676Z" fill="#542CAE"/>
<path d="M66.9043 63.802C63.5544 63.802 60.5767 62.8715 58.3434 60.8243C56.1102 58.7772 54.8074 56.1717 54.4352 53.0079C54.2491 51.1468 54.4352 49.0997 54.9935 47.0525C55.5518 45.0053 56.4824 43.3304 57.599 41.6554C58.7156 39.9805 60.2045 38.6777 62.0655 37.5611C63.9266 36.4445 65.9738 36.0723 68.207 36.0723C71.5569 36.0723 74.1624 37.1889 76.2096 39.2361C78.0706 41.2832 79.1873 44.0748 79.7456 47.2386C79.9317 48.7275 79.9317 50.2163 79.7456 51.7052C79.5595 53.194 79.1873 54.6828 78.629 56.1717C78.0706 57.6605 77.1401 58.9633 76.2096 59.8938C75.2791 61.0104 73.9763 61.941 72.3014 62.6854C70.8125 63.4298 68.9515 63.802 66.9043 63.802ZM55.3657 52.8218C55.7379 55.7995 57.0407 58.2189 59.0879 60.0799C61.135 61.941 63.7405 62.8715 66.9043 62.8715C68.7654 62.8715 70.4403 62.4993 71.743 61.941C73.2319 61.3827 74.3485 60.4521 75.2791 59.5216C76.2096 58.405 76.954 57.2883 77.5123 55.9856C78.0706 54.6828 78.4429 53.194 78.629 51.8913C78.8151 50.4024 78.8151 49.0997 78.629 47.6108C78.2567 44.6331 77.1401 42.0277 75.4652 40.1666C73.7902 38.3055 71.1847 37.1889 68.207 37.1889C66.1599 37.1889 64.1127 37.7472 62.4378 38.6777C60.7628 39.6083 59.274 40.911 58.1573 42.3999C57.0407 43.8887 56.2963 45.7498 55.7379 47.6108C55.3657 49.0997 55.1796 50.9607 55.3657 52.8218ZM66.7182 58.7772C65.0432 58.7772 63.5544 58.2189 62.2516 57.1022C61.135 55.9856 60.3906 54.3106 60.0184 52.4496C59.8323 50.7746 60.0184 49.0997 60.5767 47.4247C61.135 45.7498 62.0655 44.2609 63.3683 43.1443C64.671 42.0277 66.346 41.2832 68.207 41.2832C70.0681 41.2832 71.5569 41.8415 72.6736 42.9582C73.7902 44.0748 74.3485 45.5637 74.7207 47.2386C74.9068 48.9136 74.7207 50.5885 74.1624 52.2635C73.6041 53.9384 72.6736 55.6134 71.3708 56.73C70.2542 58.0328 68.5792 58.7772 66.7182 58.7772ZM68.3931 42.2138C66.7182 42.2138 65.2293 42.7721 64.1127 43.8887C62.81 45.0053 62.0655 46.3081 61.5072 47.7969C60.9489 49.2858 60.9489 50.7746 60.9489 52.4496C61.135 54.1245 61.8794 55.6134 62.81 56.5439C63.9266 57.4744 65.0432 58.0328 66.5321 58.0328C68.0209 58.0328 69.5098 57.4744 70.6264 56.3578C71.9292 55.2412 72.6736 53.7523 73.2319 52.2635C73.7902 50.5885 73.9763 49.0997 73.7902 47.6108C73.6041 46.122 73.0458 44.8192 72.1153 43.8887C71.3708 42.586 70.0681 42.2138 68.3931 42.2138Z" fill="#542CAE"/>
<path d="M33.4059 58.4064C33.4059 58.2203 33.4059 58.0342 33.4059 57.8481C33.4059 57.4759 33.9643 56.9175 34.8948 56.3592C35.8253 55.8009 37.1281 55.2426 38.6169 54.8704C38.9891 55.0565 39.5474 55.4287 40.1058 56.1731C40.6641 56.7314 40.8502 57.2898 41.0363 57.8481C41.0363 57.8481 41.0363 58.0342 40.8502 58.0342C40.6641 58.0342 40.6641 58.2203 40.478 58.2203C40.2919 58.2203 40.2919 58.4064 40.1058 58.4064C40.8502 58.9647 41.7807 59.1508 42.7112 59.1508C44.014 59.1508 44.9445 58.7786 45.875 57.8481C46.8056 57.1036 47.1778 55.987 46.9917 54.8704C46.8056 53.7537 46.0611 52.6371 44.9445 51.8927C44.5723 51.8927 44.3862 52.0788 44.014 52.0788C43.6418 52.0788 43.2696 52.0788 42.8973 51.8927C42.1529 51.1483 41.7807 50.2177 41.5946 48.915C41.4085 47.9845 41.5946 47.24 41.7807 46.6817C41.9668 46.4956 42.339 46.3095 43.0834 46.3095C43.2696 46.3095 43.6418 46.3095 44.014 46.3095C44.3862 46.3095 44.5723 46.3095 44.7584 46.3095C45.6889 45.7512 46.2472 44.8207 46.0611 43.8901C45.875 43.1457 45.5028 42.4013 44.7584 41.843C44.014 41.2847 43.0834 41.0985 41.9668 41.0985C41.2224 41.0985 40.478 41.2847 39.9196 41.6569L40.2919 42.4013C40.2919 42.5874 39.9196 42.7735 39.5474 42.9596C38.9891 43.1457 38.6169 43.1457 38.4308 43.1457C37.8725 43.1457 37.1281 42.5874 36.3836 41.4708C35.6392 40.3541 35.267 39.4236 35.0809 38.6792C35.267 38.307 35.6392 37.9347 36.0114 37.5625C36.5697 37.1903 37.1281 37.0042 37.6864 37.0042L38.0586 37.3764C39.1752 37.0042 40.2919 36.8181 41.4085 36.8181C43.6418 36.8181 45.5028 37.3764 47.3639 38.4931C49.0388 39.6097 50.1555 41.2847 50.3416 43.3318C50.7138 45.7512 49.7833 47.7984 47.9222 49.6594C50.3416 51.3344 51.6443 53.1954 52.0165 55.2426C52.2026 57.4759 51.4582 59.3369 49.5972 61.198C47.7361 62.8729 45.5028 63.8035 42.8973 63.8035C40.2919 63.8035 38.0586 62.8729 36.1975 60.8258C35.6392 61.0119 35.267 61.198 35.267 61.198C33.9643 60.2674 33.4059 59.3369 33.4059 58.4064Z" fill="#8163F2"/>
<path d="M54.9938 52.8224C54.8077 50.9613 54.9938 49.1003 55.3661 47.0531C55.9244 45.192 56.6688 43.331 57.7854 41.8421C58.9021 40.1672 60.3909 39.0505 62.252 37.9339C64.113 37.0034 65.9741 36.4451 68.2074 36.4451C71.3712 36.4451 73.9766 37.3756 75.8377 39.4228C77.6988 41.4699 78.8154 44.0754 79.1876 47.2392C79.3737 48.7281 79.3737 50.2169 79.1876 51.7057C79.0015 53.1946 78.6293 54.6834 78.071 55.9862C77.5127 57.2889 76.7682 58.5917 75.8377 59.7083C74.9072 60.8249 73.6044 61.5694 72.1156 62.3138C70.6267 62.8721 68.9518 63.2443 67.0907 63.2443C63.7408 63.2443 61.1353 62.3138 58.9021 60.2666C56.6688 58.4056 55.3661 55.8001 54.9938 52.8224ZM60.577 52.2641C60.7631 54.1251 61.5076 55.614 62.6242 56.5445C63.7408 57.6611 65.0436 58.2195 66.7185 58.2195C68.3935 58.2195 69.8823 57.6611 71.1851 56.3584C72.4878 55.0557 73.4183 53.7529 73.9766 52.078C74.535 50.403 74.7211 48.7281 74.535 47.2392C74.3489 45.5643 73.7905 44.2615 72.6739 43.1449C71.5573 42.0282 70.2545 41.656 68.5796 41.656C66.7185 41.656 65.2297 42.2144 63.9269 43.331C62.6242 44.4476 61.6937 45.7504 61.1353 47.4253C60.577 49.1003 60.3909 50.7752 60.577 52.2641Z" fill="#8163F2"/>
<path opacity="0.2" d="M22.7969 17.834C20.7498 21.1839 27.6357 31.4197 47.1768 42.0278C66.7179 52.6358 81.7925 23.7894 82.5369 17.834C83.2813 11.6925 24.658 14.8563 22.7969 17.834Z" fill="#D463B8"/>
<path opacity="0.8" d="M20.9362 14.6704L21.8667 37.9336C21.8667 37.9336 34.5219 41.0974 35.8246 41.0974C37.1274 41.0974 40.1051 37.1892 41.5939 37.3753C43.0828 37.5614 45.8743 40.353 46.2465 40.1669C46.6188 39.9808 48.2937 39.0503 51.6436 39.0503C54.9935 39.0503 65.4154 41.0974 68.3931 39.7947C71.5569 38.6781 77.1401 35.3282 80.6761 35.8865C84.026 36.2587 86.6315 36.6309 86.6315 36.6309L83.6538 14.6704H20.9362Z" fill="#9D2F75"/>
<path d="M20.9354 14.6704L20.3771 15.787C20.3771 15.787 23.9131 33.0949 24.0992 33.0949C24.2853 33.0949 33.4045 32.9088 33.5906 33.281C33.9628 33.4671 36.1961 34.9559 36.5683 34.9559C36.9405 34.9559 40.1043 31.606 41.0348 31.4199C41.9654 31.2338 45.3153 32.7227 46.0597 33.0949C46.8041 33.281 52.0151 32.7227 56.6677 32.7227C61.3204 32.7227 65.7869 33.0949 67.648 33.0949C69.509 33.281 75.4644 29.9311 78.8143 29.745C82.1642 29.5589 87.7474 31.0477 88.1196 30.8616C88.4918 30.6755 89.6085 29.9311 89.6085 29.9311L20.9354 14.6704Z" fill="url(#paint4_linear_421_1244)"/>
<path d="M20.9362 14.671L24.8444 31.0483C24.8444 31.0483 34.5219 32.9093 35.8246 32.9093C37.1274 32.9093 40.1051 30.1178 41.5939 30.3039C43.0827 30.49 45.8743 32.351 46.2465 32.1649C46.6188 31.9788 48.2937 31.4205 51.6436 31.4205C54.9935 31.4205 65.4154 32.7232 68.3931 31.9788C71.5569 31.2344 77.1401 29.0011 80.6761 29.1872C84.026 29.5594 89.7953 29.9316 89.7953 29.9316L84.026 14.4849H20.9362V14.671Z" fill="url(#paint5_linear_421_1244)"/>
<path d="M35.6382 26.9538C37.3855 26.9538 38.802 25.1207 38.802 22.8595C38.802 20.5982 37.3855 18.7651 35.6382 18.7651C33.8908 18.7651 32.4744 20.5982 32.4744 22.8595C32.4744 25.1207 33.8908 26.9538 35.6382 26.9538Z" fill="#9C77C0"/>
<path d="M47.3628 26.9538C49.1101 26.9538 50.5266 25.1207 50.5266 22.8595C50.5266 20.5982 49.1101 18.7651 47.3628 18.7651C45.6155 18.7651 44.199 20.5982 44.199 22.8595C44.199 25.1207 45.6155 26.9538 47.3628 26.9538Z" fill="#9C77C0"/>
<path d="M59.0875 26.9538C60.8348 26.9538 62.2513 25.1207 62.2513 22.8595C62.2513 20.5982 60.8348 18.7651 59.0875 18.7651C57.3402 18.7651 55.9237 20.5982 55.9237 22.8595C55.9237 25.1207 57.3402 26.9538 59.0875 26.9538Z" fill="#9C77C0"/>
<path d="M55.7371 21.1841C55.7371 21.1841 54.8066 25.0923 57.5982 25.8368C60.2037 26.5812 67.2757 14.2982 62.437 7.04008C58.1565 0.526376 49.4095 5.55123 49.4095 12.0649H52.9456C52.9456 12.0649 54.0622 7.97061 57.9704 10.0178C61.1342 11.5066 59.087 18.5786 55.7371 21.1841Z" fill="url(#paint6_linear_421_1244)"/>
<path d="M74.5341 22.8596C74.5341 25.0929 73.0453 26.9539 71.3703 26.9539C69.5093 26.9539 68.2065 25.0929 68.2065 22.8596C68.2065 20.6263 69.6954 18.7653 71.3703 18.7653C73.0453 18.5792 74.5341 20.4402 74.5341 22.8596Z" fill="#9C77C0"/>
<path d="M68.0199 21.1841C68.0199 21.1841 67.0894 25.0923 69.881 25.8368C72.4865 26.5812 79.5585 14.2982 74.7197 7.04008C70.4393 0.526376 61.6923 5.55123 61.6923 12.0649H65.2283C65.2283 12.0649 66.345 7.97061 70.2532 10.0178C73.417 11.5066 71.3698 18.5786 68.0199 21.1841Z" fill="url(#paint7_linear_421_1244)"/>
<path d="M32.6608 21.1841C32.6608 21.1841 31.7303 25.0923 34.5218 25.8368C37.1273 26.5812 44.1994 14.2982 39.3606 7.04008C35.0802 0.526376 26.3332 5.55123 26.3332 12.0649H29.8692C29.8692 12.0649 30.9858 7.97061 34.8941 10.0178C38.0579 11.5066 36.0107 18.5786 32.6608 21.1841Z" fill="url(#paint8_linear_421_1244)"/>
<path d="M44.1989 21.1841C44.1989 21.1841 43.2684 25.0923 46.06 25.8368C48.6655 26.5812 55.7375 14.2982 50.8987 7.04008C46.6183 0.526376 37.8713 5.55123 37.8713 12.0649H41.4073C41.4073 12.0649 42.524 7.97061 46.4322 10.0178C49.596 11.5066 47.5488 18.5786 44.1989 21.1841Z" fill="url(#paint9_linear_421_1244)"/>
<path opacity="0.8" d="M32.1021 86.3216C29.3106 85.0188 33.0327 81.855 38.2436 81.2967C43.4546 80.7384 74.9065 83.53 77.512 83.9022C80.1174 84.2744 78.6286 86.6938 78.6286 86.6938L32.1021 86.3216Z" fill="#D46BAA"/>
<path opacity="0.5" d="M22.4243 102.326C19.0744 101.395 22.7965 97.487 26.8908 97.487C30.9852 97.487 77.1394 97.1147 83.6531 97.487C90.1668 97.8592 86.4447 102.512 82.9087 103.07C79.3727 103.815 22.4243 102.326 22.4243 102.326Z" fill="#912774"/>
<path opacity="0.5" d="M15.1663 90.9726C12.0025 87.9949 13.3053 97.1141 16.2829 99.5335C19.2606 101.953 19.0745 101.767 21.68 98.9752C24.4716 96.1836 22.6105 95.6253 19.4467 94.1364C16.2829 92.6476 15.1663 90.9726 15.1663 90.9726Z" fill="white"/>
<path opacity="0.5" d="M8.2804 15.0408C7.16376 12.0631 6.23323 20.0657 6.04713 29.5571C5.86102 39.0485 9.39703 73.6642 9.95535 80.5501C10.5137 87.436 11.6303 80.7362 11.6303 78.1307C12.0025 75.7113 8.2804 15.0408 8.2804 15.0408Z" fill="#A439A5"/>
<path opacity="0.5" d="M21.6804 77.2017C21.3082 73.2935 23.3554 70.1297 24.0998 70.8741C25.0303 71.6186 27.4497 77.0156 30.7996 79.435C34.1495 81.6683 30.4274 84.8321 30.2413 85.5765C30.0552 85.9487 23.5415 84.2738 21.6804 77.2017Z" fill="white"/>
<path opacity="0.3" d="M19.6325 17.834C19.0742 16.5312 19.8186 34.3974 19.6325 47.4248C19.4464 60.2661 21.1214 71.9908 21.6797 72.1769C22.4241 72.5491 24.2852 67.5242 24.0991 64.7326C23.7269 62.1272 19.6325 17.834 19.6325 17.834Z" fill="#D463B8"/>
<path d="M83.4671 96.557C82.7226 96.7431 81.9782 96.7431 81.2338 96.7431H27.6353C19.4467 96.7431 12.5607 90.2294 12.1885 82.0407V80.5519L12.3746 80.1797C12.3746 80.1797 13.8635 88.9267 21.866 92.8349C29.4964 96.557 81.2338 96.557 83.4671 96.557Z" fill="#FF4F90"/>
<path d="M24.2852 96.3718C23.1685 95.4412 23.9129 94.5107 25.9601 94.6968C27.2629 94.6968 29.6822 95.6273 30.4267 95.9995C31.7294 96.744 26.3323 97.3023 24.2852 96.3718Z" fill="white"/>
<path opacity="0.3" d="M70.6263 24.9077C68.2069 24.3493 70.9985 19.1384 73.4179 18.394C75.6511 17.6495 74.3484 21.3717 73.0456 23.2327C71.929 24.9077 70.6263 24.9077 70.6263 24.9077Z" fill="white"/>
<path opacity="0.5" d="M31.9164 4.61995C29.4971 6.29491 36.383 6.66712 36.5691 12.2503C36.7552 17.8335 40.6634 16.5307 40.6634 11.692C40.8495 6.66712 35.0802 2.38668 31.9164 4.61995Z" fill="white"/>
<path opacity="0.5" d="M43.6407 4.61995C41.2213 6.29491 48.1072 6.66712 48.2933 12.2503C48.4794 17.8335 52.3877 16.5307 52.3877 11.692C52.3877 6.66712 46.8045 2.38668 43.6407 4.61995Z" fill="white"/>
<path opacity="0.5" d="M55.1793 4.61995C52.7599 6.29491 59.6459 6.66712 59.832 12.2503C60.0181 17.8335 63.9263 16.5307 63.9263 11.692C63.9263 6.66712 58.3431 2.38668 55.1793 4.61995Z" fill="white"/>
<path opacity="0.5" d="M66.9036 4.61995C64.4842 6.29491 71.3701 6.66712 71.5562 12.2503C71.7423 17.8335 75.6505 16.5307 75.6505 11.692C75.8366 6.66712 70.0674 2.38668 66.9036 4.61995Z" fill="white"/>
<path d="M37.4998 5.5511C36.3832 5.17889 37.4998 8.34269 38.4303 8.90101C39.3609 9.27322 39.547 6.10942 37.4998 5.5511Z" fill="white"/>
<path d="M49.5958 6.85352C49.0375 6.66741 49.4097 8.34237 50.1542 8.52847C50.8986 8.71458 50.1542 7.03962 49.5958 6.85352Z" fill="white"/>
<path d="M72.4873 5.55107C71.3706 5.55107 72.1151 8.15655 73.4178 8.90098C74.7205 9.6454 73.79 5.36496 72.4873 5.55107Z" fill="white"/>
<path opacity="0.5" d="M63.5545 7.22486C62.9962 7.96928 64.1128 11.3192 64.485 11.6914C64.6711 11.8775 65.7878 9.27202 68.5793 9.27202C71.3709 9.27202 66.5322 5.92212 65.4155 5.92212C64.2989 6.10822 63.5545 7.22486 63.5545 7.22486Z" fill="#912774"/>
<path opacity="0.5" d="M51.2709 7.22486C51.2709 7.78318 52.3875 10.5748 52.7597 10.7609C52.9458 10.947 53.6903 9.08592 56.4818 9.27202C59.2734 9.27202 54.4347 5.92212 53.318 5.92212C52.0153 6.10822 51.2709 7.22486 51.2709 7.22486Z" fill="#912774"/>
<path opacity="0.5" d="M39.7327 7.22486C39.7327 7.78318 40.8493 10.5748 41.2215 10.7609C41.4076 10.947 42.152 9.08592 44.9436 9.27202C47.7352 9.27202 42.8965 5.92212 41.7798 5.92212C40.4771 6.10822 39.7327 7.22486 39.7327 7.22486Z" fill="#912774"/>
<path opacity="0.5" d="M28.1939 7.22486C26.1467 11.8775 29.3105 10.5748 29.6828 10.7609C29.8689 10.947 30.6133 9.08592 33.4049 9.27202C36.1965 9.27202 31.3577 5.92212 30.2411 5.92212C28.9383 6.10822 28.1939 7.22486 28.1939 7.22486Z" fill="#912774"/>
<path opacity="0.5" d="M34.8931 24.9077C32.6599 24.3493 35.4514 19.1384 37.6847 18.394C39.918 17.6495 38.6152 21.3717 37.3125 23.2327C36.382 24.9077 34.8931 24.9077 34.8931 24.9077Z" fill="white"/>
<path opacity="0.5" d="M46.8039 24.9077C44.5706 24.3493 47.3622 19.1384 49.5955 18.394C51.8287 17.6495 50.526 21.3717 49.2233 23.2327C48.1066 24.9077 46.8039 24.9077 46.8039 24.9077Z" fill="white"/>
<path opacity="0.3" d="M57.9709 24.9077C55.7377 24.3493 58.5293 19.1384 60.7625 18.394C62.9958 17.6495 61.6931 21.3717 60.3903 23.2327C59.4598 24.9077 57.9709 24.9077 57.9709 24.9077Z" fill="white"/>
<path opacity="0.8" d="M41.0347 31.4201C40.6625 30.8618 40.6625 30.8618 41.7791 30.8618C42.8957 30.8618 45.6873 32.5368 45.8734 32.7229C46.0595 32.7229 41.0347 31.4201 41.0347 31.4201Z" fill="#E093C1"/>
<path opacity="0.8" d="M57.4122 31.9784C54.8067 32.1645 60.9482 32.7229 62.437 32.7229C63.7398 32.7229 65.9731 32.909 65.9731 32.909C65.9731 32.909 59.8316 31.7923 57.4122 31.9784Z" fill="#E093C1"/>
<path opacity="0.8" d="M33.5907 33.2817C33.2185 32.9095 34.7073 33.0956 35.2656 33.0956C35.8239 33.0956 36.3823 34.7706 36.3823 34.7706C36.3823 34.9567 33.5907 33.2817 33.5907 33.2817Z" fill="#E093C1"/>
<path opacity="0.8" d="M24.0996 33.0946C24.4718 33.4668 24.2857 29.0003 23.5412 26.5809C22.9829 23.9754 20.9358 15.4146 20.9358 15.4146C20.9358 15.4146 20.9358 16.159 20.9358 17.2756C20.7497 18.3922 24.0996 33.0946 24.0996 33.0946Z" fill="#E093C1"/>
<path opacity="0.8" d="M78.8149 29.3718C78.0705 29.744 83.0954 29.744 85.3286 30.4884C87.5619 31.2328 88.8646 30.1162 88.8646 30.1162C88.8646 30.1162 80.676 29.1857 78.8149 29.3718Z" fill="#E093C1"/>
<g opacity="0.3">
<path d="M76.9531 77.0168C72.4865 73.6669 81.7918 71.2475 83.839 73.853C85.8862 76.4585 82.5363 81.2972 76.9531 77.0168Z" fill="#AC63B8"/>
<path d="M82.3498 71.4332C81.7915 72.7359 84.397 73.4803 84.5831 72.1776C84.9553 70.6887 83.0942 69.7582 82.3498 71.4332Z" fill="#AC63B8"/>
<path d="M34.707 73.6667C32.8459 74.7834 36.382 77.7611 37.8708 75.9C39.7319 74.039 37.8708 71.6196 34.707 73.6667Z" fill="#AC63B8"/>
</g>
<path opacity="0.8" d="M45.8738 96.744C42.8961 94.6968 68.2065 91.7191 77.5118 88.9275C86.631 86.1359 87.3754 82.2277 91.0975 78.6917C95.0057 75.1557 96.8668 87.0665 89.9809 93.208C84.956 97.6745 45.8738 96.744 45.8738 96.744Z" fill="white"/>
<path d="M8.65237 54.3087C7.72184 53.0059 8.28016 49.0977 9.95511 47.9811C11.6301 46.8644 12.7467 52.0754 12.1884 53.7503C11.8162 55.4253 9.21069 55.2392 8.65237 54.3087Z" fill="#7C0043"/>
<path opacity="0.5" d="M9.76889 48.5389C8.65225 49.2833 9.02446 51.3305 9.95499 52.261C10.8855 53.1916 12.0022 50.9583 11.6299 49.6555C11.0716 48.1667 11.0716 47.6084 9.76889 48.5389Z" fill="#D42F55"/>
<path d="M8.28047 51.8899C8.28047 51.8899 8.09437 53.5648 9.39711 54.3092C10.6998 55.0537 12.0026 53.1926 12.1887 52.076C12.3748 50.9593 12.1887 50.0288 12.1887 50.0288C12.1887 50.0288 12.9331 53.1926 12.3748 54.1231C11.6304 55.0537 9.0249 55.0537 8.46658 54.1231C7.90826 53.5648 8.28047 51.8899 8.28047 51.8899Z" fill="#D11663"/>
<path d="M10.8855 55.0518C10.3272 54.8657 11.2577 53.9352 11.8161 53.1908C12.1883 52.4464 12.3744 53.9352 12.1883 54.4935C12.0022 55.0518 10.8855 55.0518 10.8855 55.0518Z" fill="white"/>
<path d="M61.5063 96.556C60.7619 95.0672 65.7868 92.8339 67.6478 93.7645C69.5089 94.5089 70.2533 95.6255 69.8811 96.9283C69.5089 98.0449 64.1118 102.139 61.5063 96.556Z" fill="#7C005C"/>
<path opacity="0.5" d="M62.0647 95.0675C60.5758 97.673 67.2757 98.2313 68.3923 96.7425C69.5089 95.4397 67.834 93.5787 66.159 93.3926C64.6702 93.3926 62.0647 95.0675 62.0647 95.0675Z" fill="#D42F55"/>
<path d="M61.5063 96.5566C61.5063 96.5566 63.7396 99.5343 66.5311 98.976C69.3227 98.2316 69.8811 96.9289 69.8811 96.9289C69.8811 96.9289 68.7644 100.093 65.4145 100.093C61.8785 100.093 61.5063 96.5566 61.5063 96.5566Z" fill="#D11663"/>
<path d="M66.9035 99.7213C66.5313 99.5352 68.3923 98.2324 68.3923 98.2324C68.3923 98.2324 68.9506 98.9768 66.9035 99.7213Z" fill="white"/>
<path d="M76.5809 92.2777C73.9754 93.7666 78.4419 95.8137 79.3725 94.511C80.303 93.3944 80.6752 89.8583 76.5809 92.2777Z" fill="#9D005C"/>
<path d="M75.837 93.7663C75.837 93.7663 76.5814 94.6969 78.2564 94.5108C79.373 94.5108 79.9313 93.208 79.9313 93.208C79.9313 93.208 79.9313 94.883 78.4425 95.2552C77.1397 95.6274 75.837 93.7663 75.837 93.7663Z" fill="#FF68A4"/>
</g>
<defs>
<filter id="filter0_d_421_1244" x="0" y="0" width="100.777" height="108" filterUnits="userSpaceOnUse" color-interpolation-filters="sRGB">
<feFlood flood-opacity="0" result="BackgroundImageFix"/>
<feColorMatrix in="SourceAlpha" type="matrix" values="0 0 0 0 0 0 0 0 0 0 0 0 0 0 0 0 0 0 127 0" result="hardAlpha"/>
<feOffset/>
<feGaussianBlur stdDeviation="2"/>
<feComposite in2="hardAlpha" operator="out"/>
<feColorMatrix type="matrix" values="0 0 0 0 1 0 0 0 0 1 0 0 0 0 1 0 0 0 0.37 0"/>
<feBlend mode="normal" in2="BackgroundImageFix" result="effect1_dropShadow_421_1244"/>
<feBlend mode="normal" in="SourceGraphic" in2="effect1_dropShadow_421_1244" result="shape"/>
</filter>
<linearGradient id="paint0_linear_421_1244" x1="50.1304" y1="103.933" x2="50.1304" y2="11.5843" gradientUnits="userSpaceOnUse">
<stop stop-color="#9300D6"/>
<stop offset="0.176" stop-color="#98005E"/>
<stop offset="1" stop-color="#DC003B"/>
</linearGradient>
<linearGradient id="paint1_linear_421_1244" x1="52.5594" y1="96.7422" x2="52.5594" y2="11.5824" gradientUnits="userSpaceOnUse">
<stop stop-color="#DE0086"/>
<stop offset="1" stop-color="#FF003B"/>
</linearGradient>
<linearGradient id="paint2_linear_421_1244" x1="53.4258" y1="86.6066" x2="53.4258" y2="14.7409" gradientUnits="userSpaceOnUse">
<stop stop-color="#A98BCE"/>
<stop offset="1" stop-color="#E7B8C0"/>
</linearGradient>
<linearGradient id="paint3_linear_421_1244" x1="54.9391" y1="83.1944" x2="54.9391" y2="14.7409" gradientUnits="userSpaceOnUse">
<stop stop-color="#F8E1F2"/>
<stop offset="1" stop-color="white"/>
</linearGradient>
<linearGradient id="paint4_linear_421_1244" x1="54.8402" y1="35.0175" x2="54.8402" y2="14.7409" gradientUnits="userSpaceOnUse">
<stop stop-color="#A98BCE"/>
<stop offset="1" stop-color="#E7B8C0"/>
</linearGradient>
<linearGradient id="paint5_linear_421_1244" x1="55.1137" y1="33.1098" x2="55.1137" y2="14.7415" gradientUnits="userSpaceOnUse">
<stop stop-color="#F8E1F2"/>
<stop offset="1" stop-color="white"/>
</linearGradient>
<linearGradient id="paint6_linear_421_1244" x1="56.6001" y1="25.756" x2="56.6001" y2="3.87628" gradientUnits="userSpaceOnUse">
<stop stop-color="#1D0066"/>
<stop offset="1" stop-color="#93003B"/>
</linearGradient>
<linearGradient id="paint7_linear_421_1244" x1="68.9367" y1="25.756" x2="68.9367" y2="3.87628" gradientUnits="userSpaceOnUse">
<stop stop-color="#1D0066"/>
<stop offset="1" stop-color="#93003B"/>
</linearGradient>
<linearGradient id="paint8_linear_421_1244" x1="33.6079" y1="25.756" x2="33.6079" y2="3.87628" gradientUnits="userSpaceOnUse">
<stop stop-color="#1D0066"/>
<stop offset="1" stop-color="#93003B"/>
</linearGradient>
<linearGradient id="paint9_linear_421_1244" x1="45.1042" y1="25.756" x2="45.1042" y2="3.87628" gradientUnits="userSpaceOnUse">
<stop stop-color="#1D0066"/>
<stop offset="1" stop-color="#93003B"/>
</linearGradient>
</defs>
</svg>
