<?xml version="1.0" encoding="UTF-8"?>
<!DOCTYPE svg PUBLIC "-//W3C//DTD SVG 1.1//EN" "http://www.w3.org/Graphics/SVG/1.1/DTD/svg11.dtd">
<svg xmlns="http://www.w3.org/2000/svg" version="1.1" width="937px" height="991px" style="shape-rendering:geometricPrecision; text-rendering:geometricPrecision; image-rendering:optimizeQuality; fill-rule:evenodd; clip-rule:evenodd" xmlns:xlink="http://www.w3.org/1999/xlink">
<g><path style="opacity:0.205" fill="#02e3fe" d="M 723.5,123.5 C 748.502,123.333 773.502,123.5 798.5,124C 811.952,123.823 824.618,126.823 836.5,133C 845.66,139.81 850.826,148.977 852,160.5C 864.411,284.124 839.411,399.457 777,506.5C 739.271,567.564 690.605,618.231 631,658.5C 630.578,660.355 630.078,662.189 629.5,664C 636.368,709.028 631.868,752.861 616,795.5C 609.199,811.11 600.866,825.776 591,839.5C 568,868.5 545,897.5 522,926.5C 510.252,937.402 496.252,942.069 480,940.5C 469.118,940.664 458.618,938.831 448.5,935C 441.3,930.766 435.8,924.933 432,917.5C 408.997,879.679 385.83,842.012 362.5,804.5C 360.353,811.007 358.519,817.674 357,824.5C 355.587,827.661 353.92,830.661 352,833.5C 319.167,866.333 286.333,899.167 253.5,932C 246.323,937.059 238.323,939.726 229.5,940C 216.73,941.022 204.063,940.355 191.5,938C 179.236,934.07 171.403,925.903 168,913.5C 167.145,907.138 166.145,900.804 165,894.5C 164.586,894.043 164.086,893.709 163.5,893.5C 152.681,903.819 142.014,914.319 131.5,925C 120.182,932.455 107.682,935.622 94,934.5C 80.3185,935.622 67.8185,932.455 56.5,925C 48.0985,917.023 43.9319,907.19 44,895.5C 43.0475,883.405 43.7142,871.405 46,859.5C 47.4728,855.221 49.4728,851.221 52,847.5C 62.6667,836.833 73.3333,826.167 84,815.5C 84.4828,814.552 84.6495,813.552 84.5,812.5C 71.6185,812.829 59.9518,809.329 49.5,802C 42.1606,793.996 38.3273,784.496 38,773.5C 36.7403,759.97 37.7403,746.637 41,733.5C 42.4131,730.339 44.0797,727.339 46,724.5C 78.8333,691.667 111.667,658.833 144.5,626C 152.997,620.54 162.33,617.54 172.5,617C 172.957,616.586 173.291,616.086 173.5,615.5C 135.001,591.416 96.334,567.583 57.5,544C 49.0597,538.556 43.2264,531.056 40,521.5C 36.6667,505.833 36.6667,490.167 40,474.5C 41.8883,469.055 44.555,464.055 48,459.5C 78.8784,434.286 110.045,409.453 141.5,385C 180.994,357.951 224.828,344.785 273,345.5C 286.742,345.648 300.409,346.648 314,348.5C 315.811,347.922 317.645,347.422 319.5,347C 385.914,250.968 474.914,184.968 586.5,149C 631.347,135.306 677.014,126.806 723.5,123.5 Z M 743.5,226.5 C 745.857,226.337 748.19,226.503 750.5,227C 750.386,252.362 747.552,277.529 742,302.5C 741.653,304.18 740.653,305.18 739,305.5C 714.572,291.41 694.239,272.743 678,249.5C 675.927,246.27 674.094,242.937 672.5,239.5C 672.59,237.575 673.59,236.408 675.5,236C 698.087,231.18 720.754,228.013 743.5,226.5 Z M 561.5,276.5 C 564.044,276.104 566.211,276.771 568,278.5C 575.404,294.317 584.07,309.317 594,323.5C 594.49,324.793 594.657,326.127 594.5,327.5C 563.538,317.882 532.038,315.882 500,321.5C 498.833,321.167 497.667,320.833 496.5,320.5C 501.369,315.466 506.702,310.966 512.5,307C 528.562,296.307 544.895,286.141 561.5,276.5 Z M 651.5,382.5 C 666.523,392.348 682.19,401.182 698.5,409C 700.357,410.182 701.357,411.849 701.5,414C 689.424,438.074 674.924,460.574 658,481.5C 657.009,480.57 656.509,479.404 656.5,478C 660.273,454.527 660.439,431.027 657,407.5C 655.377,399.842 653.211,392.342 650.5,385C 650.743,384.098 651.077,383.265 651.5,382.5 Z M 413.5,406.5 C 414.794,408.048 415.461,410.048 415.5,412.5C 411.458,441.12 413.958,469.12 423,496.5C 438.58,530.875 464.746,552.375 501.5,561C 524.155,565.426 546.822,565.593 569.5,561.5C 570.5,561.833 571.167,562.5 571.5,563.5C 514.38,604.233 457.046,644.733 399.5,685C 396.158,687.515 392.491,689.348 388.5,690.5C 380.947,688.057 373.947,684.557 367.5,680C 332.285,657.46 305.618,627.46 287.5,590C 288.668,585.832 290.501,581.998 293,578.5C 333.776,521.564 373.942,464.23 413.5,406.5 Z M 532.5,424.5 C 540.391,423.862 546.557,426.862 551,433.5C 554.913,440.202 554.079,446.202 548.5,451.5C 539.348,461.102 530.848,460.436 523,449.5C 519.142,444.649 518.809,439.649 522,434.5C 524.821,430.36 528.321,427.027 532.5,424.5 Z M 236.5,457.5 C 237.978,457.238 239.311,457.571 240.5,458.5C 231.029,473.944 220.696,488.778 209.5,503C 201.695,502.259 194.862,499.092 189,493.5C 188.333,492.5 188.333,491.5 189,490.5C 203.103,476.878 218.936,465.878 236.5,457.5 Z M 224.5,703.5 C 225.552,703.351 226.552,703.517 227.5,704C 233.667,710.833 239.833,717.667 246,724.5C 255.869,733.37 265.369,742.537 274.5,752C 266.083,761.585 257.083,770.752 247.5,779.5C 246.914,779.291 246.414,778.957 246,778.5C 245.851,747.684 230.351,732.184 199.5,732C 199.043,731.586 198.709,731.086 198.5,730.5C 207.188,721.479 215.855,712.479 224.5,703.5 Z M 518.5,737.5 C 519.478,737.811 520.145,738.478 520.5,739.5C 512.613,758.117 501.613,774.617 487.5,789C 486.5,789.667 485.5,789.667 484.5,789C 480.208,783.588 476.541,777.755 473.5,771.5C 474,770.5 474.5,769.5 475,768.5C 489.127,757.531 503.627,747.198 518.5,737.5 Z"/></g>
<g><path style="opacity:0.741" fill="#c8646a" d="M 729.5,164.5 C 721.736,166.215 713.736,166.882 705.5,166.5C 713.325,165.508 721.325,164.841 729.5,164.5 Z"/></g>
<g><path style="opacity:0.999" fill="#fa2925" d="M 789.5,164.5 C 793.373,165.489 797.373,166.489 801.5,167.5C 780.174,168.333 758.841,168.833 737.5,169C 754.005,169.169 770.338,169.669 786.5,170.5C 745.291,169.029 704.457,172.029 664,179.5C 663.167,179.333 662.333,179.167 661.5,179C 664.402,178.081 664.735,177.248 662.5,176.5C 665.404,175.715 668.07,174.381 670.5,172.5C 673.228,172.829 675.562,172.163 677.5,170.5C 678.167,170.5 678.833,170.5 679.5,170.5C 686.043,170.001 692.377,169.001 698.5,167.5C 700.806,167.007 703.139,166.674 705.5,166.5C 713.736,166.882 721.736,166.215 729.5,164.5C 749.5,163.167 769.5,163.167 789.5,164.5 Z"/></g>
<g><path style="opacity:1" fill="#fc5f5f" d="M 789.5,164.5 C 794.562,164.274 799.562,164.608 804.5,165.5C 805.865,167.751 805.531,169.751 803.5,171.5C 797.879,170.646 792.212,170.313 786.5,170.5C 770.338,169.669 754.005,169.169 737.5,169C 758.841,168.833 780.174,168.333 801.5,167.5C 797.373,166.489 793.373,165.489 789.5,164.5 Z"/></g>
<g><path style="opacity:0.647" fill="#b0737d" d="M 698.5,167.5 C 692.377,169.001 686.043,170.001 679.5,170.5C 685.526,168.45 691.859,167.45 698.5,167.5 Z"/></g>
<g><path style="opacity:0.847" fill="#c45455" d="M 677.5,170.5 C 675.562,172.163 673.228,172.829 670.5,172.5C 669.167,172.5 667.833,172.5 666.5,172.5C 669.974,171.475 673.64,170.808 677.5,170.5 Z"/></g>
<g><path style="opacity:1" fill="#dc1511" d="M 666.5,172.5 C 667.833,172.5 669.167,172.5 670.5,172.5C 668.07,174.381 665.404,175.715 662.5,176.5C 650.994,179.974 639.328,182.807 627.5,185C 616.229,189.127 604.895,192.96 593.5,196.5C 594.807,194.518 596.141,192.518 597.5,190.5C 604.327,188.042 611.327,186.042 618.5,184.5C 620.848,184.33 623.182,183.997 625.5,183.5C 627.03,183.36 628.03,182.693 628.5,181.5C 628.833,181.5 629.167,181.5 629.5,181.5C 634.563,181.172 639.23,179.839 643.5,177.5C 651.143,175.929 658.809,174.262 666.5,172.5 Z"/></g>
<g><path style="opacity:0.878" fill="#be4949" d="M 643.5,177.5 C 639.23,179.839 634.563,181.172 629.5,181.5C 629.611,180.883 629.944,180.383 630.5,180C 634.87,179.263 639.204,178.43 643.5,177.5 Z"/></g>
<g><path style="opacity:1" fill="#fc1410" d="M 786.5,170.5 C 792.212,170.313 797.879,170.646 803.5,171.5C 805.173,172.343 806.34,173.676 807,175.5C 808.383,197.806 808.883,220.139 808.5,242.5C 806.972,259.419 804.972,276.419 802.5,293.5C 799.826,310.165 796.493,326.832 792.5,343.5C 788.553,356.759 784.553,370.093 780.5,383.5C 776.167,383.5 771.833,383.5 767.5,383.5C 766.833,383.5 766.5,383.167 766.5,382.5C 704.782,365.26 656.949,329.593 623,275.5C 611.633,256.429 603.3,236.096 598,214.5C 597.28,212.944 596.113,211.944 594.5,211.5C 594.5,210.833 594.167,210.5 593.5,210.5C 593.086,205.636 593.086,200.969 593.5,196.5C 604.895,192.96 616.229,189.127 627.5,185C 639.328,182.807 650.994,179.974 662.5,176.5C 664.735,177.248 664.402,178.081 661.5,179C 662.333,179.167 663.167,179.333 664,179.5C 704.457,172.029 745.291,169.029 786.5,170.5 Z M 743.5,226.5 C 720.754,228.013 698.087,231.18 675.5,236C 673.59,236.408 672.59,237.575 672.5,239.5C 674.094,242.937 675.927,246.27 678,249.5C 694.239,272.743 714.572,291.41 739,305.5C 740.653,305.18 741.653,304.18 742,302.5C 747.552,277.529 750.386,252.362 750.5,227C 748.19,226.503 745.857,226.337 743.5,226.5 Z"/></g>
<g><path style="opacity:0.996" fill="#730908" d="M 767.5,365.5 C 767.5,365.167 767.5,364.833 767.5,364.5C 768.496,364.586 769.329,364.252 770,363.5C 773.252,351.903 776.419,340.236 779.5,328.5C 781.074,326.898 781.741,324.898 781.5,322.5C 781.963,319.518 782.296,316.518 782.5,313.5C 783.222,313.082 783.722,312.416 784,311.5C 784.548,307.83 785.048,304.163 785.5,300.5C 786.568,293.47 787.568,286.47 788.5,279.5C 789.972,275.081 790.638,270.414 790.5,265.5C 790.5,263.167 790.5,260.833 790.5,258.5C 791.29,257.391 791.79,256.058 792,254.5C 793.49,234.011 793.657,213.678 792.5,193.5C 792.802,190.941 792.468,188.607 791.5,186.5C 781.703,185.088 771.703,184.422 761.5,184.5C 755.657,184.501 749.99,184.834 744.5,185.5C 736.826,185.334 729.159,185.5 721.5,186C 718.964,186.186 716.631,186.686 714.5,187.5C 711.482,187.704 708.482,188.037 705.5,188.5C 695.548,189.815 685.548,190.981 675.5,192C 672.69,192.782 670.023,193.616 667.5,194.5C 649.214,197.571 631.214,201.905 613.5,207.5C 612.199,206.116 612.199,204.616 613.5,203C 671.008,184.794 730.008,177.46 790.5,181C 792.519,181.45 794.352,182.283 796,183.5C 800.727,245.431 793.727,306.097 775,365.5C 774.481,366.516 773.647,367.182 772.5,367.5C 770.823,366.813 769.156,366.146 767.5,365.5 Z"/></g>
<g><path style="opacity:1" fill="#fbd0d0" d="M 804.5,165.5 C 807.394,166.882 809.894,168.882 812,171.5C 813.37,177.742 813.87,184.075 813.5,190.5C 812.817,185.938 811.983,181.272 811,176.5C 810.933,199.259 810.099,221.259 808.5,242.5C 808.883,220.139 808.383,197.806 807,175.5C 806.34,173.676 805.173,172.343 803.5,171.5C 805.531,169.751 805.865,167.751 804.5,165.5 Z"/></g>
<g><path style="opacity:0.859" fill="#bc3f3e" d="M 628.5,181.5 C 628.03,182.693 627.03,183.36 625.5,183.5C 623.182,183.997 620.848,184.33 618.5,184.5C 621.452,182.59 624.786,181.59 628.5,181.5 Z"/></g>
<g><path style="opacity:0.741" fill="#6b3940" d="M 744.5,185.5 C 749.99,184.834 755.657,184.501 761.5,184.5C 771.703,184.422 781.703,185.088 791.5,186.5C 775.843,185.813 760.176,185.479 744.5,185.5 Z"/></g>
<g><path style="opacity:0.631" fill="#6a4249" d="M 744.5,185.5 C 734.667,186.405 724.667,187.071 714.5,187.5C 716.631,186.686 718.964,186.186 721.5,186C 729.159,185.5 736.826,185.334 744.5,185.5 Z"/></g>
<g><path style="opacity:0.252" fill="#09e2fd" d="M 744.5,185.5 C 760.176,185.479 775.843,185.813 791.5,186.5C 792.468,188.607 792.802,190.941 792.5,193.5C 792.721,215.199 792.055,236.866 790.5,258.5C 790.5,260.833 790.5,263.167 790.5,265.5C 789.028,269.919 788.362,274.586 788.5,279.5C 787.568,286.47 786.568,293.47 785.5,300.5C 783.763,304.542 782.763,308.876 782.5,313.5C 782.296,316.518 781.963,319.518 781.5,322.5C 779.926,324.102 779.259,326.102 779.5,328.5C 776.419,340.236 773.252,351.903 770,363.5C 769.329,364.252 768.496,364.586 767.5,364.5C 756.076,362.211 745.076,358.544 734.5,353.5C 716.673,345.58 700.007,335.58 684.5,323.5C 679.193,318.528 673.86,313.528 668.5,308.5C 640.794,280.429 622.46,247.095 613.5,208.5C 613.5,208.167 613.5,207.833 613.5,207.5C 631.214,201.905 649.214,197.571 667.5,194.5C 680.299,193.023 692.966,191.023 705.5,188.5C 708.482,188.037 711.482,187.704 714.5,187.5C 724.667,187.071 734.667,186.405 744.5,185.5 Z M 743.5,226.5 C 720.754,228.013 698.087,231.18 675.5,236C 673.59,236.408 672.59,237.575 672.5,239.5C 674.094,242.937 675.927,246.27 678,249.5C 694.239,272.743 714.572,291.41 739,305.5C 740.653,305.18 741.653,304.18 742,302.5C 747.552,277.529 750.386,252.362 750.5,227C 748.19,226.503 745.857,226.337 743.5,226.5 Z"/></g>
<g><path style="opacity:0.416" fill="#59808e" d="M 705.5,188.5 C 692.966,191.023 680.299,193.023 667.5,194.5C 670.023,193.616 672.69,192.782 675.5,192C 685.548,190.981 695.548,189.815 705.5,188.5 Z"/></g>
<g><path style="opacity:1" fill="#b93533" d="M 597.5,190.5 C 596.141,192.518 594.807,194.518 593.5,196.5C 593.086,200.969 593.086,205.636 593.5,210.5C 593.167,210.5 592.833,210.5 592.5,210.5C 592.495,206.466 592.162,202.466 591.5,198.5C 591.5,196.5 591.5,194.5 591.5,192.5C 593.421,191.637 595.421,190.971 597.5,190.5 Z"/></g>
<g><path style="opacity:1" fill="#06d5fa" d="M 591.5,198.5 C 592.162,202.466 592.495,206.466 592.5,210.5C 568.673,218.135 546.006,228.469 524.5,241.5C 505.625,251.431 487.958,263.097 471.5,276.5C 462.567,282.76 453.9,289.426 445.5,296.5C 445.103,295.475 444.437,295.308 443.5,296C 422.23,314.934 402.73,335.434 385,357.5C 333.588,430.731 282.421,504.065 231.5,577.5C 230.838,579.304 230.505,581.304 230.5,583.5C 230.539,585.952 231.206,587.952 232.5,589.5C 247.09,628.36 269.424,662.027 299.5,690.5C 314.416,704.755 330.749,717.088 348.5,727.5C 360.761,735.795 374.094,742.295 388.5,747C 391.833,747.667 395.167,747.667 398.5,747C 395.194,745.005 394.861,742.838 397.5,740.5C 397.5,741.833 397.5,743.167 397.5,744.5C 400.425,744.54 403.091,743.707 405.5,742C 476.069,691.915 546.736,642.081 617.5,592.5C 679.671,544.203 726.504,483.869 758,411.5C 762.07,402.787 765.237,393.787 767.5,384.5C 773.167,384.5 778.833,384.5 784.5,384.5C 782.735,385.461 780.735,385.795 778.5,385.5C 770.328,410.852 759.661,435.185 746.5,458.5C 746.667,458.833 746.833,459.167 747,459.5C 753.98,447.546 760.48,435.212 766.5,422.5C 769.594,418.899 772.094,414.899 774,410.5C 774.667,411.833 774.667,413.167 774,414.5C 767.881,431.194 760.048,447.028 750.5,462C 750.833,462.333 751.167,462.667 751.5,463C 742.768,477.651 733.434,491.817 723.5,505.5C 723.631,504.624 723.298,503.957 722.5,503.5C 714.494,512.012 706.994,521.012 700,530.5C 683.332,549.335 665.832,567.335 647.5,584.5C 640.205,589.794 633.205,595.461 626.5,601.5C 612.384,610.733 598.384,620.233 584.5,630C 582.365,631.556 582.032,633.389 583.5,635.5C 581.799,635.034 580.299,635.034 579,635.5C 578.211,637.712 578.378,639.712 579.5,641.5C 582.493,662.427 584.827,683.427 586.5,704.5C 585.5,715.171 584.5,725.838 583.5,736.5C 579.829,752.346 574.662,767.68 568,782.5C 569.764,780.611 571.264,778.611 572.5,776.5C 574.137,774.684 575.637,772.684 577,770.5C 574.958,781.585 570.458,791.585 563.5,800.5C 563.38,799.414 562.713,798.747 561.5,798.5C 537.967,826.541 515.134,855.208 493,884.5C 490.039,888.141 486.873,891.474 483.5,894.5C 479.112,895.057 475.945,893.39 474,889.5C 448,846.833 422,804.167 396,761.5C 394.269,759.383 392.102,757.883 389.5,757C 306.176,726.343 249.676,669.176 220,585.5C 218.833,584.333 217.667,583.167 216.5,582C 172.416,555.543 128.583,528.71 85,501.5C 83.627,499.305 83.2937,496.971 84,494.5C 97.159,483.016 110.659,471.849 124.5,461C 130.772,458.684 135.772,454.684 139.5,449C 147.729,442.591 156.063,436.425 164.5,430.5C 168.985,428.073 172.985,424.907 176.5,421C 193.667,409.083 212.334,400.416 232.5,395C 233.357,394.311 234.023,393.478 234.5,392.5C 232.955,391.548 231.288,391.215 229.5,391.5C 233.725,390.341 238.058,389.174 242.5,388C 254.715,387.043 266.882,386.21 279,385.5C 290.131,387.071 301.298,388.571 312.5,390C 313,390.5 313.5,391 314,391.5C 317.311,389.983 320.811,390.316 324.5,392.5C 321.634,393.208 318.8,393.875 316,394.5C 303.139,390.331 289.972,389.164 276.5,391C 297.855,393.841 319.188,396.675 340.5,399.5C 339.833,397.167 339.167,394.833 338.5,392.5C 339.5,392.5 340.5,392.5 341.5,392.5C 341.5,393.833 341.5,395.167 341.5,396.5C 344.888,396.812 347.388,395.479 349,392.5C 385.265,335.071 431.432,287.404 487.5,249.5C 501.805,240.837 516.139,232.17 530.5,223.5C 541.513,218.436 552.513,213.269 563.5,208C 572.535,203.984 581.868,200.817 591.5,198.5 Z M 413.5,406.5 C 373.942,464.23 333.776,521.564 293,578.5C 290.501,581.998 288.668,585.832 287.5,590C 305.618,627.46 332.285,657.46 367.5,680C 373.947,684.557 380.947,688.057 388.5,690.5C 392.491,689.348 396.158,687.515 399.5,685C 457.046,644.733 514.38,604.233 571.5,563.5C 571.167,562.5 570.5,561.833 569.5,561.5C 546.822,565.593 524.155,565.426 501.5,561C 464.746,552.375 438.58,530.875 423,496.5C 413.958,469.12 411.458,441.12 415.5,412.5C 415.461,410.048 414.794,408.048 413.5,406.5 Z M 532.5,424.5 C 528.321,427.027 524.821,430.36 522,434.5C 518.809,439.649 519.142,444.649 523,449.5C 530.848,460.436 539.348,461.102 548.5,451.5C 554.079,446.202 554.913,440.202 551,433.5C 546.557,426.862 540.391,423.862 532.5,424.5 Z M 236.5,457.5 C 218.936,465.878 203.103,476.878 189,490.5C 188.333,491.5 188.333,492.5 189,493.5C 194.862,499.092 201.695,502.259 209.5,503C 220.696,488.778 231.029,473.944 240.5,458.5C 239.311,457.571 237.978,457.238 236.5,457.5 Z M 518.5,737.5 C 503.627,747.198 489.127,757.531 475,768.5C 474.5,769.5 474,770.5 473.5,771.5C 476.541,777.755 480.208,783.588 484.5,789C 485.5,789.667 486.5,789.667 487.5,789C 501.613,774.617 512.613,758.117 520.5,739.5C 520.145,738.478 519.478,737.811 518.5,737.5 Z"/></g>
<g><path style="opacity:1" fill="#ff8886" d="M 612.5,208.5 C 611.542,211.125 610.376,211.125 609,208.5C 608.506,210.134 608.34,211.801 608.5,213.5C 607.2,210.976 607.2,208.309 608.5,205.5C 609.642,206.826 610.976,207.826 612.5,208.5 Z"/></g>
<g><path style="opacity:0.995" fill="#00697d" d="M 592.5,210.5 C 592.833,210.5 593.167,210.5 593.5,210.5C 593.552,214.198 593.886,217.865 594.5,221.5C 593.208,219.745 592.208,217.745 591.5,215.5C 582.698,219.57 573.698,223.07 564.5,226C 547.637,234.979 530.637,243.812 513.5,252.5C 512.491,251.061 512.824,249.728 514.5,248.5C 518.644,247.114 521.977,244.781 524.5,241.5C 546.006,228.469 568.673,218.135 592.5,210.5 Z"/></g>
<g><path style="opacity:0.998" fill="#710e0c" d="M 594.5,211.5 C 596.113,211.944 597.28,212.944 598,214.5C 603.3,236.096 611.633,256.429 623,275.5C 656.949,329.593 704.782,365.26 766.5,382.5C 760.162,382.233 753.829,381.9 747.5,381.5C 695.624,364.484 654.457,333.151 624,287.5C 615.546,274.953 608.713,261.619 603.5,247.5C 602.618,243.407 600.951,239.74 598.5,236.5C 598.5,236.167 598.5,235.833 598.5,235.5C 598.59,232.848 597.924,230.515 596.5,228.5C 596.5,227.167 596.5,225.833 596.5,224.5C 596.091,220.124 595.425,215.79 594.5,211.5 Z"/></g>
<g><path style="opacity:0.976" fill="#058ca5" d="M 591.5,192.5 C 591.5,194.5 591.5,196.5 591.5,198.5C 581.868,200.817 572.535,203.984 563.5,208C 552.513,213.269 541.513,218.436 530.5,223.5C 531.007,222.141 532.007,221.141 533.5,220.5C 532.675,219.614 531.675,219.281 530.5,219.5C 531.574,218.115 532.907,216.949 534.5,216C 552.995,206.892 571.995,199.059 591.5,192.5 Z"/></g>
<g><path style="opacity:0.737" fill="#6c363c" d="M 792.5,193.5 C 793.657,213.678 793.49,234.011 792,254.5C 791.79,256.058 791.29,257.391 790.5,258.5C 792.055,236.866 792.721,215.199 792.5,193.5 Z"/></g>
<g><path style="opacity:0.213" fill="#01e3fe" d="M 594.5,221.5 C 594.5,221.833 594.5,222.167 594.5,222.5C 594.259,224.898 594.926,226.898 596.5,228.5C 596.41,231.152 597.076,233.485 598.5,235.5C 598.5,235.833 598.5,236.167 598.5,236.5C 598.837,240.836 600.504,244.503 603.5,247.5C 608.713,261.619 615.546,274.953 624,287.5C 654.457,333.151 695.624,364.484 747.5,381.5C 750.627,382.581 753.96,383.247 757.5,383.5C 758.263,384.268 759.263,384.768 760.5,385C 761.059,385.725 761.392,386.558 761.5,387.5C 727.529,477.039 671.196,549.372 592.5,604.5C 527.354,649.577 462.354,694.911 397.5,740.5C 394.861,742.838 395.194,745.005 398.5,747C 395.167,747.667 391.833,747.667 388.5,747C 374.094,742.295 360.761,735.795 348.5,727.5C 358.255,732.711 368.255,737.378 378.5,741.5C 383.146,743.977 388.146,745.644 393.5,746.5C 393.714,744.856 393.38,743.356 392.5,742C 372.316,733.776 352.983,723.943 334.5,712.5C 310.244,694.912 288.911,674.245 270.5,650.5C 256.431,630.029 245.264,608.029 237,584.5C 231.351,579.487 229.851,581.154 232.5,589.5C 231.206,587.952 230.539,585.952 230.5,583.5C 230.505,581.304 230.838,579.304 231.5,577.5C 232.117,577.389 232.617,577.056 233,576.5C 233.49,577.793 233.657,579.127 233.5,580.5C 235.099,580.768 236.432,580.434 237.5,579.5C 285.678,511.103 333.845,442.436 382,373.5C 390.564,361.76 399.73,350.427 409.5,339.5C 424.477,323.524 440.144,308.19 456.5,293.5C 474.686,278.639 493.686,264.972 513.5,252.5C 530.637,243.812 547.637,234.979 564.5,226C 573.698,223.07 582.698,219.57 591.5,215.5C 592.208,217.745 593.208,219.745 594.5,221.5 Z M 561.5,276.5 C 544.895,286.141 528.562,296.307 512.5,307C 506.702,310.966 501.369,315.466 496.5,320.5C 497.667,320.833 498.833,321.167 500,321.5C 532.038,315.882 563.538,317.882 594.5,327.5C 594.657,326.127 594.49,324.793 594,323.5C 584.07,309.317 575.404,294.317 568,278.5C 566.211,276.771 564.044,276.104 561.5,276.5 Z M 651.5,382.5 C 651.077,383.265 650.743,384.098 650.5,385C 653.211,392.342 655.377,399.842 657,407.5C 660.439,431.027 660.273,454.527 656.5,478C 656.509,479.404 657.009,480.57 658,481.5C 674.924,460.574 689.424,438.074 701.5,414C 701.357,411.849 700.357,410.182 698.5,409C 682.19,401.182 666.523,392.348 651.5,382.5 Z M 413.5,406.5 C 373.942,464.23 333.776,521.564 293,578.5C 290.501,581.998 288.668,585.832 287.5,590C 305.618,627.46 332.285,657.46 367.5,680C 373.947,684.557 380.947,688.057 388.5,690.5C 392.491,689.348 396.158,687.515 399.5,685C 457.046,644.733 514.38,604.233 571.5,563.5C 571.167,562.5 570.5,561.833 569.5,561.5C 546.822,565.593 524.155,565.426 501.5,561C 464.746,552.375 438.58,530.875 423,496.5C 413.958,469.12 411.458,441.12 415.5,412.5C 415.461,410.048 414.794,408.048 413.5,406.5 Z M 532.5,424.5 C 528.321,427.027 524.821,430.36 522,434.5C 518.809,439.649 519.142,444.649 523,449.5C 530.848,460.436 539.348,461.102 548.5,451.5C 554.079,446.202 554.913,440.202 551,433.5C 546.557,426.862 540.391,423.862 532.5,424.5 Z"/></g>
<g><path style="opacity:0.996" fill="#4b2227" d="M 593.5,210.5 C 594.167,210.5 594.5,210.833 594.5,211.5C 595.425,215.79 596.091,220.124 596.5,224.5C 595.833,223.833 595.167,223.167 594.5,222.5C 594.5,222.167 594.5,221.833 594.5,221.5C 593.886,217.865 593.552,214.198 593.5,210.5 Z"/></g>
<g><path style="opacity:0.989" fill="#f7aeaf" d="M 813.5,190.5 C 814.765,212.323 814.431,233.989 812.5,255.5C 812.666,250.821 812.499,246.155 812,241.5C 809.118,261.229 806.118,280.895 803,300.5C 802.503,298.19 802.337,295.857 802.5,293.5C 804.972,276.419 806.972,259.419 808.5,242.5C 810.099,221.259 810.933,199.259 811,176.5C 811.983,181.272 812.817,185.938 813.5,190.5 Z"/></g>
<g><path style="opacity:1" fill="#ff6962" d="M 609.5,219.5 C 611.538,223.94 613.204,228.607 614.5,233.5C 611.676,229.37 610.009,224.703 609.5,219.5 Z"/></g>
<g><path style="opacity:0.698" fill="#1b6678" d="M 594.5,222.5 C 595.167,223.167 595.833,223.833 596.5,224.5C 596.5,225.833 596.5,227.167 596.5,228.5C 594.926,226.898 594.259,224.898 594.5,222.5 Z"/></g>
<g><path style="opacity:0.557" fill="#316575" d="M 596.5,228.5 C 597.924,230.515 598.59,232.848 598.5,235.5C 597.076,233.485 596.41,231.152 596.5,228.5 Z"/></g>
<g><path style="opacity:0.986" fill="#00758b" d="M 530.5,219.5 C 531.675,219.281 532.675,219.614 533.5,220.5C 532.007,221.141 531.007,222.141 530.5,223.5C 516.139,232.17 501.805,240.837 487.5,249.5C 488.234,248.292 488.567,246.959 488.5,245.5C 487.5,245.5 486.5,245.5 485.5,245.5C 499.501,235.179 514.501,226.512 530.5,219.5 Z"/></g>
<g><path style="opacity:0.498" fill="#4c6c7b" d="M 598.5,236.5 C 600.951,239.74 602.618,243.407 603.5,247.5C 600.504,244.503 598.837,240.836 598.5,236.5 Z"/></g>
<g><path style="opacity:0.996" fill="#006173" d="M 485.5,245.5 C 486.5,245.5 487.5,245.5 488.5,245.5C 488.567,246.959 488.234,248.292 487.5,249.5C 431.432,287.404 385.265,335.071 349,392.5C 347.388,395.479 344.888,396.812 341.5,396.5C 341.5,395.167 341.5,393.833 341.5,392.5C 354.083,374.735 366.917,357.068 380,339.5C 410.369,302.622 445.536,271.289 485.5,245.5 Z"/></g>
<g><path style="opacity:0.988" fill="#fae0e1" d="M 612.5,208.5 C 612.833,208.5 613.167,208.5 613.5,208.5C 622.46,247.095 640.794,280.429 668.5,308.5C 668.421,309.93 668.754,311.264 669.5,312.5C 673.739,316.45 677.739,320.616 681.5,325C 680.944,325.383 680.611,325.883 680.5,326.5C 650.054,301.685 628.054,270.685 614.5,233.5C 613.204,228.607 611.538,223.94 609.5,219.5C 609.483,217.435 609.15,215.435 608.5,213.5C 608.34,211.801 608.506,210.134 609,208.5C 610.376,211.125 611.542,211.125 612.5,208.5 Z"/></g>
<g><path style="opacity:0.745" fill="#6a454c" d="M 790.5,265.5 C 790.638,270.414 789.972,275.081 788.5,279.5C 788.362,274.586 789.028,269.919 790.5,265.5 Z"/></g>
<g><path style="opacity:1" fill="#0088a1" d="M 524.5,241.5 C 521.977,244.781 518.644,247.114 514.5,248.5C 512.824,249.728 512.491,251.061 513.5,252.5C 493.686,264.972 474.686,278.639 456.5,293.5C 454.354,293.304 454.188,292.304 456,290.5C 461.362,285.968 466.528,281.301 471.5,276.5C 487.958,263.097 505.625,251.431 524.5,241.5 Z"/></g>
<g><path style="opacity:0.631" fill="#606772" d="M 785.5,300.5 C 785.048,304.163 784.548,307.83 784,311.5C 783.722,312.416 783.222,313.082 782.5,313.5C 782.763,308.876 783.763,304.542 785.5,300.5 Z"/></g>
<g><path style="opacity:0.985" fill="#00a7c5" d="M 471.5,276.5 C 466.528,281.301 461.362,285.968 456,290.5C 454.188,292.304 454.354,293.304 456.5,293.5C 440.144,308.19 424.477,323.524 409.5,339.5C 407.775,339.157 407.275,338.157 408,336.5C 418.006,325.661 428.172,314.995 438.5,304.5C 440.833,301.833 443.167,299.167 445.5,296.5C 453.9,289.426 462.567,282.76 471.5,276.5 Z"/></g>
<g><path style="opacity:1" fill="#fe9191" d="M 812.5,255.5 C 810.711,276.836 807.711,297.836 803.5,318.5C 803.762,317.022 803.429,315.689 802.5,314.5C 801.914,314.709 801.414,315.043 801,315.5C 798.679,325.138 796.346,334.805 794,344.5C 792.913,346.932 792.413,346.598 792.5,343.5C 796.493,326.832 799.826,310.165 802.5,293.5C 802.337,295.857 802.503,298.19 803,300.5C 806.118,280.895 809.118,261.229 812,241.5C 812.499,246.155 812.666,250.821 812.5,255.5 Z"/></g>
<g><path style="opacity:0.984" fill="#fa7677" d="M 803.5,318.5 C 799.568,340.227 794.068,361.56 787,382.5C 786.292,383.381 785.458,384.047 784.5,384.5C 778.833,384.5 773.167,384.5 767.5,384.5C 767.5,384.167 767.5,383.833 767.5,383.5C 771.833,383.5 776.167,383.5 780.5,383.5C 784.553,370.093 788.553,356.759 792.5,343.5C 792.413,346.598 792.913,346.932 794,344.5C 796.346,334.805 798.679,325.138 801,315.5C 801.414,315.043 801.914,314.709 802.5,314.5C 803.429,315.689 803.762,317.022 803.5,318.5 Z"/></g>
<g><path style="opacity:0.698" fill="#684c53" d="M 781.5,322.5 C 781.741,324.898 781.074,326.898 779.5,328.5C 779.259,326.102 779.926,324.102 781.5,322.5 Z"/></g>
<g><path style="opacity:1" fill="#fdcdce" d="M 668.5,308.5 C 673.86,313.528 679.193,318.528 684.5,323.5C 683.475,323.897 683.308,324.563 684,325.5C 688.716,331.046 694.216,335.712 700.5,339.5C 699.767,340.087 698.767,340.087 697.5,339.5C 690.974,336.31 685.308,331.976 680.5,326.5C 680.611,325.883 680.944,325.383 681.5,325C 677.739,320.616 673.739,316.45 669.5,312.5C 668.754,311.264 668.421,309.93 668.5,308.5 Z"/></g>
<g><path style="opacity:1" fill="#fcb2b3" d="M 684.5,323.5 C 700.007,335.58 716.673,345.58 734.5,353.5C 733.448,353.351 732.448,353.517 731.5,354C 732.833,354.667 732.833,355.333 731.5,356C 738.381,359.401 745.381,362.401 752.5,365C 752.272,365.399 751.938,365.565 751.5,365.5C 731.941,359.909 713.941,351.242 697.5,339.5C 698.767,340.087 699.767,340.087 700.5,339.5C 694.216,335.712 688.716,331.046 684,325.5C 683.308,324.563 683.475,323.897 684.5,323.5 Z"/></g>
<g><path style="opacity:0.978" fill="#fc7f7f" d="M 734.5,353.5 C 745.076,358.544 756.076,362.211 767.5,364.5C 767.5,364.833 767.5,365.167 767.5,365.5C 766.957,365.56 766.624,365.893 766.5,366.5C 767.313,367.814 768.313,368.981 769.5,370C 763.072,370.06 757.072,368.56 751.5,365.5C 751.938,365.565 752.272,365.399 752.5,365C 745.381,362.401 738.381,359.401 731.5,356C 732.833,355.333 732.833,354.667 731.5,354C 732.448,353.517 733.448,353.351 734.5,353.5 Z"/></g>
<g><path style="opacity:1" fill="#08d4f8" d="M 542.5,364.5 C 555.04,365.57 566.706,369.236 577.5,375.5C 597.813,389.1 609.813,408.1 613.5,432.5C 613.812,442.248 613.145,451.915 611.5,461.5C 608.645,469.543 604.979,477.21 600.5,484.5C 600.667,484.833 600.833,485.167 601,485.5C 603.628,483.874 605.961,481.874 608,479.5C 608.667,481.167 608.667,482.833 608,484.5C 605.302,488.025 602.469,491.358 599.5,494.5C 599.483,492.972 598.816,492.472 597.5,493C 592.188,496.971 586.855,500.971 581.5,505C 575.529,508.47 569.529,511.637 563.5,514.5C 521.947,525.043 490.113,512.043 468,475.5C 452.989,440.55 458.822,409.55 485.5,382.5C 487.592,380.395 489.925,378.728 492.5,377.5C 498.587,373.414 504.921,369.747 511.5,366.5C 512.685,365.147 514.019,363.98 515.5,363C 513.866,362.506 512.199,362.34 510.5,362.5C 521.713,358.647 533.38,357.481 545.5,359C 548.167,360 548.167,361 545.5,362C 539.81,362.469 534.143,363.136 528.5,364C 533.155,364.499 537.821,364.666 542.5,364.5 Z M 532.5,424.5 C 528.321,427.027 524.821,430.36 522,434.5C 518.809,439.649 519.142,444.649 523,449.5C 530.848,460.436 539.348,461.102 548.5,451.5C 554.079,446.202 554.913,440.202 551,433.5C 546.557,426.862 540.391,423.862 532.5,424.5 Z"/></g>
<g><path style="opacity:0.993" fill="#008faa" d="M 510.5,362.5 C 512.199,362.34 513.866,362.506 515.5,363C 514.019,363.98 512.685,365.147 511.5,366.5C 504.921,369.747 498.587,373.414 492.5,377.5C 494.561,374.276 497.394,371.943 501,370.5C 501.591,369.517 501.257,368.85 500,368.5C 498.862,368.989 497.695,369.322 496.5,369.5C 500.584,366.124 505.251,363.791 510.5,362.5 Z"/></g>
<g><path style="opacity:1" fill="#aef1ff" d="M 542.5,364.5 C 552.945,362.615 563.278,363.448 573.5,367C 579.5,371 585.5,375 591.5,379C 595.416,382.41 598.749,386.243 601.5,390.5C 595.319,388.323 590.652,384.323 587.5,378.5C 584.848,376.418 581.848,375.085 578.5,374.5C 577.893,374.624 577.56,374.957 577.5,375.5C 566.706,369.236 555.04,365.57 542.5,364.5 Z"/></g>
<g><path style="opacity:0.997" fill="#005d6f" d="M 492.5,377.5 C 489.925,378.728 487.592,380.395 485.5,382.5C 458.822,409.55 452.989,440.55 468,475.5C 490.113,512.043 521.947,525.043 563.5,514.5C 566.1,513.635 568.767,512.968 571.5,512.5C 573.03,512.64 574.03,513.307 574.5,514.5C 533.447,532.97 498.613,524.97 470,490.5C 452.346,463.294 449.679,434.627 462,404.5C 468.341,393.158 476.508,383.325 486.5,375C 489.727,372.888 493.06,371.055 496.5,369.5C 497.695,369.322 498.862,368.989 500,368.5C 501.257,368.85 501.591,369.517 501,370.5C 497.394,371.943 494.561,374.276 492.5,377.5 Z"/></g>
<g><path style="opacity:0.997" fill="#005e70" d="M 579.5,491.5 C 577.104,493.212 574.438,493.712 571.5,493C 572.71,491.961 573.71,490.794 574.5,489.5C 594.436,471.467 601.603,449.133 596,422.5C 581.673,391.257 557.506,377.59 523.5,381.5C 514.953,384.014 506.953,387.68 499.5,392.5C 497.535,392.052 497.202,391.052 498.5,389.5C 502.668,386.493 506.668,383.327 510.5,380C 538.82,370.064 563.987,375.23 586,395.5C 607.413,422.221 609.08,450.221 591,479.5C 587.636,484.029 583.803,488.029 579.5,491.5 Z"/></g>
<g><path style="opacity:0.271" fill="#07e3fe" d="M 574.5,489.5 C 568.992,492.755 563.325,495.755 557.5,498.5C 550.208,499.977 542.875,501.644 535.5,503.5C 535.709,504.086 536.043,504.586 536.5,505C 542.5,505.333 548.5,505.667 554.5,506C 541.512,509.806 528.845,509.306 516.5,504.5C 517.239,504.631 517.906,504.464 518.5,504C 515.5,502.333 513.167,500 511.5,497C 507.705,495.269 504.038,493.269 500.5,491C 496.631,486.963 492.631,483.13 488.5,479.5C 484.22,472.605 480.72,465.271 478,457.5C 475.641,446.137 473.807,434.803 472.5,423.5C 474.033,418.739 475.866,414.072 478,409.5C 478.654,408.304 479.154,408.304 479.5,409.5C 478.425,412.438 478.259,415.438 479,418.5C 482.063,414.431 484.73,410.098 487,405.5C 490.731,400.666 494.898,396.332 499.5,392.5C 506.953,387.68 514.953,384.014 523.5,381.5C 557.506,377.59 581.673,391.257 596,422.5C 601.603,449.133 594.436,471.467 574.5,489.5 Z M 532.5,424.5 C 528.321,427.027 524.821,430.36 522,434.5C 518.809,439.649 519.142,444.649 523,449.5C 530.848,460.436 539.348,461.102 548.5,451.5C 554.079,446.202 554.913,440.202 551,433.5C 546.557,426.862 540.391,423.862 532.5,424.5 Z"/></g>
<g><path style="opacity:1" fill="#562224" d="M 747.5,381.5 C 753.829,381.9 760.162,382.233 766.5,382.5C 766.5,383.167 766.833,383.5 767.5,383.5C 767.5,383.833 767.5,384.167 767.5,384.5C 764.14,384.384 760.807,384.051 757.5,383.5C 753.96,383.247 750.627,382.581 747.5,381.5 Z"/></g>
<g><path style="opacity:0.996" fill="#005e70" d="M 757.5,383.5 C 760.807,384.051 764.14,384.384 767.5,384.5C 765.237,393.787 762.07,402.787 758,411.5C 726.504,483.869 679.671,544.203 617.5,592.5C 609.134,597.439 600.967,602.773 593,608.5C 591.666,607.122 591.499,605.789 592.5,604.5C 671.196,549.372 727.529,477.039 761.5,387.5C 761.392,386.558 761.059,385.725 760.5,385C 759.263,384.768 758.263,384.268 757.5,383.5 Z"/></g>
<g><path style="opacity:0.988" fill="#0091ac" d="M 229.5,391.5 C 231.288,391.215 232.955,391.548 234.5,392.5C 234.023,393.478 233.357,394.311 232.5,395C 212.334,400.416 193.667,409.083 176.5,421C 172.985,424.907 168.985,428.073 164.5,430.5C 168.092,427.016 171.759,423.516 175.5,420C 182.866,415.321 190.2,410.654 197.5,406C 197,405.833 196.5,405.667 196,405.5C 193.268,406.886 190.435,407.886 187.5,408.5C 200.694,400.879 214.694,395.212 229.5,391.5 Z"/></g>
<g><path style="opacity:1" fill="#e7faff" d="M 601.5,390.5 C 603.547,392.55 605.214,394.883 606.5,397.5C 609.091,404.102 611.591,410.769 614,417.5C 614.816,422.684 614.65,427.684 613.5,432.5C 609.813,408.1 597.813,389.1 577.5,375.5C 577.56,374.957 577.893,374.624 578.5,374.5C 581.848,375.085 584.848,376.418 587.5,378.5C 590.652,384.323 595.319,388.323 601.5,390.5 Z"/></g>
<g><path style="opacity:0.997" fill="#005e70" d="M 221.5,565.5 C 256.234,515.05 291.234,464.717 326.5,414.5C 312.134,412.564 297.801,410.564 283.5,408.5C 270.385,406.801 257.385,407.467 244.5,410.5C 229.708,413.902 215.375,418.902 201.5,425.5C 199.058,425.646 198.391,424.813 199.5,423C 203.048,421.059 206.714,419.393 210.5,418C 211.71,416.961 212.71,415.794 213.5,414.5C 232.991,406.61 253.324,402.61 274.5,402.5C 292.956,403.606 311.29,405.773 329.5,409C 331.124,410.117 332.124,411.617 332.5,413.5C 330.975,417.855 328.808,421.855 326,425.5C 292.5,473 259,520.5 225.5,568C 223.055,568.91 221.722,568.076 221.5,565.5 Z"/></g>
<g><path style="opacity:0.259" fill="#01e3fe" d="M 283.5,408.5 C 297.801,410.564 312.134,412.564 326.5,414.5C 291.234,464.717 256.234,515.05 221.5,565.5C 220.197,567.757 220.864,569.59 223.5,571C 222,571.167 220.5,571.333 219,571.5C 217.014,571.431 215.514,570.765 214.5,569.5C 214.833,569.5 215.167,569.5 215.5,569.5C 216.568,570.434 217.901,570.768 219.5,570.5C 219.578,567.223 218.244,564.723 215.5,563C 179.838,541.169 144.171,519.335 108.5,497.5C 106.883,496.962 105.216,496.629 103.5,496.5C 103.179,500.494 104.845,503.161 108.5,504.5C 106.516,504.617 104.85,503.95 103.5,502.5C 102.607,499.916 102.274,497.249 102.5,494.5C 105.713,494.81 108.713,494.477 111.5,493.5C 138.005,472.5 164.671,451.666 191.5,431C 194.767,428.871 198.101,427.038 201.5,425.5C 215.375,418.902 229.708,413.902 244.5,410.5C 257.443,408.919 270.443,408.252 283.5,408.5 Z M 236.5,457.5 C 218.936,465.878 203.103,476.878 189,490.5C 188.333,491.5 188.333,492.5 189,493.5C 194.862,499.092 201.695,502.259 209.5,503C 220.696,488.778 231.029,473.944 240.5,458.5C 239.311,457.571 237.978,457.238 236.5,457.5 Z"/></g>
<g><path style="opacity:0.443" fill="#009db3" d="M 283.5,408.5 C 270.443,408.252 257.443,408.919 244.5,410.5C 257.385,407.467 270.385,406.801 283.5,408.5 Z"/></g>
<g><path style="opacity:0.997" fill="#005d6f" d="M 164.5,430.5 C 156.063,436.425 147.729,442.591 139.5,449C 135.772,454.684 130.772,458.684 124.5,461C 110.659,471.849 97.159,483.016 84,494.5C 83.2937,496.971 83.627,499.305 85,501.5C 128.583,528.71 172.416,555.543 216.5,582C 217.667,583.167 218.833,584.333 220,585.5C 249.676,669.176 306.176,726.343 389.5,757C 392.102,757.883 394.269,759.383 396,761.5C 422,804.167 448,846.833 474,889.5C 475.945,893.39 479.112,895.057 483.5,894.5C 485.19,894.856 486.19,895.856 486.5,897.5C 486.047,898.458 485.381,899.292 484.5,900C 481.5,900.667 478.5,900.667 475.5,900C 473.667,898.167 471.833,896.333 470,894.5C 443.897,850.737 417.397,807.237 390.5,764C 304.459,732.626 245.793,673.959 214.5,588C 171.833,562 129.167,536 86.5,510C 79.7771,506.386 76.9438,500.886 78,493.5C 78.7845,491.714 79.9512,490.214 81.5,489C 108.788,468.048 135.788,446.714 162.5,425C 170.548,418.982 178.881,413.482 187.5,408.5C 190.435,407.886 193.268,406.886 196,405.5C 196.5,405.667 197,405.833 197.5,406C 190.2,410.654 182.866,415.321 175.5,420C 171.759,423.516 168.092,427.016 164.5,430.5 Z"/></g>
<g><path style="opacity:1" fill="#bef4ff" d="M 606.5,397.5 C 617.169,412.796 621.002,429.796 618,448.5C 615.166,451.109 613.833,454.442 614,458.5C 613.333,459.833 612.667,461.167 612,462.5C 611.601,462.272 611.435,461.938 611.5,461.5C 613.145,451.915 613.812,442.248 613.5,432.5C 614.65,427.684 614.816,422.684 614,417.5C 611.591,410.769 609.091,404.102 606.5,397.5 Z"/></g>
<g><path style="opacity:1" fill="#008fa9" d="M 213.5,414.5 C 212.71,415.794 211.71,416.961 210.5,418C 206.714,419.393 203.048,421.059 199.5,423C 198.391,424.813 199.058,425.646 201.5,425.5C 198.101,427.038 194.767,428.871 191.5,431C 164.671,451.666 138.005,472.5 111.5,493.5C 106.938,493.721 106.272,492.221 109.5,489C 133.788,470.381 157.788,451.381 181.5,432C 191.526,424.824 202.192,418.99 213.5,414.5 Z"/></g>
<g><path style="opacity:1" fill="#c9f5ff" d="M 472.5,423.5 C 473.807,434.803 475.641,446.137 478,457.5C 480.72,465.271 484.22,472.605 488.5,479.5C 485.925,478.432 483.758,476.765 482,474.5C 478.621,467.591 475.455,461.257 472.5,455.5C 469.845,444.949 469.845,434.282 472.5,423.5 Z"/></g>
<g><path style="opacity:1" fill="#edfbff" d="M 488.5,479.5 C 489.307,484.816 491.974,488.983 496.5,492C 495.906,492.464 495.239,492.631 494.5,492.5C 482.811,482.793 475.478,470.46 472.5,455.5C 475.455,461.257 478.621,467.591 482,474.5C 483.758,476.765 485.925,478.432 488.5,479.5 Z"/></g>
<g><path style="opacity:0.943" fill="#00caee" d="M 438.5,304.5 C 428.172,314.995 418.006,325.661 408,336.5C 407.275,338.157 407.775,339.157 409.5,339.5C 399.73,350.427 390.564,361.76 382,373.5C 333.845,442.436 285.678,511.103 237.5,579.5C 235.314,579.489 234.481,578.489 235,576.5C 285.492,505.517 335.492,434.183 385,362.5C 400.684,342.141 417.851,322.975 436.5,305C 437.094,304.536 437.761,304.369 438.5,304.5 Z"/></g>
<g><path style="opacity:1" fill="#00ddfe" d="M 445.5,296.5 C 443.167,299.167 440.833,301.833 438.5,304.5C 437.761,304.369 437.094,304.536 436.5,305C 417.851,322.975 400.684,342.141 385,362.5C 335.492,434.183 285.492,505.517 235,576.5C 234.481,578.489 235.314,579.489 237.5,579.5C 236.432,580.434 235.099,580.768 233.5,580.5C 233.657,579.127 233.49,577.793 233,576.5C 232.617,577.056 232.117,577.389 231.5,577.5C 282.421,504.065 333.588,430.731 385,357.5C 402.73,335.434 422.23,314.934 443.5,296C 444.437,295.308 445.103,295.475 445.5,296.5 Z"/></g>
<g><path style="opacity:1" fill="#008199" d="M 574.5,489.5 C 573.71,490.794 572.71,491.961 571.5,493C 574.438,493.712 577.104,493.212 579.5,491.5C 577.599,493.796 575.266,495.629 572.5,497C 569.291,497.878 566.291,499.211 563.5,501C 560.773,501.818 558.106,501.652 555.5,500.5C 556.243,499.818 556.909,499.151 557.5,498.5C 563.325,495.755 568.992,492.755 574.5,489.5 Z"/></g>
<g><path style="opacity:1" fill="#b8f3ff" d="M 488.5,479.5 C 492.631,483.13 496.631,486.963 500.5,491C 504.038,493.269 507.705,495.269 511.5,497C 513.167,500 515.5,502.333 518.5,504C 517.906,504.464 517.239,504.631 516.5,504.5C 508.229,502.035 500.896,498.035 494.5,492.5C 495.239,492.631 495.906,492.464 496.5,492C 491.974,488.983 489.307,484.816 488.5,479.5 Z"/></g>
<g><path style="opacity:0.988" fill="#00869f" d="M 599.5,494.5 C 592.857,503.316 584.524,509.983 574.5,514.5C 574.03,513.307 573.03,512.64 571.5,512.5C 568.767,512.968 566.1,513.635 563.5,514.5C 569.529,511.637 575.529,508.47 581.5,505C 586.855,500.971 592.188,496.971 597.5,493C 598.816,492.472 599.483,492.972 599.5,494.5 Z"/></g>
<g><path style="opacity:1" fill="#c8f5ff" d="M 108.5,497.5 C 109.038,499.117 109.371,500.784 109.5,502.5C 110.552,502.351 111.552,502.517 112.5,503C 146.049,524.427 180.049,544.76 214.5,564C 215.872,565.242 216.872,566.742 217.5,568.5C 217.043,569.298 216.376,569.631 215.5,569.5C 215.167,569.5 214.833,569.5 214.5,569.5C 179.537,547.346 144.203,525.679 108.5,504.5C 104.845,503.161 103.179,500.494 103.5,496.5C 105.216,496.629 106.883,496.962 108.5,497.5 Z"/></g>
<g><path style="opacity:1" fill="#a4f0ff" d="M 108.5,497.5 C 144.171,519.335 179.838,541.169 215.5,563C 218.244,564.723 219.578,567.223 219.5,570.5C 217.901,570.768 216.568,570.434 215.5,569.5C 216.376,569.631 217.043,569.298 217.5,568.5C 216.872,566.742 215.872,565.242 214.5,564C 180.049,544.76 146.049,524.427 112.5,503C 111.552,502.517 110.552,502.351 109.5,502.5C 109.371,500.784 109.038,499.117 108.5,497.5 Z"/></g>
<g><path style="opacity:0.984" fill="#00b8d9" d="M 723.5,505.5 C 710.616,524.049 696.283,541.382 680.5,557.5C 680.483,555.972 679.816,555.472 678.5,556C 668.876,566.465 658.543,575.965 647.5,584.5C 665.832,567.335 683.332,549.335 700,530.5C 706.994,521.012 714.494,512.012 722.5,503.5C 723.298,503.957 723.631,504.624 723.5,505.5 Z"/></g>
<g><path style="opacity:0.972" fill="#00a0bd" d="M 680.5,557.5 C 667.847,571.484 654.18,584.484 639.5,596.5C 638.796,594.656 637.463,594.156 635.5,595C 632.794,597.676 629.794,599.842 626.5,601.5C 633.205,595.461 640.205,589.794 647.5,584.5C 658.543,575.965 668.876,566.465 678.5,556C 679.816,555.472 680.483,555.972 680.5,557.5 Z"/></g>
<g><path style="opacity:0.985" fill="#008ba4" d="M 639.5,596.5 C 622.465,609.528 605.132,622.195 587.5,634.5C 586.264,635.246 584.93,635.579 583.5,635.5C 582.032,633.389 582.365,631.556 584.5,630C 598.384,620.233 612.384,610.733 626.5,601.5C 629.794,599.842 632.794,597.676 635.5,595C 637.463,594.156 638.796,594.656 639.5,596.5 Z"/></g>
<g><path style="opacity:1" fill="#e6faff" d="M 270.5,650.5 C 273.031,659.064 277.698,666.23 284.5,672C 285.448,672.483 286.448,672.649 287.5,672.5C 287.608,674.783 288.441,676.783 290,678.5C 293.833,682.333 297.667,686.167 301.5,690C 300.906,690.464 300.239,690.631 299.5,690.5C 269.424,662.027 247.09,628.36 232.5,589.5C 229.851,581.154 231.351,579.487 237,584.5C 245.264,608.029 256.431,630.029 270.5,650.5 Z"/></g>
<g><path style="opacity:0.997" fill="#005e70" d="M 562.5,646.5 C 566.757,645.597 569.257,647.264 570,651.5C 572.715,667.939 574.549,684.439 575.5,701C 575.876,735.533 566.376,767.033 547,795.5C 527.333,820.5 507.667,845.5 488,870.5C 486.556,872.155 484.722,872.822 482.5,872.5C 482.5,871.167 482.5,869.833 482.5,868.5C 502.167,843.996 521.667,819.329 541,794.5C 570.32,750.297 577.487,702.63 562.5,651.5C 561.503,651.53 560.836,651.03 560.5,650C 560.978,648.697 561.645,647.531 562.5,646.5 Z"/></g>
<g><path style="opacity:0.992" fill="#006a7d" d="M 617.5,592.5 C 546.736,642.081 476.069,691.915 405.5,742C 403.091,743.707 400.425,744.54 397.5,744.5C 397.5,743.167 397.5,741.833 397.5,740.5C 462.354,694.911 527.354,649.577 592.5,604.5C 591.499,605.789 591.666,607.122 593,608.5C 600.967,602.773 609.134,597.439 617.5,592.5 Z"/></g>
<g><path style="opacity:0.259" fill="#01e3fe" d="M 562.5,651.5 C 577.487,702.63 570.32,750.297 541,794.5C 521.667,819.329 502.167,843.996 482.5,868.5C 481.532,870.607 481.198,872.941 481.5,875.5C 479.396,875.799 477.396,875.466 475.5,874.5C 474.873,873.583 474.539,872.583 474.5,871.5C 475.923,873.545 477.923,874.545 480.5,874.5C 480.752,871.68 480.252,869.014 479,866.5C 456.937,831.431 435.27,796.097 414,760.5C 412.587,758.586 410.753,757.253 408.5,756.5C 407.571,757.689 407.238,759.022 407.5,760.5C 406.183,757.77 406.183,754.937 407.5,752C 409.187,752.193 410.521,753.193 411.5,755C 413.066,755.765 414.399,755.598 415.5,754.5C 464.362,719.908 513.362,685.575 562.5,651.5 Z M 518.5,737.5 C 503.627,747.198 489.127,757.531 475,768.5C 474.5,769.5 474,770.5 473.5,771.5C 476.541,777.755 480.208,783.588 484.5,789C 485.5,789.667 486.5,789.667 487.5,789C 501.613,774.617 512.613,758.117 520.5,739.5C 520.145,738.478 519.478,737.811 518.5,737.5 Z"/></g>
<g><path style="opacity:0.988" fill="#f78888" d="M 179.5,657.5 C 179.5,657.167 179.5,656.833 179.5,656.5C 181.527,656.338 183.527,656.505 185.5,657C 186.056,657.383 186.389,657.883 186.5,658.5C 185.833,660.167 185.167,661.833 184.5,663.5C 181.28,662.491 180.614,660.491 182.5,657.5C 181.5,657.5 180.5,657.5 179.5,657.5 Z"/></g>
<g><path style="opacity:0.999" fill="#731411" d="M 179.5,656.5 C 179.5,656.833 179.5,657.167 179.5,657.5C 177.87,659.026 177.037,661.026 177,663.5C 146,694.5 115,725.5 84,756.5C 82,759.167 82,761.833 84,764.5C 87.467,766.765 91.3004,768.099 95.5,768.5C 89.1411,774.276 83.4744,773.609 78.5,766.5C 78.307,762.434 78.6403,758.434 79.5,754.5C 110.965,722.535 142.632,690.701 174.5,659C 176.078,657.906 177.745,657.072 179.5,656.5 Z"/></g>
<g><path style="opacity:1" fill="#f90d0d" d="M 179.5,657.5 C 180.5,657.5 181.5,657.5 182.5,657.5C 180.614,660.491 181.28,662.491 184.5,663.5C 186.081,665.142 186.747,667.142 186.5,669.5C 188.781,669.077 190.448,669.744 191.5,671.5C 191.167,672.167 190.833,672.833 190.5,673.5C 188.801,673.34 187.134,673.506 185.5,674C 186.167,674.333 186.833,674.667 187.5,675C 186.167,675.333 184.833,675.667 183.5,676C 184.451,676.718 184.617,677.551 184,678.5C 183.282,677.549 182.449,677.383 181.5,678C 178.221,681.279 174.221,685.279 169.5,690C 169.957,690.414 170.291,690.914 170.5,691.5C 169.271,692.281 167.938,692.781 166.5,693C 166.957,693.414 167.291,693.914 167.5,694.5C 164.687,695.229 162.687,696.396 161.5,698C 162.863,700.129 162.529,700.629 160.5,699.5C 159.692,699.808 159.025,700.308 158.5,701C 159.337,702.011 159.67,703.178 159.5,704.5C 158.153,703.972 156.819,703.805 155.5,704C 143.891,715.609 132.891,726.609 122.5,737C 123.451,737.718 123.617,738.551 123,739.5C 122.282,738.549 121.449,738.383 120.5,739C 121.337,740.011 121.67,741.178 121.5,742.5C 117.522,741.966 114.522,743.466 112.5,747C 112.833,747.333 113.167,747.667 113.5,748C 112.5,748.333 111.5,748.667 110.5,749C 110.833,749.333 111.167,749.667 111.5,750C 110.552,750.483 109.552,750.649 108.5,750.5C 108.5,751.5 108.5,752.5 108.5,753.5C 107.448,753.351 106.448,753.517 105.5,754C 106.451,754.718 106.617,755.551 106,756.5C 104.16,755.167 103.66,755.334 104.5,757C 103.099,758.318 101.265,759.485 99,760.5C 98.5065,762.134 98.3398,763.801 98.5,765.5C 97.8333,766.833 96.8333,767.833 95.5,768.5C 91.3004,768.099 87.467,766.765 84,764.5C 82,761.833 82,759.167 84,756.5C 115,725.5 146,694.5 177,663.5C 177.037,661.026 177.87,659.026 179.5,657.5 Z"/></g>
<g><path style="opacity:0.975" fill="#f6c5c7" d="M 186.5,658.5 C 192.222,661.277 193.888,665.61 191.5,671.5C 190.448,669.744 188.781,669.077 186.5,669.5C 186.747,667.142 186.081,665.142 184.5,663.5C 185.167,661.833 185.833,660.167 186.5,658.5 Z"/></g>
<g><path style="opacity:1" fill="#d2221e" d="M 190.5,673.5 C 180.5,684.167 170.167,694.5 159.5,704.5C 159.67,703.178 159.337,702.011 158.5,701C 159.025,700.308 159.692,699.808 160.5,699.5C 162.529,700.629 162.863,700.129 161.5,698C 162.687,696.396 164.687,695.229 167.5,694.5C 167.291,693.914 166.957,693.414 166.5,693C 167.938,692.781 169.271,692.281 170.5,691.5C 170.291,690.914 169.957,690.414 169.5,690C 174.221,685.279 178.221,681.279 181.5,678C 182.449,677.383 183.282,677.549 184,678.5C 184.617,677.551 184.451,676.718 183.5,676C 184.833,675.667 186.167,675.333 187.5,675C 186.833,674.667 186.167,674.333 185.5,674C 187.134,673.506 188.801,673.34 190.5,673.5 Z"/></g>
<g><path style="opacity:1" fill="#bdf3ff" d="M 589.5,678.5 C 590.395,691.157 590.561,703.824 590,716.5C 588.551,724.33 586.551,731.996 584,739.5C 583.517,738.552 583.351,737.552 583.5,736.5C 584.5,725.838 585.5,715.171 586.5,704.5C 584.827,683.427 582.493,662.427 579.5,641.5C 578.89,635.897 580.723,635.23 585,639.5C 586.747,652.477 588.247,665.477 589.5,678.5 Z"/></g>
<g><path style="opacity:0.977" fill="#0087a0" d="M 562.5,646.5 C 561.645,647.531 560.978,648.697 560.5,650C 560.836,651.03 561.503,651.53 562.5,651.5C 513.362,685.575 464.362,719.908 415.5,754.5C 414.5,754.5 413.5,754.5 412.5,754.5C 412.343,753.127 412.51,751.793 413,750.5C 462.455,715.198 512.289,680.532 562.5,646.5 Z"/></g>
<g><path style="opacity:1" fill="#c9f5ff" d="M 270.5,650.5 C 288.911,674.245 310.244,694.912 334.5,712.5C 334.281,713.675 334.614,714.675 335.5,715.5C 338.626,717.129 341.293,719.295 343.5,722C 355.95,728.059 368.284,734.392 380.5,741C 379.906,741.464 379.239,741.631 378.5,741.5C 368.255,737.378 358.255,732.711 348.5,727.5C 330.749,717.088 314.416,704.755 299.5,690.5C 300.239,690.631 300.906,690.464 301.5,690C 297.667,686.167 293.833,682.333 290,678.5C 288.441,676.783 287.608,674.783 287.5,672.5C 286.448,672.649 285.448,672.483 284.5,672C 277.698,666.23 273.031,659.064 270.5,650.5 Z"/></g>
<g><path style="opacity:1" fill="#d1211c" d="M 159.5,704.5 C 147.167,717.5 134.5,730.167 121.5,742.5C 121.67,741.178 121.337,740.011 120.5,739C 121.449,738.383 122.282,738.549 123,739.5C 123.617,738.551 123.451,737.718 122.5,737C 132.891,726.609 143.891,715.609 155.5,704C 156.819,703.805 158.153,703.972 159.5,704.5 Z"/></g>
<g><path style="opacity:1" fill="#98eeff" d="M 334.5,712.5 C 352.983,723.943 372.316,733.776 392.5,742C 393.38,743.356 393.714,744.856 393.5,746.5C 388.146,745.644 383.146,743.977 378.5,741.5C 379.239,741.631 379.906,741.464 380.5,741C 368.284,734.392 355.95,728.059 343.5,722C 341.293,719.295 338.626,717.129 335.5,715.5C 334.614,714.675 334.281,713.675 334.5,712.5 Z"/></g>
<g><path style="opacity:0.875" fill="#6e3e40" d="M 79.5,754.5 C 78.6403,758.434 78.307,762.434 78.5,766.5C 77.1024,765.223 76.4357,763.557 76.5,761.5C 76.555,758.64 77.555,756.307 79.5,754.5 Z"/></g>
<g><path style="opacity:1" fill="#ce241f" d="M 121.5,742.5 C 114.167,750.5 106.5,758.167 98.5,765.5C 98.3398,763.801 98.5065,762.134 99,760.5C 101.265,759.485 103.099,758.318 104.5,757C 103.66,755.334 104.16,755.167 106,756.5C 106.617,755.551 106.451,754.718 105.5,754C 106.448,753.517 107.448,753.351 108.5,753.5C 108.5,752.5 108.5,751.5 108.5,750.5C 109.552,750.649 110.552,750.483 111.5,750C 111.167,749.667 110.833,749.333 110.5,749C 111.5,748.667 112.5,748.333 113.5,748C 113.167,747.667 112.833,747.333 112.5,747C 114.522,743.466 117.522,741.966 121.5,742.5 Z"/></g>
<g><path style="opacity:1" fill="#68e8ff" d="M 589.5,678.5 C 594.493,708.54 590.993,737.54 579,765.5C 577.989,766.337 576.822,766.67 575.5,766.5C 574.5,769.833 573.5,773.167 572.5,776.5C 571.264,778.611 569.764,780.611 568,782.5C 574.662,767.68 579.829,752.346 583.5,736.5C 583.351,737.552 583.517,738.552 584,739.5C 586.551,731.996 588.551,724.33 590,716.5C 590.561,703.824 590.395,691.157 589.5,678.5 Z"/></g>
<g><path style="opacity:0.999" fill="#731411" d="M 192.5,772.5 C 191.213,774.637 190.379,776.97 190,779.5C 156.667,812.833 123.333,846.167 90,879.5C 88.0385,885.683 90.2052,889.016 96.5,889.5C 97.7804,890.931 99.4471,891.598 101.5,891.5C 97.3019,894.874 92.6352,895.374 87.5,893C 83.3592,888.375 82.5258,883.209 85,877.5C 119.5,843 154,808.5 188.5,774C 189.745,773.209 191.078,772.709 192.5,772.5 Z"/></g>
<g><path style="opacity:1" fill="#fa0f0e" d="M 192.5,772.5 C 194.167,772.5 195.833,772.5 197.5,772.5C 197.481,774.06 197.148,775.56 196.5,777C 198.201,778.86 199.201,781.027 199.5,783.5C 199.5,784.5 199.5,785.5 199.5,786.5C 200.833,786.5 202.167,786.5 203.5,786.5C 203.5,787.5 203.5,788.5 203.5,789.5C 201.801,789.34 200.134,789.506 198.5,790C 199.167,790.333 199.833,790.667 200.5,791C 195.568,792.807 191.068,796.307 187,801.5C 186.51,802.793 186.343,804.127 186.5,805.5C 185.127,805.343 183.793,805.51 182.5,806C 179,809.5 175.5,813 172,816.5C 171.51,817.793 171.343,819.127 171.5,820.5C 170.167,820.5 168.833,820.5 167.5,820.5C 167.5,821.833 167.5,823.167 167.5,824.5C 165.077,825.654 162.744,826.821 160.5,828C 157.288,830.019 155.622,832.853 155.5,836.5C 154.127,836.343 152.793,836.51 151.5,837C 145.667,842.833 139.833,848.667 134,854.5C 133.51,855.793 133.343,857.127 133.5,858.5C 128.624,859.042 125.624,861.709 124.5,866.5C 121.916,866.569 119.916,867.735 118.5,870C 116.412,872.088 113.912,874.588 111,877.5C 110.517,878.448 110.351,879.448 110.5,880.5C 107.561,880.918 105.228,882.418 103.5,885C 104.552,886.716 103.886,887.716 101.5,888C 101.833,888.333 102.167,888.667 102.5,889C 100.527,889.495 98.5273,889.662 96.5,889.5C 90.2052,889.016 88.0385,885.683 90,879.5C 123.333,846.167 156.667,812.833 190,779.5C 190.379,776.97 191.213,774.637 192.5,772.5 Z"/></g>
<g><path style="opacity:1" fill="#fbcece" d="M 197.5,772.5 C 203.229,773.901 205.896,777.567 205.5,783.5C 203.388,784.275 201.388,784.275 199.5,783.5C 199.201,781.027 198.201,778.86 196.5,777C 197.148,775.56 197.481,774.06 197.5,772.5 Z"/></g>
<g><path style="opacity:1" fill="#f86464" d="M 199.5,783.5 C 201.388,784.275 203.388,784.275 205.5,783.5C 205.741,785.898 205.074,787.898 203.5,789.5C 203.5,788.5 203.5,787.5 203.5,786.5C 202.167,786.5 200.833,786.5 199.5,786.5C 199.5,785.5 199.5,784.5 199.5,783.5 Z"/></g>
<g><path style="opacity:1" fill="#f16061" d="M 306.5,786.5 C 308.265,785.539 310.265,785.205 312.5,785.5C 313.865,787.751 313.531,789.751 311.5,791.5C 310.904,790.065 310.904,788.398 311.5,786.5C 309.833,786.5 308.167,786.5 306.5,786.5 Z"/></g>
<g><path style="opacity:0.999" fill="#731210" d="M 306.5,786.5 C 306.662,788.527 306.495,790.527 306,792.5C 275,823.5 244,854.5 213,885.5C 210.665,889.155 211.165,892.321 214.5,895C 217.802,896.026 221.135,896.86 224.5,897.5C 216.916,903.682 210.749,902.349 206,893.5C 205.21,890.366 205.543,887.366 207,884.5C 239.73,851.269 272.896,818.603 306.5,786.5 Z"/></g>
<g><path style="opacity:1" fill="#f90e0d" d="M 306.5,786.5 C 308.167,786.5 309.833,786.5 311.5,786.5C 310.904,788.398 310.904,790.065 311.5,791.5C 312.833,792.167 313.833,793.167 314.5,794.5C 314.739,796.467 314.406,798.301 313.5,800C 315.134,800.494 316.801,800.66 318.5,800.5C 318.5,801.5 318.5,802.5 318.5,803.5C 316.801,803.34 315.134,803.506 313.5,804C 314.167,804.333 314.833,804.667 315.5,805C 313.026,805.113 311.026,806.113 309.5,808C 309.833,808.333 310.167,808.667 310.5,809C 309.552,809.483 308.552,809.649 307.5,809.5C 307.5,810.5 307.5,811.5 307.5,812.5C 306.5,812.5 305.5,812.5 304.5,812.5C 304.5,813.5 304.5,814.5 304.5,815.5C 303.448,815.351 302.448,815.517 301.5,816C 297.199,820.489 293.199,824.323 289.5,827.5C 289.5,828.5 289.5,829.5 289.5,830.5C 288.448,830.351 287.448,830.517 286.5,831C 279.529,838.15 272.862,844.65 266.5,850.5C 266.5,851.5 266.5,852.5 266.5,853.5C 265.448,853.351 264.448,853.517 263.5,854C 259.199,858.489 255.199,862.323 251.5,865.5C 251.5,866.5 251.5,867.5 251.5,868.5C 247.188,870.289 243.521,873.123 240.5,877C 241.451,877.718 241.617,878.551 241,879.5C 238.399,878.274 237.565,878.94 238.5,881.5C 234.827,882.664 231.827,884.831 229.5,888C 230.337,889.011 230.67,890.178 230.5,891.5C 228.833,893.833 226.833,895.833 224.5,897.5C 221.135,896.86 217.802,896.026 214.5,895C 211.165,892.321 210.665,889.155 213,885.5C 244,854.5 275,823.5 306,792.5C 306.495,790.527 306.662,788.527 306.5,786.5 Z"/></g>
<g><path style="opacity:1" fill="#f6cacb" d="M 312.5,785.5 C 320.232,787.969 322.899,792.969 320.5,800.5C 320.785,798.712 320.452,797.045 319.5,795.5C 317.453,796.904 315.787,796.571 314.5,794.5C 313.833,793.167 312.833,792.167 311.5,791.5C 313.531,789.751 313.865,787.751 312.5,785.5 Z"/></g>
<g><path style="opacity:1" fill="#fd5b56" d="M 314.5,794.5 C 315.787,796.571 317.453,796.904 319.5,795.5C 320.452,797.045 320.785,798.712 320.5,800.5C 320.068,801.71 319.401,802.71 318.5,803.5C 318.5,802.5 318.5,801.5 318.5,800.5C 316.801,800.66 315.134,800.494 313.5,800C 314.406,798.301 314.739,796.467 314.5,794.5 Z"/></g>
<g><path style="opacity:1" fill="#e1faff" d="M 474.5,871.5 C 452.429,834.362 430.096,797.362 407.5,760.5C 407.238,759.022 407.571,757.689 408.5,756.5C 410.753,757.253 412.587,758.586 414,760.5C 435.27,796.097 456.937,831.431 479,866.5C 480.252,869.014 480.752,871.68 480.5,874.5C 477.923,874.545 475.923,873.545 474.5,871.5 Z"/></g>
<g><path style="opacity:1" fill="#ce2720" d="M 203.5,789.5 C 169.833,823.833 135.833,857.833 101.5,891.5C 99.4471,891.598 97.7804,890.931 96.5,889.5C 98.5273,889.662 100.527,889.495 102.5,889C 102.167,888.667 101.833,888.333 101.5,888C 103.886,887.716 104.552,886.716 103.5,885C 105.228,882.418 107.561,880.918 110.5,880.5C 110.351,879.448 110.517,878.448 111,877.5C 113.912,874.588 116.412,872.088 118.5,870C 119.916,867.735 121.916,866.569 124.5,866.5C 125.624,861.709 128.624,859.042 133.5,858.5C 133.343,857.127 133.51,855.793 134,854.5C 139.833,848.667 145.667,842.833 151.5,837C 152.793,836.51 154.127,836.343 155.5,836.5C 155.622,832.853 157.288,830.019 160.5,828C 162.744,826.821 165.077,825.654 167.5,824.5C 167.5,823.167 167.5,821.833 167.5,820.5C 168.833,820.5 170.167,820.5 171.5,820.5C 171.343,819.127 171.51,817.793 172,816.5C 175.5,813 179,809.5 182.5,806C 183.793,805.51 185.127,805.343 186.5,805.5C 186.343,804.127 186.51,802.793 187,801.5C 191.068,796.307 195.568,792.807 200.5,791C 199.833,790.667 199.167,790.333 198.5,790C 200.134,789.506 201.801,789.34 203.5,789.5 Z"/></g>
<g><path style="opacity:0.999" fill="#ce2922" d="M 318.5,803.5 C 289.5,833.167 260.167,862.5 230.5,891.5C 230.67,890.178 230.337,889.011 229.5,888C 231.827,884.831 234.827,882.664 238.5,881.5C 237.565,878.94 238.399,878.274 241,879.5C 241.617,878.551 241.451,877.718 240.5,877C 243.521,873.123 247.188,870.289 251.5,868.5C 251.5,867.5 251.5,866.5 251.5,865.5C 255.199,862.323 259.199,858.489 263.5,854C 264.448,853.517 265.448,853.351 266.5,853.5C 266.5,852.5 266.5,851.5 266.5,850.5C 272.862,844.65 279.529,838.15 286.5,831C 287.448,830.517 288.448,830.351 289.5,830.5C 289.5,829.5 289.5,828.5 289.5,827.5C 293.199,824.323 297.199,820.489 301.5,816C 302.448,815.517 303.448,815.351 304.5,815.5C 304.5,814.5 304.5,813.5 304.5,812.5C 305.5,812.5 306.5,812.5 307.5,812.5C 307.5,811.5 307.5,810.5 307.5,809.5C 308.552,809.649 309.552,809.483 310.5,809C 310.167,808.667 309.833,808.333 309.5,808C 311.026,806.113 313.026,805.113 315.5,805C 314.833,804.667 314.167,804.333 313.5,804C 315.134,803.506 316.801,803.34 318.5,803.5 Z"/></g>
<g><path style="opacity:0.98" fill="#00c1e4" d="M 563.5,800.5 C 538.53,832.314 513.697,864.314 489,896.5C 488.329,897.252 487.496,897.586 486.5,897.5C 486.19,895.856 485.19,894.856 483.5,894.5C 486.873,891.474 490.039,888.141 493,884.5C 515.134,855.208 537.967,826.541 561.5,798.5C 562.713,798.747 563.38,799.414 563.5,800.5 Z"/></g>
</svg>
