<svg width="62" height="100" viewBox="0 0 62 100" fill="none" xmlns="http://www.w3.org/2000/svg">
<path d="M40.9138 1.80065C45.8216 -0.0143294 54.183 5.6121 55.8189 6.88258C57.4548 8.15307 42.5497 44.4526 43.4586 48.4456C44.5492 52.4385 57.8183 52.257 61.4537 56.613C65.0891 60.7874 39.6414 97.6314 36.5513 98.9019C33.4612 100.172 25.8269 99.9909 25.8269 99.9909L36.5513 68.9548L23.6457 28.1178L40.9138 1.80065Z" fill="url(#paint0_linear_438_27385)"/>
<path d="M3.6515 5.97469C-0.710961 7.24518 -0.710961 51.3491 1.2885 56.2496C3.1062 61.15 16.1936 58.4275 20.5561 61.15C25.1003 64.054 25.2821 97.4495 26.1909 99.809C27.0998 102.168 54.7287 65.5059 57.2735 59.5165C59.8182 53.5271 39.8236 52.2566 37.0971 50.2601C34.5523 48.2637 46.0038 5.79319 42.7319 2.52624C39.6418 -0.740722 9.28636 4.34121 3.6515 5.97469Z" fill="url(#paint1_linear_438_27385)"/>
<path opacity="0.5" d="M37.2788 50.2604C31.644 48.627 12.3764 57.5203 12.9217 58.2463C13.4671 58.9723 20.7378 58.0648 22.9191 62.0578C25.1003 66.0507 25.6456 92.0049 28.1904 94.0014C30.7351 95.9978 53.6381 64.9617 54.7287 61.1503C55.4558 57.3388 37.2788 50.2604 37.2788 50.2604Z" fill="#C05CC7"/>
<path d="M3.83321 6.70162C0.924902 7.79061 4.92383 25.2144 5.83268 29.2073C6.74152 33.2003 30.5533 35.3783 36.0064 31.5668C41.2777 27.5739 44.0043 7.42761 42.9136 4.34215C41.823 1.43819 15.1029 2.34568 3.83321 6.70162Z" fill="#AC9AFF"/>
<path d="M43.6399 58.7905C43.2764 60.787 36.5509 76.7588 32.9156 83.1112C32.0067 84.7447 31.2796 85.8337 30.9161 85.6522C29.4619 84.9262 30.9161 58.0645 28.9166 56.9756C26.9172 55.8866 10.7397 55.7051 9.64907 53.7086C8.74022 51.5306 7.83138 17.772 10.3761 15.9571C14.3751 13.2346 33.0973 10.5121 33.4609 14.3236C33.4609 14.6866 33.4609 15.0496 33.4609 15.5941C32.9156 22.854 27.4625 50.9861 28.9166 52.2566C30.3708 53.7086 44.0035 56.4311 43.6399 58.7905Z" fill="#479DFF"/>
<path d="M43.64 58.7907C43.2765 60.7872 36.551 76.759 32.9156 83.1114C31.825 82.0224 33.8245 58.9722 32.0068 57.5202C30.3709 56.2498 14.3752 54.4348 12.921 52.0753C11.4668 49.7158 11.1033 19.5872 13.2845 17.5907C15.4658 15.5943 32.9156 13.4163 33.2792 15.5943C32.7339 22.8542 27.2808 50.9863 28.7349 52.2568C30.3709 53.7088 44.0036 56.4313 43.64 58.7907Z" fill="#47FFFF"/>
<path d="M28.916 18.4966C28.7343 17.2261 23.0994 19.5856 19.464 20.1301C15.8286 20.6746 20.5546 25.575 20.9182 27.2085C21.2817 28.6605 24.19 24.849 24.5536 26.4825C24.9171 27.9345 23.6447 34.4684 22.7359 34.1054C21.827 33.5609 18.0099 35.5574 17.6463 39.1874C17.2828 42.8173 15.1015 51.1662 18.5552 49.8957C22.0088 48.6252 23.6447 47.3548 24.19 50.0772C24.7353 52.6182 21.827 52.9812 24.7353 53.3442C27.4619 53.7072 34.9144 57.7001 36.005 59.8781C37.0956 62.0561 36.3686 62.0561 35.4597 63.3266C34.3691 64.597 31.0973 73.8534 34.3691 72.0385C37.641 70.2235 36.1868 72.5829 35.4597 74.9424C34.7326 77.3019 32.5514 77.4834 33.2785 78.7539C33.8238 79.8429 34.0056 81.8393 34.0056 81.8393C34.0056 81.8393 36.005 72.4014 37.0956 71.131C38.1863 69.8605 34.9144 70.9495 35.8233 67.864C36.9139 64.7785 38.5498 61.6931 38.9133 60.4226C39.0951 59.1521 37.0956 57.7001 34.3691 56.4296C31.6426 55.1592 25.2806 55.7037 25.8259 51.3477C26.3713 46.9918 28.0072 43.7248 24.5536 45.7213C21.0999 47.5363 18.7369 49.7142 18.5552 46.9918C18.1916 44.2693 19.8276 36.6464 20.9182 35.5574C22.0088 34.4684 24.7353 37.7354 25.4624 38.4614C26.1895 39.0059 27.2801 37.1909 28.3707 31.9275C29.2796 26.664 30.0066 23.7601 28.0072 23.9416C26.0077 24.1231 21.2817 26.4825 22.9176 23.3971C24.5536 20.3116 28.0072 20.8561 29.8249 21.9451C31.0973 22.3081 28.916 18.4966 28.916 18.4966Z" fill="white"/>
<path d="M2.92432 6.88314C2.92432 6.88314 25.4637 1.61971 38.0058 2.1642C50.5479 2.70869 56.001 6.88314 56.001 6.88314C56.001 6.88314 49.4573 1.43821 42.0047 0.167726C34.5522 -1.10276 4.74201 5.24966 4.37847 5.61266C3.65139 5.97565 2.92432 6.88314 2.92432 6.88314Z" fill="#7C5CF4"/>
<path opacity="0.5" d="M47.0946 3.43443C43.8227 2.88993 38.915 35.741 38.5514 42.2749C38.1879 48.8089 44.1863 34.1075 48.5487 26.1216C52.9112 17.9542 55.0924 9.06085 54.7289 7.60887C54.3654 5.97539 47.0946 3.43443 47.0946 3.43443Z" fill="#9A2E69"/>
<path opacity="0.5" d="M9.83217 17.4105C9.28686 20.859 10.5592 18.681 17.2847 16.1401C24.0102 13.5991 33.644 14.8696 33.4622 15.7771C33.4622 16.6845 33.4622 12.8731 32.5533 12.5101C31.6445 12.3286 10.3775 13.4176 9.83217 17.4105Z" fill="#9ABAFF"/>
<path opacity="0.5" d="M27.8272 99.991C28.009 98.902 46.3677 76.0333 49.6395 73.4923C52.9114 70.9514 53.0932 70.4069 54.5473 71.3144C55.8197 72.2219 42.187 94.0016 39.2787 96.5426C36.3704 98.902 27.8272 99.991 27.8272 99.991Z" fill="#9A2E69"/>
<path d="M37.2793 50.2609C36.9157 48.9904 46.3677 50.8054 54.1838 52.9834C61.9999 55.1614 61.9999 57.1578 61.9999 57.1578C61.9999 57.1578 58.9098 57.8838 56.7286 57.1578C54.1838 56.2503 53.6385 54.9799 37.2793 50.2609Z" fill="#7C5CF4"/>
<path d="M55.6377 56.6142C54.5471 56.9772 57.0918 59.1551 57.4554 59.1551C57.8189 59.1551 59.0913 57.7032 59.0913 57.3402C59.0913 56.9772 56.5465 56.4327 55.6377 56.6142Z" fill="#B5CCFF"/>
<path d="M41.46 0.8952C38.9153 1.2582 43.4595 4.52515 44.3683 5.06965C45.459 5.61414 46.3678 3.61767 46.186 2.52868C45.8225 1.25819 43.096 0.532204 41.46 0.8952Z" fill="#B5CCFF"/>
<path d="M9.8316 53.709C9.8316 53.709 10.3769 54.798 13.2852 55.3425C20.7378 56.6129 27.4632 57.8834 28.5539 58.0649C29.6445 58.2464 31.0986 57.5204 31.0986 57.5204C31.0986 57.5204 28.7356 56.25 24.3732 56.25C19.8289 56.0685 11.4675 54.798 9.8316 53.709Z" fill="#9ACCFF"/>
<path d="M8.7406 37.5546C8.7406 37.5546 7.46821 18.4974 9.10414 15.9564C10.7401 13.2339 26.554 12.6895 26.554 12.6895C26.554 12.6895 12.5578 13.9599 10.3765 15.9564C8.19529 17.9529 8.7406 37.5546 8.7406 37.5546Z" fill="#9A90FF"/>
<defs>
<linearGradient id="paint0_linear_438_27385" x1="42.9645" y1="99.9074" x2="42.9645" y2="1.40081" gradientUnits="userSpaceOnUse">
<stop stop-color="#3D069A"/>
<stop offset="1" stop-color="#6509BA"/>
</linearGradient>
<linearGradient id="paint1_linear_438_27385" x1="28.7673" y1="100.011" x2="28.7673" y2="1.4407" gradientUnits="userSpaceOnUse">
<stop stop-color="#512EFF"/>
<stop offset="1" stop-color="#7C1ACC"/>
</linearGradient>
</defs>
</svg>
