<svg width="805" height="805" viewBox="0 0 805 805" fill="none" xmlns="http://www.w3.org/2000/svg">
<path d="M402.393 804.786C624.629 804.786 804.786 624.629 804.786 402.393C804.786 180.157 624.629 0 402.393 0C180.158 0 0 180.157 0 402.393C0 624.629 180.158 804.786 402.393 804.786Z" fill="url(#paint0_linear_41_38)"/>
<path d="M402.06 778.12C608.095 778.12 775.12 611.095 775.12 405.06C775.12 199.025 608.095 32 402.06 32C196.025 32 29 199.025 29 405.06C29 611.095 196.025 778.12 402.06 778.12Z" fill="#242424"/>
<g filter="url(#filter0_i_41_38)">
<path d="M402.068 778.137C609.765 778.137 778.137 609.765 778.137 402.068C778.137 194.371 609.765 26 402.068 26C194.372 26 26 194.371 26 402.068C26 609.765 194.372 778.137 402.068 778.137Z" fill="url(#paint1_radial_41_38)"/>
</g>
<path d="M402.128 447.256C427.052 447.256 447.256 427.052 447.256 402.128C447.256 377.205 427.052 357 402.128 357C377.205 357 357 377.205 357 402.128C357 427.052 377.205 447.256 402.128 447.256Z" fill="url(#paint2_radial_41_38)"/>
<g filter="url(#filter1_i_41_38)">
<path d="M401.921 392.441L479.416 770.565C479.416 770.565 445.836 777.498 407.864 778.09C365.005 778.747 336.114 772.766 336.114 772.766L401.954 392.474L401.921 392.441Z" fill="#D41000"/>
<path d="M407.602 394.185L246.964 745.429C246.964 745.429 215.695 731.398 184.624 709.644C149.558 685.098 129.714 663.344 129.714 663.344L407.569 394.185H407.602Z" fill="#D41000"/>
<path d="M411.199 398.948L73.8108 589.144C73.8108 589.144 56.806 559.504 44.523 523.719C30.655 483.334 27.4521 454.154 27.4521 454.154L411.232 398.948H411.199Z" fill="#D41000"/>
<path d="M411.299 404.897L26 361.39C26 361.39 29.7642 327.446 40.9246 291.332C53.5378 250.552 68.1983 225.053 68.1983 225.053L411.266 404.864L411.299 404.897Z" fill="#D41000"/>
<path d="M407.864 409.728L121.854 149.179C121.854 149.179 144.934 123.909 175.311 101.236C209.618 75.6374 236.528 63.5776 236.528 63.5776L407.864 409.761V409.728Z" fill="#D41000"/>
<path d="M402.219 411.666L324.724 33.5426C324.724 33.5426 358.304 26.6091 396.276 26.0505C439.135 25.3932 468.026 31.3738 468.026 31.3738L402.186 411.666H402.219Z" fill="#D41000"/>
<path d="M396.505 409.926L557.143 58.6821C557.143 58.6821 588.412 72.7135 619.483 94.467C654.549 119.014 674.393 140.767 674.393 140.767L396.538 409.926H396.505Z" fill="#D41000"/>
<path d="M392.94 405.16L730.329 214.964C730.329 214.964 747.333 244.604 759.616 280.389C773.484 320.774 776.687 349.954 776.687 349.954L392.907 405.16H392.94Z" fill="#D41000"/>
<path d="M392.841 399.242L778.14 442.749C778.14 442.749 774.376 476.694 763.215 512.808C750.602 553.587 735.941 579.087 735.941 579.087L392.874 399.275L392.841 399.242Z" fill="#D41000"/>
<path d="M396.275 394.383L682.285 654.966C682.285 654.966 659.205 680.235 628.828 702.909C594.521 728.507 567.61 740.567 567.61 740.567L396.275 394.383Z" fill="#D41000"/>
</g>
<g filter="url(#filter2_d_41_38)">
<path d="M475.963 191.438C472.656 190.49 470.244 189.07 468.727 187.179C467.209 185.287 466.864 182.9 467.691 180.016C468.518 177.132 470.076 175.29 472.365 174.49C474.66 173.671 477.461 173.735 480.767 174.684C484.113 175.643 486.544 177.068 488.061 178.96C489.579 180.851 489.921 183.248 489.089 186.151C488.256 189.054 486.695 190.906 484.406 191.706C482.123 192.487 479.308 192.398 475.963 191.438ZM479.163 180.278C477.433 179.782 476.064 179.587 475.055 179.693C474.028 179.794 473.351 180.411 473.026 181.546C472.701 182.68 472.947 183.562 473.765 184.192C474.564 184.816 475.829 185.376 477.559 185.873C479.328 186.38 480.723 186.593 481.745 186.511C482.753 186.405 483.423 185.775 483.754 184.622C484.084 183.468 483.848 182.589 483.043 181.984C482.225 181.354 480.932 180.785 479.163 180.278ZM493.398 172.431C493.111 173.431 492.61 174.161 491.895 174.622C491.167 175.058 490.38 175.155 489.534 174.912C488.688 174.669 488.072 174.17 487.685 173.414C487.304 172.639 487.257 171.752 487.543 170.752C487.825 169.772 488.329 169.063 489.058 168.627C489.792 168.172 490.582 168.066 491.428 168.308C492.254 168.545 492.858 169.051 493.239 169.826C493.626 170.582 493.679 171.45 493.398 172.431ZM478.78 163.003L473.474 161.481L476.021 152.599L497.101 158.644L495.406 164.556L479.632 160.033L478.78 163.003ZM483.709 128.616L488.208 129.906L486.653 135.327L502.485 139.867L500.865 145.519L485.033 140.98L483.495 146.343L478.996 145.053L483.709 128.616ZM507.636 122.665C507.091 124.568 506.147 126.191 504.805 127.533C503.444 128.87 501.84 129.783 499.993 130.273C498.133 130.738 496.203 130.684 494.204 130.111C492.204 129.538 490.549 128.564 489.237 127.189C487.911 125.789 487.035 124.165 486.608 122.315C486.181 120.466 486.241 118.59 486.787 116.687C487.338 114.764 488.282 113.141 489.618 111.818C490.96 110.476 492.561 109.573 494.421 109.107C496.263 108.637 498.183 108.688 500.182 109.261C502.182 109.835 503.847 110.811 505.178 112.192C506.49 113.567 507.369 115.181 507.815 117.036C508.242 118.886 508.182 120.762 507.636 122.665ZM502.388 121.16C502.801 119.718 502.656 118.449 501.951 117.352C501.251 116.236 500.113 115.452 498.537 115C496.922 114.537 495.532 114.596 494.366 115.177C493.187 115.734 492.391 116.733 491.977 118.175C491.558 119.636 491.701 120.915 492.406 122.012C493.092 123.103 494.243 123.88 495.857 124.343C497.453 124.801 498.841 124.751 500.02 124.195C501.18 123.633 501.969 122.621 502.388 121.16ZM516.548 90.8247L514.927 96.477L501.407 100.746L512.769 104.004L511.148 109.656L490.818 103.826L492.438 98.1739L506.103 93.9466L494.597 90.6472L496.217 84.995L516.548 90.8247Z" fill="url(#paint3_radial_41_38)"/>
</g>
<g filter="url(#filter3_d_41_38)">
<path d="M331.525 635.738C332.289 638.081 332.977 640.023 333.586 641.564C334.196 643.106 334.902 644.469 335.705 645.656C336.526 646.848 337.435 647.626 338.431 647.989C339.032 648.208 339.554 648.238 339.994 648.079C340.428 647.939 340.741 647.606 340.933 647.08C341.131 646.535 341.05 646.026 340.69 645.554C340.348 645.09 339.732 644.706 338.842 644.403L340.792 639.047C342.444 639.712 343.692 640.581 344.536 641.655C345.398 642.735 345.885 643.912 345.995 645.187C346.125 646.469 345.947 647.777 345.461 649.111C344.62 651.423 343.421 652.934 341.864 653.644C340.307 654.354 338.617 654.378 336.794 653.714C334.839 653.003 333.246 651.678 332.015 649.74C330.777 647.821 329.837 645.638 329.195 643.191L326.63 650.238L322.148 648.607L327.38 634.229L331.525 635.738ZM333.483 678.424L329.085 676.824L331.014 671.524L315.538 665.891L317.549 660.365L333.025 665.998L334.934 660.755L339.332 662.355L333.483 678.424ZM309.199 682.691C309.876 680.831 310.931 679.278 312.363 678.033C313.814 676.794 315.478 675.995 317.354 675.635C319.243 675.301 321.164 675.489 323.118 676.201C325.073 676.912 326.657 677.999 327.869 679.462C329.094 680.951 329.855 682.633 330.152 684.507C330.448 686.382 330.258 688.249 329.581 690.11C328.897 691.989 327.842 693.542 326.417 694.769C324.985 696.014 323.324 696.804 321.436 697.138C319.567 697.479 317.655 697.294 315.7 696.583C313.745 695.871 312.152 694.781 310.921 693.311C309.708 691.848 308.944 690.176 308.628 688.294C308.332 686.42 308.522 684.552 309.199 682.691ZM314.33 684.559C313.817 685.968 313.874 687.245 314.5 688.388C315.12 689.55 316.201 690.412 317.742 690.973C319.321 691.547 320.711 691.585 321.915 691.087C323.13 690.614 323.994 689.672 324.507 688.263C325.027 686.835 324.973 685.549 324.346 684.405C323.738 683.269 322.645 682.413 321.066 681.839C319.506 681.271 318.119 681.224 316.904 681.697C315.708 682.176 314.85 683.131 314.33 684.559ZM298.088 713.833L300.099 708.307L313.884 704.992L302.777 700.949L304.788 695.424L324.663 702.658L322.652 708.183L308.726 711.447L319.974 715.541L317.963 721.066L298.088 713.833Z" fill="url(#paint4_radial_41_38)"/>
</g>
<g filter="url(#filter4_d_41_38)">
<path d="M573.438 281.225C571.515 278.373 570.58 275.735 570.633 273.311C570.687 270.887 571.957 268.836 574.444 267.158C576.931 265.48 579.309 265.071 581.576 265.93C583.861 266.777 585.965 268.627 587.889 271.479C589.835 274.364 590.781 277.018 590.727 279.443C590.674 281.867 589.395 283.924 586.892 285.612C584.388 287.301 582.002 287.716 579.734 286.858C577.483 285.988 575.384 284.11 573.438 281.225ZM583.064 274.733C582.057 273.241 581.133 272.211 580.293 271.644C579.441 271.061 578.526 271.099 577.548 271.759C576.569 272.419 576.191 273.253 576.413 274.261C576.623 275.253 577.232 276.495 578.239 277.988C579.267 279.513 580.2 280.573 581.035 281.168C581.876 281.734 582.793 281.682 583.788 281.011C584.783 280.34 585.167 279.514 584.94 278.534C584.718 277.525 584.092 276.258 583.064 274.733ZM599.012 277.871C598.15 278.453 597.297 278.691 596.453 278.584C595.615 278.45 594.949 278.018 594.457 277.289C593.965 276.559 593.814 275.781 594.004 274.953C594.21 274.114 594.744 273.404 595.606 272.823C596.452 272.252 597.294 272.034 598.132 272.168C598.987 272.291 599.661 272.717 600.153 273.447C600.634 274.16 600.771 274.936 600.565 275.775C600.375 276.602 599.857 277.301 599.012 277.871ZM600.79 270.701C601.548 268.356 602.134 266.381 602.547 264.776C602.96 263.171 603.19 261.652 603.238 260.221C603.274 258.773 602.996 257.609 602.403 256.731C602.045 256.2 601.642 255.869 601.191 255.739C600.758 255.597 600.309 255.682 599.845 255.996C599.364 256.32 599.131 256.779 599.145 257.372C599.148 257.949 599.421 258.622 599.963 259.39L595.238 262.577C594.292 261.068 593.793 259.631 593.742 258.267C593.679 256.886 593.977 255.647 594.637 254.551C595.285 253.438 596.198 252.485 597.375 251.691C599.415 250.315 601.273 249.797 602.95 250.138C604.627 250.478 606.008 251.452 607.093 253.061C608.256 254.785 608.766 256.793 608.623 259.085C608.497 261.366 607.974 263.684 607.055 266.041L613.273 261.847L615.94 265.802L603.256 274.357L600.79 270.701ZM624.296 235.016L626.913 238.896L622.237 242.05L631.447 255.704L626.572 258.992L617.362 245.338L612.736 248.458L610.119 244.578L624.296 235.016ZM646.45 245.838C644.809 246.945 643.043 247.581 641.152 247.747C639.25 247.896 637.434 247.564 635.705 246.753C633.981 245.913 632.537 244.632 631.374 242.907C630.211 241.183 629.569 239.372 629.448 237.476C629.332 235.552 629.705 233.744 630.566 232.053C631.428 230.362 632.68 228.963 634.321 227.856C635.979 226.737 637.745 226.101 639.62 225.947C641.51 225.781 643.318 226.118 645.042 226.957C646.755 227.78 648.193 229.054 649.356 230.778C650.519 232.503 651.167 234.321 651.299 236.234C651.42 238.131 651.056 239.933 650.205 241.64C649.343 243.331 648.092 244.73 646.45 245.838ZM643.397 241.311C644.641 240.472 645.345 239.406 645.51 238.113C645.691 236.808 645.324 235.476 644.406 234.117C643.467 232.724 642.364 231.876 641.098 231.572C639.837 231.24 638.584 231.494 637.341 232.333C636.081 233.183 635.368 234.254 635.203 235.548C635.027 236.824 635.409 238.159 636.348 239.552C637.276 240.928 638.371 241.782 639.632 242.114C640.882 242.429 642.137 242.161 643.397 241.311ZM673.743 227.175L668.869 230.463L655.768 225.042L662.377 234.841L657.503 238.129L645.676 220.595L650.55 217.307L663.735 222.852L657.042 212.929L661.917 209.641L673.743 227.175Z" fill="url(#paint5_radial_41_38)"/>
</g>
<g filter="url(#filter5_d_41_38)">
<path d="M222.82 552.755C224.083 554.63 224.534 556.441 224.171 558.188C223.82 559.951 222.69 561.526 220.781 562.913C219.535 563.818 218.317 564.37 217.126 564.568C215.93 564.794 214.835 564.699 213.842 564.284C212.859 563.885 212.033 563.224 211.363 562.302C210.564 561.202 210.19 560.126 210.242 559.075C210.306 558.039 210.595 557.162 211.11 556.441L211.04 556.344C208.553 557.039 206.563 556.358 205.07 554.303C204.329 553.284 203.912 552.216 203.817 551.098C203.722 549.981 203.96 548.88 204.533 547.797C205.105 546.713 206.006 545.725 207.236 544.831C209.259 543.362 211.213 542.683 213.1 542.796C214.982 542.937 216.682 544.001 218.2 545.988L213.564 549.356C213.126 548.685 212.624 548.283 212.058 548.151C211.492 548.018 210.902 548.175 210.287 548.622C209.818 548.963 209.559 549.373 209.512 549.852C209.449 550.343 209.593 550.832 209.946 551.317C210.393 551.932 210.924 552.238 211.54 552.235C212.14 552.245 212.885 551.926 213.775 551.279L214.624 550.662L217.428 554.521L216.603 555.121C215.976 555.551 215.529 556.024 215.261 556.54C214.989 557.084 215.094 557.688 215.576 558.351C215.94 558.853 216.332 559.137 216.751 559.203C217.182 559.286 217.608 559.174 218.028 558.869C218.497 558.528 218.722 558.105 218.702 557.601C218.677 557.124 218.504 556.632 218.184 556.123L222.82 552.755ZM193.664 581.057L190.914 577.271L195.476 573.956L185.796 560.631L190.553 557.175L200.233 570.5L204.748 567.22L207.499 571.006L193.664 581.057ZM171.146 571.015C172.748 569.851 174.49 569.154 176.374 568.922C178.27 568.707 180.096 568.975 181.853 569.726C183.605 570.504 185.093 571.735 186.315 573.418C187.538 575.101 188.243 576.888 188.43 578.779C188.613 580.698 188.303 582.517 187.501 584.237C186.699 585.957 185.497 587.399 183.895 588.563C182.277 589.738 180.534 590.436 178.667 590.656C176.783 590.887 174.965 590.614 173.212 589.835C171.472 589.072 169.99 587.85 168.768 586.167C167.545 584.484 166.834 582.689 166.635 580.782C166.448 578.891 166.749 577.077 167.54 575.341C168.342 573.621 169.544 572.179 171.146 571.015ZM174.355 575.433C173.142 576.314 172.475 577.404 172.355 578.703C172.219 580.013 172.633 581.331 173.597 582.658C174.585 584.017 175.717 584.826 176.993 585.086C178.265 585.373 179.507 585.076 180.721 584.194C181.951 583.301 182.625 582.205 182.745 580.907C182.876 579.624 182.448 578.304 181.461 576.945C180.485 575.602 179.362 574.786 178.09 574.499C176.83 574.228 175.585 574.539 174.355 575.433ZM144.521 590.619L149.278 587.163L162.56 592.123L155.612 582.561L160.369 579.105L172.801 596.215L168.044 599.671L154.673 594.59L161.709 604.274L156.952 607.73L144.521 590.619Z" fill="url(#paint6_radial_41_38)"/>
</g>
<g filter="url(#filter6_d_41_38)">
<path d="M610.27 404.385C610.27 400.945 610.97 398.235 612.37 396.255C613.77 394.275 615.97 393.285 618.97 393.285C621.97 393.285 624.17 394.275 625.57 396.255C626.99 398.235 627.7 400.945 627.7 404.385C627.7 407.865 627 410.595 625.6 412.575C624.2 414.555 621.99 415.545 618.97 415.545C615.95 415.545 613.74 414.555 612.34 412.575C610.96 410.595 610.27 407.865 610.27 404.385ZM621.88 404.385C621.88 402.585 621.69 401.215 621.31 400.275C620.93 399.315 620.15 398.835 618.97 398.835C617.79 398.835 617.01 399.315 616.63 400.275C616.25 401.215 616.06 402.585 616.06 404.385C616.06 406.225 616.24 407.625 616.6 408.585C616.98 409.525 617.77 409.995 618.97 409.995C620.17 409.995 620.95 409.525 621.31 408.585C621.69 407.625 621.88 406.225 621.88 404.385ZM633.347 415.905C632.307 415.905 631.467 415.625 630.827 415.065C630.207 414.485 629.897 413.755 629.897 412.875C629.897 411.995 630.207 411.265 630.827 410.685C631.467 410.105 632.307 409.815 633.347 409.815C634.367 409.815 635.187 410.105 635.807 410.685C636.447 411.265 636.767 411.995 636.767 412.875C636.767 413.735 636.447 414.455 635.807 415.035C635.187 415.615 634.367 415.905 633.347 415.905ZM654.971 398.925H645.971V402.255C646.351 401.855 646.871 401.535 647.531 401.295C648.191 401.055 648.921 400.935 649.721 400.935C651.161 400.935 652.361 401.265 653.321 401.925C654.301 402.585 655.021 403.455 655.481 404.535C655.941 405.615 656.171 406.795 656.171 408.075C656.171 410.435 655.501 412.295 654.161 413.655C652.821 414.995 650.961 415.665 648.581 415.665C646.921 415.665 645.481 415.385 644.261 414.825C643.061 414.245 642.141 413.445 641.501 412.425C640.861 411.405 640.531 410.235 640.511 408.915H646.241C646.301 409.375 646.501 409.775 646.841 410.115C647.181 410.455 647.681 410.625 648.341 410.625C649.041 410.625 649.571 410.385 649.931 409.905C650.291 409.425 650.471 408.785 650.471 407.985C650.471 407.205 650.281 406.615 649.901 406.215C649.521 405.795 648.971 405.585 648.251 405.585C647.711 405.585 647.271 405.725 646.931 406.005C646.611 406.265 646.421 406.595 646.361 406.995H640.631V393.735H654.971V398.925ZM680.851 394.515V399.195H675.211V415.665H669.331V399.195H663.751V394.515H680.851ZM693.166 415.875C691.186 415.875 689.366 415.415 687.706 414.495C686.046 413.555 684.726 412.265 683.746 410.625C682.786 408.965 682.306 407.095 682.306 405.015C682.306 402.935 682.786 401.075 683.746 399.435C684.726 397.775 686.046 396.485 687.706 395.565C689.366 394.645 691.186 394.185 693.166 394.185C695.166 394.185 696.986 394.645 698.626 395.565C700.286 396.485 701.596 397.775 702.556 399.435C703.516 401.075 703.996 402.935 703.996 405.015C703.996 407.095 703.516 408.965 702.556 410.625C701.596 412.265 700.286 413.555 698.626 414.495C696.966 415.415 695.146 415.875 693.166 415.875ZM693.166 410.415C694.666 410.415 695.846 409.925 696.706 408.945C697.586 407.965 698.026 406.655 698.026 405.015C698.026 403.335 697.586 402.015 696.706 401.055C695.846 400.075 694.666 399.585 693.166 399.585C691.646 399.585 690.456 400.075 689.596 401.055C688.736 402.015 688.306 403.335 688.306 405.015C688.306 406.675 688.736 407.995 689.596 408.975C690.456 409.935 691.646 410.415 693.166 410.415ZM726.23 415.665H720.35L712.52 403.845V415.665H706.64V394.515H712.52L720.35 406.485V394.515H726.23V415.665Z" fill="url(#paint7_radial_41_38)"/>
</g>
<g filter="url(#filter7_d_41_38)">
<path d="M175.041 398.265L175.041 403.125L165.831 416.265L159.381 416.265L159.381 403.365L157.071 403.365L157.071 398.265L159.381 398.265L159.381 394.665L165.321 394.665L165.321 398.265L175.041 398.265ZM164.871 409.635L169.011 403.365L164.871 403.365L164.871 409.635ZM132.477 415.815L132.477 411.135L138.117 411.135L138.117 394.665L143.997 394.665L143.997 411.135L149.577 411.135L149.577 415.815L132.477 415.815ZM120.161 394.455C122.141 394.455 123.961 394.915 125.621 395.835C127.281 396.775 128.601 398.065 129.581 399.705C130.541 401.365 131.021 403.235 131.021 405.315C131.021 407.395 130.541 409.255 129.581 410.895C128.601 412.555 127.281 413.845 125.621 414.765C123.961 415.685 122.141 416.145 120.161 416.145C118.161 416.145 116.341 415.685 114.701 414.765C113.041 413.845 111.731 412.555 110.771 410.895C109.811 409.255 109.331 407.395 109.331 405.315C109.331 403.235 109.811 401.365 110.771 399.705C111.731 398.065 113.041 396.775 114.701 395.835C116.361 394.915 118.181 394.455 120.161 394.455ZM120.161 399.915C118.661 399.915 117.481 400.405 116.621 401.385C115.741 402.365 115.301 403.675 115.301 405.315C115.301 406.995 115.741 408.315 116.621 409.275C117.481 410.255 118.661 410.745 120.161 410.745C121.681 410.745 122.871 410.255 123.731 409.275C124.591 408.315 125.021 406.995 125.021 405.315C125.021 403.655 124.591 402.335 123.731 401.355C122.871 400.395 121.681 399.915 120.161 399.915ZM87.0979 394.665L92.9779 394.665L100.808 406.485L100.808 394.665L106.688 394.665L106.688 415.815L100.808 415.815L92.9779 403.845L92.9779 415.815L87.0979 415.815L87.0979 394.665Z" fill="url(#paint8_radial_41_38)"/>
</g>
<g filter="url(#filter8_d_41_38)">
<path d="M591.748 527L594.834 522.423L602.495 527.59L590.232 545.771L585.133 542.332L594.309 528.728L591.748 527ZM622.929 542.314L620.312 546.194L615.636 543.04L606.426 556.694L601.551 553.406L610.761 539.752L606.135 536.632L608.752 532.752L622.929 542.314ZM621.194 566.909C619.553 565.802 618.301 564.403 617.439 562.712C616.589 561.004 616.216 559.197 616.32 557.289C616.453 555.376 617.101 553.557 618.264 551.833C619.427 550.108 620.865 548.835 622.578 548.012C624.319 547.184 626.134 546.852 628.025 547.018C629.916 547.184 631.682 547.82 633.323 548.927C634.981 550.045 636.233 551.445 637.078 553.124C637.94 554.815 638.304 556.617 638.172 558.53C638.051 560.427 637.409 562.237 636.246 563.962C635.082 565.686 633.639 566.968 631.915 567.807C630.202 568.63 628.394 568.967 626.492 568.818C624.602 568.652 622.836 568.016 621.194 566.909ZM624.247 562.382C625.491 563.221 626.743 563.475 628.004 563.143C629.282 562.823 630.379 561.983 631.296 560.623C632.236 559.23 632.609 557.89 632.416 556.602C632.251 555.309 631.547 554.243 630.303 553.404C629.043 552.554 627.783 552.295 626.522 552.626C625.272 552.941 624.177 553.795 623.238 555.188C622.31 556.564 621.928 557.899 622.093 559.192C622.269 560.469 622.987 561.532 624.247 562.382ZM648.722 585.224L643.848 581.936L643.966 567.758L637.356 577.557L632.481 574.269L644.308 556.735L649.183 560.023L648.981 574.325L655.675 564.401L660.549 567.689L648.722 585.224Z" fill="url(#paint9_radial_41_38)"/>
</g>
<g filter="url(#filter9_d_41_38)">
<path d="M209.943 272.536L217.404 277.569L219.266 274.808C218.728 274.927 218.118 274.902 217.436 274.732C216.755 274.561 216.083 274.253 215.419 273.805C214.226 273 213.415 272.055 212.988 270.971C212.545 269.876 212.435 268.752 212.657 267.6C212.88 266.447 213.349 265.34 214.065 264.279C215.384 262.323 216.98 261.155 218.851 260.777C220.712 260.416 222.628 260.9 224.601 262.231C225.978 263.159 227.015 264.197 227.713 265.343C228.384 266.495 228.699 267.673 228.659 268.876C228.619 270.08 228.239 271.234 227.517 272.34L222.767 269.136C222.974 268.721 223.032 268.277 222.94 267.805C222.849 267.333 222.529 266.913 221.982 266.544C221.402 266.152 220.828 266.055 220.261 266.251C219.694 266.448 219.187 266.878 218.74 267.541C218.304 268.188 218.131 268.783 218.223 269.327C218.303 269.888 218.641 270.37 219.238 270.772C219.686 271.074 220.129 271.204 220.568 271.162C220.978 271.126 221.32 270.958 221.594 270.66L226.344 273.864L218.929 284.857L207.041 276.839L209.943 272.536ZM186.021 261.72L188.638 257.84L193.314 260.994L202.524 247.34L207.399 250.628L198.189 264.282L202.815 267.402L200.198 271.282L186.021 261.72ZM187.755 237.125C189.397 238.232 190.649 239.631 191.51 241.322C192.361 243.03 192.734 244.837 192.629 246.745C192.497 248.658 191.849 250.477 190.686 252.201C189.523 253.925 188.085 255.199 186.372 256.022C184.631 256.85 182.815 257.181 180.925 257.016C179.034 256.85 177.268 256.214 175.627 255.107C173.969 253.988 172.717 252.589 171.872 250.909C171.01 249.218 170.645 247.416 170.778 245.503C170.899 243.607 171.541 241.797 172.704 240.072C173.867 238.348 175.311 237.066 177.035 236.227C178.748 235.404 180.555 235.067 182.457 235.216C184.348 235.381 186.114 236.018 187.755 237.125ZM184.702 241.651C183.459 240.813 182.206 240.559 180.945 240.891C179.668 241.211 178.571 242.051 177.654 243.411C176.714 244.803 176.341 246.144 176.533 247.432C176.698 248.725 177.403 249.791 178.646 250.63C179.906 251.48 181.167 251.739 182.428 251.408C183.678 251.093 184.772 250.239 185.712 248.846C186.64 247.47 187.022 246.135 186.857 244.842C186.681 243.565 185.962 242.501 184.702 241.651ZM160.227 218.81L165.102 222.098L164.984 236.276L171.593 226.477L176.468 229.765L164.641 247.299L159.767 244.011L159.969 229.709L153.275 239.632L148.4 236.344L160.227 218.81Z" fill="url(#paint10_radial_41_38)"/>
</g>
<g filter="url(#filter10_d_41_38)">
<path d="M342.036 194.532C339.944 193.229 338.169 192.183 336.711 191.394C335.254 190.605 333.836 190.014 332.459 189.622C331.063 189.236 329.866 189.224 328.87 189.587C328.269 189.806 327.85 190.118 327.615 190.523C327.372 190.909 327.347 191.365 327.538 191.891C327.737 192.436 328.125 192.774 328.705 192.903C329.265 193.04 329.984 192.938 330.86 192.598L332.81 197.954C331.117 198.506 329.602 198.643 328.265 198.363C326.91 198.09 325.781 197.501 324.877 196.595C323.954 195.697 323.249 194.58 322.764 193.246C321.922 190.934 321.87 189.006 322.606 187.461C323.342 185.916 324.621 184.812 326.444 184.149C328.399 183.437 330.47 183.428 332.66 184.121C334.842 184.795 336.965 185.864 339.03 187.326L336.465 180.278L340.947 178.647L346.18 193.024L342.036 194.532ZM319.369 167.43L322.447 175.887L325.577 174.748C325.071 174.528 324.592 174.149 324.141 173.611C323.69 173.073 323.327 172.428 323.054 171.676C322.561 170.323 322.461 169.082 322.753 167.954C323.038 166.808 323.609 165.834 324.467 165.032C325.324 164.23 326.354 163.611 327.557 163.173C329.775 162.366 331.752 162.359 333.488 163.153C335.206 163.954 336.471 165.473 337.285 167.709C337.853 169.269 338.082 170.718 337.973 172.056C337.839 173.382 337.402 174.52 336.662 175.47C335.923 176.421 334.936 177.131 333.702 177.601L331.743 172.217C332.154 172.003 332.462 171.678 332.665 171.242C332.868 170.807 332.857 170.279 332.631 169.658C332.392 169.001 331.985 168.585 331.411 168.411C330.837 168.237 330.174 168.286 329.422 168.56C328.689 168.827 328.2 169.207 327.954 169.701C327.689 170.202 327.68 170.79 327.926 171.467C328.111 171.974 328.393 172.34 328.772 172.564C329.126 172.775 329.501 172.841 329.897 172.761L331.857 178.145L319.397 182.68L314.492 169.205L319.369 167.43ZM306.374 144.619L310.771 143.018L312.7 148.318L328.177 142.685L330.188 148.21L314.711 153.843L316.62 159.087L312.222 160.687L306.374 144.619ZM322.233 125.74C322.911 127.601 323.101 129.469 322.804 131.343C322.488 133.224 321.728 134.906 320.522 136.388C319.29 137.858 317.697 138.948 315.743 139.66C313.788 140.371 311.876 140.556 310.007 140.215C308.112 139.862 306.448 139.063 305.016 137.817C303.583 136.572 302.529 135.019 301.851 133.159C301.167 131.279 300.977 129.412 301.281 127.556C301.578 125.682 302.342 124.009 303.573 122.539C304.786 121.076 306.37 119.989 308.324 119.278C310.279 118.566 312.2 118.378 314.088 118.712C315.958 119.053 317.618 119.843 319.069 121.082C320.501 122.327 321.556 123.88 322.233 125.74ZM317.103 127.608C316.59 126.198 315.726 125.257 314.511 124.784C313.289 124.292 311.907 124.327 310.366 124.888C308.787 125.462 307.697 126.327 307.096 127.483C306.47 128.626 306.413 129.902 306.926 131.312C307.446 132.74 308.313 133.691 309.528 134.164C310.724 134.644 312.112 134.596 313.691 134.022C315.25 133.454 316.344 132.598 316.97 131.455C317.578 130.319 317.622 129.036 317.103 127.608ZM310.728 94.7428L312.739 100.268L304.31 111.669L315.417 107.626L317.428 113.151L297.553 120.385L295.542 114.86L304.112 103.408L292.864 107.502L290.853 101.977L310.728 94.7428Z" fill="url(#paint11_radial_41_38)"/>
</g>
<g filter="url(#filter11_d_41_38)">
<path d="M482.935 615.995L488.122 614.107L491.283 622.79L470.675 630.29L468.572 624.511L483.992 618.899L482.935 615.995ZM472.622 636.341C472.266 635.364 472.242 634.479 472.549 633.686C472.882 632.905 473.462 632.364 474.289 632.063C475.116 631.762 475.908 631.803 476.665 632.188C477.429 632.591 477.989 633.281 478.345 634.258C478.694 635.217 478.701 636.086 478.368 636.867C478.042 637.667 477.466 638.217 476.639 638.518C475.831 638.813 475.045 638.758 474.281 638.355C473.524 637.971 472.971 637.3 472.622 636.341ZM495.974 650.853L492.895 642.396L489.766 643.535C490.272 643.755 490.751 644.134 491.202 644.672C491.653 645.21 492.016 645.855 492.289 646.607C492.782 647.96 492.882 649.201 492.59 650.328C492.305 651.475 491.734 652.449 490.876 653.251C490.019 654.053 488.989 654.672 487.786 655.11C485.568 655.917 483.591 655.924 481.855 655.13C480.137 654.329 478.872 652.81 478.058 650.574C477.49 649.014 477.26 647.565 477.369 646.227C477.504 644.901 477.941 643.763 478.681 642.813C479.42 641.862 480.407 641.152 481.64 640.682L483.6 646.066C483.188 646.28 482.881 646.605 482.678 647.04C482.475 647.476 482.486 648.004 482.712 648.624C482.951 649.282 483.358 649.698 483.932 649.872C484.506 650.046 485.169 649.997 485.921 649.723C486.654 649.456 487.143 649.076 487.389 648.582C487.654 648.081 487.663 647.493 487.417 646.816C487.232 646.309 486.95 645.943 486.571 645.719C486.217 645.508 485.842 645.442 485.445 645.522L483.486 640.138L495.946 635.603L500.851 649.078L495.974 650.853ZM508.969 673.664L504.571 675.265L502.642 669.965L487.166 675.598L485.155 670.073L500.631 664.44L498.723 659.196L503.121 657.595L508.969 673.664ZM493.11 692.543C492.432 690.682 492.242 688.814 492.539 686.94C492.854 685.058 493.615 683.377 494.821 681.895C496.053 680.425 497.646 679.335 499.6 678.623C501.555 677.912 503.467 677.727 505.336 678.068C507.231 678.421 508.895 679.22 510.327 680.465C511.76 681.711 512.814 683.264 513.491 685.124C514.176 687.003 514.366 688.871 514.062 690.727C513.765 692.601 513.001 694.274 511.77 695.743C510.557 697.206 508.973 698.294 507.019 699.005C505.064 699.716 503.143 699.905 501.254 699.571C499.385 699.229 497.725 698.44 496.274 697.201C494.841 695.956 493.787 694.403 493.11 692.543ZM498.24 690.675C498.753 692.085 499.617 693.026 500.832 693.499C502.054 693.991 503.436 693.956 504.977 693.395C506.555 692.821 507.645 691.956 508.247 690.8C508.873 689.657 508.93 688.381 508.417 686.971C507.897 685.543 507.03 684.592 505.815 684.119C504.619 683.639 503.231 683.687 501.652 684.261C500.092 684.829 498.999 685.685 498.372 686.828C497.764 687.964 497.72 689.247 498.24 690.675ZM504.615 723.54L502.604 718.015L511.033 706.614L499.926 710.657L497.915 705.131L517.789 697.898L519.801 703.423L511.23 714.875L522.479 710.781L524.49 716.306L504.615 723.54Z" fill="url(#paint12_radial_41_38)"/>
</g>
<path d="M398.59 169.626L393.07 169.626L393.07 160.386L415 160.386L415 166.536L398.59 166.536L398.59 169.626ZM393.85 135.212L398.53 135.212L398.53 140.852L415 140.852L415 146.732L398.53 146.732L398.53 152.312L393.85 152.312L393.85 135.212ZM415.21 122.897C415.21 124.877 414.75 126.697 413.83 128.357C412.89 130.017 411.6 131.337 409.96 132.317C408.3 133.277 406.43 133.757 404.35 133.757C402.27 133.757 400.41 133.277 398.77 132.317C397.11 131.337 395.82 130.017 394.9 128.357C393.98 126.697 393.52 124.877 393.52 122.897C393.52 120.897 393.98 119.077 394.9 117.437C395.82 115.777 397.11 114.467 398.77 113.507C400.41 112.547 402.27 112.067 404.35 112.067C406.43 112.067 408.3 112.547 409.96 113.507C411.6 114.467 412.89 115.777 413.83 117.437C414.75 119.097 415.21 120.917 415.21 122.897ZM409.75 122.897C409.75 121.397 409.26 120.217 408.28 119.357C407.3 118.477 405.99 118.037 404.35 118.037C402.67 118.037 401.35 118.477 400.39 119.357C399.41 120.217 398.92 121.397 398.92 122.897C398.92 124.417 399.41 125.607 400.39 126.467C401.35 127.327 402.67 127.757 404.35 127.757C406.01 127.757 407.33 127.327 408.31 126.467C409.27 125.607 409.75 124.417 409.75 122.897ZM415 89.8334L415 95.7134L403.18 103.543L415 103.543L415 109.423L393.85 109.423L393.85 103.543L405.82 95.7134L393.85 95.7134L393.85 89.8334L415 89.8334Z" fill="url(#paint13_radial_41_38)"/>
<path d="M412.434 642.523C413.114 642.383 413.614 642.153 413.934 641.833C414.254 641.513 414.414 641.043 414.414 640.423C414.414 639.483 413.974 638.823 413.094 638.443C412.214 638.083 410.834 637.893 408.954 637.873C409.574 638.273 410.064 638.853 410.424 639.613C410.784 640.373 410.964 641.213 410.964 642.133C410.964 644.073 410.364 645.623 409.164 646.783C407.964 647.963 406.244 648.553 404.004 648.553C402.524 648.553 401.224 648.243 400.104 647.623C399.004 647.023 398.154 646.143 397.554 644.983C396.954 643.843 396.654 642.493 396.654 640.933C396.654 637.833 397.614 635.673 399.534 634.453C401.474 633.253 404.214 632.653 407.754 632.653C411.674 632.653 414.554 633.293 416.394 634.573C418.234 635.853 419.154 637.913 419.154 640.753C419.154 643.053 418.504 644.793 417.204 645.973C415.924 647.173 414.334 647.843 412.434 647.983V642.523ZM406.404 640.693C406.404 639.993 406.204 639.413 405.804 638.953C405.404 638.513 404.834 638.293 404.094 638.293C403.314 638.293 402.714 638.503 402.294 638.923C401.874 639.343 401.664 639.943 401.664 640.723C401.664 641.443 401.864 642.003 402.264 642.403C402.684 642.823 403.274 643.033 404.034 643.033C404.774 643.033 405.354 642.823 405.774 642.403C406.194 642.003 406.404 641.433 406.404 640.693ZM417.954 673.338H413.274V667.698H396.804V661.818H413.274V656.238H417.954V673.338ZM396.594 685.654C396.594 683.674 397.054 681.854 397.974 680.194C398.914 678.534 400.204 677.214 401.844 676.234C403.504 675.274 405.374 674.794 407.454 674.794C409.534 674.794 411.394 675.274 413.034 676.234C414.694 677.214 415.984 678.534 416.904 680.194C417.824 681.854 418.284 683.674 418.284 685.654C418.284 687.654 417.824 689.474 416.904 691.114C415.984 692.774 414.694 694.084 413.034 695.044C411.394 696.004 409.534 696.484 407.454 696.484C405.374 696.484 403.504 696.004 401.844 695.044C400.204 694.084 398.914 692.774 397.974 691.114C397.054 689.454 396.594 687.634 396.594 685.654ZM402.054 685.654C402.054 687.154 402.544 688.334 403.524 689.194C404.504 690.074 405.814 690.514 407.454 690.514C409.134 690.514 410.454 690.074 411.414 689.194C412.394 688.334 412.884 687.154 412.884 685.654C412.884 684.134 412.394 682.944 411.414 682.084C410.454 681.224 409.134 680.794 407.454 680.794C405.794 680.794 404.474 681.224 403.494 682.084C402.534 682.944 402.054 684.134 402.054 685.654ZM396.804 718.717V712.837L408.624 705.007H396.804V699.127H417.954V705.007L405.984 712.837H417.954V718.717H396.804Z" fill="url(#paint14_radial_41_38)"/>
<path d="M538.306 231.934C538.217 229.471 538.091 227.414 537.93 225.765C537.769 224.115 537.466 222.609 537.022 221.248C536.561 219.875 535.902 218.877 535.044 218.254C534.526 217.877 534.033 217.705 533.566 217.736C533.11 217.751 532.718 217.985 532.388 218.438C532.048 218.907 531.985 219.418 532.202 219.971C532.402 220.512 532.888 221.051 533.66 221.587L530.31 226.198C528.905 225.104 527.945 223.924 527.43 222.66C526.899 221.384 526.755 220.118 527 218.862C527.229 217.594 527.761 216.386 528.595 215.237C530.041 213.247 531.611 212.125 533.303 211.871C534.995 211.618 536.626 212.061 538.196 213.201C539.878 214.424 541.044 216.136 541.694 218.339C542.355 220.525 542.657 222.883 542.599 225.412L547.008 219.344L550.867 222.148L541.874 234.526L538.306 231.934ZM548.189 190.361L551.976 193.112L548.66 197.675L561.985 207.356L558.529 212.113L545.204 202.432L541.924 206.946L538.138 204.195L548.189 190.361ZM572.709 192.953C571.545 194.555 570.103 195.757 568.383 196.559C566.647 197.349 564.827 197.659 562.925 197.488C561.017 197.289 559.222 196.578 557.54 195.355C555.857 194.133 554.634 192.651 553.872 190.91C553.105 189.142 552.837 187.316 553.068 185.432C553.3 183.548 553.997 181.805 555.161 180.204C556.337 178.586 557.779 177.384 559.487 176.598C561.207 175.795 563.021 175.494 564.928 175.693C566.819 175.88 568.606 176.585 570.289 177.808C571.971 179.03 573.202 180.518 573.981 182.27C574.743 184.011 575.017 185.829 574.802 187.724C574.57 189.608 573.873 191.351 572.709 192.953ZM568.292 189.743C569.173 188.53 569.47 187.287 569.183 186.015C568.907 184.727 568.106 183.601 566.78 182.637C565.42 181.65 564.094 181.23 562.8 181.378C561.502 181.497 560.412 182.164 559.53 183.378C558.636 184.607 558.333 185.858 558.621 187.13C558.892 188.39 559.707 189.514 561.066 190.501C562.409 191.477 563.73 191.905 565.028 191.785C566.31 191.654 567.398 190.973 568.292 189.743ZM591.973 166.08L588.517 170.837L574.352 170.224L583.914 177.172L580.458 181.929L563.348 169.497L566.804 164.74L581.09 165.442L571.406 158.406L574.862 153.649L591.973 166.08Z" fill="url(#paint15_radial_41_38)"/>
<path d="M263.351 607.097C265.219 606.298 266.973 606.539 268.612 607.819C269.463 608.484 270.063 609.308 270.411 610.291C270.763 611.302 270.787 612.425 270.483 613.659C270.194 614.906 269.527 616.199 268.48 617.538C267.433 618.878 266.34 619.839 265.201 620.42C264.077 621.014 262.988 621.255 261.934 621.142C260.883 621.057 259.932 620.682 259.081 620.018C258.246 619.365 257.669 618.609 257.35 617.751C257.034 616.921 256.953 616.033 257.108 615.088C256.042 615.575 254.989 615.754 253.947 615.625C252.905 615.497 251.904 615.057 250.942 614.306C249.792 613.407 249.027 612.34 248.647 611.104C248.283 609.881 248.276 608.606 248.626 607.281C248.964 605.971 249.601 604.718 250.537 603.52C251.473 602.322 252.541 601.393 253.743 600.732C254.932 600.088 256.164 599.794 257.439 599.851C258.73 599.921 259.95 600.405 261.101 601.304C262.062 602.055 262.731 602.92 263.108 603.9C263.485 604.879 263.566 605.945 263.351 607.097ZM261.895 614.906C262.446 615.337 262.983 615.528 263.504 615.478C264.041 615.44 264.494 615.185 264.863 614.713C265.22 614.255 265.358 613.754 265.277 613.208C265.183 612.678 264.869 612.204 264.333 611.786C263.797 611.367 263.268 611.182 262.747 611.232C262.214 611.298 261.769 611.559 261.412 612.016C261.054 612.473 260.915 612.96 260.993 613.478C261.058 614.011 261.359 614.487 261.895 614.906ZM258.244 609.541C258.712 608.942 258.912 608.312 258.845 607.65C258.782 607.017 258.45 606.466 257.852 605.999C257.284 605.555 256.678 605.373 256.032 605.453C255.386 605.532 254.823 605.879 254.343 606.493C253.863 607.108 253.669 607.73 253.76 608.36C253.839 609.006 254.163 609.55 254.73 609.994C255.329 610.462 255.943 610.65 256.573 610.558C257.219 610.479 257.776 610.14 258.244 609.541ZM247.088 642.921L243.4 640.04L246.873 635.595L233.894 625.455L237.514 620.822L250.493 630.962L253.928 626.565L257.616 629.446L247.088 642.921ZM222.674 639.475C223.893 637.915 225.376 636.764 227.123 636.022C228.886 635.293 230.715 635.047 232.611 635.284C234.51 635.55 236.279 636.323 237.918 637.603C239.557 638.884 240.727 640.407 241.429 642.173C242.133 643.968 242.337 645.802 242.04 647.677C241.743 649.551 240.985 651.269 239.766 652.829C238.535 654.405 237.052 655.556 235.317 656.282C233.57 657.023 231.747 657.261 229.848 656.996C227.965 656.743 226.203 655.976 224.564 654.695C222.925 653.415 221.747 651.885 221.03 650.107C220.329 648.341 220.119 646.514 220.4 644.627C220.697 642.753 221.455 641.035 222.674 639.475ZM226.977 642.837C226.053 644.019 225.713 645.25 225.956 646.531C226.186 647.828 226.947 648.981 228.24 649.991C229.564 651.025 230.875 651.491 232.173 651.389C233.475 651.314 234.587 650.686 235.511 649.504C236.447 648.306 236.793 647.067 236.55 645.786C236.323 644.517 235.548 643.366 234.224 642.331C232.916 641.309 231.611 640.836 230.309 640.91C229.023 640.997 227.912 641.639 226.977 642.837ZM202.484 665.659L206.104 661.025L220.239 662.132L210.925 654.855L214.545 650.221L231.211 663.243L227.591 667.876L213.338 666.677L222.77 674.046L219.15 678.68L202.484 665.659Z" fill="url(#paint16_radial_41_38)"/>
<path d="M603.664 333.064C603.079 330.879 603.243 329.02 604.155 327.486C605.06 325.934 606.641 324.813 608.898 324.123C610.371 323.672 611.703 323.547 612.893 323.748C614.097 323.924 615.102 324.37 615.906 325.086C616.705 325.783 617.271 326.676 617.604 327.766C618.002 329.067 618.005 330.206 617.613 331.183C617.216 332.141 616.657 332.877 615.935 333.39L615.97 333.505C618.548 333.658 620.208 334.949 620.95 337.378C621.319 338.583 621.366 339.729 621.092 340.817C620.818 341.905 620.234 342.867 619.34 343.705C618.446 344.543 617.272 345.185 615.819 345.629C613.428 346.36 611.359 346.365 609.612 345.644C607.878 344.899 606.617 343.339 605.829 340.966L611.308 339.291C611.504 340.067 611.848 340.611 612.34 340.92C612.832 341.23 613.441 341.274 614.168 341.051C614.723 340.882 615.1 340.578 615.301 340.14C615.521 339.697 615.543 339.188 615.368 338.614C615.146 337.887 614.743 337.425 614.16 337.227C613.595 337.023 612.787 337.082 611.735 337.403L610.731 337.71L609.336 333.149L610.312 332.851C611.045 332.648 611.622 332.346 612.043 331.945C612.477 331.519 612.575 330.914 612.335 330.13C612.154 329.537 611.876 329.141 611.501 328.942C611.121 328.724 610.682 328.691 610.185 328.843C609.63 329.012 609.28 329.339 609.135 329.822C609.003 330.281 609.006 330.803 609.143 331.388L603.664 333.064ZM640.445 315.795L641.813 320.271L636.42 321.92L641.235 337.67L635.612 339.389L630.797 323.639L625.46 325.27L624.092 320.795L640.445 315.795ZM658.467 332.621C656.574 333.2 654.699 333.292 652.842 332.898C650.98 332.484 649.341 331.637 647.924 330.355C646.521 329.048 645.515 327.4 644.907 325.411C644.298 323.422 644.214 321.503 644.652 319.654C645.104 317.78 645.989 316.16 647.308 314.795C648.626 313.43 650.232 312.458 652.126 311.879C654.038 311.294 655.913 311.202 657.751 311.602C659.607 311.997 661.237 312.848 662.64 314.154C664.038 315.442 665.041 317.08 665.649 319.069C666.257 321.059 666.345 322.987 665.912 324.855C665.473 326.704 664.598 328.321 663.285 329.705C661.967 331.07 660.361 332.042 658.467 332.621ZM656.871 327.4C658.305 326.961 659.291 326.148 659.826 324.959C660.381 323.765 660.419 322.383 659.94 320.815C659.449 319.208 658.642 318.075 657.52 317.414C656.411 316.728 655.139 316.605 653.705 317.043C652.251 317.488 651.256 318.304 650.72 319.493C650.179 320.662 650.153 322.05 650.644 323.657C651.13 325.244 651.927 326.381 653.036 327.067C654.139 327.733 655.417 327.844 656.871 327.4ZM690.024 322.754L684.401 324.473L673.458 315.459L676.913 326.762L671.29 328.481L665.107 308.255L670.73 306.536L681.717 315.694L678.218 304.247L683.841 302.528L690.024 322.754Z" fill="url(#paint17_radial_41_38)"/>
<path d="M180.926 490.594L182.814 495.781L174.131 498.942L166.631 478.334L172.41 476.231L178.022 491.651L180.926 490.594ZM167.677 489.957C168.854 493.19 169.123 495.976 168.485 498.315C167.846 500.655 166.118 502.337 163.298 503.363C160.479 504.389 158.073 504.212 156.081 502.83C154.069 501.455 152.475 499.151 151.298 495.919C150.108 492.648 149.832 489.844 150.471 487.504C151.109 485.165 152.847 483.479 155.685 482.446C158.523 481.413 160.938 481.587 162.931 482.969C164.905 484.358 166.487 486.687 167.677 489.957ZM156.768 493.928C157.383 495.619 158.03 496.842 158.709 497.595C159.394 498.367 160.291 498.552 161.4 498.148C162.509 497.744 163.078 497.027 163.107 495.995C163.142 494.981 162.852 493.629 162.237 491.937C161.607 490.208 160.959 488.954 160.293 488.175C159.614 487.422 158.711 487.251 157.583 487.661C156.456 488.071 155.883 488.78 155.867 489.786C155.838 490.818 156.138 492.199 156.768 493.928ZM131.681 513.562L130.08 509.164L135.38 507.235L129.747 491.759L135.272 489.748L140.906 505.224L146.149 503.316L147.75 507.714L131.681 513.562ZM112.803 497.703C114.663 497.025 116.531 496.835 118.405 497.132C120.287 497.447 121.968 498.208 123.45 499.414C124.92 500.646 126.011 502.239 126.722 504.193C127.433 506.148 127.619 508.06 127.277 509.929C126.924 511.824 126.125 513.488 124.88 514.92C123.635 516.353 122.082 517.407 120.221 518.084C118.342 518.768 116.474 518.959 114.618 518.655C112.744 518.358 111.072 517.594 109.602 516.363C108.139 515.15 107.051 513.566 106.34 511.612C105.629 509.657 105.44 507.736 105.775 505.847C106.116 503.978 106.905 502.318 108.144 500.867C109.389 499.434 110.942 498.38 112.803 497.703ZM114.67 502.833C113.26 503.346 112.319 504.21 111.846 505.425C111.355 506.647 111.389 508.029 111.95 509.57C112.525 511.148 113.39 512.238 114.545 512.84C115.688 513.466 116.965 513.523 118.374 513.01C119.802 512.49 120.753 511.623 121.226 510.408C121.706 509.212 121.658 507.824 121.084 506.245C120.516 504.685 119.661 503.592 118.517 502.965C117.381 502.357 116.098 502.313 114.67 502.833ZM81.8051 509.208L87.3305 507.197L98.731 515.626L94.6883 504.519L100.214 502.508L107.447 522.382L101.922 524.394L90.4703 515.823L94.5642 527.072L89.0388 529.083L81.8051 509.208Z" fill="url(#paint18_radial_41_38)"/>
<path d="M603.422 471.861L604.923 467.239L617.743 457.588L623.877 459.581L619.891 471.85L622.088 472.564L620.512 477.414L618.315 476.7L617.203 480.124L611.553 478.289L612.666 474.865L603.422 471.861ZM616.607 464.19L610.732 468.874L614.67 470.153L616.607 464.19ZM649.326 468.323L647.88 472.774L642.516 471.031L637.426 486.695L631.834 484.878L636.924 469.214L631.617 467.49L633.063 463.039L649.326 468.323ZM654.438 492.443C652.555 491.832 650.966 490.832 649.672 489.444C648.383 488.037 647.527 486.402 647.101 484.539C646.701 482.664 646.823 480.737 647.465 478.759C648.108 476.781 649.14 475.16 650.559 473.897C652.004 472.621 653.658 471.802 655.521 471.44C657.384 471.078 659.258 471.203 661.141 471.815C663.043 472.433 664.631 473.433 665.907 474.815C667.201 476.203 668.049 477.834 668.449 479.71C668.855 481.566 668.737 483.483 668.094 485.462C667.451 487.44 666.417 489.07 664.991 490.352C663.571 491.615 661.926 492.437 660.057 492.818C658.194 493.18 656.321 493.055 654.438 492.443ZM656.125 487.251C657.552 487.714 658.826 487.613 659.946 486.947C661.086 486.286 661.909 485.177 662.416 483.617C662.935 482.019 662.925 480.628 662.384 479.443C661.869 478.245 660.898 477.414 659.472 476.951C658.026 476.481 656.743 476.579 655.622 477.246C654.508 477.893 653.691 479.015 653.172 480.613C652.659 482.192 652.66 483.58 653.175 484.778C653.696 485.957 654.68 486.781 656.125 487.251ZM685.948 502.461L680.356 500.644L676.562 486.983L672.909 498.224L667.317 496.407L673.852 476.292L679.445 478.109L683.193 491.913L686.891 480.529L692.484 482.346L685.948 502.461Z" fill="url(#paint19_radial_41_38)"/>
<path d="M189.855 348.004L187.967 353.192L179.285 350.031L186.785 329.424L192.564 331.527L186.952 346.948L189.855 348.004ZM163.251 338.672L171.708 341.751L172.847 338.622C172.353 338.867 171.755 338.99 171.053 338.99C170.351 338.99 169.624 338.853 168.872 338.579C167.519 338.087 166.504 337.366 165.828 336.418C165.133 335.462 164.753 334.399 164.691 333.226C164.628 332.054 164.815 330.867 165.253 329.664C166.06 327.446 167.326 325.928 169.05 325.108C170.768 324.307 172.745 324.314 174.981 325.128C176.541 325.695 177.798 326.451 178.753 327.394C179.683 328.35 180.274 329.416 180.526 330.594C180.779 331.771 180.689 332.983 180.256 334.231L174.871 332.271C174.972 331.818 174.921 331.374 174.718 330.938C174.515 330.502 174.103 330.171 173.483 329.946C172.825 329.706 172.245 329.751 171.743 330.078C171.24 330.406 170.852 330.946 170.578 331.698C170.312 332.431 170.288 333.05 170.509 333.556C170.722 334.081 171.167 334.466 171.844 334.713C172.351 334.897 172.812 334.916 173.228 334.769C173.617 334.634 173.909 334.389 174.102 334.034L179.486 335.994L174.951 348.454L161.476 343.55L163.251 338.672ZM137.423 333.965L139.024 329.567L144.324 331.496L149.957 316.019L155.482 318.031L149.849 333.507L155.093 335.416L153.492 339.813L137.423 333.965ZM133.156 309.681C135.017 310.358 136.569 311.413 137.815 312.845C139.053 314.296 139.852 315.96 140.212 317.836C140.547 319.724 140.358 321.646 139.647 323.6C138.935 325.555 137.848 327.139 136.385 328.351C134.896 329.576 133.215 330.337 131.34 330.634C129.466 330.93 127.598 330.74 125.738 330.063C123.858 329.379 122.305 328.324 121.079 326.899C119.834 325.466 119.044 323.806 118.709 321.918C118.368 320.048 118.553 318.136 119.265 316.182C119.976 314.227 121.067 312.634 122.537 311.403C124 310.19 125.672 309.426 127.553 309.11C129.428 308.814 131.295 309.004 133.156 309.681ZM131.289 314.812C129.879 314.299 128.603 314.356 127.459 314.982C126.297 315.602 125.436 316.683 124.875 318.224C124.3 319.802 124.262 321.193 124.761 322.396C125.234 323.611 126.175 324.476 127.584 324.989C129.013 325.508 130.299 325.455 131.442 324.828C132.578 324.22 133.434 323.127 134.009 321.548C134.576 319.988 134.624 318.601 134.151 317.386C133.671 316.19 132.717 315.332 131.289 314.812ZM102.015 298.57L107.54 300.581L110.855 314.366L114.898 303.259L120.423 305.27L113.19 325.145L107.664 323.134L104.4 309.207L100.307 320.456L94.7811 318.444L102.015 298.57Z" fill="url(#paint20_radial_41_38)"/>
<path d="M274.371 232.568C271.736 234.779 269.21 235.985 266.793 236.185C264.377 236.385 262.204 235.336 260.276 233.038C258.347 230.74 257.692 228.419 258.309 226.073C258.913 223.713 260.532 221.427 263.167 219.216C265.833 216.979 268.374 215.76 270.791 215.56C273.208 215.36 275.387 216.416 277.328 218.73C279.269 221.043 279.931 223.373 279.314 225.718C278.685 228.048 277.037 230.331 274.371 232.568ZM266.908 223.674C265.529 224.831 264.602 225.857 264.126 226.753C263.635 227.661 263.769 228.567 264.527 229.471C265.286 230.375 266.155 230.664 267.135 230.338C268.099 230.025 269.27 229.29 270.649 228.133C272.059 226.95 273.016 225.912 273.52 225.019C273.995 224.124 273.848 223.217 273.076 222.297C272.305 221.378 271.444 221.083 270.492 221.411C269.512 221.737 268.318 222.491 266.908 223.674ZM247.256 208.748L253.041 215.642L255.592 213.501C255.041 213.467 254.462 213.275 253.854 212.924C253.246 212.572 252.685 212.09 252.17 211.477C251.245 210.374 250.726 209.243 250.615 208.083C250.49 206.908 250.694 205.797 251.226 204.751C251.757 203.704 252.513 202.77 253.494 201.947C255.302 200.43 257.157 199.747 259.06 199.9C260.948 200.065 262.657 201.059 264.187 202.882C265.254 204.154 265.965 205.437 266.32 206.732C266.647 208.024 266.626 209.243 266.256 210.389C265.886 211.534 265.202 212.539 264.203 213.403L260.52 209.014C260.834 208.672 261.012 208.262 261.054 207.783C261.096 207.304 260.905 206.811 260.48 206.306C260.03 205.77 259.506 205.518 258.907 205.551C258.308 205.583 257.702 205.857 257.089 206.371C256.491 206.872 256.161 207.397 256.099 207.945C256.022 208.507 256.214 209.063 256.677 209.614C257.024 210.028 257.414 210.275 257.848 210.356C258.252 210.434 258.627 210.367 258.972 210.156L262.655 214.545L252.498 223.069L243.28 212.084L247.256 208.748ZM227.242 191.757L230.827 188.748L234.452 193.069L247.069 182.482L250.849 186.987L238.232 197.573L241.819 201.848L238.234 204.856L227.242 191.757ZM235.689 168.593C236.961 170.109 237.779 171.799 238.141 173.662C238.488 175.538 238.348 177.378 237.722 179.183C237.067 180.986 235.943 182.555 234.35 183.892C232.757 185.229 231.023 186.057 229.15 186.376C227.248 186.692 225.412 186.51 223.64 185.83C221.868 185.15 220.346 184.051 219.073 182.535C217.787 181.003 216.97 179.313 216.621 177.465C216.258 175.602 216.404 173.769 217.059 171.967C217.698 170.177 218.815 168.614 220.408 167.277C222.001 165.94 223.742 165.106 225.631 164.774C227.504 164.455 229.335 164.63 231.122 165.297C232.894 165.977 234.416 167.076 235.689 168.593ZM231.506 172.102C230.542 170.953 229.408 170.364 228.104 170.335C226.788 170.291 225.502 170.796 224.245 171.85C222.958 172.93 222.23 174.116 222.06 175.407C221.862 176.696 222.245 177.915 223.21 179.064C224.187 180.228 225.327 180.825 226.631 180.853C227.919 180.895 229.206 180.376 230.493 179.296C231.765 178.229 232.5 177.051 232.698 175.763C232.88 174.487 232.483 173.267 231.506 172.102ZM214.275 143.4L218.055 147.904L214.033 161.5L223.088 153.902L226.867 158.406L210.665 172.001L206.886 167.497L211.022 153.805L201.853 161.499L198.073 156.995L214.275 143.4Z" fill="url(#paint21_radial_41_38)"/>
<path d="M545.552 583.732L539.767 576.838L537.216 578.978C537.767 579.012 538.346 579.205 538.954 579.556C539.562 579.908 540.124 580.39 540.638 581.003C541.563 582.106 542.082 583.237 542.193 584.397C542.318 585.572 542.114 586.683 541.583 587.729C541.051 588.776 540.295 589.71 539.314 590.533C537.506 592.05 535.651 592.732 533.748 592.58C531.86 592.415 530.151 591.421 528.621 589.598C527.554 588.326 526.843 587.043 526.488 585.748C526.161 584.456 526.182 583.237 526.552 582.091C526.922 580.945 527.606 579.941 528.605 579.077L532.288 583.466C531.974 583.808 531.796 584.218 531.754 584.697C531.712 585.176 531.904 585.669 532.328 586.174C532.778 586.71 533.302 586.962 533.901 586.929C534.5 586.897 535.106 586.623 535.719 586.109C536.317 585.607 536.647 585.083 536.709 584.534C536.786 583.973 536.594 583.417 536.131 582.866C535.784 582.452 535.394 582.205 534.961 582.124C534.556 582.046 534.181 582.113 533.836 582.324L530.153 577.935L540.31 569.411L549.528 580.396L545.552 583.732ZM565.566 600.723L561.981 603.731L558.356 599.411L545.739 609.998L541.959 605.493L554.576 594.907L550.989 590.632L554.574 587.624L565.566 600.723ZM557.12 623.887C555.847 622.371 555.029 620.681 554.667 618.818C554.32 616.942 554.46 615.101 555.086 613.297C555.741 611.494 556.865 609.924 558.458 608.587C560.052 607.25 561.785 606.423 563.658 606.104C565.56 605.787 567.397 605.969 569.168 606.65C570.94 607.33 572.462 608.429 573.735 609.945C575.021 611.477 575.838 613.167 576.188 615.015C576.55 616.878 576.404 618.711 575.749 620.513C575.11 622.303 573.994 623.866 572.4 625.203C570.807 626.54 569.066 627.374 567.177 627.706C565.304 628.025 563.473 627.85 561.686 627.183C559.915 626.503 558.392 625.404 557.12 623.887ZM561.302 620.378C562.266 621.527 563.4 622.116 564.704 622.145C566.02 622.189 567.306 621.684 568.563 620.63C569.85 619.55 570.578 618.364 570.748 617.073C570.946 615.784 570.563 614.565 569.598 613.416C568.621 612.252 567.481 611.655 566.178 611.626C564.889 611.585 563.602 612.104 562.315 613.184C561.043 614.251 560.308 615.429 560.111 616.717C559.928 617.993 560.325 619.213 561.302 620.378ZM578.533 649.08L574.754 644.576L578.775 630.98L569.721 638.578L565.941 634.074L582.143 620.479L585.922 624.983L581.786 638.675L590.955 630.981L594.735 635.485L578.533 649.08Z" fill="url(#paint22_radial_41_38)"/>
<defs>
<filter id="filter0_i_41_38" x="26" y="26" width="752.137" height="752.137" filterUnits="userSpaceOnUse" color-interpolation-filters="sRGB">
<feFlood flood-opacity="0" result="BackgroundImageFix"/>
<feBlend mode="normal" in="SourceGraphic" in2="BackgroundImageFix" result="shape"/>
<feColorMatrix in="SourceAlpha" type="matrix" values="0 0 0 0 0 0 0 0 0 0 0 0 0 0 0 0 0 0 127 0" result="hardAlpha"/>
<feOffset/>
<feGaussianBlur stdDeviation="35.7265"/>
<feComposite in2="hardAlpha" operator="arithmetic" k2="-1" k3="1"/>
<feColorMatrix type="matrix" values="0 0 0 0 0 0 0 0 0 0 0 0 0 0 0 0 0 0 0.75 0"/>
<feBlend mode="normal" in2="shape" result="effect1_innerShadow_41_38"/>
</filter>
<filter id="filter1_i_41_38" x="26" y="26" width="752.14" height="752.14" filterUnits="userSpaceOnUse" color-interpolation-filters="sRGB">
<feFlood flood-opacity="0" result="BackgroundImageFix"/>
<feBlend mode="normal" in="SourceGraphic" in2="BackgroundImageFix" result="shape"/>
<feColorMatrix in="SourceAlpha" type="matrix" values="0 0 0 0 0 0 0 0 0 0 0 0 0 0 0 0 0 0 127 0" result="hardAlpha"/>
<feOffset/>
<feGaussianBlur stdDeviation="18.8034"/>
<feComposite in2="hardAlpha" operator="arithmetic" k2="-1" k3="1"/>
<feColorMatrix type="matrix" values="0 0 0 0 0 0 0 0 0 0 0 0 0 0 0 0 0 0 0.75 0"/>
<feBlend mode="normal" in2="shape" result="effect1_innerShadow_41_38"/>
</filter>
<filter id="filter2_d_41_38" x="457.772" y="84.656" width="59.0071" height="109.958" filterUnits="userSpaceOnUse" color-interpolation-filters="sRGB">
<feFlood flood-opacity="0" result="BackgroundImageFix"/>
<feColorMatrix in="SourceAlpha" type="matrix" values="0 0 0 0 0 0 0 0 0 0 0 0 0 0 0 0 0 0 127 0" result="hardAlpha"/>
<feOffset dx="-7.52137"/>
<feComposite in2="hardAlpha" operator="out"/>
<feColorMatrix type="matrix" values="0 0 0 0 0.976471 0 0 0 0 0.878431 0 0 0 0 0.490196 0 0 0 1 0"/>
<feBlend mode="normal" in2="BackgroundImageFix" result="effect1_dropShadow_41_38"/>
<feBlend mode="normal" in="SourceGraphic" in2="effect1_dropShadow_41_38" result="shape"/>
</filter>
<filter id="filter3_d_41_38" x="290.369" y="633.999" width="57.78" height="87.4883" filterUnits="userSpaceOnUse" color-interpolation-filters="sRGB">
<feFlood flood-opacity="0" result="BackgroundImageFix"/>
<feColorMatrix in="SourceAlpha" type="matrix" values="0 0 0 0 0 0 0 0 0 0 0 0 0 0 0 0 0 0 127 0" result="hardAlpha"/>
<feOffset dx="-7.52137"/>
<feComposite in2="hardAlpha" operator="out"/>
<feColorMatrix type="matrix" values="0 0 0 0 0.976471 0 0 0 0 0.878431 0 0 0 0 0.490196 0 0 0 1 0"/>
<feBlend mode="normal" in2="BackgroundImageFix" result="effect1_dropShadow_41_38"/>
<feBlend mode="normal" in="SourceGraphic" in2="effect1_dropShadow_41_38" result="shape"/>
</filter>
<filter id="filter4_d_41_38" x="559.71" y="208.621" width="114.168" height="82.1548" filterUnits="userSpaceOnUse" color-interpolation-filters="sRGB">
<feFlood flood-opacity="0" result="BackgroundImageFix"/>
<feColorMatrix in="SourceAlpha" type="matrix" values="0 0 0 0 0 0 0 0 0 0 0 0 0 0 0 0 0 0 127 0" result="hardAlpha"/>
<feOffset dx="-7.52137"/>
<feComposite in2="hardAlpha" operator="out"/>
<feColorMatrix type="matrix" values="0 0 0 0 0.976471 0 0 0 0 0.878431 0 0 0 0 0.490196 0 0 0 1 0"/>
<feBlend mode="normal" in2="BackgroundImageFix" result="effect1_dropShadow_41_38"/>
<feBlend mode="normal" in="SourceGraphic" in2="effect1_dropShadow_41_38" result="shape"/>
</filter>
<filter id="filter5_d_41_38" x="136.876" y="539.993" width="90.2643" height="68.7563" filterUnits="userSpaceOnUse" color-interpolation-filters="sRGB">
<feFlood flood-opacity="0" result="BackgroundImageFix"/>
<feColorMatrix in="SourceAlpha" type="matrix" values="0 0 0 0 0 0 0 0 0 0 0 0 0 0 0 0 0 0 127 0" result="hardAlpha"/>
<feOffset dx="-7.52137"/>
<feComposite in2="hardAlpha" operator="out"/>
<feColorMatrix type="matrix" values="0 0 0 0 0.976471 0 0 0 0 0.878431 0 0 0 0 0.490196 0 0 0 1 0"/>
<feBlend mode="normal" in2="BackgroundImageFix" result="effect1_dropShadow_41_38"/>
<feBlend mode="normal" in="SourceGraphic" in2="effect1_dropShadow_41_38" result="shape"/>
</filter>
<filter id="filter6_d_41_38" x="602.749" y="393.285" width="123.481" height="22.62" filterUnits="userSpaceOnUse" color-interpolation-filters="sRGB">
<feFlood flood-opacity="0" result="BackgroundImageFix"/>
<feColorMatrix in="SourceAlpha" type="matrix" values="0 0 0 0 0 0 0 0 0 0 0 0 0 0 0 0 0 0 127 0" result="hardAlpha"/>
<feOffset dx="-7.52137"/>
<feComposite in2="hardAlpha" operator="out"/>
<feColorMatrix type="matrix" values="0 0 0 0 0.976471 0 0 0 0 0.878431 0 0 0 0 0.490196 0 0 0 1 0"/>
<feBlend mode="normal" in2="BackgroundImageFix" result="effect1_dropShadow_41_38"/>
<feBlend mode="normal" in="SourceGraphic" in2="effect1_dropShadow_41_38" result="shape"/>
</filter>
<filter id="filter7_d_41_38" x="79.5765" y="394.455" width="95.4645" height="21.81" filterUnits="userSpaceOnUse" color-interpolation-filters="sRGB">
<feFlood flood-opacity="0" result="BackgroundImageFix"/>
<feColorMatrix in="SourceAlpha" type="matrix" values="0 0 0 0 0 0 0 0 0 0 0 0 0 0 0 0 0 0 127 0" result="hardAlpha"/>
<feOffset dx="-7.52137"/>
<feComposite in2="hardAlpha" operator="out"/>
<feColorMatrix type="matrix" values="0 0 0 0 0.976471 0 0 0 0 0.878431 0 0 0 0 0.490196 0 0 0 1 0"/>
<feBlend mode="normal" in2="BackgroundImageFix" result="effect1_dropShadow_41_38"/>
<feBlend mode="normal" in="SourceGraphic" in2="effect1_dropShadow_41_38" result="shape"/>
</filter>
<filter id="filter8_d_41_38" x="574.933" y="522.423" width="86.0529" height="62.9742" filterUnits="userSpaceOnUse" color-interpolation-filters="sRGB">
<feFlood flood-opacity="0" result="BackgroundImageFix"/>
<feColorMatrix in="SourceAlpha" type="matrix" values="0 0 0 0 0 0 0 0 0 0 0 0 0 0 0 0 0 0 127 0" result="hardAlpha"/>
<feOffset dx="-7.52137"/>
<feComposite in2="hardAlpha" operator="out"/>
<feColorMatrix type="matrix" values="0 0 0 0 0.976471 0 0 0 0 0.878431 0 0 0 0 0.490196 0 0 0 1 0"/>
<feBlend mode="normal" in2="BackgroundImageFix" result="effect1_dropShadow_41_38"/>
<feBlend mode="normal" in="SourceGraphic" in2="effect1_dropShadow_41_38" result="shape"/>
</filter>
<filter id="filter9_d_41_38" x="140.443" y="218.636" width="90.9663" height="66.2884" filterUnits="userSpaceOnUse" color-interpolation-filters="sRGB">
<feFlood flood-opacity="0" result="BackgroundImageFix"/>
<feColorMatrix in="SourceAlpha" type="matrix" values="0 0 0 0 0 0 0 0 0 0 0 0 0 0 0 0 0 0 127 0" result="hardAlpha"/>
<feOffset dx="-7.52137"/>
<feComposite in2="hardAlpha" operator="out"/>
<feColorMatrix type="matrix" values="0 0 0 0 0.976471 0 0 0 0 0.878431 0 0 0 0 0.490196 0 0 0 1 0"/>
<feBlend mode="normal" in2="BackgroundImageFix" result="effect1_dropShadow_41_38"/>
<feBlend mode="normal" in="SourceGraphic" in2="effect1_dropShadow_41_38" result="shape"/>
</filter>
<filter id="filter10_d_41_38" x="282.176" y="94.671" width="64.5035" height="105.961" filterUnits="userSpaceOnUse" color-interpolation-filters="sRGB">
<feFlood flood-opacity="0" result="BackgroundImageFix"/>
<feColorMatrix in="SourceAlpha" type="matrix" values="0 0 0 0 0 0 0 0 0 0 0 0 0 0 0 0 0 0 127 0" result="hardAlpha"/>
<feOffset dx="-7.52137"/>
<feComposite in2="hardAlpha" operator="out"/>
<feColorMatrix type="matrix" values="0 0 0 0 0.976471 0 0 0 0 0.878431 0 0 0 0 0.490196 0 0 0 1 0"/>
<feBlend mode="normal" in2="BackgroundImageFix" result="effect1_dropShadow_41_38"/>
<feBlend mode="normal" in="SourceGraphic" in2="effect1_dropShadow_41_38" result="shape"/>
</filter>
<filter id="filter11_d_41_38" x="459.768" y="614.107" width="65.4547" height="109.515" filterUnits="userSpaceOnUse" color-interpolation-filters="sRGB">
<feFlood flood-opacity="0" result="BackgroundImageFix"/>
<feColorMatrix in="SourceAlpha" type="matrix" values="0 0 0 0 0 0 0 0 0 0 0 0 0 0 0 0 0 0 127 0" result="hardAlpha"/>
<feOffset dx="-7.52137"/>
<feComposite in2="hardAlpha" operator="out"/>
<feColorMatrix type="matrix" values="0 0 0 0 0.976471 0 0 0 0 0.878431 0 0 0 0 0.490196 0 0 0 1 0"/>
<feBlend mode="normal" in2="BackgroundImageFix" result="effect1_dropShadow_41_38"/>
<feBlend mode="normal" in="SourceGraphic" in2="effect1_dropShadow_41_38" result="shape"/>
</filter>
<linearGradient id="paint0_linear_41_38" x1="402.396" y1="17.7446" x2="402.396" y2="833.307" gradientUnits="userSpaceOnUse">
<stop offset="0.2847" stop-color="#D41000"/>
<stop offset="1" stop-color="#870B00"/>
</linearGradient>
<radialGradient id="paint1_radial_41_38" cx="0" cy="0" r="1" gradientUnits="userSpaceOnUse" gradientTransform="translate(402.071 402.051) scale(386.514)">
<stop stop-color="#FFF3A6"/>
<stop offset="0.8092" stop-color="#EBC539"/>
</radialGradient>
<radialGradient id="paint2_radial_41_38" cx="0" cy="0" r="1" gradientUnits="userSpaceOnUse" gradientTransform="translate(402.131 402.107) scale(46.2144)">
<stop offset="0.3218" stop-color="#F9DF7B"/>
<stop offset="0.4008" stop-color="#F8DC76"/>
<stop offset="0.4911" stop-color="#F3D268"/>
<stop offset="0.587" stop-color="#ECC252"/>
<stop offset="0.6862" stop-color="#E2AC32"/>
<stop offset="0.7649" stop-color="#D99713"/>
<stop offset="0.9221" stop-color="#EFC95C"/>
<stop offset="1" stop-color="#F9DF7B"/>
</radialGradient>
<radialGradient id="paint3_radial_41_38" cx="0" cy="0" r="1" gradientUnits="userSpaceOnUse" gradientTransform="translate(924.526 -95.397) rotate(-74) scale(1255.57 527.412)">
<stop offset="0.5905" stop-color="#002233"/>
<stop offset="0.7543" stop-color="#001F2D"/>
<stop offset="0.9636" stop-color="#00161E"/>
<stop offset="1" stop-color="#00141A"/>
</radialGradient>
<radialGradient id="paint4_radial_41_38" cx="0" cy="0" r="1" gradientUnits="userSpaceOnUse" gradientTransform="translate(-101.403 814.864) rotate(110) scale(995.405 527.412)">
<stop offset="0.5905" stop-color="#002233"/>
<stop offset="0.7543" stop-color="#001F2D"/>
<stop offset="0.9636" stop-color="#00161E"/>
<stop offset="1" stop-color="#00141A"/>
</radialGradient>
<radialGradient id="paint5_radial_41_38" cx="0" cy="0" r="1" gradientUnits="userSpaceOnUse" gradientTransform="translate(1119.17 337.863) rotate(-34) scale(1323.44 527.412)">
<stop offset="0.5905" stop-color="#002233"/>
<stop offset="0.7543" stop-color="#001F2D"/>
<stop offset="0.9636" stop-color="#00161E"/>
<stop offset="1" stop-color="#00141A"/>
</radialGradient>
<radialGradient id="paint6_radial_41_38" cx="0" cy="0" r="1" gradientUnits="userSpaceOnUse" gradientTransform="translate(-245.187 452.451) rotate(144) scale(1006.72 527.412)">
<stop offset="0.5905" stop-color="#002233"/>
<stop offset="0.7543" stop-color="#001F2D"/>
<stop offset="0.9636" stop-color="#00161E"/>
<stop offset="1" stop-color="#00141A"/>
</radialGradient>
<radialGradient id="paint7_radial_41_38" cx="0" cy="0" r="1" gradientUnits="userSpaceOnUse" gradientTransform="translate(1038.54 756.509) scale(1346.06 527.412)">
<stop offset="0.5905" stop-color="#002233"/>
<stop offset="0.7543" stop-color="#001F2D"/>
<stop offset="0.9636" stop-color="#00161E"/>
<stop offset="1" stop-color="#00141A"/>
</radialGradient>
<radialGradient id="paint8_radial_41_38" cx="0" cy="0" r="1" gradientUnits="userSpaceOnUse" gradientTransform="translate(-155.082 53.8206) rotate(-180) scale(1040.65 527.412)">
<stop offset="0.5905" stop-color="#002233"/>
<stop offset="0.7543" stop-color="#001F2D"/>
<stop offset="0.9636" stop-color="#00161E"/>
<stop offset="1" stop-color="#00141A"/>
</radialGradient>
<radialGradient id="paint9_radial_41_38" cx="0" cy="0" r="1" gradientUnits="userSpaceOnUse" gradientTransform="translate(639.488 990.127) rotate(34) scale(938.848 527.412)">
<stop offset="0.5905" stop-color="#002233"/>
<stop offset="0.7543" stop-color="#001F2D"/>
<stop offset="0.9636" stop-color="#00161E"/>
<stop offset="1" stop-color="#00141A"/>
</radialGradient>
<radialGradient id="paint10_radial_41_38" cx="0" cy="0" r="1" gradientUnits="userSpaceOnUse" gradientTransform="translate(152.178 -197.752) rotate(-146) scale(1029.34 527.412)">
<stop offset="0.5905" stop-color="#002233"/>
<stop offset="0.7543" stop-color="#001F2D"/>
<stop offset="0.9636" stop-color="#00161E"/>
<stop offset="1" stop-color="#00141A"/>
</radialGradient>
<radialGradient id="paint11_radial_41_38" cx="0" cy="0" r="1" gradientUnits="userSpaceOnUse" gradientTransform="translate(533.905 -288.644) rotate(-110) scale(1221.63 527.412)">
<stop offset="0.5905" stop-color="#002233"/>
<stop offset="0.7543" stop-color="#001F2D"/>
<stop offset="0.9636" stop-color="#00161E"/>
<stop offset="1" stop-color="#00141A"/>
</radialGradient>
<radialGradient id="paint12_radial_41_38" cx="0" cy="0" r="1" gradientUnits="userSpaceOnUse" gradientTransform="translate(284.022 1114.03) rotate(70) scale(1255.57 527.412)">
<stop offset="0.5905" stop-color="#002233"/>
<stop offset="0.7543" stop-color="#001F2D"/>
<stop offset="0.9636" stop-color="#00161E"/>
<stop offset="1" stop-color="#00141A"/>
</radialGradient>
<radialGradient id="paint13_radial_41_38" cx="0" cy="0" r="1" gradientUnits="userSpaceOnUse" gradientTransform="translate(-119.243 137.342) rotate(-90) scale(956.689 634.811)">
<stop offset="0.477" stop-color="#FFF3A6"/>
<stop offset="0.7809" stop-color="#F9DF7B"/>
<stop offset="0.8092" stop-color="#F6DB77"/>
<stop offset="0.8397" stop-color="#EECF6A"/>
<stop offset="0.8712" stop-color="#E0BC54"/>
<stop offset="0.9034" stop-color="#CDA036"/>
<stop offset="0.9356" stop-color="#B57E10"/>
<stop offset="0.9792" stop-color="#E5C35C"/>
<stop offset="1" stop-color="#F9DF7B"/>
</radialGradient>
<radialGradient id="paint14_radial_41_38" cx="0" cy="0" r="1" gradientUnits="userSpaceOnUse" gradientTransform="translate(931.047 666.798) rotate(90) scale(1037.37 634.811)">
<stop offset="0.477" stop-color="#FFF3A6"/>
<stop offset="0.7809" stop-color="#F9DF7B"/>
<stop offset="0.8092" stop-color="#F6DB77"/>
<stop offset="0.8397" stop-color="#EECF6A"/>
<stop offset="0.8712" stop-color="#E0BC54"/>
<stop offset="0.9034" stop-color="#CDA036"/>
<stop offset="0.9356" stop-color="#B57E10"/>
<stop offset="0.9792" stop-color="#E5C35C"/>
<stop offset="1" stop-color="#F9DF7B"/>
</radialGradient>
<radialGradient id="paint15_radial_41_38" cx="0" cy="0" r="1" gradientUnits="userSpaceOnUse" gradientTransform="translate(129.937 -106.889) rotate(-54) scale(1014.32 634.811)">
<stop offset="0.477" stop-color="#FFF3A6"/>
<stop offset="0.7809" stop-color="#F9DF7B"/>
<stop offset="0.8092" stop-color="#F6DB77"/>
<stop offset="0.8397" stop-color="#EECF6A"/>
<stop offset="0.8712" stop-color="#E0BC54"/>
<stop offset="0.9034" stop-color="#CDA036"/>
<stop offset="0.9356" stop-color="#B57E10"/>
<stop offset="0.9792" stop-color="#E5C35C"/>
<stop offset="1" stop-color="#F9DF7B"/>
</radialGradient>
<radialGradient id="paint16_radial_41_38" cx="0" cy="0" r="1" gradientUnits="userSpaceOnUse" gradientTransform="translate(655.609 953.439) rotate(128) scale(1037.37 634.811)">
<stop offset="0.477" stop-color="#FFF3A6"/>
<stop offset="0.7809" stop-color="#F9DF7B"/>
<stop offset="0.8092" stop-color="#F6DB77"/>
<stop offset="0.8397" stop-color="#EECF6A"/>
<stop offset="0.8712" stop-color="#E0BC54"/>
<stop offset="0.9034" stop-color="#CDA036"/>
<stop offset="0.9356" stop-color="#B57E10"/>
<stop offset="0.9792" stop-color="#E5C35C"/>
<stop offset="1" stop-color="#F9DF7B"/>
</radialGradient>
<radialGradient id="paint17_radial_41_38" cx="0" cy="0" r="1" gradientUnits="userSpaceOnUse" gradientTransform="translate(484.621 -173.101) rotate(-17) scale(1025.85 634.811)">
<stop offset="0.477" stop-color="#FFF3A6"/>
<stop offset="0.7809" stop-color="#F9DF7B"/>
<stop offset="0.8092" stop-color="#F6DB77"/>
<stop offset="0.8397" stop-color="#EECF6A"/>
<stop offset="0.8712" stop-color="#E0BC54"/>
<stop offset="0.9034" stop-color="#CDA036"/>
<stop offset="0.9356" stop-color="#B57E10"/>
<stop offset="0.9792" stop-color="#E5C35C"/>
<stop offset="1" stop-color="#F9DF7B"/>
</radialGradient>
<radialGradient id="paint18_radial_41_38" cx="0" cy="0" r="1" gradientUnits="userSpaceOnUse" gradientTransform="translate(320.194 990.971) rotate(160) scale(1175.69 634.811)">
<stop offset="0.477" stop-color="#FFF3A6"/>
<stop offset="0.7809" stop-color="#F9DF7B"/>
<stop offset="0.8092" stop-color="#F6DB77"/>
<stop offset="0.8397" stop-color="#EECF6A"/>
<stop offset="0.8712" stop-color="#E0BC54"/>
<stop offset="0.9034" stop-color="#CDA036"/>
<stop offset="0.9356" stop-color="#B57E10"/>
<stop offset="0.9792" stop-color="#E5C35C"/>
<stop offset="1" stop-color="#F9DF7B"/>
</radialGradient>
<radialGradient id="paint19_radial_41_38" cx="0" cy="0" r="1" gradientUnits="userSpaceOnUse" gradientTransform="translate(800.664 -22.0017) rotate(18) scale(1060.43 634.811)">
<stop offset="0.477" stop-color="#FFF3A6"/>
<stop offset="0.7809" stop-color="#F9DF7B"/>
<stop offset="0.8092" stop-color="#F6DB77"/>
<stop offset="0.8397" stop-color="#EECF6A"/>
<stop offset="0.8712" stop-color="#E0BC54"/>
<stop offset="0.9034" stop-color="#CDA036"/>
<stop offset="0.9356" stop-color="#B57E10"/>
<stop offset="0.9792" stop-color="#E5C35C"/>
<stop offset="1" stop-color="#F9DF7B"/>
</radialGradient>
<radialGradient id="paint20_radial_41_38" cx="0" cy="0" r="1" gradientUnits="userSpaceOnUse" gradientTransform="translate(-25.0677 820.845) rotate(-160) scale(1175.69 634.811)">
<stop offset="0.477" stop-color="#FFF3A6"/>
<stop offset="0.7809" stop-color="#F9DF7B"/>
<stop offset="0.8092" stop-color="#F6DB77"/>
<stop offset="0.8397" stop-color="#EECF6A"/>
<stop offset="0.8712" stop-color="#E0BC54"/>
<stop offset="0.9034" stop-color="#CDA036"/>
<stop offset="0.9356" stop-color="#B57E10"/>
<stop offset="0.9792" stop-color="#E5C35C"/>
<stop offset="1" stop-color="#F9DF7B"/>
</radialGradient>
<radialGradient id="paint21_radial_41_38" cx="0" cy="0" r="1" gradientUnits="userSpaceOnUse" gradientTransform="translate(-153.804 535.874) rotate(-130) scale(1267.9 634.811)">
<stop offset="0.477" stop-color="#FFF3A6"/>
<stop offset="0.7809" stop-color="#F9DF7B"/>
<stop offset="0.8092" stop-color="#F6DB77"/>
<stop offset="0.8397" stop-color="#EECF6A"/>
<stop offset="0.8712" stop-color="#E0BC54"/>
<stop offset="0.9034" stop-color="#CDA036"/>
<stop offset="0.9356" stop-color="#B57E10"/>
<stop offset="0.9792" stop-color="#E5C35C"/>
<stop offset="1" stop-color="#F9DF7B"/>
</radialGradient>
<radialGradient id="paint22_radial_41_38" cx="0" cy="0" r="1" gradientUnits="userSpaceOnUse" gradientTransform="translate(954.153 265.592) rotate(50) scale(1048.9 634.811)">
<stop offset="0.477" stop-color="#FFF3A6"/>
<stop offset="0.7809" stop-color="#F9DF7B"/>
<stop offset="0.8092" stop-color="#F6DB77"/>
<stop offset="0.8397" stop-color="#EECF6A"/>
<stop offset="0.8712" stop-color="#E0BC54"/>
<stop offset="0.9034" stop-color="#CDA036"/>
<stop offset="0.9356" stop-color="#B57E10"/>
<stop offset="0.9792" stop-color="#E5C35C"/>
<stop offset="1" stop-color="#F9DF7B"/>
</radialGradient>
</defs>
</svg>
