<svg width="33" height="36" viewBox="0 0 33 36" fill="none" xmlns="http://www.w3.org/2000/svg">
<path d="M3.11298 30.9491C3.11298 33.6725 4.74773 35.0913 7.53346 35.0913H15.3736V20.4471H3.11298V30.9491ZM18.1092 35.0913H25.9661C28.7351 35.0913 30.3865 33.6725 30.3865 30.9491V20.4471H18.1092V35.0913ZM0.727585 16.2724C0.727585 18.0173 1.72845 18.7022 3.53001 18.7022H15.3736V9.87979H12.7713C10.1524 9.87979 8.61774 8.26535 8.61774 6.47151C8.61774 4.67768 9.95222 3.634 11.7871 3.634C13.7722 3.634 15.3736 5.10168 15.3736 7.51519V9.87979H18.1092V7.51519C18.1092 5.10168 19.7106 3.634 21.6957 3.634C23.5306 3.634 24.8651 4.67768 24.8651 6.47151C24.8651 8.26535 23.3471 9.87979 20.7116 9.87979H18.1092V18.7022H29.9696C31.7711 18.7022 32.7719 18.0173 32.7719 16.2724V12.3096C32.7719 10.5647 31.7711 9.87979 29.9696 9.87979H26.0995C27.067 8.98288 27.6509 7.75982 27.6509 6.32474C27.6509 3.16109 25.0986 0.910645 21.8626 0.910645C19.5271 0.910645 17.5922 2.16633 16.7414 4.35154C15.8906 2.16633 13.9724 0.910645 11.6203 0.910645C8.40087 0.910645 5.832 3.16109 5.832 6.32474C5.832 7.75982 6.41583 8.98288 7.40001 9.87979H3.53001C1.81186 9.87979 0.727585 10.5647 0.727585 12.3096V16.2724Z" fill="black"/>
</svg>
