<?xml version="1.0" encoding="UTF-8"?>
<svg viewBox="0 0 82 60" xmlns="http://www.w3.org/2000/svg">
 <defs>
  <linearGradient id="a" x2="0" y1="18.495" y2="47.547" gradientUnits="userSpaceOnUse">
   <stop stop-color="#fff" offset="0"/>
   <stop stop-color="#fff" stop-opacity="0" offset="1"/>
  </linearGradient>
 </defs>
 <path transform="matrix(.62849 0 0 .62849 -370.66 -541.02)" d="m690.1 908.55c0 19.386-15.715 35.101-35.101 35.101s-35.101-15.715-35.101-35.101 15.715-35.101 35.101-35.101 35.101 15.715 35.101 35.101z" fill="#73d216" fill-rule="evenodd"/>
 <g transform="translate(-54.188 -40.253)" fill="#409000" fill-rule="evenodd">
  <path transform="rotate(90)" d="m69.005-106.64h3.0852v6.2517h-3.0852z"/>
  <path transform="rotate(-90)" d="m-72.09 83.74h3.0852v6.2517h-3.0852z"/>
  <path d="m93.645 59.079h3.0852v6.2517h-3.0852z"/>
  <path transform="scale(-1)" d="m-96.73-82.016h3.0852v6.2517h-3.0852z"/>
  <path transform="rotate(45)" d="m115.65-28.871h3.0852v6.2517h-3.0852z"/>
  <path transform="matrix(-.70711 -.70711 .70711 -.70711 0 0)" d="m-118.74 5.9754h3.0852v6.2517h-3.0852z"/>
  <path transform="matrix(.70711 -.70711 .70711 .70711 0 0)" d="m15.881 105.72h3.0852v6.2517h-3.0852z"/>
  <path transform="matrix(-.70711 .70711 -.70711 -.70711 0 0)" d="m-18.966-128.66h3.0852v6.2517h-3.0852z"/>
 </g>
 <g transform="translate(-54.188 -40.842)" fill="#fff" fill-rule="evenodd">
  <path transform="rotate(90)" d="m69.005-106.64h3.0852v6.2517h-3.0852z"/>
  <path transform="rotate(-90)" d="m-72.09 83.74h3.0852v6.2517h-3.0852z"/>
  <path d="m93.645 59.079h3.0852v6.2517h-3.0852z"/>
  <path transform="scale(-1)" d="m-96.73-82.016h3.0852v6.2517h-3.0852z"/>
  <path transform="rotate(45)" d="m115.65-28.871h3.0852v6.2517h-3.0852z"/>
  <path transform="matrix(-.70711 -.70711 .70711 -.70711 0 0)" d="m-118.74 5.9754h3.0852v6.2517h-3.0852z"/>
  <path transform="matrix(.70711 -.70711 .70711 .70711 0 0)" d="m15.881 105.72h3.0852v6.2517h-3.0852z"/>
  <path transform="matrix(-.70711 .70711 -.70711 -.70711 0 0)" d="m-18.966-128.66h3.0852v6.2517h-3.0852z"/>
 </g>
 <path transform="matrix(.70156 0 0 .73625 -48.237 -3.6149)" d="m149.63 34.779c0 8.9933-10.042 16.284-22.429 16.284s-22.429-7.2905-22.429-16.284 10.042-16.284 22.429-16.284 22.429 7.2905 22.429 16.284z" fill="url(#a)" fill-rule="evenodd" opacity=".75"/>
</svg>
