<svg width="1080" height="2148" viewBox="0 0 1080 2148" fill="none" xmlns="http://www.w3.org/2000/svg">
<g clip-path="url(#clip0_13_2)">
<rect width="1080" height="2148" fill="#0D0D12"/>
<rect opacity="0.4" x="-585.988" y="-732.613" width="2886.79" height="1443.39" fill="url(#paint0_radial_13_2)"/>
<mask id="mask0_13_2" style="mask-type:alpha" maskUnits="userSpaceOnUse" x="-499" y="-1056" width="2226" height="2186">
<rect x="404.046" y="-1055.37" width="1705.38" height="1429.63" transform="rotate(39.1308 404.046 -1055.37)" fill="url(#paint1_radial_13_2)"/>
</mask>
<g mask="url(#mask0_13_2)">
</g>
<g clip-path="url(#clip1_13_2)">
<g opacity="0.7">
<path opacity="0.11" d="M73.2061 58.9379C74.4679 59.0738 75.601 58.1611 75.7369 56.8993C75.8729 55.6375 74.9602 54.5044 73.6983 54.3684C72.4365 54.2325 71.3034 55.1452 71.1674 56.407C71.0315 57.6688 71.9442 58.8019 73.2061 58.9379Z" fill="white"/>
<path d="M79.2688 72.294C80.2149 72.3959 81.0645 71.7116 81.1664 70.7655C81.2683 69.8194 80.584 68.9698 79.6379 68.8679C78.6918 68.766 77.8422 69.4503 77.7403 70.3964C77.6383 71.3425 78.3227 72.1921 79.2688 72.294Z" fill="white"/>
<path d="M119.542 52.3784C120.488 52.4803 121.337 51.796 121.439 50.8499C121.541 49.9038 120.857 49.0541 119.911 48.9522C118.965 48.8503 118.115 49.5347 118.013 50.4808C117.911 51.4269 118.596 52.2765 119.542 52.3784Z" fill="white"/>
<path d="M22.7224 39.6331C23.6685 39.735 24.5181 39.0506 24.62 38.1044C24.7219 37.1583 24.0376 36.3088 23.0915 36.2069C22.1454 36.1049 21.2958 36.7892 21.1939 37.7353C21.0919 38.6815 21.7763 39.5311 22.7224 39.6331Z" fill="white"/>
<path d="M64.9692 103.095C65.5996 103.163 66.1656 102.707 66.2336 102.077C66.3015 101.446 65.8455 100.88 65.2151 100.812C64.5847 100.744 64.0187 101.2 63.9508 101.831C63.8828 102.461 64.3388 103.027 64.9692 103.095Z" fill="white"/>
<path d="M313.928 129.926C314.559 129.993 315.125 129.537 315.193 128.907C315.26 128.277 314.805 127.711 314.174 127.643C313.544 127.575 312.978 128.031 312.91 128.661C312.842 129.292 313.298 129.858 313.928 129.926Z" fill="white"/>
<path d="M445.039 81.6646C445.669 81.7325 446.235 81.2765 446.303 80.6461C446.371 80.0157 445.915 79.4497 445.284 79.3818C444.654 79.3138 444.088 79.7698 444.02 80.4002C443.952 81.0306 444.408 81.5967 445.039 81.6646Z" fill="white"/>
<path d="M480.6 169.828C481.23 169.896 481.797 169.44 481.864 168.81C481.932 168.179 481.476 167.613 480.846 167.546C480.216 167.478 479.65 167.934 479.582 168.564C479.514 169.194 479.97 169.76 480.6 169.828Z" fill="white"/>
<path opacity="0.11" d="M58.2709 143.965C58.9013 144.033 59.4674 143.577 59.5353 142.947C59.6032 142.316 59.1472 141.75 58.5169 141.682C57.8865 141.614 57.3204 142.07 57.2525 142.701C57.1846 143.331 57.6406 143.897 58.2709 143.965Z" fill="white"/>
<path opacity="0.11" d="M278.746 156.161C279.376 156.228 279.942 155.772 280.01 155.142C280.078 154.512 279.622 153.946 278.992 153.878C278.361 153.81 277.795 154.266 277.727 154.896C277.659 155.526 278.115 156.093 278.746 156.161Z" fill="white"/>
<path opacity="0.3" d="M30.2929 6.95153C30.9233 7.01945 31.4894 6.5634 31.5573 5.93303C31.6252 5.30265 31.1693 4.73662 30.5389 4.66871C29.9085 4.6008 29.3424 5.05672 29.2745 5.6871C29.2066 6.31748 29.6626 6.88362 30.2929 6.95153Z" fill="white"/>
<path opacity="0.3" d="M487.162 87.3616C487.792 87.4295 488.358 86.9736 488.426 86.3432C488.494 85.7128 488.038 85.1467 487.408 85.0788C486.777 85.0109 486.211 85.4669 486.143 86.0973C486.075 86.7276 486.531 87.2937 487.162 87.3616Z" fill="white"/>
<path opacity="0.11" d="M308.351 20.7298C308.981 20.7977 309.547 20.3418 309.615 19.7114C309.683 19.081 309.227 18.515 308.597 18.4471C307.967 18.3792 307.401 18.8351 307.333 19.4654C307.265 20.0958 307.721 20.6619 308.351 20.7298Z" fill="white"/>
<path opacity="0.11" d="M451.038 133.137C451.668 133.205 452.235 132.749 452.302 132.119C452.37 131.488 451.914 130.922 451.284 130.854C450.654 130.786 450.088 131.242 450.02 131.873C449.952 132.503 450.408 133.069 451.038 133.137Z" fill="white"/>
<path opacity="0.3" d="M161.012 112.292C162.274 112.428 163.407 111.515 163.543 110.253C163.679 108.991 162.766 107.858 161.505 107.722C160.243 107.586 159.11 108.499 158.974 109.761C158.838 111.023 159.75 112.156 161.012 112.292Z" fill="white"/>
<path opacity="0.11" d="M232.085 85.2947C233.347 85.4307 234.48 84.518 234.616 83.2561C234.752 81.9943 233.839 80.8612 232.577 80.7253C231.315 80.5893 230.182 81.502 230.046 82.7638C229.91 84.0257 230.823 85.1588 232.085 85.2947Z" fill="white"/>
<path d="M235.822 45.2704C236.768 45.3723 237.618 44.6879 237.72 43.7418C237.822 42.7957 237.137 41.9461 236.191 41.8442C235.245 41.7423 234.395 42.4266 234.293 43.3727C234.192 44.3188 234.876 45.1685 235.822 45.2704Z" fill="white"/>
<path d="M144.115 156.684C145.062 156.785 145.911 156.101 146.013 155.155C146.115 154.209 145.431 153.359 144.485 153.257C143.538 153.156 142.689 153.84 142.587 154.786C142.485 155.732 143.169 156.582 144.115 156.684Z" fill="white"/>
<path d="M520.773 220.366C521.719 220.468 522.569 219.783 522.671 218.837C522.773 217.891 522.088 217.041 521.142 216.94C520.196 216.838 519.347 217.522 519.245 218.468C519.143 219.414 519.827 220.264 520.773 220.366Z" fill="white"/>
<path d="M178.561 62.2069C179.507 62.3089 180.356 61.6246 180.458 60.6784C180.56 59.7323 179.876 58.8827 178.93 58.7807C177.984 58.6788 177.134 59.3632 177.032 60.3093C176.93 61.2555 177.615 62.105 178.561 62.2069Z" fill="white"/>
<path d="M253.234 205.409C254.18 205.511 255.03 204.827 255.132 203.88C255.234 202.934 254.549 202.085 253.603 201.983C252.657 201.881 251.808 202.565 251.706 203.511C251.604 204.457 252.288 205.307 253.234 205.409Z" fill="white"/>
<path d="M564.206 160.351C565.152 160.453 566.001 159.768 566.103 158.822C566.205 157.876 565.521 157.027 564.575 156.925C563.629 156.823 562.779 157.507 562.677 158.453C562.575 159.399 563.26 160.249 564.206 160.351Z" fill="white"/>
<path d="M598.378 100.499C599.324 100.601 600.173 99.917 600.275 98.9709C600.377 98.0248 599.693 97.1751 598.747 97.0732C597.801 96.9713 596.951 97.6557 596.849 98.6018C596.747 99.5479 597.432 100.397 598.378 100.499Z" fill="white"/>
<path opacity="0.3" d="M329.917 56.5658C331.179 56.7017 332.312 55.789 332.448 54.5271C332.584 53.2653 331.671 52.1322 330.409 51.9963C329.147 51.8603 328.014 52.773 327.878 54.0348C327.742 55.2967 328.655 56.4298 329.917 56.5658Z" fill="white"/>
<path d="M386.015 88.019C386.961 88.1209 387.811 87.4365 387.913 86.4904C388.015 85.5443 387.331 84.6947 386.384 84.5928C385.438 84.4908 384.589 85.1752 384.487 86.1213C384.385 87.0674 385.069 87.917 386.015 88.019Z" fill="white"/>
<path opacity="0.3" d="M446.208 49.4518C447.47 49.5877 448.603 48.675 448.739 47.4132C448.875 46.1514 447.962 45.0183 446.7 44.8823C445.438 44.7464 444.305 45.6591 444.169 46.9209C444.033 48.1828 444.946 49.3158 446.208 49.4518Z" fill="white"/>
<path opacity="0.3" d="M550.516 142.705C551.777 142.841 552.911 141.929 553.047 140.667C553.182 139.405 552.27 138.272 551.008 138.136C549.746 138 548.613 138.913 548.477 140.175C548.341 141.436 549.254 142.57 550.516 142.705Z" fill="white"/>
<path opacity="0.3" d="M416.664 130.594C417.926 130.73 419.059 129.818 419.195 128.556C419.331 127.294 418.418 126.161 417.156 126.025C415.895 125.889 414.761 126.802 414.625 128.063C414.49 129.325 415.402 130.458 416.664 130.594Z" fill="white"/>
<path opacity="0.11" d="M507.394 103.41C508.655 103.546 509.789 102.633 509.924 101.371C510.06 100.11 509.148 98.9764 507.886 98.8404C506.624 98.7045 505.491 99.6173 505.355 100.879C505.219 102.141 506.132 103.274 507.394 103.41Z" fill="white"/>
<path d="M1078.64 40.5265C1079.27 40.5944 1079.83 40.1384 1079.9 39.508C1079.97 38.8777 1079.51 38.3116 1078.88 38.2437C1078.25 38.1758 1077.69 38.6317 1077.62 39.2621C1077.55 39.8925 1078.01 40.4586 1078.64 40.5265Z" fill="white"/>
<path opacity="0.11" d="M669.346 1.06118C669.977 1.1291 670.543 0.67311 670.61 0.0427313C670.678 -0.587647 670.222 -1.15373 669.592 -1.22164C668.962 -1.28955 668.396 -0.833571 668.328 -0.203192C668.26 0.427186 668.716 0.993274 669.346 1.06118Z" fill="white"/>
<path opacity="0.11" d="M1071.93 81.3968C1072.56 81.4647 1073.13 81.0087 1073.19 80.3783C1073.26 79.7479 1072.81 79.1819 1072.18 79.114C1071.55 79.046 1070.98 79.502 1070.91 80.1324C1070.84 80.7628 1071.3 81.3288 1071.93 81.3968Z" fill="white"/>
<path d="M937.375 11.4522C938.005 11.5202 938.571 11.0642 938.639 10.4338C938.707 9.80341 938.251 9.23733 937.62 9.16942C936.99 9.10151 936.424 9.55748 936.356 10.1879C936.288 10.8182 936.744 11.3843 937.375 11.4522Z" fill="white"/>
<path opacity="0.3" d="M857.444 2.83794C858.074 2.90585 858.64 2.44993 858.708 1.81955C858.776 1.18917 858.32 0.62309 857.69 0.555179C857.059 0.487268 856.493 0.943254 856.425 1.57363C856.357 2.20401 856.813 2.77003 857.444 2.83794Z" fill="white"/>
<path opacity="0.3" d="M954.458 35.2431C955.089 35.311 955.655 34.855 955.723 34.2246C955.791 33.5942 955.335 33.0282 954.704 32.9603C954.074 32.8924 953.508 33.3483 953.44 33.9787C953.372 34.6091 953.828 35.1752 954.458 35.2431Z" fill="white"/>
<path opacity="0.3" d="M815.05 31.7696C815.681 31.8375 816.247 31.3815 816.315 30.7511C816.383 30.1208 815.927 29.5547 815.296 29.4868C814.666 29.4189 814.1 29.8748 814.032 30.5052C813.964 31.1356 814.42 31.7017 815.05 31.7696Z" fill="white"/>
<path d="M795.414 58.5366C796.36 58.6385 797.209 57.9541 797.311 57.008C797.413 56.0619 796.729 55.2123 795.783 55.1104C794.837 55.0085 793.987 55.6928 793.885 56.6389C793.783 57.585 794.468 58.4346 795.414 58.5366Z" fill="white"/>
<path d="M646.376 15.9191C647.322 16.0211 648.171 15.3367 648.273 14.3906C648.375 13.4445 647.691 12.5949 646.745 12.493C645.799 12.3911 644.949 13.0754 644.847 14.0215C644.745 14.9676 645.43 15.8172 646.376 15.9191Z" fill="white"/>
<path d="M984.423 62.7306C985.369 62.8325 986.219 62.1481 986.321 61.202C986.423 60.2559 985.738 59.4063 984.792 59.3044C983.846 59.2025 982.996 59.8868 982.895 60.8329C982.793 61.779 983.477 62.6286 984.423 62.7306Z" fill="white"/>
<path opacity="0.3" d="M772.772 16.8206C774.034 16.9566 775.167 16.0439 775.303 14.782C775.439 13.5202 774.527 12.3871 773.265 12.2511C772.003 12.1152 770.87 13.0279 770.734 14.2898C770.598 15.5516 771.511 16.6847 772.772 16.8206Z" fill="white"/>
</g>
</g>
<rect width="1080" height="2148" fill="url(#paint2_linear_13_2)"/>
</g>
<defs>
<radialGradient id="paint0_radial_13_2" cx="0" cy="0" r="1" gradientUnits="userSpaceOnUse" gradientTransform="translate(857.406 -10.9156) rotate(26.5651) scale(1613.76 1291.01)">
<stop stop-color="#7877C6"/>
<stop offset="0.7" stop-opacity="0"/>
</radialGradient>
<radialGradient id="paint1_radial_13_2" cx="0" cy="0" r="1" gradientUnits="userSpaceOnUse" gradientTransform="translate(1256.74 -340.559) rotate(39.9732) scale(1112.67 1095.59)">
<stop/>
<stop offset="1" stop-opacity="0"/>
</radialGradient>
<linearGradient id="paint2_linear_13_2" x1="605.047" y1="2148" x2="605.047" y2="761.442" gradientUnits="userSpaceOnUse">
<stop stop-color="#0D0D12"/>
<stop offset="0.591955" stop-color="#0D0D12"/>
<stop offset="0.842079" stop-color="#0D0D12" stop-opacity="0"/>
</linearGradient>
<clipPath id="clip0_13_2">
<rect width="1080" height="2148" fill="white"/>
</clipPath>
<clipPath id="clip1_13_2">
<rect width="1705.38" height="1429.63" fill="white" transform="translate(404.046 -1055.37) rotate(39.1308)"/>
</clipPath>
</defs>
</svg>
