<svg width="19" height="20" viewBox="0 0 19 20" fill="none" xmlns="http://www.w3.org/2000/svg">
<path opacity="0.5" d="M9 19.02C7.36 19.02 5.84 18.62 4.44 17.82C3.08 17.02 2 15.94 1.2 14.58C0.4 13.18 0 11.66 0 10.02C0 8.33996 0.4 6.81996 1.2 5.45996C2 4.05996 3.08 2.95996 4.44 2.15996C5.84 1.35996 7.36 0.959961 9 0.959961C10.68 0.959961 12.2 1.35996 13.56 2.15996C14.96 2.95996 16.06 4.05996 16.86 5.45996C17.66 6.81996 18.06 8.33996 18.06 10.02C18.06 11.66 17.66 13.18 16.86 14.58C16.06 15.94 14.96 17.02 13.56 17.82C12.2 18.62 10.68 19.02 9 19.02Z" fill="white"/>
</svg>
