<svg width="88" height="100" viewBox="0 0 88 100" fill="none" xmlns="http://www.w3.org/2000/svg">
<path fill-rule="evenodd" clip-rule="evenodd" d="M50.1478 93.0766L46.9274 98.3334C44.5853 102.13 32.5821 99.2096 19.7006 91.9085C6.81917 84.6073 -1.96365 75.2619 0.378436 71.4653L3.5988 66.2085C19.1151 74.9698 34.6314 84.0232 50.1478 93.0766Z" fill="url(#paint0_linear_218_7464)"/>
<g style="mix-blend-mode:multiply" opacity="0.5">
<path fill-rule="evenodd" clip-rule="evenodd" d="M0.963997 75.846L4.18436 70.5892C3.30608 68.8369 3.01332 67.0846 3.59884 66.2085L0.378475 71.4653C-0.207046 72.6335 0.0857147 74.0937 0.963997 75.846Z" fill="url(#paint1_linear_218_7464)"/>
</g>
<g style="mix-blend-mode:screen">
<path fill-rule="evenodd" clip-rule="evenodd" d="M9.74686 77.0142L6.52649 82.271C8.86858 84.6073 11.7962 86.6516 15.3093 88.988L18.5297 83.7312C15.0166 81.3948 12.0889 79.0585 9.74686 77.0142Z" fill="url(#paint2_linear_218_7464)"/>
</g>
<g style="mix-blend-mode:screen" opacity="0.5">
<path fill-rule="evenodd" clip-rule="evenodd" d="M33.1676 91.6162L29.9472 96.873C32.5821 98.0412 35.2169 98.9173 37.559 99.2094L40.7794 93.9526C38.4373 93.3685 36.0952 92.4923 33.1676 91.6162Z" fill="url(#paint3_linear_218_7464)"/>
</g>
<g style="mix-blend-mode:multiply" opacity="0.5">
<path fill-rule="evenodd" clip-rule="evenodd" d="M44.5851 94.5369L41.3647 99.7937C44.2924 100.086 46.3417 99.5017 47.22 98.3335L50.4403 93.0767C49.562 94.2448 47.5127 94.8289 44.5851 94.5369Z" fill="url(#paint4_linear_218_7464)"/>
</g>
<path fill-rule="evenodd" clip-rule="evenodd" d="M30.5329 72.9259C43.4144 80.2271 51.9044 89.2805 49.5623 93.077C47.2203 96.8736 35.2171 93.9532 22.3356 86.6521C9.45412 79.3509 0.964055 70.2975 3.30614 66.5009C5.64823 62.7044 17.9442 65.6248 30.5329 72.9259Z" fill="#E26F80"/>
<path fill-rule="evenodd" clip-rule="evenodd" d="M30.826 72.6335C43.7075 79.9346 52.4903 89.28 50.1482 93.0766C47.8061 96.8732 35.8029 93.9527 22.9215 86.6516C10.04 79.3505 1.25718 70.0051 3.59926 66.2085C5.64859 62.4119 17.9445 65.3323 30.826 72.6335Z" fill="url(#paint5_radial_218_7464)"/>
<path fill-rule="evenodd" clip-rule="evenodd" d="M7.11253 67.669C6.81977 68.8372 7.11253 70.0054 7.69805 71.1735C8.57634 72.3417 9.45462 73.2179 10.3329 74.094C14.1388 77.8906 19.1157 81.3951 24.0927 84.3156C28.7768 86.944 34.3393 89.5724 39.609 91.0326C40.78 91.3246 42.2438 91.6167 43.7076 91.9087C45.4642 92.2008 47.2208 91.3246 48.099 89.5724L51.0266 84.3156C53.6615 79.6428 54.247 74.6781 53.3687 69.4213C53.3687 68.8372 53.076 68.2531 53.076 67.961V67.377L7.11253 67.669Z" fill="url(#paint6_radial_218_7464)"/>
<g style="mix-blend-mode:screen">
<path fill-rule="evenodd" clip-rule="evenodd" d="M12.3818 72.3414L47.8058 71.7573C47.5131 76.43 45.4638 82.2709 42.8289 85.7755C41.3651 87.8198 39.023 87.8198 36.6809 87.2357C28.1909 85.1914 19.9936 81.3948 13.2601 75.846C11.7963 74.6778 11.7963 73.5096 12.3818 72.3414Z" fill="url(#paint7_radial_218_7464)"/>
</g>
<g style="mix-blend-mode:screen" opacity="0.6">
<path fill-rule="evenodd" clip-rule="evenodd" d="M15.3092 73.51L41.0721 72.0498C40.7794 74.3862 39.3155 78.4748 37.2662 79.935C35.2169 81.3952 32.2893 81.1032 29.3617 80.5191C27.0196 80.2271 24.6775 79.643 22.3354 79.0589C19.1151 77.8907 14.4309 75.5543 15.3092 73.51Z" fill="url(#paint8_radial_218_7464)"/>
</g>
<path fill-rule="evenodd" clip-rule="evenodd" d="M52.7825 67.0849C53.0753 67.669 52.7825 67.9611 52.7825 68.5451C51.9042 72.6338 46.049 73.2179 41.6576 72.9258C34.6313 72.3417 29.6544 76.1383 22.6281 76.1383C16.7729 76.4304 7.11182 73.802 7.11182 67.9611C7.11182 67.0849 7.69734 66.5008 8.28286 65.9167C11.2105 63.5804 17.944 60.952 23.2137 59.4917C30.2399 57.7395 37.2662 56.8633 40.4865 56.8633C44.2924 56.5713 51.3187 63.5804 52.7825 67.0849Z" fill="url(#paint9_radial_218_7464)"/>
<path fill-rule="evenodd" clip-rule="evenodd" d="M42.2432 42.8448C43.707 44.8891 43.9998 46.3493 43.9998 47.5175C43.9998 48.1016 43.9998 48.9777 44.2926 49.2698C44.5853 49.5618 45.4636 48.9777 46.0491 48.6857C46.9274 47.8095 48.684 47.5175 51.026 47.8095C53.6609 48.1016 56.2957 47.8095 58.9306 47.8095C61.5654 47.8095 64.2003 47.2254 66.8351 46.3493C70.3483 45.1811 73.5686 42.8448 76.2035 40.2164L40.7794 39.9243C41.0722 41.0925 41.6577 41.9686 42.2432 42.8448Z" fill="url(#paint10_radial_218_7464)"/>
<g style="mix-blend-mode:screen" opacity="0.6">
<path fill-rule="evenodd" clip-rule="evenodd" d="M32.2893 58.0312C24.9703 59.1994 18.8223 60.6596 12.3816 64.1642C6.52637 67.3767 15.3092 68.8369 17.6513 69.129C25.2631 70.0051 23.5065 68.8369 28.7762 64.1642C29.6545 63.5801 30.5328 62.704 31.411 62.1199C34.3386 60.6596 38.1445 61.2437 41.3649 60.9517C42.2432 60.9517 46.0491 61.2437 44.5853 58.9074C42.5359 56.279 35.2169 57.7392 32.2893 58.0312Z" fill="url(#paint11_radial_218_7464)"/>
</g>
<g style="mix-blend-mode:screen" opacity="0.6">
<path fill-rule="evenodd" clip-rule="evenodd" d="M30.5329 58.9073C25.8488 59.4914 18.8225 61.2436 15.0166 63.58C11.5035 66.2084 16.1877 67.0845 18.5297 67.0845C23.2139 67.0845 23.2139 65.6243 26.4343 63.58C28.7764 61.8277 30.8257 61.2436 33.1678 59.7834C34.3388 59.1993 33.1678 58.9073 32.5823 58.6152C31.704 58.9073 31.1185 58.9073 30.5329 58.9073Z" fill="url(#paint12_radial_218_7464)"/>
</g>
<g style="mix-blend-mode:screen" opacity="0.5">
<path fill-rule="evenodd" clip-rule="evenodd" d="M28.7764 74.9702C29.9474 74.6781 31.1185 74.094 32.2895 73.802C35.2171 72.9259 36.3881 72.3418 39.6085 72.3418C41.0723 72.3418 43.1216 72.9259 43.4144 71.7577C43.7072 70.2975 41.0723 68.2531 38.7302 67.085C35.5099 65.3327 33.4605 65.0406 30.2402 67.6691C28.7764 68.8372 27.8981 70.2975 27.0198 71.4656C25.556 74.3861 24.9705 75.8463 28.7764 74.9702Z" fill="url(#paint13_radial_218_7464)"/>
</g>
<g style="mix-blend-mode:screen" opacity="0.3">
<path fill-rule="evenodd" clip-rule="evenodd" d="M32.2896 66.5007C30.8258 67.3769 29.6547 68.5451 28.7764 69.7132C25.8488 73.8019 30.2403 72.9257 33.1679 72.3416C34.6317 72.0496 36.0955 70.8814 36.0955 69.4212C36.3882 67.0848 34.6317 65.3326 32.2896 66.5007Z" fill="url(#paint14_radial_218_7464)"/>
</g>
<path opacity="0.5" fill-rule="evenodd" clip-rule="evenodd" d="M44.293 63.5802C43.1219 63.8723 42.2437 64.4564 41.6581 65.0405C39.6088 68.253 49.2699 73.5098 51.612 69.1291C51.9048 68.545 51.9048 67.6689 51.3192 66.7927C50.7337 65.9166 50.1482 65.0405 49.2699 64.4564C47.8061 62.9962 46.6351 62.9962 44.293 63.5802Z" fill="url(#paint15_radial_218_7464)"/>
<g style="mix-blend-mode:screen">
<path fill-rule="evenodd" clip-rule="evenodd" d="M41.951 40.8008L66.8356 41.969C63.3225 45.1815 58.9311 46.9337 52.4904 46.9337C50.441 46.9337 48.6845 46.9337 47.2207 46.0576C44.2931 44.8894 43.122 42.8451 41.951 40.8008Z" fill="url(#paint16_radial_218_7464)"/>
</g>
<path fill-rule="evenodd" clip-rule="evenodd" d="M59.8094 31.1631C68.0067 31.1631 76.7896 35.5438 76.7896 38.7563C76.7896 41.9688 68.5923 44.0131 58.6384 44.0131C48.3918 44.0131 40.4872 41.6767 40.4872 38.7563C40.1945 35.8358 51.3194 31.1631 59.8094 31.1631Z" fill="url(#paint17_radial_218_7464)"/>
<g style="mix-blend-mode:screen">
<path fill-rule="evenodd" clip-rule="evenodd" d="M60.394 31.7475C57.4664 31.4555 51.0257 32.6237 46.927 34.668C40.4863 37.5884 43.7067 39.6328 48.9764 40.2168C53.075 40.8009 66.2493 42.2612 67.4203 36.4203C68.0058 34.0839 62.7361 32.0396 60.394 31.7475Z" fill="url(#paint18_radial_218_7464)"/>
</g>
<g style="mix-blend-mode:screen">
<path fill-rule="evenodd" clip-rule="evenodd" d="M47.2206 34.9598C44.293 36.42 46.3423 37.2961 49.2699 37.5882C53.0758 38.1723 58.0527 38.7564 60.102 34.6677C60.3948 33.7916 60.3948 33.4995 60.102 32.9155C59.5165 32.3314 58.0527 32.0393 57.1744 32.3314C54.5396 32.3314 49.5627 33.4995 47.2206 34.9598Z" fill="url(#paint19_radial_218_7464)"/>
</g>
<path opacity="0.5" fill-rule="evenodd" clip-rule="evenodd" d="M72.1054 35.2516C75.3258 38.4641 72.691 40.8004 69.1778 41.9686C64.7864 43.4288 58.0529 44.0129 53.6615 44.0129C55.1253 44.0129 56.5891 44.305 58.3457 44.305C68.5923 44.305 76.4968 41.9686 76.4968 39.0481C76.4968 36.7118 70.6416 33.2072 63.9081 32.0391C66.8357 32.3311 70.3489 33.4993 72.1054 35.2516Z" fill="url(#paint20_radial_218_7464)"/>
<path fill-rule="evenodd" clip-rule="evenodd" d="M50.1477 47.8097C59.5161 49.854 68.8844 48.1017 74.7396 41.6768C65.3713 48.9779 50.1477 47.8097 50.1477 47.8097Z" fill="white"/>
<path fill-rule="evenodd" clip-rule="evenodd" d="M47.8061 56.2788C54.2468 63.2879 56.2962 72.3413 52.783 80.2265C55.1251 69.1288 47.8061 56.2788 47.8061 56.2788Z" fill="white"/>
<path opacity="0.75" fill-rule="evenodd" clip-rule="evenodd" d="M32.582 84.3158C33.1675 84.6078 33.4603 84.8999 33.1675 85.484C32.8747 85.776 32.582 86.0681 31.9965 85.776C31.4109 85.484 31.1182 84.8999 31.4109 84.6078C31.7037 84.3158 32.2892 84.0237 32.582 84.3158Z" fill="#F9B233"/>
<path opacity="0.75" fill-rule="evenodd" clip-rule="evenodd" d="M38.1448 63.2877C38.1448 63.5797 38.1448 63.8717 38.7304 63.8717C39.0231 63.8717 39.3159 63.8717 39.3159 63.5797C39.3159 63.2876 39.0231 62.9956 38.7304 62.9956C38.4376 62.9956 38.1448 62.9956 38.1448 63.2877Z" fill="#F9B233"/>
<path opacity="0.75" fill-rule="evenodd" clip-rule="evenodd" d="M38.1444 67.9608C38.4371 67.6688 39.0227 67.9608 39.3154 68.2529C39.6082 68.5449 39.9009 68.837 39.3154 69.129C39.0227 69.421 38.4371 69.129 38.1444 68.837C37.8516 68.5449 37.8516 68.2529 38.1444 67.9608Z" fill="#F9B233"/>
<path fill-rule="evenodd" clip-rule="evenodd" d="M37.2664 54.8187C37.5591 54.5267 38.1447 54.8187 38.4374 55.1108C38.7302 55.4028 39.023 55.6949 38.4374 55.9869C38.1447 56.279 37.5591 55.9869 37.2664 55.6949C36.9736 55.4028 36.9736 55.1108 37.2664 54.8187Z" fill="#F9B233"/>
<path fill-rule="evenodd" clip-rule="evenodd" d="M41.9502 51.6059C42.5357 51.3139 42.8285 51.3138 43.414 51.8979C43.7068 52.19 43.9995 52.7741 43.414 53.0661C42.8285 53.3582 42.243 53.0661 41.9502 52.7741C41.6575 52.19 41.6575 51.8979 41.9502 51.6059Z" fill="#C94300"/>
<path opacity="0.75" fill-rule="evenodd" clip-rule="evenodd" d="M24.9699 73.2179C24.6772 72.9258 24.6772 72.6338 24.9699 72.3417C25.2627 72.0497 25.5555 72.3417 25.8482 72.3417C26.141 72.6338 25.8482 72.9258 25.8482 73.2179C25.2627 73.5099 24.9699 73.5099 24.9699 73.2179Z" fill="#F9B233"/>
<path opacity="0.4" fill-rule="evenodd" clip-rule="evenodd" d="M20.2862 78.767C20.579 78.475 21.1645 78.1829 21.4573 78.475C22.0428 78.767 22.0428 79.3511 21.7501 79.9352C21.4573 80.2272 20.8718 80.2272 20.2862 80.2272C19.7007 79.9352 19.7007 79.0591 20.2862 78.767Z" fill="#F9B233"/>
<path opacity="0.75" fill-rule="evenodd" clip-rule="evenodd" d="M44.292 86.9437C44.8775 86.9437 45.1703 86.6516 45.1703 86.0675C45.1703 85.4834 44.8775 85.1914 44.292 85.1914C43.7065 85.1914 43.4137 85.4834 43.4137 86.0675C43.4137 86.6516 43.7065 86.6516 44.292 86.9437Z" fill="#F9B233"/>
<path opacity="0.4" fill-rule="evenodd" clip-rule="evenodd" d="M37.2665 87.2356C37.852 87.2356 38.1448 86.9436 38.1448 86.6515C38.1448 86.0674 37.852 85.7754 37.2665 85.7754C36.9738 85.7754 36.3882 86.0674 36.3882 86.6515C36.3882 86.9436 36.681 87.2356 37.2665 87.2356Z" fill="#F9B233"/>
<path opacity="0.75" fill-rule="evenodd" clip-rule="evenodd" d="M44.5854 82.5636C44.8781 82.8556 45.4636 82.8556 45.4636 82.2715C45.7564 81.9795 45.4636 81.3954 45.1709 81.3954C44.8781 81.1033 44.2926 81.3954 44.2926 81.6874C44.2926 81.9795 44.2926 82.5636 44.5854 82.5636Z" fill="#F9B233"/>
<path opacity="0.4" fill-rule="evenodd" clip-rule="evenodd" d="M28.1913 81.6867C28.4841 81.9787 29.0696 81.9787 29.3624 81.3946C29.6551 81.1026 29.3624 80.5185 29.0696 80.2264C28.7768 79.9344 28.1913 80.2264 27.8986 80.5185C27.8986 80.8105 27.8986 81.3946 28.1913 81.6867Z" fill="#F9B233"/>
<path opacity="0.75" fill-rule="evenodd" clip-rule="evenodd" d="M35.217 66.5012C35.8025 66.5012 36.0952 66.2092 36.0952 65.9172C36.0952 65.6251 35.8025 65.041 35.217 65.041C34.6314 65.041 34.3387 65.3331 34.3387 65.9172C34.3387 66.2092 34.6314 66.5012 35.217 66.5012Z" fill="#F9B233"/>
<path opacity="0.75" fill-rule="evenodd" clip-rule="evenodd" d="M40.1941 90.4485C40.4868 90.4485 41.0724 90.1565 41.0724 89.8644C41.0724 89.5724 40.7796 88.9883 40.1941 88.9883C39.9013 88.9883 39.3158 89.2803 39.3158 89.8644C39.6086 90.4485 39.9013 90.4485 40.1941 90.4485Z" fill="#F9B233"/>
<path opacity="0.75" fill-rule="evenodd" clip-rule="evenodd" d="M33.4603 79.3504C33.7528 79.0583 33.7528 79.0583 34.0452 79.3504C34.3377 79.6424 34.0452 79.9345 34.0452 79.9345C33.7528 79.9345 33.4603 79.9345 33.4603 79.9345C33.1679 79.9345 33.1679 79.6424 33.4603 79.3504Z" fill="#F9B233"/>
<path opacity="0.75" fill-rule="evenodd" clip-rule="evenodd" d="M36.3882 81.6871C36.3882 81.9792 36.3882 82.5633 36.681 82.5633C36.9738 82.5633 37.5593 82.5633 37.5593 81.9792C37.5593 81.6871 37.5593 81.103 36.9738 81.103C36.681 81.103 36.3882 81.3951 36.3882 81.6871Z" fill="#F9B233"/>
<path opacity="0.4" fill-rule="evenodd" clip-rule="evenodd" d="M39.3153 80.811C39.0225 81.3951 39.3153 81.6872 39.9008 81.9792C40.4863 82.2712 40.7791 81.9792 41.0719 81.3951C41.3646 81.1031 40.7791 80.519 40.4863 80.519C39.9008 80.2269 39.6081 80.2269 39.3153 80.811Z" fill="#F9B233"/>
<path opacity="0.75" fill-rule="evenodd" clip-rule="evenodd" d="M22.921 82.8554C23.2137 83.1475 23.5065 83.1475 23.7993 82.8554C24.092 82.5634 24.092 82.2713 23.7993 81.9793C23.5065 81.6872 23.2137 81.6872 22.921 81.9793C22.6282 82.2713 22.6282 82.5634 22.921 82.8554Z" fill="#F9B233"/>
<path opacity="0.75" fill-rule="evenodd" clip-rule="evenodd" d="M42.8284 77.89C42.2428 77.89 41.9501 77.3059 41.9501 76.7218C41.9501 76.1377 42.5356 75.8457 43.1211 75.8457C43.7066 75.8457 43.9994 76.4298 43.9994 77.0139C43.9994 77.89 43.4139 77.89 42.8284 77.89Z" fill="#F9B233"/>
<path opacity="0.75" fill-rule="evenodd" clip-rule="evenodd" d="M15.0163 77.5981C15.3091 77.8901 15.6018 77.8901 15.8946 77.5981C16.1874 77.3061 16.1874 77.014 15.8946 76.722C15.6018 76.4299 15.3091 76.4299 15.0163 76.722C14.7236 77.014 14.7236 77.3061 15.0163 77.5981Z" fill="#F9B233"/>
<path opacity="0.4" fill-rule="evenodd" clip-rule="evenodd" d="M31.9966 61.828C32.5822 62.12 32.8749 62.4121 32.5822 62.9962C32.2894 63.2882 31.9966 63.5803 31.4111 63.2882C30.8256 62.9962 30.5328 62.4121 30.8256 62.12C31.1184 61.828 31.4111 61.536 31.9966 61.828Z" fill="#F9B233"/>
<path opacity="0.75" fill-rule="evenodd" clip-rule="evenodd" d="M48.6841 73.8017C48.9768 73.5096 49.5624 73.2176 49.8551 73.5096C50.4406 73.8017 50.4406 74.3858 50.1479 74.9699C49.8551 75.2619 49.2696 75.2619 48.6841 75.2619C48.0986 74.9699 48.0986 74.0937 48.6841 73.8017Z" fill="#F9B233"/>
<path opacity="0.75" fill-rule="evenodd" clip-rule="evenodd" d="M29.0688 66.7925C29.6543 67.0845 29.9471 67.3766 29.6543 67.9607C29.3616 68.2527 29.0688 68.5448 28.4833 68.2527C27.8977 67.9607 27.605 67.3766 27.8977 67.0845C28.1905 66.7925 28.4833 66.7925 29.0688 66.7925Z" fill="#F9B233"/>
<path fill-rule="evenodd" clip-rule="evenodd" d="M44.0001 54.5267C44.5856 54.8187 44.8784 55.4028 44.8784 55.9869C44.5856 56.571 44.0001 56.571 43.4146 56.571C42.8291 56.2789 42.5363 55.6949 42.8291 55.1108C42.8291 54.5267 43.4146 54.2346 44.0001 54.5267Z" fill="#F99900"/>
<path opacity="0.75" fill-rule="evenodd" clip-rule="evenodd" d="M49.562 79.3504C49.8545 79.0583 49.8545 79.0583 50.1469 79.3504C50.4394 79.6424 50.1469 79.9345 50.1469 79.9345C49.8545 79.9345 49.562 79.9345 49.562 79.9345C49.2695 79.9345 49.2695 79.6424 49.562 79.3504Z" fill="#F9B233"/>
<path opacity="0.75" fill-rule="evenodd" clip-rule="evenodd" d="M36.6809 59.7836C36.6809 60.0757 36.6809 60.3677 37.2664 60.3677C37.5592 60.3677 37.852 60.3677 37.852 60.0757C37.852 59.7836 37.5592 59.4916 37.2664 59.4916C36.6809 59.1995 36.6809 59.4916 36.6809 59.7836Z" fill="#F9B233"/>
<path opacity="0.4" fill-rule="evenodd" clip-rule="evenodd" d="M41.6577 62.1202C41.6577 62.4122 41.6577 62.7043 42.2432 62.7043C42.536 62.7043 42.8288 62.7043 42.8288 62.4122C42.8288 62.1202 42.536 61.8281 42.2432 61.8281C41.9505 61.8281 41.9505 61.8281 41.6577 62.1202Z" fill="#F9B233"/>
<path fill-rule="evenodd" clip-rule="evenodd" d="M56.2958 37.0042C56.5885 37.0042 57.174 36.7121 57.174 36.4201C57.174 36.128 56.8813 35.5439 56.2958 35.5439C56.003 35.5439 55.4175 35.836 55.4175 36.128C55.4175 37.0042 55.7102 37.0042 56.2958 37.0042Z" fill="#FFC82C"/>
<path fill-rule="evenodd" clip-rule="evenodd" d="M57.4665 41.385C57.7593 41.093 58.0521 41.093 58.3448 41.385C58.6376 41.6771 58.3448 41.9691 58.3448 42.2612C58.0521 42.5532 57.7593 42.2612 57.4665 42.2612C57.1738 41.9691 57.4665 41.6771 57.4665 41.385Z" fill="#FFC82C"/>
<path fill-rule="evenodd" clip-rule="evenodd" d="M70.6411 36.1281C70.9338 36.1281 71.2266 35.8361 71.2266 35.5441C71.2266 35.252 71.2266 34.96 70.6411 34.96C70.3483 34.96 70.0555 35.252 70.0555 35.5441C70.0555 36.1281 70.3483 36.1281 70.6411 36.1281Z" fill="#FFC82C"/>
<path opacity="0.5" fill-rule="evenodd" clip-rule="evenodd" d="M49.8543 34.96C49.5615 34.668 49.2688 34.668 48.6833 34.668C48.3905 34.96 48.3905 35.5441 48.3905 35.8362C48.6833 36.1282 49.2688 36.1282 49.5615 35.8362C50.1471 35.5441 50.1471 35.2521 49.8543 34.96Z" fill="#FFC82C"/>
<path opacity="0.5" fill-rule="evenodd" clip-rule="evenodd" d="M41.3647 39.049C41.3647 39.6331 41.6575 40.2172 42.243 40.2172C42.8285 40.2172 43.1213 39.9251 43.4141 39.341C43.4141 38.7569 43.1213 38.1729 42.5358 38.1729C41.6575 38.1729 41.3647 38.4649 41.3647 39.049Z" fill="#FFC82C"/>
<path opacity="0.5" fill-rule="evenodd" clip-rule="evenodd" d="M46.0492 41.3844C46.0492 41.9685 46.342 41.9685 46.6347 41.9685C46.9275 41.9685 47.2202 41.9685 47.2202 41.3844C47.513 40.8003 46.9275 40.5083 46.6347 40.5083C46.342 40.8003 46.0492 40.8003 46.0492 41.3844Z" fill="#FFC82C"/>
<path opacity="0.5" fill-rule="evenodd" clip-rule="evenodd" d="M49.2694 44.3057C49.5622 44.3057 49.8549 44.3057 50.1477 44.3057C50.4405 44.3057 50.4405 44.8906 50.1477 44.8906C49.8549 44.8906 49.5622 44.8906 49.2694 44.5981V44.3057Z" fill="#FFC82C"/>
<path opacity="0.5" fill-rule="evenodd" clip-rule="evenodd" d="M50.1476 39.6332C50.4404 39.9253 50.7331 40.2173 50.4404 40.5094C50.1476 40.8014 49.8548 41.0935 49.2693 40.8014C48.9765 40.5094 48.6838 40.2173 48.9766 39.9253C49.5621 39.3412 49.8548 39.3412 50.1476 39.6332Z" fill="#FFC82C"/>
<path opacity="0.5" fill-rule="evenodd" clip-rule="evenodd" d="M55.7097 34.376C55.7097 34.668 55.1242 34.96 54.8314 34.96C54.5387 34.96 54.2459 34.376 54.5387 34.0839C54.5387 33.7919 55.1242 33.4998 55.417 33.7919C55.7097 33.4998 56.0025 34.0839 55.7097 34.376Z" fill="#FFC82C"/>
<path opacity="0.5" fill-rule="evenodd" clip-rule="evenodd" d="M52.782 37.5885C52.782 37.8805 52.4895 38.1726 52.4895 38.1726C52.1971 38.1726 51.9046 37.8805 51.9046 37.5885C51.9046 37.2964 52.1971 37.0044 52.4895 37.0044C52.782 37.0044 52.782 37.2964 52.782 37.5885Z" fill="#FFC82C"/>
<path opacity="0.5" fill-rule="evenodd" clip-rule="evenodd" d="M54.8322 40.8014C54.8322 40.5093 54.8321 40.5093 55.1246 40.2173C55.4171 40.2173 55.4171 40.5093 55.7095 40.8014C55.7095 41.0934 55.4171 41.3855 55.4171 41.3855C55.1246 41.0934 54.8322 41.0934 54.8322 40.8014Z" fill="#FFC82C"/>
<path opacity="0.5" fill-rule="evenodd" clip-rule="evenodd" d="M66.8351 36.4206C67.1279 35.8365 67.1279 35.5444 66.8351 35.2524C66.5424 34.9603 65.9569 34.9603 65.6641 35.5444C65.3713 36.1285 65.3713 36.4206 65.9569 36.7126C66.2496 36.7126 66.5424 37.0046 66.8351 36.4206Z" fill="#FFC82C"/>
<path opacity="0.8" fill-rule="evenodd" clip-rule="evenodd" d="M59.2237 36.7124C59.5164 37.0044 60.102 37.0044 60.3947 37.0044C60.6875 36.7124 60.6875 36.1283 60.6875 35.8362C60.3947 35.5442 59.8092 35.5442 59.5164 35.8362C58.9309 35.8362 58.9309 36.4203 59.2237 36.7124Z" fill="#FFC82C"/>
<path opacity="0.5" fill-rule="evenodd" clip-rule="evenodd" d="M58.3452 39.6322C58.6379 39.9243 58.9307 39.9243 59.2235 39.9243C59.5162 39.6322 59.5162 39.3402 59.2235 39.0481C58.9307 38.7561 58.6379 38.7561 58.3452 39.0481C58.0524 39.0481 58.0524 39.3402 58.3452 39.6322Z" fill="#FFC82C"/>
<path opacity="0.5" fill-rule="evenodd" clip-rule="evenodd" d="M62.736 46.0581C63.0288 46.3501 63.3215 46.3501 63.6143 46.0581C63.9071 45.766 64.1998 45.474 63.9071 45.1819C63.6143 44.8899 63.3215 44.8899 63.0288 45.1819C62.736 45.474 62.4433 45.766 62.736 46.0581Z" fill="#FFC82C"/>
<path opacity="0.5" fill-rule="evenodd" clip-rule="evenodd" d="M66.2498 41.6773C66.5426 41.3853 66.5426 40.8012 66.2498 40.8012C65.9571 40.5092 65.3715 40.5092 65.0788 41.0933C64.786 41.3853 64.786 41.9694 65.3715 42.2614C65.6643 42.2614 66.2498 41.9694 66.2498 41.6773Z" fill="#FFC82C"/>
<path opacity="0.8" fill-rule="evenodd" clip-rule="evenodd" d="M71.2264 39.9249C71.5192 39.6328 71.5192 39.0488 71.2264 38.7567C70.9337 38.4647 70.3481 38.7567 70.0554 39.0488C69.7626 39.3408 69.7626 39.9249 70.0554 40.2169C70.3481 40.509 70.9337 40.2169 71.2264 39.9249Z" fill="#FFC82C"/>
<path opacity="0.5" fill-rule="evenodd" clip-rule="evenodd" d="M74.1533 41.0923C74.4458 40.8003 74.1533 40.5082 74.1533 40.5082C73.8609 40.2162 73.5684 40.5082 73.5684 40.5082C73.2759 40.8003 73.5684 41.0923 73.5684 41.0923C73.5684 41.0923 73.8609 41.0923 74.1533 41.0923Z" fill="#FFC82C"/>
<path opacity="0.1" fill-rule="evenodd" clip-rule="evenodd" d="M40.1936 8.96729L81.4729 32.6229L78.838 37.0036C76.2032 41.6763 71.8118 44.8888 66.8348 46.6411C64.2 47.5172 61.5651 48.1013 58.6375 48.1013C56.0027 48.1013 53.3678 48.3934 50.733 48.1013C49.2692 48.1013 46.6343 48.1013 45.7561 49.5615C44.8778 51.0218 46.3416 53.3581 47.2199 54.5263C48.6837 56.5706 49.8547 58.907 51.0258 61.2433C52.1968 63.5797 53.3678 66.2081 53.6606 68.8365C54.5389 74.0933 53.9534 79.3501 51.3185 84.0229L48.3909 89.2797C47.5126 91.0319 45.7561 91.9081 43.7067 91.616C42.2429 91.616 41.0719 91.324 39.6081 90.7399C36.6805 89.8638 34.0456 88.9876 31.4108 87.8194C28.7759 87.2354 26.4339 86.0672 23.799 84.6069C21.4569 83.1467 19.1148 81.6865 16.7728 80.2263C14.4307 78.474 12.0886 76.7217 10.0393 74.6774C9.16097 73.8013 8.28269 72.6331 7.40441 71.4649C6.23336 69.7126 6.23336 67.9604 7.11165 66.2081L10.0393 60.9513C12.6741 56.2786 17.0655 53.0661 22.0424 51.3138C24.6773 50.4377 27.3121 49.8536 30.2397 49.8536C32.8746 49.8536 35.5094 49.5615 38.1443 49.8536C39.6081 49.8536 42.2429 49.8536 43.1212 48.3934C43.9995 46.9331 42.5357 44.5968 41.6574 43.4286C40.1936 41.3843 39.0226 39.0479 37.8515 36.7116C36.6805 34.3752 35.5094 31.7468 35.2167 29.1184C34.3384 23.8616 34.9239 18.6048 37.5588 13.9321L40.1936 8.96729Z" fill="white"/>
<path fill-rule="evenodd" clip-rule="evenodd" d="M39.6088 6.33984L84.1084 32.0398L80.5953 38.1728C77.6677 43.1375 72.9835 46.9341 67.421 48.6864C64.7862 49.5625 61.8586 50.1466 58.6382 50.1466C44.2929 50.7307 46.0495 47.5182 52.783 60.3682C54.2468 62.9966 55.1251 65.917 55.7106 68.5454C56.8816 74.0943 56.0034 79.9352 53.0758 85.192L49.5626 91.3249C47.5133 94.8295 35.8029 92.2011 23.5069 85.192C11.211 78.1829 3.01366 69.4216 5.06299 65.625L8.57612 59.492C11.5037 54.5273 16.1879 50.7307 21.7504 48.9784C24.3852 48.1023 27.3128 47.5182 30.5332 47.5182C44.8785 46.9341 43.1219 50.1466 36.3884 37.2966C34.9246 34.6682 34.0463 31.7478 33.4608 29.1194C32.2897 23.2785 32.8753 17.4376 36.0956 12.4728L39.6088 6.33984ZM40.487 9.84438L38.145 13.641C35.5101 18.3137 34.9246 23.2785 35.8029 28.5353C36.3884 31.1637 37.2667 33.7921 38.4377 36.1284C39.6088 38.4648 40.7798 40.8012 42.2436 42.8455C45.464 47.5182 44.0002 50.4386 38.145 49.8546C35.5101 49.5625 32.8753 49.8546 30.2404 49.8546C27.6056 49.8546 24.9707 50.4386 22.3359 51.3148C17.3589 53.067 13.2603 56.2795 10.6254 60.9523L7.69783 66.2091C6.81955 67.6693 6.81955 69.4216 7.99059 70.8818C8.86888 72.05 9.74716 72.9261 10.6254 73.8022C14.4313 77.5988 19.4083 81.1034 24.3852 84.0238C29.0694 86.6522 34.6318 89.2806 39.9015 90.7409C41.0726 91.0329 42.5364 91.3249 44.0002 91.617C45.7567 91.909 47.5133 91.0329 48.3916 89.2806L51.3192 84.0238C53.954 79.3511 54.5396 74.3863 53.6613 69.1295C53.0757 66.5011 52.1975 63.8727 51.0264 61.5364C49.8554 59.2 48.6843 56.8636 47.2205 54.8193C44.0002 50.1466 45.464 47.2261 51.3192 47.8102C53.954 48.1023 56.5889 47.8102 59.2237 47.8102C61.8586 47.8102 64.4934 47.2261 67.1283 46.35C72.1052 44.5977 76.2038 41.3852 78.8387 36.7125L81.1808 32.6239L40.487 9.84438Z" fill="url(#paint21_radial_218_7464)"/>
<g style="mix-blend-mode:screen" opacity="0.35">
<path fill-rule="evenodd" clip-rule="evenodd" d="M67.7134 30.8708C64.7858 35.8356 61.2727 40.2162 57.4668 43.1367C55.7102 44.5969 53.9536 45.7651 52.1971 46.6412C43.9998 50.7299 45.4636 47.5174 46.3419 56.8628C46.6346 58.9071 46.3419 60.9514 46.0491 63.2878C45.1708 67.9605 43.4143 73.2173 40.4866 78.1821C38.1446 82.2707 35.8025 86.3593 33.4604 90.1559C36.0952 91.3241 38.4373 91.9082 40.4866 92.4923C42.536 88.9877 44.5853 85.1912 46.6346 81.6866C49.5622 76.7219 51.026 71.173 50.7333 65.9162C50.7333 63.2878 50.1478 60.9514 49.5622 58.6151C45.7563 47.8094 43.9998 50.7299 55.4174 48.3935C57.7595 47.8094 60.1016 46.9333 62.4437 45.7651C66.8351 43.4287 71.2265 39.3401 74.1541 34.3753C75.3252 32.331 76.4962 30.2867 77.6673 28.2424L71.2265 24.4458C70.0555 26.7822 68.8844 28.8265 67.7134 30.8708Z" fill="url(#paint22_radial_218_7464)"/>
</g>
<g style="mix-blend-mode:screen">
<path fill-rule="evenodd" clip-rule="evenodd" d="M24.6775 69.1291C27.6051 64.1643 30.8254 59.4916 34.0458 56.2791C35.5096 54.5268 36.9734 53.3587 38.4372 52.1905C45.1707 47.2257 43.4142 50.1462 44.2924 41.9689C44.5852 40.2166 44.878 38.1723 45.4635 36.128C46.6345 31.7473 48.9766 26.7826 51.9042 21.8178C53.0753 19.7735 54.2463 17.7292 55.4173 15.6849L43.7069 8.67578C42.5359 10.7201 41.3648 12.7644 40.1938 14.8087C37.2662 19.7735 36.0951 25.6144 36.6807 30.8712C36.9734 33.4996 37.5589 36.128 38.4372 38.4644C43.4142 50.1462 44.878 46.9337 32.582 48.686C29.9472 48.978 27.3123 49.8541 24.9702 51.0223C19.9933 53.3587 15.8946 57.1553 12.967 62.12C10.9177 65.3325 9.16114 68.8371 7.11182 72.0496C9.4539 74.97 12.967 78.1825 17.944 81.687C19.9933 77.3064 22.3354 73.2177 24.6775 69.1291Z" fill="url(#paint23_radial_218_7464)"/>
</g>
<g style="mix-blend-mode:screen">
<path fill-rule="evenodd" clip-rule="evenodd" d="M30.2396 50.1465C25.8482 50.4385 20.5785 53.651 17.0654 57.4476C15.8943 58.9078 12.674 63.2885 12.3812 65.3328C12.0884 68.2533 18.5292 72.0499 19.4075 70.5896C22.3351 65.9169 24.6771 60.9521 30.5324 54.8192C31.4106 53.9431 32.5817 53.359 33.46 52.4828C34.631 51.3147 31.4106 50.1465 30.2396 50.1465Z" fill="url(#paint24_radial_218_7464)"/>
</g>
<g style="mix-blend-mode:screen">
<path fill-rule="evenodd" clip-rule="evenodd" d="M46.6347 19.4819C46.342 19.1899 42.8288 16.8535 42.5361 16.8535C42.2433 16.8535 41.9506 16.8535 41.365 17.4376C40.194 18.8978 39.0229 21.8183 38.7302 22.9865C37.5591 27.3671 37.8519 32.916 40.4868 36.4205C40.7795 36.7126 41.365 37.5887 41.9506 37.5887C42.2433 37.5887 42.2433 37.2967 42.2433 36.7126C41.9506 35.2523 41.9506 33.5001 42.2433 32.0399C42.8288 28.2433 44.2926 24.7387 46.342 21.5262C46.9275 20.3581 46.9275 19.774 46.6347 19.4819Z" fill="url(#paint25_radial_218_7464)"/>
</g>
<path fill-rule="evenodd" clip-rule="evenodd" d="M87.6215 28.5342L84.4011 33.791C82.0591 37.5876 70.0559 34.6671 57.1744 27.366C44.2929 20.0648 35.5101 10.7194 37.8522 6.92283L41.0726 1.66602C56.5889 10.4274 72.1052 19.4808 87.6215 28.5342Z" fill="url(#paint26_linear_218_7464)"/>
<g style="mix-blend-mode:multiply" opacity="0.5">
<path fill-rule="evenodd" clip-rule="evenodd" d="M38.4371 11.3035L41.6575 6.04669C40.4865 4.29442 40.4865 2.54215 41.072 1.66602L37.8516 6.92283C37.2661 8.09101 37.5589 9.55123 38.4371 11.3035Z" fill="url(#paint27_linear_218_7464)"/>
</g>
<g style="mix-blend-mode:screen">
<path fill-rule="evenodd" clip-rule="evenodd" d="M46.9275 12.4717L43.9999 17.7285C46.342 19.7728 49.2696 22.1092 52.49 24.4455L55.7104 19.1887C52.1972 16.8524 49.2696 14.516 46.9275 12.4717Z" fill="url(#paint28_linear_218_7464)"/>
</g>
<g style="mix-blend-mode:screen" opacity="0.5">
<path fill-rule="evenodd" clip-rule="evenodd" d="M70.6413 27.0747L67.421 32.3315C70.0558 33.4997 72.6907 34.3758 75.0327 34.6679L78.2531 29.4111C75.911 28.827 73.2762 27.9508 70.6413 27.0747Z" fill="url(#paint29_linear_218_7464)"/>
</g>
<g style="mix-blend-mode:multiply" opacity="0.5">
<path fill-rule="evenodd" clip-rule="evenodd" d="M81.7662 29.9949L78.5458 35.2517C81.4734 35.5437 83.5228 34.9597 84.4011 33.7915L87.6214 28.5347C86.7431 29.7028 84.6938 30.2869 81.7662 29.9949Z" fill="url(#paint30_linear_218_7464)"/>
</g>
<path fill-rule="evenodd" clip-rule="evenodd" d="M68.0063 8.38395C80.8878 15.6851 89.3779 24.7385 87.0358 28.5351C84.6937 32.3316 72.6905 29.4112 59.809 22.1101C46.9276 14.8089 38.4375 5.75554 40.7796 1.95896C43.1217 -1.83763 55.1249 1.08282 68.0063 8.38395Z" fill="#E26F80"/>
<path fill-rule="evenodd" clip-rule="evenodd" d="M68.2995 8.09147C81.1809 15.3926 89.9638 24.738 87.6217 28.5346C85.2796 32.3312 73.2764 29.4108 60.3949 22.1096C47.5134 14.8085 38.7306 5.46306 41.0727 1.66648C43.122 -2.13011 55.418 0.790342 68.2995 8.09147Z" fill="url(#paint31_radial_218_7464)"/>
<defs>
<linearGradient id="paint0_linear_218_7464" x1="-0.0164741" y1="72.2383" x2="46.5988" y2="99.2184" gradientUnits="userSpaceOnUse">
<stop offset="0.00743494" stop-color="#781916"/>
<stop offset="0.3086" stop-color="#963333"/>
<stop offset="1" stop-color="#450E0E"/>
</linearGradient>
<linearGradient id="paint1_linear_218_7464" x1="1.08566" y1="70.3341" x2="3.53911" y2="71.7541" gradientUnits="userSpaceOnUse">
<stop stop-color="#616DBE"/>
<stop offset="0.6029" stop-color="#C3C7E6"/>
<stop offset="1" stop-color="white"/>
</linearGradient>
<linearGradient id="paint2_linear_218_7464" x1="7.76281" y1="80.3017" x2="17.0859" y2="85.6977" gradientUnits="userSpaceOnUse">
<stop stop-color="#AB665D"/>
<stop offset="1" stop-color="#2B2321"/>
</linearGradient>
<linearGradient id="paint3_linear_218_7464" x1="32.1173" y1="93.518" x2="38.7768" y2="97.3724" gradientUnits="userSpaceOnUse">
<stop stop-color="#AB665D"/>
<stop offset="1" stop-color="#2B2321"/>
</linearGradient>
<linearGradient id="paint4_linear_218_7464" x1="43.996" y1="95.4436" x2="47.5821" y2="97.5192" gradientUnits="userSpaceOnUse">
<stop stop-color="white"/>
<stop offset="0.3971" stop-color="#C3C7E6"/>
<stop offset="1" stop-color="#616DBE"/>
</linearGradient>
<radialGradient id="paint5_radial_218_7464" cx="0" cy="0" r="1" gradientUnits="userSpaceOnUse" gradientTransform="translate(8.35529 93.7278) rotate(29.94) scale(36.8119 36.7667)">
<stop stop-color="#BF4444"/>
<stop offset="1" stop-color="#57172E"/>
</radialGradient>
<radialGradient id="paint6_radial_218_7464" cx="0" cy="0" r="1" gradientUnits="userSpaceOnUse" gradientTransform="translate(29.9116 71.1506) rotate(29.94) scale(31.5118 31.4732)">
<stop stop-color="#FFA536"/>
<stop offset="1" stop-color="#A11300"/>
</radialGradient>
<radialGradient id="paint7_radial_218_7464" cx="0" cy="0" r="1" gradientUnits="userSpaceOnUse" gradientTransform="translate(34.5401 61.9803) rotate(29.94) scale(28.759 28.7238)">
<stop stop-color="#E94E1B"/>
<stop offset="0.1158" stop-color="#E44C1A"/>
<stop offset="0.246" stop-color="#D74819"/>
<stop offset="0.3832" stop-color="#C04016"/>
<stop offset="0.5253" stop-color="#A13613"/>
<stop offset="0.6711" stop-color="#78280E"/>
<stop offset="0.8202" stop-color="#471808"/>
<stop offset="0.969" stop-color="#0D0401"/>
<stop offset="1"/>
</radialGradient>
<radialGradient id="paint8_radial_218_7464" cx="0" cy="0" r="1" gradientUnits="userSpaceOnUse" gradientTransform="translate(29.6835 56.7382) rotate(29.94) scale(26.5413 26.5088)">
<stop stop-color="#F39200"/>
<stop offset="0.1132" stop-color="#EE8F00"/>
<stop offset="0.2404" stop-color="#E18700"/>
<stop offset="0.3745" stop-color="#CA7A00"/>
<stop offset="0.5133" stop-color="#AB6700"/>
<stop offset="0.6559" stop-color="#824E00"/>
<stop offset="0.8016" stop-color="#503000"/>
<stop offset="0.947" stop-color="#170E00"/>
<stop offset="1"/>
</radialGradient>
<radialGradient id="paint9_radial_218_7464" cx="0" cy="0" r="1" gradientUnits="userSpaceOnUse" gradientTransform="translate(28.7392 58.0249) rotate(29.94) scale(33.1058 33.0652)">
<stop stop-color="#FFA536"/>
<stop offset="1" stop-color="#D14A00"/>
</radialGradient>
<radialGradient id="paint10_radial_218_7464" cx="0" cy="0" r="1" gradientUnits="userSpaceOnUse" gradientTransform="translate(54.5933 28.554) rotate(29.94) scale(24.4107 24.3808)">
<stop stop-color="#FFA536"/>
<stop offset="1" stop-color="#A11300"/>
</radialGradient>
<radialGradient id="paint11_radial_218_7464" cx="0" cy="0" r="1" gradientUnits="userSpaceOnUse" gradientTransform="translate(27.5715 50.7844) rotate(29.94) scale(28.0118 27.9774)">
<stop stop-color="#E94E1B"/>
<stop offset="0.1158" stop-color="#E44C1A"/>
<stop offset="0.246" stop-color="#D74819"/>
<stop offset="0.3832" stop-color="#C04016"/>
<stop offset="0.5253" stop-color="#A13613"/>
<stop offset="0.6711" stop-color="#78280E"/>
<stop offset="0.8202" stop-color="#471808"/>
<stop offset="0.969" stop-color="#0D0401"/>
<stop offset="1"/>
</radialGradient>
<radialGradient id="paint12_radial_218_7464" cx="0" cy="0" r="1" gradientUnits="userSpaceOnUse" gradientTransform="translate(25.1051 57.2279) rotate(29.94) scale(17.1967 17.1756)">
<stop stop-color="#F39200"/>
<stop offset="0.1132" stop-color="#EE8F00"/>
<stop offset="0.2404" stop-color="#E18700"/>
<stop offset="0.3745" stop-color="#CA7A00"/>
<stop offset="0.5133" stop-color="#AB6700"/>
<stop offset="0.6559" stop-color="#824E00"/>
<stop offset="0.8016" stop-color="#503000"/>
<stop offset="0.947" stop-color="#170E00"/>
<stop offset="1"/>
</radialGradient>
<radialGradient id="paint13_radial_218_7464" cx="0" cy="0" r="1" gradientUnits="userSpaceOnUse" gradientTransform="translate(34.6467 63.6631) rotate(29.94) scale(14.2107 14.1933)">
<stop stop-color="#E94E1B"/>
<stop offset="0.1158" stop-color="#E44C1A"/>
<stop offset="0.246" stop-color="#D74819"/>
<stop offset="0.3832" stop-color="#C04016"/>
<stop offset="0.5253" stop-color="#A13613"/>
<stop offset="0.6711" stop-color="#78280E"/>
<stop offset="0.8202" stop-color="#471808"/>
<stop offset="0.969" stop-color="#0D0401"/>
<stop offset="1"/>
</radialGradient>
<radialGradient id="paint14_radial_218_7464" cx="0" cy="0" r="1" gradientUnits="userSpaceOnUse" gradientTransform="translate(32.4139 65.9427) rotate(29.94) scale(8.62132 8.61076)">
<stop stop-color="#F39200"/>
<stop offset="0.1132" stop-color="#EE8F00"/>
<stop offset="0.2404" stop-color="#E18700"/>
<stop offset="0.3745" stop-color="#CA7A00"/>
<stop offset="0.5133" stop-color="#AB6700"/>
<stop offset="0.6559" stop-color="#824E00"/>
<stop offset="0.8016" stop-color="#503000"/>
<stop offset="0.947" stop-color="#170E00"/>
<stop offset="1"/>
</radialGradient>
<radialGradient id="paint15_radial_218_7464" cx="0" cy="0" r="1" gradientUnits="userSpaceOnUse" gradientTransform="translate(42.0758 73.417) rotate(29.94) scale(12.6384 12.6229)">
<stop stop-color="#CC3300"/>
<stop offset="1" stop-color="white"/>
</radialGradient>
<radialGradient id="paint16_radial_218_7464" cx="0" cy="0" r="1" gradientUnits="userSpaceOnUse" gradientTransform="translate(53.7479 31.9819) rotate(29.94) scale(18.0674 18.0453)">
<stop stop-color="#E94E1B"/>
<stop offset="0.1158" stop-color="#E44C1A"/>
<stop offset="0.246" stop-color="#D74819"/>
<stop offset="0.3832" stop-color="#C04016"/>
<stop offset="0.5253" stop-color="#A13613"/>
<stop offset="0.6711" stop-color="#78280E"/>
<stop offset="0.8202" stop-color="#471808"/>
<stop offset="0.969" stop-color="#0D0401"/>
<stop offset="1"/>
</radialGradient>
<radialGradient id="paint17_radial_218_7464" cx="0" cy="0" r="1" gradientUnits="userSpaceOnUse" gradientTransform="translate(57.0526 32.2657) rotate(29.94) scale(26.2747 26.2426)">
<stop stop-color="#FFA536"/>
<stop offset="1" stop-color="#D14A00"/>
</radialGradient>
<radialGradient id="paint18_radial_218_7464" cx="0" cy="0" r="1" gradientUnits="userSpaceOnUse" gradientTransform="translate(55.8227 24.2133) rotate(29.94) scale(19.5593 19.5353)">
<stop stop-color="#E94E1B"/>
<stop offset="0.1158" stop-color="#E44C1A"/>
<stop offset="0.246" stop-color="#D74819"/>
<stop offset="0.3832" stop-color="#C04016"/>
<stop offset="0.5253" stop-color="#A13613"/>
<stop offset="0.6711" stop-color="#78280E"/>
<stop offset="0.8202" stop-color="#471808"/>
<stop offset="0.969" stop-color="#0D0401"/>
<stop offset="1"/>
</radialGradient>
<radialGradient id="paint19_radial_218_7464" cx="0" cy="0" r="1" gradientUnits="userSpaceOnUse" gradientTransform="translate(52.7167 24.6419) rotate(29.94) scale(14.7525 14.7345)">
<stop stop-color="#F39200"/>
<stop offset="0.1132" stop-color="#EE8F00"/>
<stop offset="0.2404" stop-color="#E18700"/>
<stop offset="0.3745" stop-color="#CA7A00"/>
<stop offset="0.5133" stop-color="#AB6700"/>
<stop offset="0.6559" stop-color="#824E00"/>
<stop offset="0.8016" stop-color="#503000"/>
<stop offset="0.947" stop-color="#170E00"/>
<stop offset="1"/>
</radialGradient>
<radialGradient id="paint20_radial_218_7464" cx="0" cy="0" r="1" gradientUnits="userSpaceOnUse" gradientTransform="translate(63.6139 32.5152) rotate(29.94) scale(25.3122 25.2812)">
<stop stop-color="#CC3300"/>
<stop offset="1" stop-color="white"/>
</radialGradient>
<radialGradient id="paint21_radial_218_7464" cx="0" cy="0" r="1" gradientUnits="userSpaceOnUse" gradientTransform="translate(29.6405 12.9361) rotate(29.94) scale(101.518 101.393)">
<stop stop-color="#CCF0EF"/>
<stop offset="1" stop-color="#5E73E6"/>
</radialGradient>
<radialGradient id="paint22_radial_218_7464" cx="0" cy="0" r="1" gradientUnits="userSpaceOnUse" gradientTransform="translate(79.369 77.5043) rotate(29.94) scale(59.9718 59.8984)">
<stop offset="0.3699"/>
<stop offset="1" stop-color="white"/>
</radialGradient>
<radialGradient id="paint23_radial_218_7464" cx="0" cy="0" r="1" gradientUnits="userSpaceOnUse" gradientTransform="translate(45.8501 45.5573) rotate(29.94) scale(70.0569 69.9711)">
<stop/>
<stop offset="1" stop-color="white"/>
</radialGradient>
<radialGradient id="paint24_radial_218_7464" cx="0" cy="0" r="1" gradientUnits="userSpaceOnUse" gradientTransform="translate(31.9356 66.5365) rotate(29.94) scale(80.1391 80.0409)">
<stop/>
<stop offset="0.5651" stop-color="white"/>
</radialGradient>
<radialGradient id="paint25_radial_218_7464" cx="0" cy="0" r="1" gradientUnits="userSpaceOnUse" gradientTransform="translate(49.6922 31.6632) rotate(-21.2677) scale(28.2568 28.2059)">
<stop/>
<stop offset="1" stop-color="white"/>
</radialGradient>
<linearGradient id="paint26_linear_218_7464" x1="37.3354" y1="7.70085" x2="83.9506" y2="34.681" gradientUnits="userSpaceOnUse">
<stop offset="0.00743494" stop-color="#781916"/>
<stop offset="0.3086" stop-color="#963333"/>
<stop offset="1" stop-color="#450E0E"/>
</linearGradient>
<linearGradient id="paint27_linear_218_7464" x1="38.437" y1="5.79643" x2="40.8907" y2="7.21659" gradientUnits="userSpaceOnUse">
<stop stop-color="#616DBE"/>
<stop offset="0.6029" stop-color="#C3C7E6"/>
<stop offset="1" stop-color="white"/>
</linearGradient>
<linearGradient id="paint28_linear_218_7464" x1="45.1146" y1="15.7644" x2="54.4376" y2="21.1605" gradientUnits="userSpaceOnUse">
<stop stop-color="#AB665D"/>
<stop offset="1" stop-color="#2B2321"/>
</linearGradient>
<linearGradient id="paint29_linear_218_7464" x1="69.4694" y1="28.9817" x2="76.1289" y2="32.8361" gradientUnits="userSpaceOnUse">
<stop stop-color="#AB665D"/>
<stop offset="1" stop-color="#2B2321"/>
</linearGradient>
<linearGradient id="paint30_linear_218_7464" x1="81.3482" y1="30.9068" x2="84.934" y2="32.9822" gradientUnits="userSpaceOnUse">
<stop stop-color="white"/>
<stop offset="0.3971" stop-color="#C3C7E6"/>
<stop offset="1" stop-color="#616DBE"/>
</linearGradient>
<radialGradient id="paint31_radial_218_7464" cx="0" cy="0" r="1" gradientUnits="userSpaceOnUse" gradientTransform="translate(36.8949 19.1106) rotate(29.94) scale(64.8538 64.7743)">
<stop stop-color="#BF4444"/>
<stop offset="1" stop-color="#57172E"/>
</radialGradient>
</defs>
</svg>
