<svg width="21" height="36" viewBox="0 0 21 36" fill="none" xmlns="http://www.w3.org/2000/svg">
<path fill-rule="evenodd" clip-rule="evenodd" d="M0.711614 0.86475C1.72195 -0.220901 3.43449 -0.294242 4.53668 0.700938C7.25527 3.15559 11.3049 6.87607 14.6151 10.0582C16.2647 11.644 17.7614 13.1254 18.8225 14.2595C19.3429 14.8157 19.8149 15.3479 20.1527 15.7939C20.3075 15.9982 20.5253 16.302 20.6917 16.6459C20.7682 16.8039 20.92 17.1415 20.9776 17.5821C21.0328 18.0042 21.0538 19.0334 20.1885 19.8856L4.62164 35.219C3.56438 36.2603 1.85022 36.2603 0.792961 35.219C-0.264299 34.1776 -0.264299 32.4891 0.792961 31.4477L14.7124 17.7371C13.756 16.724 12.395 15.3764 10.8334 13.8751C7.57846 10.7462 3.57389 7.06666 0.877921 4.63242C-0.224265 3.63725 -0.298723 1.9504 0.711614 0.86475Z" fill="white"/>
</svg>
